# Blender 5.0.1
# www.blender.org
mtllib arm.mtl
o Body.028
v -0.480312 2.508553 -0.201085
v -0.480812 2.479457 -0.197220
v -0.509274 2.515914 -0.179190
v -0.446533 2.500298 -0.206871
v -0.410461 2.490929 -0.197426
v -0.451148 2.473440 -0.209545
v -0.418656 2.464780 -0.199829
v -0.457965 2.457082 -0.216619
v -0.465269 2.438555 -0.209896
v -0.482698 2.460262 -0.200469
v -0.428203 2.446558 -0.204367
v -0.456042 2.407035 -0.206426
v -0.395750 2.433060 -0.175528
v -0.406061 2.389371 -0.188980
v -0.367490 2.422686 -0.136974
v -0.389114 2.455687 -0.170896
v -0.379291 2.482879 -0.174800
v -0.364916 2.451183 -0.131018
v -0.369115 2.448391 -0.083784
v -0.359426 2.481680 -0.132839
v -0.371237 2.485063 -0.083783
v -0.519211 2.487801 -0.034056
v -0.480093 2.484029 -0.024059
v -0.439232 2.481358 -0.028781
v -0.485451 2.451797 -0.023817
v -0.442985 2.446912 -0.034851
v -0.528967 2.457097 -0.033144
v -0.490395 2.420170 -0.023338
v -0.448443 2.414817 -0.036555
v -0.502645 2.382365 -0.020998
v -0.536693 2.429369 -0.032396
v -0.547243 2.390804 -0.034251
v -0.562021 2.445017 -0.069169
v -0.558493 2.452521 -0.113700
v -0.569757 2.400932 -0.074535
v -0.556491 2.472039 -0.068282
v -0.557465 2.482074 -0.113080
v -0.550500 2.505265 -0.065324
v -0.554445 2.512678 -0.113668
v -0.533708 2.514383 -0.149990
v -0.533355 2.482937 -0.147343
v -0.503581 2.483222 -0.172397
v -0.531604 2.453490 -0.147548
v -0.535373 2.408900 -0.157624
v -0.500914 2.456750 -0.175937
v -0.502105 2.413704 -0.200810
v -0.482596 2.440746 -0.205733
v -0.514266 2.346592 -0.199999
v -0.469989 2.339938 -0.208420
v -0.546487 2.343918 -0.167634
v -0.526239 2.271873 -0.194715
v -0.487150 2.266170 -0.206486
v -0.557939 2.270947 -0.166983
v -0.539516 2.195794 -0.186655
v -0.505044 2.191468 -0.199680
v -0.569304 2.194875 -0.161558
v -0.551072 2.124117 -0.178881
v -0.522167 2.120937 -0.191785
v -0.577726 2.121188 -0.157593
v -0.562640 2.062853 -0.177064
v -0.536013 2.059996 -0.187911
v -0.585503 2.059736 -0.156503
v -0.569146 2.015665 -0.180106
v -0.542833 2.012686 -0.187012
v -0.591148 2.012801 -0.159985
v -0.573685 1.980174 -0.180919
v -0.597853 1.977217 -0.162311
v -0.582223 1.950689 -0.183579
v -0.546025 1.979025 -0.183176
v -0.550047 1.952191 -0.183559
v -0.519552 1.973177 -0.173969
v -0.523049 1.949445 -0.169877
v -0.503669 1.966235 -0.142716
v -0.514921 2.003242 -0.180328
v -0.498501 1.994770 -0.148049
v -0.507515 2.049690 -0.184708
v -0.487453 2.039357 -0.154859
v -0.491136 2.111801 -0.188078
v -0.468929 2.100547 -0.157439
v -0.469662 2.180063 -0.192065
v -0.446767 2.168663 -0.157115
v -0.447683 2.252778 -0.198398
v -0.424310 2.239047 -0.158286
v -0.424969 2.323054 -0.198676
v -0.401463 2.307529 -0.155129
v -0.379403 2.370997 -0.147081
v -0.406639 2.301983 -0.104027
v -0.389687 2.369796 -0.095536
v -0.426846 2.232958 -0.107438
v -0.433282 2.302219 -0.062915
v -0.451705 2.233071 -0.065493
v -0.421307 2.370572 -0.061559
v -0.472210 2.307337 -0.035365
v -0.516633 2.314596 -0.024925
v -0.458736 2.375418 -0.035274
v -0.488676 2.237161 -0.038320
v -0.528273 2.243938 -0.035801
v -0.507046 2.166305 -0.044265
v -0.539782 2.171688 -0.049752
v -0.473577 2.162773 -0.069279
v -0.522344 2.098569 -0.048059
v -0.531765 2.037306 -0.052069
v -0.489614 2.094601 -0.072174
v -0.555098 2.101848 -0.053992
v -0.561810 2.039547 -0.055140
v -0.573005 2.103926 -0.073433
v -0.578682 2.041487 -0.073593
v -0.583851 2.108566 -0.095193
v -0.562462 2.176591 -0.066384
v -0.560144 2.251400 -0.053700
v -0.576758 2.182594 -0.090477
v -0.582336 2.189695 -0.123830
v -0.577540 2.258759 -0.086376
v -0.574792 2.265737 -0.126663
v -0.572079 2.331324 -0.084067
v -0.567297 2.337468 -0.127506
v -0.554919 2.323677 -0.044693
v -0.562355 2.404227 -0.119851
v -0.589537 2.115635 -0.124759
v -0.593710 2.053392 -0.124632
v -0.595015 2.005493 -0.125891
v -0.587460 2.046045 -0.095957
v -0.589657 1.997350 -0.093728
v -0.579978 1.990990 -0.068312
v -0.592919 1.960881 -0.090096
v -0.580412 1.955178 -0.063060
v -0.595015 1.934639 -0.087302
v -0.598924 1.969047 -0.125460
v -0.602193 1.942430 -0.124495
v -0.603810 1.949799 -0.162055
v -0.601433 1.917214 -0.122317
v -0.596707 1.910360 -0.082288
v -0.604340 1.924466 -0.160318
v -0.582811 1.928164 -0.183451
v -0.551195 1.929756 -0.186022
v -0.524575 1.926119 -0.168857
v -0.512119 1.920739 -0.135377
v -0.509848 1.914979 -0.099994
v -0.508566 1.944733 -0.139503
v -0.506951 1.938961 -0.103280
v -0.505359 1.959043 -0.103519
v -0.517382 1.934574 -0.071828
v -0.517969 1.955564 -0.072632
v -0.535282 1.931055 -0.047212
v -0.517871 1.911161 -0.069839
v -0.533608 1.908707 -0.045755
v -0.559021 1.905466 -0.039017
v -0.581658 1.905887 -0.052034
v -0.562179 1.928668 -0.042370
v -0.582769 1.929513 -0.057674
v -0.560524 1.953395 -0.048192
v -0.535398 1.954063 -0.048965
v -0.560218 1.987552 -0.055003
v -0.535561 1.986679 -0.053653
v -0.514822 1.985874 -0.074062
v -0.503437 2.033752 -0.074328
v -0.500134 1.986640 -0.105862
v -0.487947 2.032334 -0.111997
v -0.469308 2.094034 -0.112570
v -0.449618 2.162569 -0.109230
v -0.409406 2.419048 -0.057318
v -0.377373 2.421805 -0.086592
v -0.401707 2.446902 -0.053701
v -0.400639 2.493881 -0.049616
vn 0.0182 0.7303 -0.6829
vn 0.0309 0.1079 -0.9937
vn -0.5602 0.0205 -0.8281
vn -0.2308 0.6775 -0.6984
vn -0.6947 -0.0869 -0.7140
vn -0.3666 0.6820 -0.6328
vn 0.5072 -0.0669 -0.8593
vn 0.4762 0.6281 -0.6154
vn 0.0037 0.0558 -0.9984
vn -0.6382 0.2261 -0.7360
vn 0.4499 -0.0542 -0.8914
vn -0.0483 -0.1252 -0.9910
vn 0.1478 -0.0133 -0.9889
vn -0.4922 0.1079 -0.8638
vn 0.6166 -0.0718 -0.7840
vn 0.7072 -0.0550 -0.7048
vn 0.7613 -0.1597 -0.6284
vn 0.9502 -0.2207 -0.2201
vn 0.9683 -0.1626 -0.1898
vn 0.9760 -0.1529 -0.1552
vn 0.7888 0.4973 -0.3612
vn 0.9202 0.3861 -0.0648
vn 0.8795 -0.1329 0.4570
vn 0.8639 -0.2627 0.4297
vn 0.7431 0.5290 0.4099
vn 0.0117 -0.0109 0.9999
vn 0.3488 -0.1238 0.9290
vn 0.3634 0.4610 0.8096
vn 0.1741 0.5955 0.7842
vn -0.2539 0.6877 0.6802
vn -0.4946 0.1230 0.8604
vn 0.3998 -0.1130 0.9096
vn 0.0517 0.0060 0.9986
vn -0.5399 0.1167 0.8336
vn -0.0296 -0.0317 0.9991
vn 0.4167 -0.0995 0.9036
vn -0.6473 0.0294 0.7617
vn -0.9782 0.0802 0.1917
vn -0.9504 0.1512 0.2719
vn -0.9133 0.1541 0.3769
vn -0.9642 0.0741 -0.2545
vn -0.9343 0.1217 -0.3352
vn -0.9327 0.1361 -0.3339
vn -0.5814 0.7424 0.3331
vn -0.7511 0.6400 -0.1623
vn -0.7629 -0.0398 -0.6453
vn -0.4186 0.7126 -0.5630
vn -0.7609 0.1498 -0.6314
vn -0.7280 0.2029 -0.6548
vn -0.7853 0.1977 -0.5867
vn -0.5260 0.1462 -0.8378
vn 0.0352 -0.0021 -0.9994
vn -0.4862 0.0812 -0.8701
vn -0.8011 0.1360 -0.5829
vn -0.0475 -0.0558 -0.9973
vn -0.4869 0.0246 -0.8731
vn -0.8121 0.0842 -0.5774
vn -0.0999 -0.0793 -0.9918
vn -0.5100 0.0046 -0.8601
vn -0.8249 0.0672 -0.5612
vn -0.1386 -0.0543 -0.9889
vn -0.5248 0.0261 -0.8508
vn -0.8359 0.0771 -0.5435
vn -0.1273 -0.0161 -0.9917
vn -0.5264 0.0798 -0.8465
vn -0.8660 0.1015 -0.4897
vn -0.0387 -0.0436 -0.9983
vn -0.4832 0.0876 -0.8711
vn -0.8940 0.1288 -0.4291
vn -0.3998 0.0956 -0.9116
vn 0.0897 -0.0728 -0.9933
vn -0.9099 0.1761 -0.3757
vn -0.9414 0.1066 -0.3200
vn -0.4165 0.0917 -0.9045
vn 0.1906 0.0014 -0.9817
vn 0.6336 -0.2118 -0.7441
vn 0.7090 -0.1386 -0.6915
vn 0.5754 -0.1998 -0.7931
vn 0.9501 -0.2091 -0.2315
vn 0.9542 -0.1698 -0.2463
vn 0.9372 -0.2419 -0.2512
vn 0.9143 -0.2702 -0.3018
vn 0.5122 -0.1800 -0.8398
vn 0.9058 -0.2864 -0.3121
vn 0.4944 -0.1975 -0.8465
vn 0.9100 -0.2980 -0.2882
vn 0.5166 -0.2163 -0.8284
vn 0.9145 -0.2965 -0.2754
vn 0.5315 -0.1962 -0.8240
vn 0.9287 -0.2729 -0.2512
vn 0.5613 -0.1298 -0.8174
vn 0.8823 -0.2644 0.3893
vn 0.9086 -0.2754 0.3139
vn 0.9186 -0.2941 0.2638
vn 0.6963 -0.1917 0.6917
vn 0.6530 -0.1825 0.7350
vn 0.7126 -0.2361 0.6606
vn 0.3933 -0.1261 0.9107
vn 0.3351 -0.1686 0.9270
vn -0.2356 -0.1074 0.9659
vn -0.1196 -0.0806 0.9896
vn -0.3539 -0.0558 0.9336
vn 0.2767 -0.1514 0.9489
vn 0.7239 -0.2356 0.6485
vn -0.4301 0.0195 0.9026
vn 0.2570 -0.1050 0.9607
vn 0.7501 -0.2100 0.6270
vn -0.4152 0.0165 0.9096
vn 0.2918 -0.0874 0.9525
vn 0.7802 -0.1873 0.5968
vn -0.8021 0.0645 0.5937
vn -0.8259 0.0597 0.5607
vn -0.7529 -0.0123 0.6580
vn -0.9440 0.0703 0.3224
vn -0.9542 0.0551 0.2940
vn -0.9535 0.0349 0.2994
vn -0.7287 -0.0434 0.6834
vn -0.9745 0.0352 0.2218
vn -0.9890 0.0809 -0.1241
vn -0.9942 0.0873 -0.0632
vn -0.9735 0.0902 -0.2102
vn -0.9504 0.1127 -0.2899
vn -0.9845 0.0504 0.1683
vn -0.7062 -0.0177 0.7078
vn -0.9975 0.0703 -0.0122
vn -0.9949 0.0910 0.0444
vn -0.9565 0.0751 0.2818
vn -0.7979 0.0808 0.5974
vn -0.9860 0.1346 0.0987
vn -0.9483 0.1123 0.2968
vn -0.7729 0.1520 0.6161
vn -0.9532 0.0965 0.2865
vn -0.7787 0.1482 0.6097
vn -0.9900 0.0794 0.1169
vn -0.7368 -0.6653 0.1205
vn -0.7127 -0.7009 -0.0286
vn -0.7402 -0.6132 -0.2758
vn -0.3187 -0.5611 -0.7640
vn 0.1816 -0.5609 -0.8077
vn 0.5338 -0.6495 -0.5414
vn 0.6664 -0.7058 -0.2401
vn 0.9891 -0.0958 0.1119
vn 0.7273 -0.6863 -0.0027
vn 0.9750 -0.1251 0.1836
vn 0.8610 -0.0143 0.5085
vn 0.8961 0.0114 0.4438
vn 0.7024 -0.6792 0.2127
vn 0.5254 0.1058 0.8443
vn 0.4538 0.1089 0.8845
vn 0.4986 -0.6285 0.5970
vn -0.2377 0.1618 0.9578
vn -0.1289 -0.6527 0.7466
vn -0.5865 -0.6841 0.4336
vn -0.2766 0.1819 0.9436
vn -0.3355 0.0739 0.9391
vn 0.3683 -0.0048 0.9297
vn 0.8148 -0.1176 0.5677
vn 0.9593 -0.1995 0.1997
vn 0.9491 -0.2554 0.1843
vn 0.9379 -0.2746 0.2119
vn 0.9237 -0.2909 0.2494
vn 0.5916 -0.2192 0.7758
vn 0.5836 -0.1458 0.7988
vn 0.5476 0.5029 0.6687
vt 0.719680 0.552410
vt 0.727880 0.554420
vt 0.726320 0.565670
vt 0.718160 0.564800
vt 0.725810 0.577900
vt 0.717940 0.578150
vt 0.730200 0.544480
vt 0.722140 0.541290
vt 0.734150 0.556180
vt 0.733260 0.565180
vt 0.736370 0.547310
vt 0.739870 0.557650
vt 0.745670 0.554050
vt 0.739620 0.563260
vt 0.748490 0.537110
vt 0.740200 0.534640
vt 0.733460 0.533110
vt 0.752190 0.521120
vt 0.744140 0.520290
vt 0.737640 0.519770
vt 0.724920 0.530960
vt 0.728920 0.518460
vt 0.745450 0.687270
vt 0.738620 0.688190
vt 0.737420 0.674170
vt 0.744620 0.673170
vt 0.729020 0.687130
vt 0.728690 0.674080
vt 0.736820 0.640810
vt 0.737010 0.650940
vt 0.730540 0.648800
vt 0.730850 0.639690
vt 0.728370 0.630200
vt 0.735350 0.629200
vt 0.744510 0.651300
vt 0.743570 0.640850
vt 0.742470 0.629140
vt 0.753740 0.640480
vt 0.754410 0.651650
vt 0.752540 0.628990
vt 0.750060 0.617090
vt 0.740410 0.618400
vt 0.731890 0.618560
vt 0.729010 0.605380
vt 0.738000 0.605320
vt 0.748010 0.603710
vt 0.721450 0.618970
vt 0.720260 0.605240
vt 0.726690 0.591790
vt 0.718820 0.592190
vt 0.735440 0.590890
vt 0.734000 0.575730
vt 0.745660 0.588340
vt 0.744980 0.568610
vt 0.756760 0.554390
vt 0.756420 0.569800
vt 0.757740 0.586260
vt 0.769660 0.553840
vt 0.769550 0.569070
vt 0.770940 0.585220
vt 0.783610 0.552430
vt 0.784190 0.568090
vt 0.786000 0.585330
vt 0.797510 0.551500
vt 0.799120 0.567560
vt 0.802120 0.585650
vt 0.810780 0.551790
vt 0.813670 0.568690
vt 0.817530 0.587080
vt 0.823060 0.552210
vt 0.827010 0.569310
vt 0.831400 0.587920
vt 0.838500 0.569190
vt 0.833530 0.552480
vt 0.843120 0.587900
vt 0.851470 0.588520
vt 0.847930 0.570820
vt 0.842930 0.554370
vt 0.828660 0.537410
vt 0.836740 0.538430
vt 0.819870 0.536810
vt 0.823870 0.522830
vt 0.828800 0.521580
vt 0.816910 0.521710
vt 0.806520 0.520270
vt 0.808890 0.536440
vt 0.795690 0.520530
vt 0.796670 0.536300
vt 0.785770 0.521020
vt 0.784450 0.537040
vt 0.775080 0.520900
vt 0.771760 0.538190
vt 0.763620 0.521370
vt 0.759560 0.538360
vt 0.753860 0.687510
vt 0.754270 0.673540
vt 0.767010 0.674240
vt 0.766460 0.688280
vt 0.780840 0.673920
vt 0.781700 0.687130
vt 0.767090 0.662810
vt 0.754740 0.662350
vt 0.780220 0.662410
vt 0.766610 0.651600
vt 0.779490 0.650980
vt 0.778570 0.639340
vt 0.765700 0.639810
vt 0.793640 0.639370
vt 0.794290 0.650150
vt 0.794960 0.661470
vt 0.809480 0.640670
vt 0.809670 0.650730
vt 0.809980 0.661450
vt 0.824280 0.642450
vt 0.824100 0.651850
vt 0.823980 0.661730
vt 0.808970 0.630200
vt 0.824020 0.632340
vt 0.792590 0.628370
vt 0.807570 0.618560
vt 0.823020 0.620590
vt 0.790850 0.616880
vt 0.777250 0.627680
vt 0.775450 0.615570
vt 0.788460 0.602610
vt 0.805100 0.603690
vt 0.773160 0.601430
vt 0.760130 0.601600
vt 0.762320 0.615460
vt 0.764300 0.627920
vt 0.820790 0.605390
vt 0.834620 0.606650
vt 0.836440 0.622230
vt 0.837190 0.634300
vt 0.845980 0.606490
vt 0.847090 0.622260
vt 0.847260 0.634810
vt 0.854120 0.621050
vt 0.853870 0.634280
vt 0.853410 0.605580
vt 0.859930 0.620650
vt 0.859610 0.605180
vt 0.858030 0.588910
vt 0.854650 0.572060
vt 0.850190 0.556050
vt 0.844860 0.540240
vt 0.838220 0.524990
vt 0.823850 0.514840
vt 0.832430 0.514770
vt 0.852820 0.677150
vt 0.851740 0.687100
vt 0.844190 0.685050
vt 0.845070 0.674340
vt 0.845140 0.664220
vt 0.850920 0.666390
vt 0.821110 0.509580
vt 0.827510 0.507750
vt 0.851390 0.655950
vt 0.845680 0.654810
vt 0.853300 0.666080
vt 0.855820 0.656720
vt 0.852710 0.645570
vt 0.857630 0.646230
vt 0.859050 0.634540
vt 0.846590 0.645390
vt 0.837130 0.644330
vt 0.836600 0.653210
vt 0.836130 0.662330
vt 0.836120 0.672530
vt 0.824510 0.672690
vt 0.836510 0.683970
vt 0.825690 0.685010
vt 0.810680 0.673010
vt 0.811900 0.685690
vt 0.795780 0.673150
vt 0.797070 0.685820
vt 0.744760 0.662110
vt 0.736980 0.662060
vt 0.726540 0.659560
s 1
usemtl Bodymat
f 4/1/1 6/2/2 2/3/3 1/4/4
f 1/4/4 2/3/3 42/5/5 3/6/6
f 7/7/7 6/2/2 4/1/1 5/8/8
f 6/2/2 8/9/9 10/10/10 2/3/3
f 8/9/9 6/2/2 7/7/7 11/11/11
f 9/12/12 8/9/9 11/11/11 12/13/13
f 8/9/9 9/12/12 47/14/14 10/10/10
f 14/15/15 12/13/13 11/11/11 13/16/16
f 11/11/11 7/7/7 16/17/17 13/16/16
f 86/18/18 14/15/15 13/16/16 15/19/19
f 13/16/16 16/17/17 18/20/20 15/19/19
f 18/20/20 16/17/17 17/21/21 20/22/22
f 5/8/8 17/21/21 16/17/17 7/7/7
f 15/23/19 18/24/20 19/25/23 162/26/24
f 19/25/23 18/24/20 20/27/22 21/28/25
f 25/29/26 26/30/27 24/31/28 23/32/29
f 23/32/29 22/33/30 27/34/31 25/29/26
f 29/35/32 26/30/27 25/29/26 28/36/33
f 25/29/26 27/34/31 31/37/34 28/36/33
f 30/38/35 95/39/36 29/35/32 28/36/33
f 28/36/33 31/37/34 32/40/37 30/38/35
f 35/41/38 32/40/37 31/37/34 33/42/39
f 31/37/34 27/34/31 36/43/40 33/42/39
f 36/43/40 37/44/41 34/45/42 33/42/39
f 33/42/39 34/45/42 118/46/43 35/41/38
f 37/44/41 36/43/40 38/47/44 39/48/45
f 36/43/40 27/34/31 22/33/30 38/47/44
f 41/49/46 40/50/47 3/6/6 42/5/5
f 41/49/46 37/44/41 39/48/45 40/50/47
f 43/51/48 34/45/42 37/44/41 41/49/46
f 43/51/48 41/49/46 42/5/5 45/52/49
f 44/53/50 118/46/43 34/45/42 43/51/48
f 46/54/51 44/53/50 43/51/48 45/52/49
f 10/10/10 47/14/14 46/54/51 45/52/49
f 2/3/3 10/10/10 45/52/49 42/5/5
f 12/13/13 49/55/52 48/56/53 46/54/51
f 9/12/12 12/13/13 46/54/51 47/14/14
f 48/56/53 50/57/54 44/53/50 46/54/51
f 49/55/52 52/58/55 51/59/56 48/56/53
f 48/56/53 51/59/56 53/60/57 50/57/54
f 52/58/55 55/61/58 54/62/59 51/59/56
f 51/59/56 54/62/59 56/63/60 53/60/57
f 55/61/58 58/64/61 57/65/62 54/62/59
f 54/62/59 57/65/62 59/66/63 56/63/60
f 58/64/61 61/67/64 60/68/65 57/65/62
f 57/65/62 60/68/65 62/69/66 59/66/63
f 61/67/64 64/70/67 63/71/68 60/68/65
f 60/68/65 63/71/68 65/72/69 62/69/66
f 66/73/70 63/71/68 64/70/67 69/74/71
f 67/75/72 65/72/69 63/71/68 66/73/70
f 130/76/73 67/75/72 66/73/70 68/77/74
f 68/77/74 66/73/70 69/74/71 70/78/75
f 70/78/75 69/74/71 71/79/76 72/80/77
f 69/74/71 64/70/67 74/81/78 71/79/76
f 72/80/77 71/79/76 73/82/79 139/83/80
f 71/79/76 74/81/78 75/84/81 73/82/79
f 77/85/82 75/84/81 74/81/78 76/86/83
f 76/86/83 74/81/78 64/70/67 61/67/64
f 79/87/84 77/85/82 76/86/83 78/88/85
f 78/88/85 76/86/83 61/67/64 58/64/61
f 81/89/86 79/87/84 78/88/85 80/90/87
f 80/90/87 78/88/85 58/64/61 55/61/58
f 83/91/88 81/89/86 80/90/87 82/92/89
f 82/92/89 80/90/87 55/61/58 52/58/55
f 85/93/90 83/91/88 82/92/89 84/94/91
f 84/94/91 82/92/89 52/58/55 49/55/52
f 84/94/91 49/55/52 12/13/13 14/15/15
f 84/94/91 14/15/15 86/18/18 85/93/90
f 86/95/18 88/96/92 87/97/93 85/98/90
f 87/97/93 89/99/94 83/100/88 85/98/90
f 90/101/95 87/97/93 88/96/92 92/102/96
f 90/101/95 91/103/97 89/99/94 87/97/93
f 93/104/98 96/105/99 91/103/97 90/101/95
f 95/39/36 93/104/98 90/101/95 92/102/96
f 97/106/100 96/105/99 93/104/98 94/107/101
f 94/107/101 93/104/98 95/39/36 30/38/35
f 99/108/102 98/109/103 96/105/99 97/106/100
f 98/109/103 100/110/104 91/103/97 96/105/99
f 98/109/103 99/108/102 104/111/105 101/112/106
f 98/109/103 101/112/106 103/113/107 100/110/104
f 104/111/105 105/114/108 102/115/109 101/112/106
f 101/112/106 102/115/109 156/116/110 103/113/107
f 106/117/111 107/118/112 105/114/108 104/111/105
f 99/108/102 109/119/113 106/117/111 104/111/105
f 108/120/114 122/121/115 107/118/112 106/117/111
f 108/120/114 106/117/111 109/119/113 111/122/116
f 99/108/102 97/106/100 110/123/117 109/119/113
f 109/119/113 110/123/117 113/124/118 111/122/116
f 112/125/119 119/126/120 108/120/114 111/122/116
f 114/127/121 112/125/119 111/122/116 113/124/118
f 116/128/122 114/127/121 113/124/118 115/129/123
f 113/124/118 110/123/117 117/130/124 115/129/123
f 116/128/122 115/129/123 35/41/38 118/46/43
f 115/129/123 117/130/124 32/40/37 35/41/38
f 30/38/35 32/40/37 117/130/124 94/107/101
f 94/107/101 117/130/124 110/123/117 97/106/100
f 50/57/54 53/60/57 114/127/121 116/128/122
f 44/53/50 50/57/54 116/128/122 118/46/43
f 53/60/57 56/63/60 112/125/119 114/127/121
f 56/63/60 59/66/63 119/126/120 112/125/119
f 59/66/63 62/69/66 120/131/125 119/126/120
f 119/126/120 120/131/125 122/121/115 108/120/114
f 62/69/66 65/72/69 121/132/126 120/131/125
f 120/131/125 121/132/126 123/133/127 122/121/115
f 122/121/115 123/133/127 124/134/128 107/118/112
f 121/132/126 128/135/129 125/136/130 123/133/127
f 126/137/131 124/134/128 123/133/127 125/136/130
f 127/138/132 150/139/133 126/137/131 125/136/130
f 128/135/129 129/140/134 127/138/132 125/136/130
f 129/140/134 128/135/129 67/75/72 130/76/73
f 128/135/129 121/132/126 65/72/69 67/75/72
f 132/141/135 127/138/132 129/140/134 131/142/136
f 130/76/73 133/143/137 131/142/136 129/140/134
f 68/77/74 134/144/138 133/143/137 130/76/73
f 135/145/139 134/144/138 68/77/74 70/78/75
f 70/78/75 72/80/77 136/146/140 135/145/139
f 136/146/140 72/80/77 139/83/80 137/147/141
f 140/148/142 138/149/143 137/147/141 139/83/80
f 140/150/142 139/151/80 73/152/79 141/153/144
f 141/153/144 143/154/145 142/155/146 140/150/142
f 138/149/143 140/148/142 142/156/146 145/157/147
f 144/158/148 142/155/146 143/154/145 152/159/149
f 145/160/147 142/155/146 144/158/148 146/161/150
f 149/162/151 147/163/152 146/161/150 144/158/148
f 150/139/133 148/164/153 147/163/152 149/162/151
f 150/139/133 149/162/151 151/165/154 126/137/131
f 144/158/148 152/159/149 151/165/154 149/162/151
f 126/137/131 151/165/154 153/166/155 124/134/128
f 152/159/149 154/167/156 153/166/155 151/165/154
f 107/118/112 124/134/128 153/166/155 105/114/108
f 105/114/108 153/166/155 154/167/156 102/115/109
f 102/115/109 154/167/156 155/168/157 156/116/110
f 143/154/145 155/168/157 154/167/156 152/159/149
f 156/116/110 155/168/157 157/169/158 158/170/159
f 157/169/158 155/168/157 143/154/145 141/153/144
f 158/170/159 157/169/158 75/171/81 77/172/82
f 73/152/79 75/171/81 157/169/158 141/153/144
f 103/113/107 156/116/110 158/170/159 159/173/160
f 159/173/160 158/170/159 77/172/82 79/174/84
f 100/110/104 103/113/107 159/173/160 160/175/161
f 160/175/161 159/173/160 79/174/84 81/176/86
f 91/103/97 100/110/104 160/175/161 89/99/94
f 89/99/94 160/175/161 81/176/86 83/100/88
f 148/164/153 150/139/133 127/138/132 132/141/135
f 95/39/36 92/102/96 161/177/162 29/35/32
f 162/26/24 161/177/162 92/102/96 88/96/92
f 19/25/23 163/178/163 161/177/162 162/26/24
f 161/177/162 163/178/163 26/30/27 29/35/32
f 163/178/163 19/25/23 21/28/25 164/179/164
f 26/30/27 163/178/163 164/179/164 24/31/28
f 88/96/92 86/95/18 15/23/19 162/26/24
f 164/179/164 5/8/8 3/6/6
f 4/1/1 1/4/4 3/6/6
f 3/6/6 40/50/47 164/179/164
f 40/50/47 39/48/45 22/33/30
f 24/31/28 40/50/47 23/32/29
f 39/48/45 38/47/44 22/33/30
f 22/33/30 23/32/29 40/50/47
f 24/31/28 164/179/164 40/50/47
f 164/179/164 21/28/25 5/8/8
f 5/8/8 21/28/25 17/21/21
f 21/28/25 20/22/22 17/21/21
f 5/8/8 4/1/1 3/6/6
f 146/161/150 147/163/152 148/164/153
f 148/164/153 132/141/135 145/160/147
f 132/141/135 131/142/136 138/149/143
f 131/142/136 133/143/137 135/145/139
f 133/143/137 134/144/138 135/145/139
f 135/145/139 136/146/140 131/142/136
f 136/146/140 137/147/141 131/142/136
f 137/147/141 138/149/143 131/142/136
f 138/149/143 145/160/147 132/141/135
f 145/160/147 146/161/150 148/164/153
