# Blender 5.0.1
# www.blender.org
mtllib arm_sweater.mtl
o Ch31_Sweater.001
v -0.797109 1.036739 -0.089830
v -0.844291 1.024158 -0.017341
v -0.792351 1.024142 -0.032445
v -0.779077 1.050823 -0.054950
v -0.791295 1.025227 -0.085093
v -0.793514 1.012020 -0.084701
v -0.802428 1.016559 -0.090384
v -0.785938 1.042662 -0.081779
v -0.787145 1.027640 -0.077625
v -0.797241 1.060881 -0.089903
v -0.785974 1.062349 -0.083365
v -0.789975 1.051605 -0.032512
v -0.795963 1.048941 -0.029493
v -0.793444 1.036195 -0.029076
v -0.786257 1.042860 -0.035251
v -0.843437 1.005232 -0.019138
v -0.832893 1.005247 -0.013819
v -0.833263 1.024092 -0.012976
v -0.852226 1.024604 -0.026438
v -0.851426 1.005494 -0.026926
v -0.833472 1.043243 -0.011521
v -0.843695 1.043876 -0.017637
v -0.801960 1.029567 -0.024747
v -0.798433 1.011215 -0.027161
v -0.796695 1.008053 -0.041107
v -0.787695 1.026773 -0.041906
v -0.780016 1.048736 -0.062169
v -0.775781 1.064092 -0.063502
v -0.776182 1.063051 -0.053263
v -0.782204 1.042248 -0.049492
v -0.784794 1.035353 -0.058400
v -0.787460 1.012196 -0.075498
v -0.851322 1.044254 -0.026717
v -0.820005 1.153268 -0.014666
v -0.831134 1.154863 -0.013648
v -0.820894 1.128465 -0.013751
v -0.842584 1.156285 -0.015078
v -0.772388 1.169956 -0.027307
v -0.765759 1.168761 -0.038477
v -0.763710 1.168495 -0.050904
v -0.764896 1.168544 -0.063469
v -0.771324 1.146234 -0.039045
v -0.764498 1.146029 -0.049921
v -0.767175 1.146703 -0.062842
v -0.773734 1.147312 -0.073555
v -0.770514 1.168992 -0.075192
v -0.782075 1.147334 -0.083286
v -0.773935 1.125830 -0.074708
v -0.784259 1.125938 -0.082441
v -0.795723 1.127028 -0.087456
v -0.807932 1.128303 -0.090036
v -0.821846 1.107450 -0.090209
v -0.832774 1.108662 -0.084910
v -0.842372 1.109479 -0.078662
v -0.851838 1.109883 -0.071043
v -0.833966 1.086357 -0.085877
v -0.844007 1.087119 -0.079575
v -0.853555 1.087547 -0.071972
v -0.860401 1.087450 -0.061069
v -0.845911 1.065330 -0.080603
v -0.855515 1.065845 -0.072838
v -0.860567 1.065702 -0.061093
v -0.859958 1.065401 -0.048861
v -0.860071 1.086972 -0.048463
v -0.857612 1.044894 -0.073268
v -0.859848 1.044831 -0.060755
v -0.858496 1.044754 -0.049023
v -0.856408 1.044507 -0.037408
v -0.857194 1.065029 -0.036971
v -0.860077 1.024950 -0.060383
v -0.857586 1.024832 -0.048971
v -0.854808 1.024769 -0.037835
v -0.861709 1.005699 -0.047839
v -0.858421 1.005630 -0.036433
v -0.856625 0.987645 -0.048288
v -0.853987 0.987744 -0.038021
v -0.848891 0.987892 -0.029022
v -0.841332 0.987937 -0.022248
v -0.852920 0.970721 -0.038038
v -0.848534 0.970936 -0.028826
v -0.841644 0.971173 -0.021473
v -0.832336 0.971658 -0.017748
v -0.832221 0.988281 -0.018837
v -0.847751 0.954687 -0.028902
v -0.841350 0.955067 -0.021492
v -0.832659 0.955880 -0.017254
v -0.822677 0.956503 -0.015823
v -0.822377 0.972068 -0.016960
v -0.840798 0.939724 -0.021201
v -0.833352 0.940671 -0.016765
v -0.822415 0.941874 -0.014184
v -0.813047 0.942382 -0.015688
v -0.812958 0.957065 -0.017977
v -0.805080 0.957054 -0.024506
v -0.804423 0.973025 -0.026713
v -0.812796 0.972735 -0.020186
v -0.806092 0.942220 -0.022081
v -0.803056 0.941854 -0.031841
v -0.800880 0.956422 -0.034150
v -0.799854 0.955331 -0.044786
v -0.797110 0.970460 -0.046760
v -0.799024 0.972206 -0.036171
v -0.802413 0.941123 -0.042538
v -0.803468 0.939304 -0.053961
v -0.800726 0.953819 -0.055661
v -0.803102 0.952419 -0.066226
v -0.800323 0.967448 -0.067651
v -0.797825 0.968742 -0.057410
v -0.805842 0.937608 -0.065381
v -0.809322 0.936269 -0.075799
v -0.806770 0.951395 -0.076108
v -0.813036 0.950992 -0.083963
v -0.811156 0.966646 -0.084698
v -0.804281 0.966651 -0.077163
v -0.815160 0.935556 -0.083559
v -0.823212 0.935291 -0.087864
v -0.821799 0.951058 -0.088380
v -0.831581 0.951375 -0.088027
v -0.830607 0.967797 -0.088958
v -0.820403 0.967163 -0.088914
v -0.832223 0.935300 -0.087232
v -0.840317 0.935430 -0.082667
v -0.840200 0.951782 -0.083451
v -0.846937 0.952316 -0.076318
v -0.847198 0.969124 -0.077332
v -0.839946 0.968454 -0.084510
v -0.846739 0.935793 -0.075714
v -0.851612 0.936167 -0.067129
v -0.852208 0.952765 -0.067777
v -0.854926 0.953173 -0.057874
v -0.855822 0.970058 -0.058429
v -0.852816 0.969647 -0.068575
v -0.854135 0.936633 -0.057386
v -0.854180 0.937297 -0.047245
v -0.854711 0.953680 -0.047666
v -0.852264 0.954206 -0.037842
v -0.855510 0.970412 -0.047977
v -0.851868 0.938102 -0.037428
v -0.847360 0.938884 -0.028490
v -0.856475 0.987395 -0.058980
v -0.862322 1.005268 -0.060100
v -0.859056 1.004631 -0.072495
v -0.853479 0.987004 -0.069279
v -0.851074 1.004228 -0.082606
v -0.847701 0.986364 -0.078317
v -0.840720 1.003595 -0.089358
v -0.839472 0.985595 -0.085240
v -0.829250 1.002283 -0.093995
v -0.829689 0.984659 -0.089400
v -0.816852 1.000525 -0.094064
v -0.819181 0.983612 -0.089460
v -0.805663 0.998604 -0.089453
v -0.809733 0.982696 -0.085662
v -0.799570 0.997885 -0.080367
v -0.802246 0.982156 -0.078753
v -0.794205 0.998027 -0.071989
v -0.797660 0.982775 -0.069471
v -0.790675 0.999490 -0.061898
v -0.795112 0.984277 -0.059533
v -0.792033 1.003298 -0.051185
v -0.794796 0.986567 -0.048956
v -0.798455 0.989145 -0.038649
v -0.804993 0.990987 -0.030190
v -0.810840 1.007679 -0.019906
v -0.812853 0.989918 -0.023165
v -0.821600 1.006184 -0.016439
v -0.822326 0.988806 -0.018942
v -0.812095 1.026187 -0.020968
v -0.822756 1.024853 -0.017276
v -0.812909 1.044930 -0.019883
v -0.822056 1.043708 -0.014401
v -0.810804 1.063421 -0.015831
v -0.821259 1.063093 -0.011298
v -0.833261 1.063300 -0.011210
v -0.821076 1.083855 -0.010745
v -0.833064 1.084324 -0.010757
v -0.843170 1.084879 -0.017435
v -0.841949 1.063897 -0.019253
v -0.851400 1.085577 -0.025985
v -0.849819 1.064594 -0.027654
v -0.857614 1.086322 -0.036495
v -0.857905 1.108535 -0.035817
v -0.860441 1.109266 -0.047991
v -0.859847 1.109827 -0.060933
v -0.841291 1.132299 -0.078269
v -0.831781 1.131166 -0.084890
v -0.820473 1.129673 -0.089788
v -0.818570 1.151856 -0.090595
v -0.806090 1.150177 -0.091290
v -0.793531 1.148610 -0.089419
v -0.802794 1.172017 -0.096738
v -0.790286 1.170726 -0.091836
v -0.779370 1.169493 -0.084727
v -0.841077 1.178315 -0.085006
v -0.849139 1.180455 -0.073836
v -0.852696 1.182274 -0.061182
v -0.854947 1.183517 -0.048476
v -0.847611 1.156623 -0.069100
v -0.854460 1.157293 -0.058755
v -0.860232 1.158031 -0.047346
v -0.860952 1.157973 -0.033316
v -0.854346 1.184415 -0.035787
v -0.853390 1.157214 -0.021680
v -0.858674 1.131832 -0.034746
v -0.852671 1.130969 -0.023817
v -0.844010 1.130311 -0.014853
v -0.832150 1.129645 -0.011196
v -0.832544 1.106247 -0.011166
v -0.820889 1.105633 -0.011664
v -0.809613 1.104925 -0.014161
v -0.799823 1.103810 -0.019650
v -0.790786 1.102726 -0.025885
v -0.810125 1.083602 -0.014297
v -0.800593 1.083057 -0.020121
v -0.792808 1.082336 -0.027057
v -0.785572 1.081135 -0.034388
v -0.803015 1.064095 -0.022898
v -0.796162 1.064358 -0.030053
v -0.789723 1.063378 -0.036484
v -0.782095 1.057958 -0.042929
v -0.778456 1.080079 -0.042443
v -0.803945 1.046312 -0.025474
v -0.774607 1.101411 -0.041210
v -0.782329 1.101815 -0.032828
v -0.799434 1.125927 -0.020370
v -0.810236 1.127301 -0.017473
v -0.797335 1.149339 -0.016202
v -0.808799 1.151444 -0.015892
v -0.794476 1.174195 -0.018286
v -0.805224 1.176537 -0.013665
v -0.816722 1.178778 -0.011600
v -0.827994 1.181117 -0.013509
v -0.839249 1.182980 -0.016611
v -0.848696 1.184121 -0.024418
v -0.783613 1.172001 -0.022037
v -0.785775 1.147341 -0.020078
v -0.778182 1.146651 -0.029711
v -0.789087 1.124468 -0.024338
v -0.780471 1.123887 -0.031803
v -0.773055 1.123735 -0.040681
v -0.766012 1.123839 -0.050742
v -0.767415 1.124849 -0.063801
v -0.784711 1.104349 -0.083465
v -0.796615 1.105078 -0.088357
v -0.809019 1.106210 -0.090861
v -0.797028 1.083157 -0.089372
v -0.809959 1.084002 -0.091711
v -0.822705 1.085205 -0.090639
v -0.810775 1.061874 -0.092861
v -0.823840 1.063206 -0.091162
v -0.835419 1.064387 -0.086767
v -0.825166 1.041817 -0.091569
v -0.836965 1.043238 -0.087085
v -0.847753 1.044226 -0.081406
v -0.838381 1.022991 -0.087273
v -0.849393 1.024080 -0.081988
v -0.858945 1.024728 -0.073146
v -0.827009 1.021639 -0.091700
v -0.811916 1.039822 -0.093655
v -0.814442 1.019535 -0.094054
v -0.785361 1.083121 -0.083926
v -0.774940 1.104103 -0.075399
v -0.776027 1.083100 -0.075450
v -0.778082 1.063402 -0.074200
v -0.774488 1.082817 -0.063911
v -0.782104 1.046121 -0.071368
v -0.785824 1.030953 -0.068004
v -0.785788 1.019468 -0.053739
v -0.785238 1.014931 -0.064756
v -0.769692 1.102946 -0.064244
v -0.775005 1.081711 -0.053226
v -0.769806 1.101906 -0.052180
v -0.844318 1.106866 -0.015192
v -0.852239 1.107695 -0.024873
v -0.860493 1.132621 -0.047274
v -0.858174 1.133199 -0.060149
v -0.850359 1.132916 -0.070057
v -0.839580 1.155493 -0.078384
v -0.830067 1.153685 -0.086066
v -0.829960 1.176016 -0.093533
v -0.816579 1.173685 -0.098017
v -0.851979 0.970763 -0.038383
v -0.847710 0.970960 -0.029388
v -0.841075 0.971158 -0.022296
v -0.832112 0.971607 -0.018717
v -0.846922 0.954709 -0.029458
v -0.840735 0.955077 -0.022282
v -0.832368 0.955835 -0.018205
v -0.822712 0.956411 -0.016817
v -0.822502 0.971984 -0.017946
v -0.840155 0.939732 -0.021968
v -0.832959 0.940622 -0.017682
v -0.822364 0.941762 -0.015174
v -0.813463 0.942244 -0.016585
v -0.813390 0.956937 -0.018868
v -0.805884 0.957002 -0.025098
v -0.806932 0.942181 -0.022626
v -0.804034 0.941964 -0.032028
v -0.803396 0.941299 -0.042546
v -0.804441 0.939502 -0.053846
v -0.806796 0.937798 -0.065148
v -0.810197 0.936426 -0.075342
v -0.815798 0.935664 -0.082797
v -0.823395 0.935349 -0.086891
v -0.831929 0.935336 -0.086278
v -0.839695 0.935463 -0.081885
v -0.846142 0.952361 -0.075711
v -0.845929 0.935829 -0.075131
v -0.850688 0.936214 -0.066755
v -0.851293 0.952813 -0.067380
v -0.853926 0.953238 -0.057767
v -0.854832 0.970095 -0.058302
v -0.853146 0.936682 -0.057256
v -0.853189 0.937330 -0.047368
v -0.853717 0.953720 -0.047808
v -0.851328 0.954229 -0.038197
v -0.854513 0.970463 -0.048123
v -0.850930 0.938116 -0.037775
v -0.846533 0.938888 -0.029051
vn 0.7479 -0.0354 -0.6629
vn 0.6233 -0.3119 -0.7171
vn 0.3816 -0.0948 -0.9194
vn 0.4256 -0.0307 -0.9044
vn 0.8102 -0.1234 -0.5730
vn 0.9547 -0.1045 -0.2786
vn 0.3640 0.0071 -0.9314
vn 0.6396 -0.0509 -0.7670
vn 0.4255 0.0756 0.9018
vn 0.5630 -0.0157 0.8263
vn 0.8457 -0.0982 0.5245
vn 0.5820 0.1543 0.7984
vn -0.5762 -0.1572 0.8021
vn -0.1104 -0.1668 0.9798
vn 0.0062 -0.0600 0.9982
vn -0.5776 -0.0370 0.8155
vn -0.8919 -0.0003 0.4523
vn -0.7509 -0.1158 0.6502
vn -0.1470 -0.0455 0.9881
vn -0.6442 0.0740 0.7612
vn 0.8600 -0.1522 0.4871
vn 0.3932 0.0163 0.9193
vn 0.7700 -0.2201 0.5989
vn 0.9026 -0.2808 0.3263
vn 0.9135 -0.2298 0.3357
vn 0.9615 -0.2723 0.0368
vn 0.9467 -0.3116 -0.0815
vn 0.9821 -0.1659 -0.0887
vn 0.9590 -0.1452 0.2435
vn 0.9525 -0.2477 0.1774
vn 0.9758 -0.2095 -0.0634
vn 0.9004 -0.2822 -0.3312
vn -0.8381 0.0665 0.5414
vn -0.0331 0.0515 0.9981
vn 0.2800 0.0554 0.9584
vn 0.0887 -0.0465 0.9950
vn -0.0160 0.0531 0.9985
vn -0.3253 0.0623 0.9436
vn -0.5221 0.0154 0.8527
vn 0.7168 0.5662 0.4070
vn 0.8124 -0.1603 0.5607
vn 0.9818 -0.0569 0.1810
vn 0.7736 0.6311 0.0572
vn 0.9279 -0.0530 -0.3690
vn 0.8020 0.5336 -0.2683
vn 0.8037 -0.0739 -0.5905
vn 0.7048 0.5511 -0.4468
vn 0.9617 -0.1260 0.2433
vn 0.9478 -0.0453 -0.3157
vn 0.7482 0.0013 -0.6634
vn 0.5031 -0.0231 -0.8639
vn 0.6134 -0.1019 -0.7832
vn 0.2999 -0.0427 -0.9530
vn 0.2920 0.0346 -0.9558
vn 0.0775 0.0350 -0.9964
vn 0.0910 -0.0158 -0.9957
vn -0.2461 0.0313 -0.9687
vn -0.2141 0.0075 -0.9768
vn -0.4900 0.0426 -0.8707
vn -0.4884 0.0069 -0.8726
vn -0.4570 0.0637 -0.8872
vn -0.5726 0.0828 -0.8157
vn -0.5849 0.0584 -0.8090
vn -0.7415 0.0892 -0.6650
vn -0.7068 0.0792 -0.7030
vn -0.9645 0.0168 -0.2635
vn -0.9355 0.0525 -0.3494
vn -0.5628 0.0849 -0.8222
vn -0.7915 0.0940 -0.6038
vn -0.9840 -0.0138 -0.1775
vn -0.9897 -0.0391 0.1375
vn -0.9935 -0.0131 0.1134
vn -0.8596 0.0751 -0.5055
vn -0.9994 -0.0124 -0.0316
vn -0.9879 -0.0280 0.1528
vn -0.9505 -0.0628 0.3042
vn -0.9009 -0.0358 0.4324
vn -0.9960 0.0627 0.0629
vn -0.9700 0.0879 0.2266
vn -0.9712 0.0567 0.2313
vn -0.9867 0.0136 0.1618
vn -0.8983 -0.0275 0.4384
vn -0.9802 -0.1541 0.1241
vn -0.9158 -0.1581 0.3693
vn -0.7766 -0.0980 0.6224
vn -0.5149 -0.0827 0.8533
vn -0.9373 -0.0459 0.3455
vn -0.8241 -0.0266 0.5659
vn -0.5640 0.0179 0.8256
vn -0.2256 0.0515 0.9729
vn -0.1704 -0.1121 0.9790
vn -0.8303 -0.0245 0.5568
vn -0.6110 -0.0091 0.7916
vn -0.2941 0.0388 0.9550
vn 0.0305 0.0933 0.9952
vn 0.1215 0.0916 0.9884
vn -0.6326 0.0195 0.7743
vn -0.3360 0.0696 0.9393
vn 0.0040 0.1207 0.9927
vn 0.4321 0.1190 0.8939
vn 0.4336 0.1297 0.8917
vn 0.8009 0.0462 0.5970
vn 0.7523 0.1051 0.6504
vn 0.4634 0.1358 0.8757
vn 0.7925 0.0541 0.6075
vn 0.9663 -0.0671 0.2485
vn 0.9621 -0.0921 0.2565
vn 0.9843 -0.1742 0.0288
vn 0.9857 -0.1493 0.0786
vn 0.9382 -0.0222 0.3454
vn 0.9871 -0.1583 0.0219
vn 0.9744 -0.1880 -0.1233
vn 0.9723 -0.2005 -0.1206
vn 0.9466 -0.1946 -0.2570
vn 0.9371 -0.1991 -0.2867
vn 0.9731 -0.1950 -0.1230
vn 0.9499 -0.1790 -0.2563
vn 0.8624 -0.1479 -0.4842
vn 0.8653 -0.1650 -0.4733
vn 0.6295 -0.1093 -0.7693
vn 0.5843 -0.1045 -0.8048
vn 0.8357 -0.1684 -0.5226
vn 0.6179 -0.0990 -0.7800
vn 0.2031 -0.0585 -0.9774
vn 0.2128 -0.0509 -0.9758
vn -0.2617 -0.0382 -0.9644
vn -0.2201 -0.0280 -0.9751
vn 0.2109 -0.0495 -0.9763
vn -0.2730 -0.0292 -0.9616
vn -0.6107 -0.0270 -0.7914
vn -0.6075 -0.0366 -0.7934
vn -0.7938 -0.0407 -0.6068
vn -0.7770 -0.0535 -0.6272
vn -0.5755 -0.0307 -0.8172
vn -0.7955 -0.0303 -0.6052
vn -0.9192 -0.0381 -0.3920
vn -0.9168 -0.0507 -0.3961
vn -0.9896 -0.0768 -0.1219
vn -0.9878 -0.0953 -0.1228
vn -0.9094 -0.0515 -0.4126
vn -0.9912 -0.0406 -0.1259
vn -0.9917 -0.0271 0.1259
vn -0.9894 -0.0603 0.1324
vn -0.9368 -0.0236 0.3492
vn -0.9840 -0.0989 0.1479
vn -0.9385 -0.0149 0.3449
vn -0.8319 -0.0079 0.5548
vn -0.9971 -0.0281 -0.0702
vn -0.8840 -0.1754 -0.4333
vn -0.8957 -0.2013 -0.3964
vn -0.9795 -0.1697 -0.1087
vn -0.6743 -0.1045 -0.7310
vn -0.7488 -0.1757 -0.6391
vn -0.4649 -0.0369 -0.8846
vn -0.5293 -0.1260 -0.8390
vn -0.2004 -0.0502 -0.9784
vn -0.2138 -0.1309 -0.9681
vn 0.1646 -0.1491 -0.9750
vn 0.1690 -0.1658 -0.9716
vn 0.5905 -0.2373 -0.7713
vn 0.5081 -0.2097 -0.8354
vn 0.7848 -0.3305 -0.5243
vn 0.7877 -0.1785 -0.5896
vn 0.8467 -0.3698 -0.3826
vn 0.9212 -0.2285 -0.3150
vn 0.9505 -0.3098 -0.0260
vn 0.9669 -0.2379 -0.0926
vn 0.9164 -0.1991 0.3472
vn 0.9751 -0.1263 0.1825
vn 0.8782 0.0100 0.4782
vn 0.7258 -0.1080 0.6794
vn 0.4222 -0.0707 0.9038
vn 0.5491 -0.0340 0.8351
vn 0.2720 -0.0462 0.9612
vn 0.2116 -0.0156 0.9772
vn 0.3332 0.0216 0.9426
vn 0.3566 -0.0435 0.9333
vn 0.5306 -0.1326 0.8372
vn 0.3893 -0.1567 0.9077
vn 0.5406 -0.1601 0.8259
vn 0.2067 -0.0959 0.9737
vn -0.3611 -0.0137 0.9324
vn 0.1545 0.0064 0.9880
vn -0.2893 0.0030 0.9572
vn -0.6407 -0.1071 0.7603
vn -0.7047 0.0084 0.7094
vn -0.7959 -0.0840 0.5995
vn -0.7580 -0.0123 0.6521
vn -0.9333 -0.0248 0.3581
vn -0.8368 -0.0503 0.5452
vn -0.9425 -0.0346 0.3323
vn -0.9968 -0.0112 0.0787
vn -0.9055 0.1219 -0.4064
vn -0.7260 0.0941 -0.6813
vn -0.6213 0.0421 -0.7824
vn -0.2373 -0.1570 -0.9587
vn 0.0231 -0.1547 -0.9877
vn 0.2946 -0.1322 -0.9464
vn 0.2703 0.5262 -0.8062
vn 0.4188 0.5822 -0.6969
vn 0.5649 0.5744 -0.5924
vn -0.5336 0.7898 -0.3025
vn -0.5504 0.6632 -0.5071
vn -0.8014 -0.0235 -0.5976
vn -0.8610 0.0858 -0.5014
vn -0.9626 0.0938 -0.2541
vn -0.5649 0.8073 -0.1709
vn -0.9612 0.0797 0.2640
vn -0.5514 0.8205 0.1505
vn -0.9999 0.0040 -0.0156
vn -0.9470 -0.0751 0.3123
vn -0.8063 -0.0574 0.5887
vn -0.6935 0.0571 0.7182
vn -0.5738 -0.0585 0.8169
vn -0.1419 0.0131 0.9898
vn 0.1348 0.0661 0.9887
vn 0.3596 0.0666 0.9307
vn 0.2952 0.0326 0.9549
vn 0.5280 -0.0121 0.8492
vn 0.4154 -0.0489 0.9083
vn 0.5866 -0.1147 0.8017
vn 0.6664 -0.1744 0.7249
vn 0.5916 -0.1045 0.7994
vn 0.7008 -0.2027 0.6840
vn 0.6764 -0.1257 0.7257
vn 0.6926 -0.1644 0.7024
vn 0.7069 -0.1100 0.6987
vn 0.6640 -0.0363 0.7469
vn 0.8256 -0.0750 0.5593
vn 0.8603 -0.1667 0.4817
vn 0.4938 -0.0221 0.8693
vn 0.8314 -0.1266 0.5411
vn 0.7057 -0.1125 0.6995
vn 0.4940 -0.1635 0.8540
vn 0.2950 -0.0843 0.9518
vn 0.1638 -0.0611 0.9846
vn 0.0537 -0.0881 0.9947
vn 0.3342 0.6935 0.6383
vn 0.3206 0.6266 0.7103
vn 0.1227 0.6270 0.7693
vn 0.0190 0.7305 0.6826
vn -0.1745 0.7349 0.6554
vn -0.4212 0.7911 0.4435
vn 0.4368 0.5582 0.7054
vn 0.5594 -0.1113 0.8214
vn 0.7718 -0.1956 0.6050
vn 0.7339 0.4989 0.4610
vn 0.7902 -0.0868 0.6066
vn 0.9608 -0.1621 -0.2249
vn 0.7920 -0.0283 -0.6099
vn 0.5203 0.0132 -0.8539
vn 0.3060 0.0291 -0.9516
vn 0.0498 0.0438 -0.9978
vn -0.2367 0.0311 -0.9711
vn 0.0479 0.0410 -0.9980
vn -0.2403 0.0339 -0.9701
vn -0.4271 0.0550 -0.9025
vn -0.2509 0.0312 -0.9675
vn -0.4067 0.0406 -0.9126
vn -0.5486 0.0746 -0.8328
vn -0.3878 0.0896 -0.9174
vn -0.5566 0.0710 -0.8277
vn -0.8972 0.0241 -0.4409
vn -0.2621 0.0865 -0.9611
vn 0.0560 0.0220 -0.9982
vn 0.0553 0.0032 -0.9985
vn 0.5550 -0.0239 -0.8315
vn 0.8801 -0.0763 -0.4686
vn 0.8829 -0.1909 -0.4290
vn 0.9867 -0.1536 -0.0540
vn 0.9437 -0.2625 -0.2012
vn 0.9906 -0.1132 -0.0770
vn 0.9645 -0.1787 0.1946
vn 0.9865 -0.1619 -0.0226
vn 0.9580 -0.2162 0.1885
vn 0.9746 -0.1614 0.1549
vn -0.7034 -0.1003 -0.7037
vn -0.5188 -0.1403 -0.8433
vn -0.4478 0.6180 -0.6462
vn -0.3032 0.5878 -0.7500
vn 0.0118 0.5111 -0.8595
vn 0.8311 0.0299 -0.5553
vn 0.6025 0.0074 -0.7981
vn 0.6112 0.0091 -0.7914
vn 0.8306 0.0245 -0.5563
vn 0.2324 -0.0363 -0.9719
vn 0.2942 -0.0388 -0.9549
vn 0.0393 -0.0873 -0.9954
vn 0.0991 -0.0871 -0.9913
vn 0.3692 -0.5129 -0.7750
vn 0.5685 -0.5056 -0.6489
vn 0.0924 -0.8192 -0.5660
vn -0.1941 -0.8599 -0.4721
vn -0.4675 -0.1236 -0.8753
vn -0.6647 -0.1011 -0.7402
vn -0.2819 -0.9186 -0.2771
vn 0.6462 -0.7031 0.2967
vn 0.3712 -0.8935 0.2529
vn 0.8602 0.0393 0.5084
vn 0.9229 0.0428 0.3828
vn 0.9958 0.0508 0.0758
vn 0.7014 -0.7002 0.1329
vn 0.7010 -0.7127 -0.0250
vn 0.9904 0.0365 -0.1336
vn 0.9369 0.0235 -0.3487
vn 0.9894 0.0409 -0.1396
vn 0.9380 0.0345 -0.3449
vn 0.9985 0.0473 -0.0263
vn 0.6687 -0.7216 -0.1790
vn 0.5959 -0.7327 -0.3288
vn 0.0129 -0.9991 0.0407
vn 0.0060 -0.9991 0.0415
vn 0.0013 -0.9987 0.0506
vn 0.0008 -0.9987 0.0507
vn 0.0101 -0.9978 0.0659
vn -0.0107 -0.9975 0.0696
vn -0.0355 -0.9927 0.1152
vn -0.0354 -0.9914 0.1261
vn -0.0882 -0.9845 0.1516
vn -0.0953 -0.9816 0.1654
vn -0.1362 -0.9761 0.1693
vn -0.1489 -0.9722 0.1807
vn -0.1661 -0.9712 0.1710
vn -0.1743 -0.9687 0.1765
vn -0.1595 -0.9817 0.1044
vn -0.1723 -0.9790 0.1093
vn -0.0866 -0.9962 0.0131
vn -0.1191 -0.9927 0.0172
vn -0.0031 -0.9998 0.0175
vn 0.0499 -0.9939 0.0988
vn 0.0625 -0.9938 0.0925
vn 0.1018 -0.9912 0.0846
vn 0.0651 -0.9967 0.0477
vn 0.0565 -0.9963 0.0646
vn 0.0431 -0.9969 0.0665
vn 0.0445 -0.9970 0.0640
vn 0.0422 -0.9972 0.0614
vn 0.0308 -0.9976 0.0628
vn 0.0083 -0.9981 0.0618
vn 0.0490 -0.9952 0.0844
vn 0.0490 -0.9953 0.0839
vn 0.0490 -0.9952 0.0843
vt 0.436582 0.232558
vt 0.436157 0.239261
vt 0.430684 0.237244
vt 0.432466 0.226803
vt 0.439305 0.223504
vt 0.440958 0.231367
vt 0.431453 0.214453
vt 0.438148 0.213415
vt 0.470031 0.224911
vt 0.467584 0.231338
vt 0.463739 0.226644
vt 0.466869 0.222748
vt 0.639093 0.362860
vt 0.633064 0.363110
vt 0.632189 0.353264
vt 0.638357 0.352935
vt 0.644659 0.352567
vt 0.644837 0.362579
vt 0.631518 0.343227
vt 0.637761 0.342710
vt 0.464653 0.237268
vt 0.471603 0.235987
vt 0.467158 0.245130
vt 0.459529 0.234643
vt 0.459658 0.245862
vt 0.453895 0.220363
vt 0.450050 0.221056
vt 0.450072 0.212805
vt 0.455259 0.213972
vt 0.456254 0.225458
vt 0.451330 0.228672
vt 0.441623 0.239334
vt 0.643982 0.342321
vt 0.629625 0.298260
vt 0.623550 0.298685
vt 0.623655 0.286223
vt 0.629657 0.285914
vt 0.635838 0.285638
vt 0.636144 0.297929
vt 0.466425 0.157113
vt 0.465927 0.170467
vt 0.459145 0.169365
vt 0.459848 0.156269
vt 0.452154 0.168386
vt 0.453145 0.155597
vt 0.445436 0.167718
vt 0.446220 0.155089
vt 0.458486 0.181722
vt 0.451464 0.180650
vt 0.444686 0.179896
vt 0.437843 0.179437
vt 0.438556 0.167261
vt 0.431100 0.179186
vt 0.430845 0.191153
vt 0.424135 0.191094
vt 0.424326 0.179089
vt 0.417255 0.191156
vt 0.417480 0.179135
vt 0.410504 0.191333
vt 0.410642 0.179272
vt 0.410449 0.203172
vt 0.403818 0.203480
vt 0.403883 0.191624
vt 0.397215 0.203906
vt 0.397292 0.192031
vt 0.390350 0.204422
vt 0.390388 0.192549
vt 0.403880 0.215018
vt 0.397187 0.215513
vt 0.390407 0.216092
vt 0.383981 0.216721
vt 0.383693 0.205000
vt 0.397354 0.226730
vt 0.390638 0.227471
vt 0.384423 0.228200
vt 0.378245 0.228952
vt 0.377587 0.217357
vt 0.391204 0.238368
vt 0.385164 0.239449
vt 0.379160 0.240427
vt 0.650794 0.352218
vt 0.650185 0.341893
vt 0.386537 0.250444
vt 0.380527 0.252098
vt 0.651020 0.362455
vt 0.389173 0.260706
vt 0.383735 0.263059
vt 0.650384 0.372066
vt 0.644947 0.371977
vt 0.639503 0.372197
vt 0.387940 0.271721
vt 0.383491 0.274426
vt 0.379140 0.267135
vt 0.645668 0.381203
vt 0.640274 0.381130
vt 0.634908 0.381019
vt 0.634128 0.372338
vt 0.645566 0.390526
vt 0.640485 0.389775
vt 0.635456 0.389210
vt 0.630134 0.389067
vt 0.629519 0.381107
vt 0.639386 0.397866
vt 0.635407 0.397109
vt 0.630244 0.396632
vt 0.625798 0.396849
vt 0.624918 0.389297
vt 0.619649 0.389810
vt 0.618677 0.381691
vt 0.624148 0.381281
vt 0.621107 0.397417
vt 0.454354 0.281400
vt 0.456378 0.273794
vt 0.461429 0.275833
vt 0.458948 0.283709
vt 0.451019 0.272377
vt 0.452066 0.264377
vt 0.457809 0.265294
vt 0.463301 0.266840
vt 0.449562 0.279714
vt 0.444189 0.279214
vt 0.445437 0.271605
vt 0.439948 0.271259
vt 0.440727 0.263482
vt 0.446354 0.263824
vt 0.438766 0.279006
vt 0.433734 0.279055
vt 0.434684 0.271158
vt 0.429716 0.271244
vt 0.429935 0.263246
vt 0.435288 0.263302
vt 0.429332 0.279292
vt 0.425226 0.279694
vt 0.424878 0.271508
vt 0.420079 0.271954
vt 0.419265 0.263615
vt 0.424617 0.263298
vt 0.421178 0.280229
vt 0.417051 0.280939
vt 0.415336 0.272619
vt 0.410505 0.273431
vt 0.408531 0.265007
vt 0.413869 0.264151
vt 0.412813 0.281855
vt 0.408431 0.282846
vt 0.405659 0.274603
vt 0.400786 0.276068
vt 0.397808 0.267628
vt 0.403165 0.266179
vt 0.404062 0.284129
vt 0.399683 0.285740
vt 0.396033 0.277913
vt 0.391391 0.280071
vt 0.392753 0.269566
vt 0.395272 0.287677
vt 0.390749 0.290029
vt 0.386851 0.282513
vt 0.644124 0.399179
vt 0.392707 0.249082
vt 0.399077 0.247716
vt 0.400827 0.257390
vt 0.395004 0.258834
vt 0.405554 0.246796
vt 0.406722 0.256285
vt 0.411760 0.246184
vt 0.412667 0.255531
vt 0.418017 0.245924
vt 0.418548 0.255072
vt 0.424315 0.246010
vt 0.424379 0.254905
vt 0.430540 0.246510
vt 0.430030 0.254977
vt 0.436235 0.247299
vt 0.435627 0.255350
vt 0.441540 0.247499
vt 0.441306 0.255563
vt 0.447316 0.247361
vt 0.446960 0.255673
vt 0.453362 0.246729
vt 0.452822 0.255808
vt 0.458835 0.256145
vt 0.464609 0.256759
vt 0.617299 0.372964
vt 0.613532 0.362598
vt 0.621242 0.363265
vt 0.622930 0.372644
vt 0.627122 0.363344
vt 0.628627 0.372562
vt 0.620242 0.353525
vt 0.626223 0.353497
vt 0.619627 0.343508
vt 0.625305 0.343436
vt 0.618730 0.333320
vt 0.624697 0.333063
vt 0.631013 0.332699
vt 0.624130 0.322130
vt 0.630414 0.321700
vt 0.636761 0.321204
vt 0.637275 0.332197
vt 0.643002 0.320805
vt 0.643360 0.331719
vt 0.649426 0.320472
vt 0.649606 0.331331
vt 0.642871 0.309407
vt 0.649333 0.309127
vt 0.377004 0.193639
vt 0.383549 0.193081
vt 0.377269 0.205605
vt 0.390419 0.180375
vt 0.397227 0.179936
vt 0.403921 0.179565
vt 0.417648 0.166981
vt 0.424578 0.166898
vt 0.431526 0.167012
vt 0.425318 0.154467
vt 0.432372 0.154569
vt 0.439287 0.154762
vt 0.389551 0.155537
vt 0.396445 0.155161
vt 0.397048 0.167576
vt 0.390304 0.168053
vt 0.383469 0.168538
vt 0.382744 0.156038
vt 0.376081 0.169163
vt 0.376018 0.156464
vt 0.383459 0.180946
vt 0.376779 0.181585
vt 0.649240 0.297510
vt 0.642672 0.297665
vt 0.642506 0.285472
vt 0.649780 0.285394
vt 0.636342 0.309766
vt 0.629858 0.310221
vt 0.623711 0.310645
vt 0.617656 0.311062
vt 0.617633 0.299071
vt 0.611797 0.311620
vt 0.618114 0.322481
vt 0.612277 0.323087
vt 0.478095 0.208221
vt 0.472771 0.207244
vt 0.474499 0.196560
vt 0.479912 0.197886
vt 0.467445 0.206624
vt 0.468980 0.195640
vt 0.476294 0.218071
vt 0.471260 0.216834
vt 0.466528 0.216233
vt 0.460902 0.217844
vt 0.461874 0.205957
vt 0.474305 0.227364
vt 0.614003 0.343497
vt 0.613242 0.333667
vt 0.614351 0.352629
vt 0.463238 0.194576
vt 0.471321 0.183925
vt 0.477537 0.185148
vt 0.483327 0.187773
vt 0.611784 0.299578
vt 0.611499 0.287383
vt 0.617623 0.286687
vt 0.611018 0.274599
vt 0.617349 0.273922
vt 0.623668 0.273440
vt 0.629892 0.273132
vt 0.636207 0.273039
vt 0.642777 0.273037
vt 0.649501 0.273138
vt 0.604883 0.275171
vt 0.605020 0.288070
vt 0.479178 0.159391
vt 0.478510 0.172076
vt 0.472048 0.171411
vt 0.472975 0.158189
vt 0.465081 0.182910
vt 0.450795 0.192296
vt 0.444266 0.191579
vt 0.437610 0.191244
vt 0.430959 0.202832
vt 0.424057 0.202931
vt 0.417209 0.203000
vt 0.424230 0.214510
vt 0.417233 0.214540
vt 0.410506 0.214718
vt 0.417410 0.225614
vt 0.410721 0.225729
vt 0.404203 0.226117
vt 0.411154 0.236165
vt 0.404752 0.236585
vt 0.397953 0.237363
vt 0.417518 0.235993
vt 0.424461 0.225888
vt 0.424177 0.236305
vt 0.437636 0.202550
vt 0.444273 0.202565
vt 0.444392 0.212740
vt 0.450453 0.203100
vt 0.445069 0.221975
vt 0.446130 0.230252
vt 0.452934 0.237345
vt 0.447159 0.238707
vt 0.457121 0.193313
vt 0.456077 0.204218
vt 0.606067 0.300386
vt 0.403846 0.167279
vt 0.410739 0.167113
vt 0.403614 0.154862
vt 0.410829 0.154653
vt 0.418124 0.154516
vt 0.258848 0.087890
vt 0.260591 0.086036
vt 0.263231 0.088067
vt 0.260789 0.090744
vt 0.261421 0.083790
vt 0.264527 0.084763
vt 0.264630 0.081068
vt 0.261467 0.081442
vt 0.267716 0.085785
vt 0.266116 0.089901
vt 0.267819 0.080631
vt 0.266399 0.076254
vt 0.263453 0.077671
vt 0.261157 0.074876
vt 0.263628 0.072641
vt 0.244771 0.095958
vt 0.240764 0.093229
vt 0.243364 0.090436
vt 0.246478 0.092499
vt 0.250118 0.093618
vt 0.249425 0.097415
vt 0.254308 0.097456
vt 0.253937 0.093658
vt 0.257592 0.092664
vt 0.253646 0.090040
vt 0.256438 0.089261
vt 0.250715 0.090054
vt 0.258980 0.096139
vt 0.263053 0.093551
vt 0.236188 0.085138
vt 0.237803 0.089505
vt 0.237838 0.089483
vt 0.236247 0.085133
vt 0.236103 0.080573
vt 0.236166 0.080603
vt 0.237577 0.076258
vt 0.237610 0.076312
vt 0.240490 0.072587
vt 0.240488 0.072633
vt 0.244706 0.069869
vt 0.244696 0.069883
vt 0.249733 0.068491
vt 0.249737 0.068482
vt 0.254906 0.068615
vt 0.254924 0.068588
vt 0.259648 0.070007
vt 0.259656 0.070016
vt 0.263615 0.072675
vt 0.266360 0.076286
vt 0.267776 0.080643
vt 0.267657 0.085788
vt 0.266077 0.089886
vt 0.263035 0.093533
vt 0.258973 0.096137
vt 0.254300 0.097445
vt 0.249421 0.097409
vt 0.244774 0.095945
vt 0.240780 0.093206
vt 0.000000 0.000000
s 1
usemtl Ch31_body
f 5/1/1 6/2/2 7/3/3 1/4/4
f 1/4/4 8/5/5 9/6/6 5/1/1
f 10/7/7 11/8/8 8/5/5 1/4/4
f 13/9/9 14/10/10 15/11/11 12/12/12
f 16/13/13 17/14/14 18/15/15 2/16/16
f 2/16/16 19/17/17 20/18/18 16/13/13
f 2/16/16 18/15/15 21/19/19 22/20/20
f 3/21/21 14/10/10 23/22/22 24/23/23
f 26/24/24 15/11/11 14/10/10 3/21/21
f 3/21/21 24/23/23 25/25/25 26/24/24
f 4/26/26 27/27/27 28/28/28 29/29/29
f 30/30/30 31/31/31 27/27/27 4/26/26
f 5/1/1 9/6/6 32/32/32 6/2/2
f 22/20/20 33/33/33 19/17/17 2/16/16
f 207/34/34 36/35/35 34/36/36 35/37/37
f 35/37/37 37/38/38 206/39/39 207/34/34
f 39/40/40 42/41/41 43/42/42 40/43/43
f 40/43/43 43/42/42 44/44/44 41/45/45
f 45/46/46 46/47/47 41/45/45 44/44/44
f 43/42/42 241/48/48 242/49/49 44/44/44
f 44/44/44 242/49/49 48/50/50 45/46/46
f 49/51/51 47/52/52 45/46/46 48/50/50
f 50/53/53 244/54/54 245/55/55 51/56/56
f 51/56/56 245/55/55 52/57/57 187/58/58
f 53/59/59 186/60/60 187/58/58 52/57/57
f 53/59/59 56/61/61 57/62/62 54/63/63
f 57/62/62 58/64/64 55/65/65 54/63/63
f 58/64/64 59/66/66 184/67/67 55/65/65
f 57/62/62 60/68/68 61/69/69 58/64/64
f 61/69/69 62/70/70 59/66/66 58/64/64
f 62/70/70 63/71/71 64/72/72 59/66/66
f 61/69/69 65/73/73 66/74/74 62/70/70
f 67/75/75 68/76/76 69/77/77 63/71/71
f 67/75/75 66/74/74 70/78/78 71/79/79
f 71/79/79 72/80/80 68/76/76 67/75/75
f 72/81/80 19/17/17 33/33/33 68/82/76
f 72/80/80 71/79/79 73/83/81 74/84/82
f 74/85/82 20/18/18 19/17/17 72/81/80
f 74/84/82 73/83/81 75/86/83 76/87/84
f 76/88/84 77/89/85 20/18/18 74/85/82
f 78/90/86 16/13/13 20/18/18 77/89/85
f 76/87/84 79/91/87 80/92/88 77/93/85
f 80/94/88 81/95/89 78/90/86 77/89/85
f 82/96/90 83/97/91 78/90/86 81/95/89
f 80/94/88 84/98/92 85/99/93 81/95/89
f 81/95/89 85/99/93 86/100/94 82/96/90
f 87/101/95 88/102/96 82/96/90 86/100/94
f 85/99/93 89/103/97 90/104/98 86/100/94
f 86/100/94 90/104/98 91/105/99 87/101/95
f 92/106/100 93/107/101 87/101/95 91/105/99
f 94/108/102 95/109/103 96/110/104 93/107/101
f 93/107/101 96/110/104 88/102/96 87/101/95
f 93/107/101 92/106/100 97/111/105 94/108/102
f 98/112/106 99/113/107 94/114/102 97/115/105
f 100/116/108 101/117/109 102/118/110 99/113/107
f 99/113/107 102/118/110 95/119/103 94/114/102
f 99/113/107 98/112/106 103/120/111 100/116/108
f 103/120/111 104/121/112 105/122/113 100/116/108
f 105/122/113 106/123/114 107/124/115 108/125/116
f 108/125/116 101/117/109 100/116/108 105/122/113
f 104/121/112 109/126/117 106/123/114 105/122/113
f 109/126/117 110/127/118 111/128/119 106/123/114
f 111/128/119 112/129/120 113/130/121 114/131/122
f 114/131/122 107/124/115 106/123/114 111/128/119
f 110/127/118 115/132/123 112/129/120 111/128/119
f 115/132/123 116/133/124 117/134/125 112/129/120
f 117/134/125 118/135/126 119/136/127 120/137/128
f 120/137/128 113/130/121 112/129/120 117/134/125
f 116/133/124 121/138/129 118/135/126 117/134/125
f 121/138/129 122/139/130 123/140/131 118/135/126
f 124/141/132 125/142/133 126/143/134 123/140/131
f 126/143/134 119/136/127 118/135/126 123/140/131
f 122/139/130 127/144/135 124/141/132 123/140/131
f 128/145/136 129/146/137 124/141/132 127/144/135
f 130/147/138 131/148/139 132/149/140 129/146/137
f 129/146/137 132/149/140 125/142/133 124/141/132
f 129/146/137 128/145/136 133/150/141 130/147/138
f 134/151/142 135/152/143 130/147/138 133/150/141
f 136/153/144 79/91/87 137/154/145 135/152/143
f 135/152/143 134/151/142 138/155/146 136/153/144
f 139/156/147 84/157/92 136/153/144 138/155/146
f 89/103/97 85/99/93 84/98/92 139/158/147
f 79/91/87 76/87/84 75/86/83 137/154/145
f 141/159/148 142/160/149 143/161/150 140/162/151
f 143/161/150 132/149/140 131/148/139 140/162/151
f 143/161/150 142/160/149 144/163/152 145/164/153
f 145/164/153 125/142/133 132/149/140 143/161/150
f 145/164/153 144/163/152 146/165/154 147/166/155
f 147/166/155 126/143/134 125/142/133 145/164/153
f 147/166/155 146/165/154 148/167/156 149/168/157
f 149/168/157 119/136/127 126/143/134 147/166/155
f 149/168/157 148/167/156 150/169/158 151/170/159
f 151/170/159 120/137/128 119/136/127 149/168/157
f 151/170/159 150/169/158 152/171/160 153/172/161
f 153/172/161 113/130/121 120/137/128 151/170/159
f 153/172/161 152/171/160 154/173/162 155/174/163
f 153/172/161 155/174/163 114/131/122 113/130/121
f 154/173/162 156/175/164 157/176/165 155/174/163
f 155/174/163 157/176/165 107/124/115 114/131/122
f 156/175/164 158/177/166 159/178/167 157/176/165
f 157/176/165 159/178/167 108/125/116 107/124/115
f 158/177/166 160/179/168 161/180/169 159/178/167
f 159/178/167 161/180/169 101/117/109 108/125/116
f 160/179/168 25/25/25 162/181/170 161/180/169
f 161/180/169 162/181/170 102/118/110 101/117/109
f 25/25/25 24/23/23 163/182/171 162/181/170
f 163/182/171 95/119/103 102/118/110 162/181/170
f 163/183/171 24/184/23 164/185/172 165/186/173
f 165/186/173 96/110/104 95/109/103 163/183/171
f 165/186/173 164/185/172 166/187/174 167/188/175
f 167/188/175 88/102/96 96/110/104 165/186/173
f 167/188/175 166/187/174 17/14/14 83/97/91
f 83/97/91 82/96/90 88/102/96 167/188/175
f 164/185/172 168/189/176 169/190/177 166/187/174
f 166/187/174 169/190/177 18/15/15 17/14/14
f 168/189/176 170/191/178 171/192/179 169/190/177
f 169/190/177 171/192/179 21/19/19 18/15/15
f 170/191/178 172/193/180 173/194/181 171/192/179
f 171/192/179 173/194/181 174/195/182 21/19/19
f 174/195/182 173/194/181 175/196/183 176/197/184
f 176/197/184 177/198/185 178/199/186 174/195/182
f 174/195/182 178/199/186 22/20/20 21/19/19
f 177/198/185 179/200/187 180/201/188 178/199/186
f 178/199/186 180/201/188 33/33/33 22/20/20
f 179/200/187 181/202/189 69/203/77 180/201/188
f 180/201/188 69/203/77 68/82/76 33/33/33
f 181/202/189 179/200/187 274/204/190 182/205/191
f 182/206/191 183/207/192 64/72/72 181/208/189
f 181/208/189 64/72/72 63/71/71 69/77/77
f 183/207/192 184/67/67 59/66/66 64/72/72
f 55/65/65 184/67/67 276/209/193 277/210/194
f 277/210/194 185/211/195 54/63/63 55/65/65
f 186/60/60 53/59/59 54/63/63 185/211/195
f 187/58/58 188/212/196 189/213/197 51/56/56
f 51/56/56 189/213/197 190/214/198 50/53/53
f 189/213/197 191/215/199 192/216/200 190/214/198
f 190/214/198 192/216/200 193/217/201 47/52/52
f 47/52/52 49/51/51 50/53/53 190/214/198
f 46/47/47 45/46/46 47/52/52 193/217/201
f 196/218/202 195/219/203 198/220/204 199/221/205
f 199/221/205 200/222/206 197/223/207 196/218/202
f 200/222/206 201/224/208 202/225/209 197/223/207
f 200/222/206 199/221/205 276/209/193 275/226/210
f 275/226/210 204/227/211 201/224/208 200/222/206
f 204/228/211 205/229/212 203/230/213 201/231/208
f 207/34/34 206/39/39 273/232/214 208/233/215
f 208/233/215 209/234/216 36/35/35 207/34/34
f 209/234/216 210/235/217 226/236/218 36/35/35
f 211/237/219 210/235/217 213/238/220 214/239/221
f 214/240/221 215/241/222 212/242/223 211/243/219
f 215/241/222 216/244/224 224/245/225 212/242/223
f 215/241/222 214/240/221 217/246/226 218/247/227
f 218/247/227 219/248/228 216/244/224 215/241/222
f 219/248/228 220/249/229 221/250/230 216/244/224
f 218/247/227 13/9/9 12/12/12 219/248/228
f 12/12/12 15/11/11 220/249/229 219/248/228
f 217/246/226 222/251/231 13/9/9 218/247/227
f 222/252/231 217/253/226 172/193/180 170/191/178
f 170/191/178 168/189/176 23/254/22 222/252/231
f 222/251/231 23/22/22 14/10/10 13/9/9
f 214/239/221 213/238/220 172/193/180 217/253/226
f 216/244/224 221/250/230 223/255/232 224/245/225
f 212/242/223 224/245/225 239/256/233 238/257/234
f 238/257/234 225/258/235 211/243/219 212/242/223
f 225/259/235 226/236/218 210/235/217 211/237/219
f 226/236/218 225/259/235 227/260/236 228/261/237
f 228/261/237 34/36/36 36/35/35 226/236/218
f 228/261/237 227/260/236 229/262/238 230/263/239
f 230/263/239 231/264/240 34/36/36 228/261/237
f 231/264/240 232/265/241 35/37/37 34/36/36
f 232/265/241 233/266/242 37/38/38 35/37/37
f 233/266/242 234/267/243 203/230/213 37/38/38
f 234/267/243 202/268/209 201/231/208 203/230/213
f 235/269/244 229/262/238 227/260/236 236/270/245
f 235/271/244 236/272/245 237/273/246 38/274/247
f 42/41/41 39/40/40 38/274/247 237/273/246
f 237/273/246 236/272/245 238/257/234 239/256/233
f 237/273/246 239/256/233 240/275/248 42/41/41
f 241/48/48 43/42/42 42/41/41 240/275/248
f 242/49/49 270/276/249 262/277/250 48/50/50
f 48/50/50 262/277/250 243/278/251 49/51/51
f 244/54/54 50/53/53 49/51/51 243/278/251
f 244/54/54 246/279/252 247/280/253 245/55/55
f 245/55/55 247/280/253 248/281/254 52/57/57
f 56/61/61 53/59/59 52/57/57 248/281/254
f 247/280/253 249/282/255 250/283/256 248/281/254
f 248/281/254 250/283/256 251/284/257 56/61/61
f 60/68/68 57/62/62 56/61/61 251/284/257
f 250/283/256 252/285/258 253/286/259 251/284/257
f 251/284/257 253/286/259 254/287/260 60/68/68
f 65/73/73 61/69/69 60/68/68 254/287/260
f 253/286/259 255/288/261 256/289/262 254/287/260
f 256/289/262 257/290/263 65/73/73 254/287/260
f 70/78/78 66/74/74 65/73/73 257/290/263
f 256/289/262 144/163/152 142/160/149 257/290/263
f 142/160/149 141/159/148 70/78/78 257/290/263
f 255/288/261 146/165/154 144/163/152 256/289/262
f 255/288/261 253/286/259 252/285/258 258/291/264
f 258/291/264 148/167/156 146/165/154 255/288/261
f 258/291/264 252/285/258 259/292/265 260/293/266
f 260/293/266 150/169/158 148/167/156 258/291/264
f 260/293/266 259/292/265 1/4/4 7/3/3
f 7/3/3 152/171/160 150/169/158 260/293/266
f 252/285/258 250/283/256 249/282/255 259/292/265
f 259/292/265 249/282/255 10/7/7 1/4/4
f 249/282/255 247/280/253 246/279/252 10/7/7
f 244/54/54 243/278/251 261/294/267 246/279/252
f 246/279/252 261/294/267 11/8/8 10/7/7
f 261/294/267 243/278/251 262/277/250 263/295/268
f 261/294/267 263/295/268 264/296/269 11/8/8
f 264/296/269 263/295/268 265/297/270 28/28/28
f 264/296/269 28/28/28 27/27/27 266/298/271
f 266/298/271 8/5/5 11/8/8 264/296/269
f 266/298/271 27/27/27 31/31/31 267/299/272
f 267/299/272 9/6/6 8/5/5 266/298/271
f 267/299/272 31/31/31 268/300/273 269/301/274
f 269/301/274 32/32/32 9/6/6 267/299/272
f 269/301/274 268/300/273 160/179/168 158/177/166
f 158/177/166 156/175/164 32/32/32 269/301/274
f 31/31/31 30/30/30 26/24/24 268/300/273
f 268/300/273 26/24/24 25/25/25 160/179/168
f 263/295/268 262/277/250 270/276/249 265/297/270
f 265/297/270 270/276/249 272/302/275 271/303/276
f 271/303/276 29/29/29 28/28/28 265/297/270
f 223/255/232 221/250/230 271/303/276 272/302/275
f 270/276/249 242/49/49 241/48/48 272/302/275
f 272/302/275 241/48/48 240/275/248 223/255/232
f 239/256/233 224/245/225 223/255/232 240/275/248
f 236/270/245 227/260/236 225/259/235 238/304/234
f 210/235/217 209/234/216 175/196/183 213/238/220
f 175/196/183 173/194/181 172/193/180 213/238/220
f 209/234/216 208/233/215 176/197/184 175/196/183
f 208/233/215 273/232/214 177/198/185 176/197/184
f 273/232/214 274/204/190 179/200/187 177/198/185
f 182/205/191 274/204/190 205/229/212 204/228/211
f 204/227/211 275/226/210 183/207/192 182/206/191
f 275/226/210 276/209/193 184/67/67 183/207/192
f 185/211/195 277/210/194 198/220/204 278/305/277
f 278/305/277 279/306/278 186/60/60 185/211/195
f 279/306/278 278/305/277 194/307/279 280/308/280
f 280/308/280 281/309/281 188/212/196 279/306/278
f 188/212/196 187/58/58 186/60/60 279/306/278
f 191/215/199 189/213/197 188/212/196 281/309/281
f 278/305/277 198/220/204 195/219/203 194/307/279
f 277/210/194 276/209/193 199/221/205 198/220/204
f 274/204/190 273/232/214 206/39/39 205/229/212
f 205/229/212 206/39/39 37/38/38 203/230/213
f 168/189/176 164/185/172 24/184/23 23/254/22
f 156/175/164 154/173/162 6/2/2 32/32/32
f 152/171/160 7/3/3 6/2/2 154/173/162
f 73/83/81 71/79/79 70/78/78 141/159/148
f 84/157/92 80/92/88 79/91/87 136/153/144
f 83/97/91 17/14/14 16/13/13 78/90/86
f 15/11/11 26/24/24 30/30/30 220/249/229
f 29/29/29 271/303/276 221/250/230 220/249/229
f 220/249/229 30/30/30 4/26/26 29/29/29
f 283/310/282 284/311/283 287/312/284 286/313/285
f 284/311/283 285/314/286 288/315/287 287/312/284
f 289/316/288 288/315/287 285/314/286 290/317/289
f 287/312/284 288/315/287 292/318/290 291/319/291
f 288/315/287 289/316/288 293/320/292 292/318/290
f 294/321/293 293/320/292 289/316/288 295/322/294
f 295/322/294 296/323/295 297/324/296 294/321/293
f 309/325/297 308/326/298 307/327/299 310/328/300
f 310/328/300 311/329/301 313/330/302 309/325/297
f 314/331/303 313/330/302 311/329/301 315/332/304
f 316/333/305 315/332/304 317/334/306 282/335/307
f 315/332/304 311/329/301 312/336/308 317/334/306
f 315/332/304 316/333/305 318/337/309 314/331/303
f 319/338/310 318/337/309 316/333/305 286/313/285
f 291/319/291 319/338/310 286/313/285 287/312/284
f 286/313/285 316/333/305 282/335/307 283/310/282
f 305/339/311 306/340/312 122/341/313 121/342/314
f 304/343/315 305/339/311 121/342/314 116/344/316
f 303/345/317 304/343/315 116/344/316 115/346/318
f 302/347/319 303/345/317 115/346/318 110/348/320
f 301/349/321 302/347/319 110/348/320 109/350/322
f 300/351/323 301/349/321 109/350/322 104/352/324
f 299/353/325 300/351/323 104/352/324 103/354/326
f 298/355/327 299/353/325 103/354/326 98/356/328
f 297/324/296 298/355/327 98/356/328 97/357/329
f 294/321/293 297/324/296 97/357/329 92/358/330
f 293/320/292 294/321/293 92/358/330 91/359/331
f 292/318/290 293/320/292 91/359/331 90/360/332
f 319/338/310 291/319/291 89/361/333 139/362/334
f 318/337/309 319/338/310 139/362/334 138/363/335
f 314/331/303 318/337/309 138/363/335 134/364/336
f 313/330/302 314/331/303 134/364/336 133/365/337
f 309/325/297 313/330/302 133/365/337 128/366/338
f 308/326/298 309/325/297 128/366/338 127/367/339
f 306/340/312 308/326/298 127/367/339 122/341/313
f 235/271/244 38/274/247 39/40/40
f 194/307/279 229/262/238 191/215/199
f 39/40/40 40/43/43 235/271/244
f 40/43/43 41/45/45 235/271/244
f 41/45/45 46/47/47 235/271/244
f 63/71/71 66/74/74 67/75/75
f 63/71/71 62/70/70 66/74/74
f 137/154/145 75/86/83 140/162/151
f 75/86/83 73/83/81 141/159/148
f 140/162/151 131/148/139 137/154/145
f 131/148/139 130/147/138 135/152/143
f 137/154/145 131/148/139 135/152/143
f 75/86/83 141/159/148 140/162/151
f 46/47/47 193/217/201 229/262/238
f 193/217/201 192/216/200 229/262/238
f 192/216/200 191/215/199 229/262/238
f 191/215/199 281/309/281 280/308/280
f 280/308/280 194/307/279 191/215/199
f 194/307/279 195/219/203 196/218/202
f 229/262/238 194/307/279 196/218/202
f 196/218/202 197/223/207 232/265/241
f 229/262/238 196/218/202 230/263/239
f 197/223/207 202/268/209 232/265/241
f 202/268/209 234/267/243 232/265/241
f 234/267/243 233/266/242 232/265/241
f 232/265/241 231/264/240 230/263/239
f 229/262/238 235/271/244 46/47/47
f 232/265/241 230/263/239 196/218/202
s 0
f 134/368/340 104/368/340 138/368/340
f 138/368/340 103/368/340 139/368/340
f 139/368/340 103/368/340 89/368/340
f 89/368/340 103/368/340 90/368/340
f 90/368/340 98/368/340 91/368/340
f 103/368/340 98/368/340 90/368/340
f 91/368/340 97/368/340 92/368/340
f 97/368/340 91/368/340 98/368/340
f 103/368/340 138/368/340 104/368/340
f 104/368/340 133/368/340 109/368/340
f 109/368/340 127/368/340 110/368/340
f 110/368/340 122/368/341 115/368/341
f 127/368/340 122/368/340 110/368/340
f 115/368/342 121/368/342 116/368/342
f 121/368/340 115/368/340 122/368/340
f 127/368/340 109/368/340 128/368/340
f 128/368/340 109/368/340 133/368/340
f 133/368/340 104/368/340 134/368/340
