# Blender 5.0.1
# www.blender.org
mtllib forearm_sweater.mtl
o Ch31_Sweater.003
v -0.244246 1.350742 -0.016642
v -0.176740 1.307876 -0.016285
v -0.250956 1.415210 -0.031564
v -0.248674 1.412387 -0.023668
v -0.160830 1.449509 0.021783
v -0.250049 1.365031 -0.022978
v -0.252354 1.349188 -0.030421
v -0.171312 1.299787 -0.030655
v -0.173255 1.326484 -0.021209
v -0.167017 1.321721 -0.032022
v -0.254265 1.401430 -0.038782
v -0.251366 1.394912 -0.027681
v -0.253622 1.377469 -0.028707
v -0.247902 1.386417 -0.018606
v -0.189961 1.452459 0.014783
v -0.190914 1.437620 0.023790
v -0.169483 1.430223 0.032145
v -0.149376 1.414619 0.047652
v -0.136360 1.430652 0.041068
v -0.120326 1.442727 0.034852
v -0.135428 1.457538 0.018439
v -0.144542 1.472206 0.001155
v -0.169770 1.468866 0.002817
v -0.166845 1.392126 -0.117814
v -0.153043 1.382332 -0.127295
v -0.151449 1.359827 -0.120457
v -0.175411 1.390189 -0.100926
v -0.179048 1.401133 -0.111928
v -0.174832 1.384278 -0.086211
v -0.163422 1.369070 -0.107021
v -0.169010 1.362344 -0.086369
v -0.167702 1.333217 -0.078546
v -0.152999 1.334394 -0.108258
v -0.154600 1.401609 -0.129905
v -0.156671 1.419109 -0.130465
v -0.171052 1.409350 -0.123067
v -0.175564 1.424071 -0.125591
v -0.180202 1.437762 -0.125310
v -0.158963 1.435343 -0.128758
v -0.184378 1.412580 -0.118664
v -0.190624 1.423788 -0.122178
v -0.197250 1.434760 -0.122535
v -0.203567 1.445446 -0.118346
v -0.184411 1.450601 -0.121087
v -0.200640 1.417775 -0.118009
v -0.209191 1.425909 -0.117777
v -0.217272 1.434174 -0.113419
v -0.223958 1.442330 -0.105245
v -0.208302 1.455156 -0.109465
v -0.215764 1.410837 -0.113191
v -0.225697 1.417167 -0.108727
v -0.228570 1.449917 -0.093873
v -0.234107 1.423783 -0.100826
v -0.240314 1.430466 -0.089708
v -0.243721 1.436823 -0.076356
v -0.240505 1.402197 -0.097634
v -0.246840 1.407882 -0.085748
v -0.251517 1.413953 -0.072782
v -0.252596 1.419737 -0.058250
v -0.251192 1.425186 -0.044021
v -0.254815 1.388282 -0.068824
v -0.256312 1.394652 -0.054378
v -0.256861 1.360799 -0.065579
v -0.255165 1.366172 -0.050876
v -0.253315 1.371967 -0.037518
v -0.254668 1.335790 -0.061925
v -0.255552 1.341144 -0.047067
v -0.256659 1.310161 -0.059458
v -0.255024 1.313857 -0.045033
v -0.250553 1.317301 -0.030827
v -0.242525 1.318123 -0.018085
v -0.244490 1.288674 -0.017451
v -0.234229 1.287470 -0.006723
v -0.220769 1.285222 0.000056
v -0.205704 1.282294 0.000301
v -0.223083 1.256417 -0.000978
v -0.208132 1.253586 -0.001089
v -0.194782 1.251130 -0.007275
v -0.184675 1.249173 -0.017537
v -0.198768 1.223703 -0.009763
v -0.187551 1.221622 -0.017692
v -0.180928 1.220268 -0.029442
v -0.175502 1.218722 -0.041159
v -0.194342 1.196683 -0.021040
v -0.185843 1.194912 -0.029849
v -0.177546 1.193356 -0.039479
v -0.173816 1.192223 -0.052346
v -0.188188 1.169956 -0.027307
v -0.181559 1.168761 -0.038477
v -0.179510 1.168495 -0.050904
v -0.180696 1.168544 -0.063469
v -0.175461 1.191837 -0.065797
v -0.186314 1.168992 -0.075192
v -0.218594 1.172017 -0.096738
v -0.206086 1.170726 -0.091836
v -0.195171 1.169493 -0.084727
v -0.202144 1.194057 -0.094680
v -0.190952 1.192889 -0.087380
v -0.181698 1.192147 -0.077730
v -0.177244 1.216281 -0.079992
v -0.171932 1.216592 -0.067399
v -0.170540 1.217360 -0.053565
v -0.170673 1.242993 -0.055105
v -0.173059 1.244745 -0.042039
v -0.177878 1.246878 -0.029562
v -0.174756 1.273737 -0.029869
v -0.181325 1.277521 -0.017099
v -0.191291 1.279403 -0.005464
v -0.188973 1.307606 -0.005181
v -0.202752 1.311068 0.001831
v -0.218732 1.314497 0.002219
v -0.232486 1.316494 -0.006333
v -0.216123 1.344973 0.001613
v -0.231538 1.345690 -0.004400
v -0.219665 1.368652 0.002445
v -0.229910 1.370898 -0.003578
v -0.239983 1.376685 -0.011463
v -0.230778 1.394778 0.001034
v -0.239335 1.400780 -0.005727
v -0.244751 1.407112 -0.014843
v -0.240294 1.425862 -0.010507
v -0.244604 1.429615 -0.021043
v -0.247881 1.430194 -0.032100
v -0.235972 1.448346 -0.018750
v -0.239778 1.449522 -0.032392
v -0.243011 1.447179 -0.046788
v -0.244551 1.442647 -0.061786
v -0.228400 1.465799 -0.048784
v -0.230411 1.462340 -0.064918
v -0.230718 1.456751 -0.080133
v -0.210967 1.476435 -0.067681
v -0.211969 1.471043 -0.083544
v -0.211175 1.463750 -0.097620
v -0.189971 1.480117 -0.086766
v -0.189519 1.472208 -0.101173
v -0.187616 1.462207 -0.112816
v -0.164084 1.476085 -0.104626
v -0.162919 1.464139 -0.116147
v -0.161111 1.450464 -0.124007
v -0.164454 1.485007 -0.089789
v -0.163687 1.490259 -0.072687
v -0.188746 1.485446 -0.070306
v -0.185941 1.487608 -0.052399
v -0.161216 1.491706 -0.054396
v -0.208464 1.479365 -0.050541
v -0.204476 1.479228 -0.032750
v -0.181633 1.486264 -0.033870
v -0.224918 1.466710 -0.032513
v -0.199506 1.474918 -0.015283
v -0.220637 1.464109 -0.016818
v -0.231479 1.443892 -0.006425
v -0.234525 1.420116 -0.001440
v -0.227252 1.413534 0.005093
v -0.221383 1.390220 0.004757
v -0.212799 1.386580 0.005321
v -0.211987 1.369651 0.006604
v -0.204743 1.382086 0.005571
v -0.196265 1.376599 0.001739
v -0.203886 1.366224 0.004219
v -0.195793 1.359159 -0.000077
v -0.188771 1.372386 -0.005950
v -0.181325 1.368618 -0.014083
v -0.186010 1.353262 -0.005806
v -0.177160 1.349287 -0.013057
v -0.186358 1.332283 -0.002559
v -0.177875 1.329031 -0.013429
v -0.170958 1.346171 -0.022694
v -0.166697 1.343060 -0.034173
v -0.162001 1.315187 -0.058179
v -0.167275 1.295243 -0.043814
v -0.164597 1.292043 -0.057136
v -0.166817 1.290362 -0.070375
v -0.170436 1.289206 -0.083158
v -0.173067 1.265446 -0.082056
v -0.179284 1.265098 -0.094389
v -0.190734 1.266108 -0.102581
v -0.204314 1.267931 -0.105958
v -0.194023 1.241949 -0.100450
v -0.207258 1.243588 -0.104910
v -0.221443 1.245967 -0.104090
v -0.233964 1.248495 -0.097848
v -0.224456 1.221613 -0.100631
v -0.237387 1.223976 -0.096789
v -0.250549 1.226578 -0.091470
v -0.258305 1.228943 -0.079499
v -0.241146 1.200063 -0.094245
v -0.253291 1.202425 -0.088165
v -0.262506 1.204836 -0.077361
v -0.265871 1.206666 -0.064045
v -0.256878 1.178315 -0.085006
v -0.264939 1.180455 -0.073836
v -0.268496 1.182274 -0.061182
v -0.270747 1.183517 -0.048476
v -0.266788 1.208101 -0.051106
v -0.270146 1.184415 -0.035787
v -0.210276 1.174195 -0.018286
v -0.221024 1.176537 -0.013665
v -0.232522 1.178778 -0.011600
v -0.216525 1.200982 -0.010470
v -0.228759 1.203376 -0.008975
v -0.240865 1.205711 -0.011161
v -0.243794 1.181117 -0.013509
v -0.251635 1.207657 -0.017017
v -0.255049 1.182980 -0.016611
v -0.261102 1.209027 -0.025686
v -0.264496 1.184121 -0.024418
v -0.265565 1.208984 -0.038110
v -0.260557 1.233305 -0.040186
v -0.263626 1.232525 -0.053095
v -0.262773 1.230979 -0.066774
v -0.258893 1.256189 -0.068729
v -0.256333 1.253914 -0.082605
v -0.245558 1.251002 -0.091713
v -0.245586 1.275743 -0.097509
v -0.231417 1.272695 -0.101797
v -0.218129 1.270307 -0.103848
v -0.201505 1.291812 -0.106078
v -0.187678 1.289779 -0.104153
v -0.176296 1.288799 -0.095527
v -0.173937 1.312017 -0.096425
v -0.166877 1.312089 -0.084597
v -0.162466 1.313015 -0.071729
v -0.163647 1.334230 -0.086077
v -0.177741 1.381317 -0.023562
v -0.174249 1.365435 -0.023232
v -0.183079 1.383736 -0.013320
v -0.189298 1.386953 -0.004622
v -0.196071 1.391110 0.002278
v -0.203302 1.396004 0.006493
v -0.211020 1.401437 0.008613
v -0.214626 1.420060 0.014019
v -0.219123 1.407054 0.008505
v -0.220595 1.428666 0.010532
v -0.226279 1.437003 0.003622
v -0.208520 1.437277 0.016791
v -0.211764 1.448482 0.008927
v -0.216059 1.457909 -0.002613
v -0.194171 1.465860 0.000796
v -0.176242 1.480426 -0.015297
v -0.151159 1.482612 -0.017272
v -0.157107 1.489443 -0.035669
v -0.177979 1.392421 -0.085879
v -0.180540 1.396123 -0.098613
v -0.174030 1.387990 -0.086470
v -0.185514 1.402278 -0.108882
v -0.178424 1.390369 -0.098628
v -0.185808 1.394364 -0.107577
v -0.195216 1.399395 -0.112682
v -0.185082 1.378760 -0.107106
v -0.196246 1.382453 -0.111528
v -0.208020 1.386751 -0.112325
v -0.219639 1.391467 -0.110124
v -0.208934 1.364869 -0.111463
v -0.221558 1.368773 -0.108756
v -0.233040 1.372658 -0.102754
v -0.242552 1.377189 -0.093661
v -0.223072 1.344504 -0.107520
v -0.234963 1.347905 -0.101095
v -0.244487 1.351577 -0.091052
v -0.251214 1.355814 -0.079028
v -0.247640 1.327639 -0.089266
v -0.252569 1.331378 -0.075866
v -0.248900 1.303203 -0.086221
v -0.253944 1.306540 -0.073241
v -0.252317 1.278837 -0.084056
v -0.255758 1.281455 -0.070966
v -0.257409 1.284212 -0.057246
v -0.256726 1.286709 -0.043335
v -0.251799 1.288350 -0.029906
v -0.259073 1.259803 -0.041495
v -0.253663 1.260533 -0.028916
v -0.246421 1.260301 -0.017096
v -0.236453 1.258858 -0.006997
v -0.248584 1.233043 -0.017083
v -0.238541 1.231197 -0.008116
v -0.225228 1.228528 -0.004333
v -0.211579 1.225929 -0.004609
v -0.204822 1.198677 -0.014494
v -0.199413 1.172001 -0.022037
v -0.255809 1.233722 -0.028028
v -0.260882 1.258306 -0.055269
v -0.240091 1.299982 -0.096520
v -0.229389 1.296740 -0.106367
v -0.214944 1.293992 -0.107366
v -0.226070 1.320812 -0.106804
v -0.212422 1.317661 -0.110979
v -0.198276 1.315027 -0.109269
v -0.185103 1.313125 -0.104739
v -0.196103 1.338294 -0.110236
v -0.182894 1.335940 -0.105603
v -0.171577 1.334497 -0.097429
v -0.183308 1.358528 -0.106742
v -0.172565 1.356546 -0.098561
v -0.165366 1.355873 -0.086861
v -0.169351 1.374542 -0.086993
v -0.180312 1.391683 -0.022351
v -0.184888 1.393722 -0.011733
v -0.182079 1.394488 -0.020114
v -0.185684 1.396186 -0.008926
v -0.189644 1.398548 0.001212
v -0.190052 1.396522 -0.002401
v -0.194141 1.402213 0.009888
v -0.195958 1.400445 0.005037
v -0.198555 1.407879 0.016672
v -0.202119 1.405696 0.010575
v -0.202503 1.415990 0.020494
v -0.208349 1.412171 0.013760
v -0.205728 1.426033 0.020604
v -0.192953 1.412274 0.028412
v -0.192336 1.424087 0.028249
v -0.181178 1.401626 0.037263
v -0.176053 1.414726 0.036894
v -0.169310 1.385425 0.048075
v -0.160446 1.399157 0.050169
v -0.174945 1.373989 0.041405
v -0.176965 1.365841 0.031111
v -0.175929 1.360955 0.019402
v -0.183744 1.390943 0.032371
v -0.183095 1.384116 0.023320
v -0.180300 1.381063 0.012409
v -0.177118 1.379328 0.000817
v -0.173786 1.358039 0.007283
v -0.189521 1.396380 0.016146
v -0.186180 1.393184 0.006060
v -0.182905 1.391231 -0.004864
v -0.179836 1.389374 -0.016450
v -0.174224 1.376857 -0.011098
v -0.171105 1.356431 -0.005100
v -0.177383 1.386758 -0.028587
v -0.172503 1.371825 -0.023083
v -0.175492 1.375929 -0.098871
v -0.195948 1.361439 -0.110952
v -0.209887 1.341270 -0.110720
v -0.237606 1.324025 -0.099227
v -0.170684 1.352947 -0.017956
v -0.192086 1.402670 0.024215
v -0.251755 1.382604 -0.083196
v -0.230449 1.396542 -0.105275
v -0.205436 1.404938 -0.114383
v -0.192566 1.409847 -0.115064
v -0.245760 1.176016 -0.093533
v -0.232379 1.173685 -0.098017
v -0.228653 1.197680 -0.099953
v -0.214531 1.195442 -0.100247
v -0.210671 1.219262 -0.102864
v -0.197666 1.217753 -0.097683
v -0.186552 1.216775 -0.090013
v -0.182640 1.240933 -0.092568
v -0.174996 1.240986 -0.081054
v -0.173096 1.241960 -0.067848
v -0.169680 1.266456 -0.069251
v -0.167603 1.267918 -0.056074
v -0.170266 1.270483 -0.042882
v -0.201234 1.340328 0.000990
v -0.204564 1.353937 0.003880
v -0.210483 1.355616 0.005135
vn -0.8500 -0.1175 0.5134
vn -0.9380 -0.0388 0.3445
vn -0.9076 -0.0076 0.4198
vn -0.8068 -0.0050 0.5908
vn -0.7737 -0.0644 0.6303
vn 0.8108 -0.0930 0.5779
vn 0.9346 -0.1083 0.3388
vn 0.9220 -0.0633 0.3821
vn 0.8536 -0.0425 0.5192
vn 0.8172 -0.0421 0.5748
vn -0.9450 0.1311 0.2998
vn -0.9809 0.0564 0.1862
vn -0.9395 0.0925 0.3299
vn -0.9171 0.0928 0.3878
vn -0.9738 0.0232 0.2261
vn -0.8563 -0.0730 0.5113
vn -0.8381 -0.0012 0.5456
vn -0.2179 0.5949 0.7737
vn -0.2718 0.4197 0.8660
vn -0.2354 0.4686 0.8514
vn -0.1449 0.6109 0.7784
vn 0.6094 0.0934 0.7873
vn 0.6420 0.2500 0.7248
vn 0.7103 0.7022 -0.0481
vn 0.6149 0.5053 0.6054
vn 0.6788 0.5708 0.4620
vn -0.0935 0.7536 0.6507
vn -0.6619 -0.3869 -0.6420
vn 0.3827 -0.4264 -0.8196
vn 0.2962 -0.4791 -0.8263
vn -0.8500 -0.2967 -0.4352
vn -0.8240 -0.5074 -0.2520
vn -0.5497 -0.6143 -0.5660
vn 0.2006 0.6691 -0.7156
vn -0.2448 0.7129 -0.6572
vn 0.2383 -0.5041 -0.8301
vn -0.4892 0.8286 -0.2723
vn 0.5010 -0.3015 -0.8113
vn -0.4277 -0.3221 -0.8446
vn -0.2455 -0.1477 -0.9581
vn 0.5836 -0.1492 -0.7982
vn -0.1621 0.1163 -0.9799
vn 0.6319 0.0560 -0.7730
vn -0.2806 -0.4834 -0.8292
vn -0.2110 -0.2622 -0.9417
vn -0.2619 0.0264 -0.9647
vn -0.3746 0.3405 -0.8624
vn -0.1727 0.4070 -0.8969
vn -0.1632 -0.2711 -0.9486
vn -0.3592 -0.0739 -0.9303
vn -0.5382 0.1547 -0.8285
vn -0.6475 0.3591 -0.6721
vn -0.4592 0.5668 -0.6840
vn -0.3406 -0.1037 -0.9345
vn -0.5599 0.0242 -0.8282
vn -0.7229 0.1782 -0.6675
vn -0.8387 0.2739 -0.4708
vn -0.7064 0.5086 -0.4923
vn -0.7566 0.0425 -0.6525
vn -0.8786 0.1578 -0.4508
vn -0.9464 0.1730 -0.2730
vn -0.8773 0.3791 -0.2942
vn -0.9708 0.2291 -0.0710
vn -0.8887 0.4390 -0.1323
vn -0.9819 0.0830 -0.1704
vn -0.9989 0.0473 0.0032
vn -0.9666 0.2459 0.0728
vn -0.9914 -0.0211 -0.1294
vn -0.9915 0.0035 0.1299
vn -0.9968 -0.0380 0.0702
vn -0.9978 0.0025 0.0662
vn -0.9950 -0.0190 -0.0977
vn -0.9975 0.0495 -0.0504
vn -0.9788 0.0345 0.2019
vn -0.9788 0.0863 0.1856
vn -0.9041 0.0627 0.4226
vn -0.7954 0.0640 0.6026
vn -0.5924 0.0318 0.8050
vn -0.6525 0.0043 0.7577
vn -0.5684 0.0248 0.8224
vn -0.2138 -0.0583 0.9751
vn -0.2444 -0.0347 0.9691
vn 0.2017 -0.1062 0.9737
vn 0.1686 -0.0622 0.9837
vn 0.5552 -0.1388 0.8201
vn 0.5696 -0.0899 0.8170
vn 0.1641 -0.1995 0.9661
vn 0.4411 -0.2050 0.8737
vn 0.7155 -0.1772 0.6758
vn 0.7851 -0.0941 0.6122
vn 0.8744 -0.1359 0.4657
vn 0.8924 -0.0995 0.4401
vn 0.5909 -0.2085 0.7794
vn 0.7304 -0.0751 0.6789
vn 0.8729 -0.0811 0.4811
vn 0.9130 -0.0593 0.4036
vn 0.9805 -0.1760 0.0875
vn 0.9879 -0.0533 0.1459
vn 0.7062 0.0066 0.7080
vn 0.8795 -0.0374 0.4744
vn 0.9767 -0.1806 0.1160
vn 0.9321 -0.2117 -0.2939
vn 0.9367 -0.1949 -0.2909
vn 0.4665 -0.1619 -0.8696
vn 0.4548 -0.1894 -0.8702
vn 0.6152 -0.1985 -0.7630
vn 0.6214 -0.1888 -0.7604
vn 0.7900 -0.2092 -0.5764
vn 0.7891 -0.2170 -0.5747
vn 0.6350 -0.1904 -0.7487
vn 0.8304 -0.1494 -0.5368
vn 0.9682 -0.0554 -0.2439
vn 0.9858 -0.0509 -0.1601
vn 0.9983 -0.0583 -0.0015
vn 0.9561 -0.0877 0.2797
vn 0.9542 -0.0987 0.2824
vn 0.9039 -0.1031 0.4151
vn 0.8106 -0.1233 0.5724
vn 0.5592 -0.0983 0.8232
vn 0.2355 -0.0310 0.9714
vn -0.2641 -0.0009 0.9645
vn -0.2197 -0.0835 0.9720
vn -0.5444 -0.0170 0.8387
vn -0.4759 -0.0908 0.8748
vn -0.5900 -0.0698 0.8044
vn -0.6887 -0.0971 0.7185
vn -0.5539 -0.1355 0.8215
vn -0.7653 -0.0461 0.6421
vn -0.8703 0.0697 0.4876
vn -0.8391 0.1796 0.5136
vn -0.8949 0.2559 0.3656
vn -0.9333 0.2834 0.2207
vn -0.7865 0.4961 0.3678
vn -0.8345 0.5159 0.1937
vn -0.8713 0.4899 0.0278
vn -0.6817 0.7315 0.0145
vn -0.7128 0.6851 -0.1501
vn -0.7266 0.6103 -0.3155
vn -0.4947 0.8516 -0.1731
vn -0.5080 0.7900 -0.3433
vn -0.4981 0.7000 -0.5118
vn -0.3105 0.8725 -0.3773
vn -0.2925 0.7704 -0.5665
vn -0.2406 0.6231 -0.7442
vn 0.6141 0.6098 -0.5011
vn 0.6355 0.4405 -0.6341
vn 0.6525 0.2502 -0.7153
vn 0.6216 0.7123 -0.3258
vn -0.2953 0.9385 -0.1791
vn 0.6232 0.7684 -0.1456
vn -0.2503 0.9679 0.0217
vn 0.6389 0.7687 0.0303
vn -0.4551 0.8904 0.0049
vn -0.3951 0.8945 0.2093
vn -0.1888 0.9548 0.2298
vn -0.6340 0.7481 0.1961
vn -0.5701 0.7227 0.3908
vn -0.3219 0.8422 0.4325
vn -0.7307 0.4199 0.5383
vn -0.7354 0.0944 0.6710
vn -0.6632 0.2923 0.6890
vn -0.5868 -0.0436 0.8086
vn -0.2920 -0.1608 0.9428
vn -0.3670 -0.1969 0.9092
vn -0.1228 -0.0004 0.9924
vn -0.1013 -0.0590 0.9931
vn 0.1722 -0.0573 0.9834
vn 0.2225 -0.2418 0.9445
vn -0.0904 -0.3025 0.9488
vn 0.3715 -0.0591 0.9265
vn 0.4993 -0.0676 0.8638
vn 0.5552 -0.0698 0.8288
vn 0.7415 0.0341 0.6701
vn 0.7521 -0.0392 0.6579
vn 0.5467 -0.1263 0.8278
vn 0.5885 0.1212 0.7994
vn 0.7624 0.0745 0.6428
vn 0.7832 0.1435 0.6050
vn 0.9405 0.0812 0.3299
vn 0.9120 0.2272 0.3414
vn 0.5305 -0.0186 0.8475
vn 0.9761 0.1581 0.1494
vn 0.9911 -0.1273 0.0393
vn 0.9665 -0.1614 -0.1996
vn 0.9973 0.0096 -0.0724
vn 0.9946 0.0684 0.0779
vn 0.9917 -0.1222 0.0399
vn 0.9719 -0.1365 -0.1916
vn 0.9314 -0.1027 -0.3493
vn 0.9296 -0.1425 -0.3399
vn 0.7495 -0.1392 -0.6472
vn 0.7699 -0.1153 -0.6277
vn 0.4056 -0.1236 -0.9056
vn 0.7008 -0.1682 -0.6933
vn 0.4320 -0.1521 -0.8890
vn 0.1217 -0.0789 -0.9894
vn 0.0419 -0.0256 -0.9988
vn -0.2606 -0.0289 -0.9650
vn -0.1602 -0.0444 -0.9861
vn 0.0953 -0.1098 -0.9894
vn -0.2298 -0.0488 -0.9720
vn -0.3338 -0.0203 -0.9424
vn -0.4609 -0.0305 -0.8869
vn -0.6299 0.0429 -0.7755
vn -0.5645 -0.0468 -0.8241
vn -0.4297 0.0133 -0.9029
vn -0.6188 -0.0236 -0.7852
vn -0.8813 0.0662 -0.4679
vn -0.8903 0.0633 -0.4510
vn -0.9809 0.0953 -0.1697
vn -0.9697 0.1166 -0.2149
vn -0.6383 0.0172 -0.7696
vn -0.8724 0.0813 -0.4820
vn -0.9626 0.1259 -0.2399
vn -0.9845 0.1623 -0.0664
vn -0.9897 0.1433 -0.0023
vn -0.0482 -0.0954 0.9943
vn 0.2869 -0.1375 0.9481
vn 0.1808 -0.2100 0.9608
vn -0.0540 -0.1369 0.9891
vn -0.3411 -0.0657 0.9377
vn -0.2808 -0.0134 0.9597
vn -0.5696 0.0812 0.8179
vn -0.5087 0.0697 0.8581
vn -0.8144 0.1835 0.5505
vn -0.7939 0.1625 0.5859
vn -0.9573 0.2052 0.2036
vn -0.9577 0.1981 0.2089
vn -0.8755 0.1564 0.4572
vn -0.9462 0.1416 0.2910
vn -0.9897 0.1229 0.0734
vn -0.9928 0.1177 -0.0236
vn -0.9763 0.1209 -0.1797
vn -0.8591 0.0557 -0.5087
vn -0.9219 0.1169 -0.3693
vn -0.6462 -0.0014 -0.7631
vn -0.2423 -0.1501 -0.9585
vn -0.0116 -0.1545 -0.9879
vn 0.1019 -0.0818 -0.9914
vn 0.3735 -0.0853 -0.9237
vn 0.4570 -0.0768 -0.8861
vn 0.7348 -0.1034 -0.6703
vn 0.9373 -0.0723 -0.3409
vn 0.9504 0.1711 0.2597
vn 0.8577 0.0765 0.5085
vn 0.9517 -0.0449 0.3038
vn 0.6696 -0.4275 0.6073
vn 0.1921 -0.6707 0.7164
vn -0.1510 -0.6242 0.7666
vn -0.3530 -0.4323 0.8297
vn -0.4969 -0.1489 0.8549
vn -0.5917 0.1037 0.7995
vn -0.4559 0.3112 0.8338
vn -0.4515 0.5101 0.7321
vn -0.4991 0.6446 0.5792
vn -0.2464 0.7371 0.6292
vn -0.1162 0.8838 0.4533
vn 0.6918 0.6462 0.3222
vn 0.6565 0.7278 0.1985
vn 0.2544 -0.7971 -0.5477
vn 0.1612 -0.5651 -0.8091
vn 0.5391 0.7756 -0.3284
vn 0.8598 0.2598 -0.4396
vn 0.6326 -0.0262 -0.7740
vn 0.0817 -0.5574 -0.8262
vn 0.7915 0.1462 -0.5934
vn 0.5277 0.0254 -0.8491
vn 0.2061 -0.0438 -0.9775
vn 0.2314 -0.1644 -0.9589
vn -0.0881 -0.0630 -0.9941
vn -0.0852 -0.1666 -0.9823
vn 0.1784 -0.0201 -0.9837
vn -0.0961 -0.0282 -0.9950
vn -0.3500 -0.0242 -0.9365
vn -0.3295 -0.0549 -0.9426
vn -0.5933 -0.0101 -0.8049
vn -0.5301 -0.0314 -0.8473
vn -0.3591 -0.0032 -0.9333
vn -0.6080 -0.0001 -0.7939
vn -0.8047 0.0369 -0.5926
vn -0.7346 -0.0412 -0.6773
vn -0.9039 -0.0524 -0.4245
vn -0.8967 0.0196 -0.4421
vn -0.6316 -0.0096 -0.7752
vn -0.8397 0.0232 -0.5426
vn -0.9680 0.0259 -0.2497
vn -0.8544 0.0228 -0.5192
vn -0.9576 0.0320 -0.2864
vn -0.9765 0.0770 -0.2015
vn -0.9959 0.0762 -0.0492
vn -0.9626 0.0844 0.2575
vn -0.8861 0.0799 0.4565
vn -0.7839 0.0618 0.6177
vn -0.7501 0.0761 0.6570
vn -0.4851 -0.0299 0.8739
vn -0.1484 -0.1342 0.9798
vn 0.3790 -0.2419 0.8932
vn 0.3642 -0.1567 0.9181
vn 0.5885 -0.0470 0.8071
vn -0.7062 0.0947 -0.7017
vn -0.4022 -0.0494 -0.9142
vn -0.4194 0.0395 -0.9069
vn -0.0966 -0.0590 -0.9936
vn 0.2092 -0.1132 -0.9713
vn 0.1837 -0.0423 -0.9821
vn 0.4655 -0.0554 -0.8833
vn 0.7188 -0.0529 -0.6932
vn 0.4740 0.0023 -0.8805
vn 0.7467 0.0515 -0.6632
vn 0.7600 -0.2605 -0.5955
vn 0.9595 0.1008 -0.2631
vn 0.9872 0.0308 0.1565
vn -0.1010 -0.9749 0.1986
vn -0.4301 -0.8853 0.1766
vn -0.5650 -0.7913 0.2337
vn -0.6257 -0.6327 0.4562
vn -0.5921 -0.3315 0.7345
vn -0.5098 0.0244 0.8599
vn -0.6486 -0.1315 0.7497
vn -0.4171 0.1833 0.8902
vn -0.6241 0.0455 0.7800
vn -0.3729 0.3022 0.8773
vn 0.2763 -0.4035 0.8723
vn 0.4884 -0.0783 0.8691
vn -0.1049 -0.9943 0.0174
vn -0.0296 -0.8344 0.5504
vn -0.8546 -0.2414 0.4598
vn -0.9262 -0.3709 0.0670
vn -0.9124 -0.3846 -0.1400
vn -0.0498 -0.9521 -0.3016
vn -0.9155 -0.3621 -0.1751
vn -0.0584 -0.8985 -0.4350
vn -0.8378 -0.5456 0.0177
vn -0.8094 -0.5699 -0.1417
vn -0.8247 -0.5411 -0.1647
vn -0.7327 -0.6583 -0.1725
vn -0.9442 -0.3132 -0.1023
vn -0.0083 -0.8268 -0.5624
vn -0.2748 -0.8939 -0.3542
vn 0.0135 -0.9872 -0.1589
vn -0.9755 -0.2147 -0.0484
vn 0.6050 0.6630 -0.4409
vn -0.1044 -0.0001 -0.9945
vn -0.1152 -0.9460 -0.3031
vn -0.8231 -0.4164 0.3861
vn -0.0157 -0.4129 -0.9106
vn -0.4468 0.0352 -0.8939
vn -0.2256 -0.0160 -0.9741
vn -0.1374 -0.0250 -0.9902
vn 0.1774 -0.1556 -0.9718
vn 0.1388 -0.1401 -0.9804
vn 0.4505 -0.1822 -0.8740
vn 0.9318 -0.0933 -0.3508
vn 0.9609 -0.1136 0.2526
vn 0.1590 -0.0271 0.9869
vn -0.0762 -0.1904 0.9787
vn 0.2534 -0.0969 0.9625
vn 0.1048 0.9943 -0.0174
vn 0.7328 0.6582 0.1724
vn 0.0496 0.9522 0.3015
vn 0.0583 0.8986 0.4349
vn 0.2747 0.8939 0.3542
vn 0.1153 0.9460 0.3030
vn -0.0137 0.9872 0.1589
vt 0.641762 0.189017
vt 0.647270 0.183582
vt 0.650091 0.191459
vt 0.648197 0.206098
vt 0.640270 0.204453
vt 0.597940 0.203531
vt 0.590120 0.207934
vt 0.588180 0.196066
vt 0.594647 0.193668
vt 0.599319 0.192439
vt 0.656581 0.165647
vt 0.658731 0.172185
vt 0.652082 0.172789
vt 0.651917 0.165157
vt 0.651526 0.179447
vt 0.646111 0.174400
vt 0.234911 0.878562
vt 0.224679 0.875723
vt 0.226808 0.863099
vt 0.240811 0.864583
vt 0.226151 0.849470
vt 0.238289 0.848605
vt 0.249811 0.845933
vt 0.253469 0.858143
vt 0.259844 0.868554
vt 0.251022 0.875213
vt 0.965439 0.266361
vt 0.953860 0.264282
vt 0.955357 0.252450
vt 0.967681 0.253111
vt 0.980637 0.261841
vt 0.977320 0.271278
vt 0.978140 0.245111
vt 0.986193 0.254317
vt 0.958199 0.239799
vt 0.975525 0.232940
vt 0.952006 0.274843
vt 0.963307 0.277031
vt 0.961115 0.286688
vt 0.950115 0.284677
vt 0.959004 0.295931
vt 0.948241 0.294040
vt 0.974605 0.280573
vt 0.972192 0.289589
vt 0.969862 0.298402
vt 0.967648 0.307217
vt 0.956984 0.305036
vt 0.406024 0.011285
vt 0.414934 0.009365
vt 0.416276 0.020724
vt 0.407787 0.022288
vt 0.399359 0.023915
vt 0.397163 0.013308
vt 0.390972 0.025577
vt 0.388466 0.015367
vt 0.408925 0.033428
vt 0.400863 0.034690
vt 0.392860 0.035976
vt 0.384768 0.037245
vt 0.382646 0.027325
vt 0.394033 0.046642
vt 0.386193 0.047468
vt 0.378317 0.048186
vt 0.376711 0.038560
vt 0.370320 0.048796
vt 0.368665 0.039919
vt 0.379114 0.058320
vt 0.371161 0.058276
vt 0.670766 0.168344
vt 0.666077 0.176869
vt 0.664369 0.163927
vt 0.379834 0.069000
vt 0.371780 0.068501
vt 0.662060 0.186263
vt 0.655615 0.182291
vt 0.658399 0.196509
vt 0.372075 0.079461
vt 0.380196 0.080284
vt 0.380594 0.092317
vt 0.372825 0.091753
vt 0.655887 0.208656
vt 0.654442 0.221566
vt 0.646977 0.220077
vt 0.639400 0.218970
vt 0.631541 0.218385
vt 0.632022 0.203840
vt 0.631289 0.232645
vt 0.623600 0.232567
vt 0.623470 0.218148
vt 0.615760 0.232866
vt 0.615428 0.218366
vt 0.608086 0.233463
vt 0.607218 0.218923
vt 0.616433 0.247017
vt 0.609205 0.247613
vt 0.602056 0.248501
vt 0.600591 0.234339
vt 0.595050 0.249615
vt 0.593403 0.235739
vt 0.603715 0.262031
vt 0.597302 0.263181
vt 0.475677 0.144514
vt 0.468615 0.143677
vt 0.468895 0.129650
vt 0.475687 0.129424
vt 0.461340 0.143073
vt 0.461764 0.129490
vt 0.472975 0.158189
vt 0.466425 0.157113
vt 0.459848 0.156269
vt 0.453145 0.155597
vt 0.454083 0.142603
vt 0.432372 0.154569
vt 0.432780 0.141866
vt 0.439848 0.141989
vt 0.439287 0.154762
vt 0.446921 0.142226
vt 0.446220 0.155089
vt 0.440069 0.129100
vt 0.447249 0.129179
vt 0.454416 0.129299
vt 0.454630 0.115987
vt 0.461532 0.115826
vt 0.468559 0.115517
vt 0.475616 0.115053
vt 0.468522 0.101734
vt 0.475805 0.100848
vt 0.591802 0.221712
vt 0.599227 0.219623
vt 0.606579 0.204298
vt 0.614804 0.203499
vt 0.623356 0.203215
vt 0.622917 0.187426
vt 0.632100 0.189240
vt 0.625466 0.175802
vt 0.632330 0.176718
vt 0.639638 0.176365
vt 0.632249 0.165473
vt 0.639307 0.165485
vt 0.645973 0.165214
vt 0.646698 0.155843
vt 0.653335 0.157220
vt 0.659186 0.159545
vt 0.655787 0.148416
vt 0.662670 0.151650
vt 0.669164 0.155775
vt 0.675835 0.160273
vt 0.673989 0.147561
vt 0.681097 0.152311
vt 0.366076 0.031303
vt 0.374334 0.029193
vt 0.362897 0.023015
vt 0.371359 0.020001
vt 0.379852 0.017599
vt 0.961913 0.333251
vt 0.952379 0.332309
vt 0.953470 0.323135
vt 0.963623 0.324592
vt 0.955089 0.314067
vt 0.965540 0.315902
vt 0.943581 0.322105
vt 0.944853 0.312583
vt 0.946433 0.303339
vt 0.943029 0.331833
vt 0.952084 0.341630
vt 0.943589 0.341828
vt 0.278149 0.905756
vt 0.272582 0.898465
vt 0.279850 0.893308
vt 0.285869 0.901398
vt 0.960763 0.342159
vt 0.271085 0.911154
vt 0.265329 0.904486
vt 0.259008 0.897868
vt 0.266152 0.891280
vt 0.686274 0.144742
vt 0.679186 0.139513
vt 0.666809 0.143057
vt 0.671557 0.134457
vt 0.659140 0.139008
vt 0.663331 0.129509
vt 0.648326 0.146020
vt 0.639546 0.155087
vt 0.640498 0.144409
vt 0.632306 0.154667
vt 0.625616 0.165093
vt 0.625477 0.154569
vt 0.620213 0.173898
vt 0.619949 0.164819
vt 0.614743 0.165515
vt 0.613544 0.155704
vt 0.619288 0.154754
vt 0.615503 0.174499
vt 0.611121 0.177354
vt 0.609420 0.167253
vt 0.603829 0.169094
vt 0.602459 0.158824
vt 0.608086 0.157107
vt 0.605224 0.179764
vt 0.599109 0.181419
vt 0.598026 0.170836
vt 0.593177 0.182987
vt 0.592045 0.172475
vt 0.606434 0.191085
vt 0.586882 0.184857
vt 0.461322 0.089340
vt 0.454285 0.089977
vt 0.454184 0.077403
vt 0.461231 0.076748
vt 0.461441 0.102382
vt 0.454454 0.102874
vt 0.447507 0.103255
vt 0.447337 0.090505
vt 0.440272 0.103540
vt 0.440193 0.090930
vt 0.432863 0.103807
vt 0.440267 0.116272
vt 0.432990 0.116420
vt 0.425609 0.116618
vt 0.425464 0.104117
vt 0.418137 0.116823
vt 0.418031 0.104382
vt 0.425590 0.129206
vt 0.418167 0.129329
vt 0.410994 0.129489
vt 0.410645 0.116979
vt 0.403504 0.129684
vt 0.403549 0.117197
vt 0.410875 0.142018
vt 0.403680 0.142215
vt 0.396210 0.142521
vt 0.395957 0.129869
vt 0.388985 0.142872
vt 0.388821 0.130113
vt 0.403614 0.154862
vt 0.396445 0.155161
vt 0.389551 0.155537
vt 0.382744 0.156038
vt 0.382158 0.143238
vt 0.623668 0.273440
vt 0.617349 0.273922
vt 0.616942 0.260751
vt 0.623606 0.260304
vt 0.630247 0.260080
vt 0.629892 0.273132
vt 0.636812 0.260092
vt 0.636207 0.273039
vt 0.643623 0.260352
vt 0.642777 0.273037
vt 0.650554 0.260813
vt 0.649501 0.273138
vt 0.644777 0.247251
vt 0.651641 0.247943
vt 0.375289 0.143678
vt 0.374635 0.130640
vt 0.381602 0.130370
vt 0.376018 0.156464
vt 0.381283 0.117518
vt 0.388480 0.117422
vt 0.395942 0.117297
vt 0.395316 0.104857
vt 0.403111 0.104856
vt 0.410894 0.104564
vt 0.418204 0.092033
vt 0.425342 0.091704
vt 0.432707 0.091324
vt 0.432632 0.078914
vt 0.439937 0.078449
vt 0.447101 0.077951
vt 0.590751 0.162464
vt 0.596713 0.160611
vt 0.595037 0.150662
vt 0.600796 0.148729
vt 0.606437 0.147017
vt 0.612207 0.145454
vt 0.618343 0.144365
vt 0.625164 0.143727
vt 0.632646 0.143691
vt 0.633033 0.132341
vt 0.641970 0.133167
vt 0.650855 0.135593
vt 0.643785 0.120963
vt 0.654170 0.124840
vt 0.244181 0.884641
vt 0.259111 0.883663
vt 0.252082 0.891221
vt 0.266572 0.877555
vt 0.273127 0.885686
vt 0.449793 0.017662
vt 0.441854 0.017343
vt 0.443496 0.004310
vt 0.452722 0.005851
vt 0.448387 0.029488
vt 0.440770 0.029583
vt 0.432912 0.030189
vt 0.433390 0.018033
vt 0.440185 0.041650
vt 0.432538 0.042232
vt 0.424883 0.042996
vt 0.424926 0.031114
vt 0.417239 0.043865
vt 0.416912 0.032232
vt 0.424892 0.054996
vt 0.417417 0.055706
vt 0.409944 0.056392
vt 0.409552 0.044806
vt 0.402365 0.057089
vt 0.401908 0.045737
vt 0.410171 0.068213
vt 0.402688 0.068645
vt 0.395160 0.069027
vt 0.394916 0.057629
vt 0.387706 0.069120
vt 0.387098 0.058085
vt 0.402888 0.080512
vt 0.395343 0.080674
vt 0.387783 0.080653
vt 0.395517 0.092648
vt 0.388079 0.092589
vt 0.388215 0.104875
vt 0.380895 0.104762
vt 0.373492 0.104539
vt 0.653101 0.234792
vt 0.645953 0.233775
vt 0.638720 0.233022
vt 0.637905 0.246738
vt 0.630821 0.246573
vt 0.623627 0.246671
vt 0.610299 0.261340
vt 0.611018 0.274599
vt 0.604883 0.275171
vt 0.479178 0.159391
vt 0.482243 0.147081
vt 0.373956 0.117563
vt 0.402793 0.092586
vt 0.410530 0.092328
vt 0.410247 0.080227
vt 0.417863 0.079799
vt 0.425323 0.079365
vt 0.425036 0.067125
vt 0.432426 0.066600
vt 0.439767 0.066095
vt 0.432342 0.054370
vt 0.439816 0.053808
vt 0.447179 0.053328
vt 0.446983 0.065552
vt 0.589118 0.152753
vt 0.592794 0.141277
vt 0.598639 0.139103
vt 0.604439 0.137057
vt 0.610495 0.135229
vt 0.617181 0.133738
vt 0.624693 0.132701
vt 0.615555 0.122979
vt 0.623745 0.121362
vt 0.633178 0.120459
vt 0.206936 0.874280
vt 0.206818 0.863357
vt 0.215967 0.862844
vt 0.215280 0.874516
vt 0.205558 0.852211
vt 0.215160 0.850559
vt 0.189749 0.856382
vt 0.197205 0.854184
vt 0.198775 0.864451
vt 0.191602 0.865873
vt 0.184928 0.867473
vt 0.182918 0.858540
vt 0.178351 0.869182
vt 0.176279 0.860730
vt 0.192699 0.875579
vt 0.186272 0.876765
vt 0.179861 0.878024
vt 0.173236 0.879297
vt 0.171649 0.870778
vt 0.589980 0.132621
vt 0.595954 0.129975
vt 0.586796 0.143699
vt 0.583801 0.135329
vt 0.169698 0.862960
vt 0.166350 0.880575
vt 0.164820 0.872176
vt 0.447725 0.041287
vt 0.417602 0.067662
vt 0.163208 0.865662
vt 0.601959 0.127396
vt 0.199477 0.874696
vt 0.608373 0.125034
vt 0.424801 0.019267
vt 0.424065 0.007428
vt 0.433581 0.005633
vt 0.410829 0.154653
vt 0.418150 0.141894
vt 0.418124 0.154516
vt 0.425617 0.141822
vt 0.425318 0.154467
vt 0.432968 0.129118
vt 0.447552 0.116154
vt 0.468488 0.088422
vt 0.475845 0.086975
vt 0.614596 0.188071
vt 0.619980 0.180838
vt 0.616626 0.181078
s 1
usemtl Ch31_body
f 1/1/1 6/2/1 7/3/1
f 7/3/2 70/4/3 71/5/4 1/1/5
f 2/6/6 8/7/7 10/8/8 9/9/9
f 2/6/6 9/9/9 166/10/10
f 3/11/11 11/12/12 12/13/13 4/14/14
f 13/15/15 6/2/16 14/16/17 12/13/13
f 15/17/18 16/18/19 17/19/20 5/20/21
f 17/19/20 18/21/22 19/22/23 5/20/21
f 19/22/23 20/23/24 21/24/25 5/20/21
f 21/24/25 22/25/26 23/26/27 5/20/21
f 24/27/28 25/28/29 26/29/30 30/30/31
f 27/31/32 28/32/33 24/27/28 30/30/31
f 31/33/34 29/34/35 27/31/32 30/30/31
f 33/35/36 30/30/31 26/29/30
f 33/35/36 32/36/37 31/33/34 30/30/31
f 34/37/38 25/28/29 24/27/28 36/38/39
f 36/38/39 37/39/40 35/40/41 34/37/38
f 37/39/40 38/41/42 39/42/43 35/40/41
f 37/39/40 36/38/39 40/43/44 41/44/45
f 41/44/45 42/45/46 38/41/42 37/39/40
f 42/45/46 43/46/47 44/47/48 38/41/42
f 42/48/46 41/49/45 45/50/49 46/51/50
f 46/51/50 47/52/51 43/53/47 42/48/46
f 48/54/52 49/55/53 43/53/47 47/52/51
f 47/52/51 46/51/50 50/56/54 51/57/55
f 47/52/51 51/57/55 53/58/56 48/54/52
f 54/59/57 52/60/58 48/54/52 53/58/56
f 53/58/56 56/61/59 57/62/60 54/59/57
f 54/59/57 57/62/60 58/63/61 55/64/62
f 59/65/63 127/66/64 55/64/62 58/63/61
f 58/63/61 61/67/65 62/68/66 59/65/63
f 59/69/63 62/70/66 11/12/12 60/71/67
f 61/67/65 63/72/68 64/73/69 62/68/66
f 62/70/66 64/74/69 65/75/70 11/12/12
f 65/75/70 13/15/15 12/13/13 11/12/12
f 64/74/69 67/76/71 7/3/2 65/75/70
f 65/75/70 7/3/2 6/2/16 13/15/15
f 67/77/71 64/73/69 63/72/68 66/78/72
f 66/78/72 68/79/73 69/80/74 67/77/71
f 67/76/71 69/81/74 70/4/3 7/3/2
f 69/81/74 268/82/75 269/83/76 70/4/3
f 70/4/3 269/83/76 72/84/77 71/5/4
f 72/84/77 73/85/78 112/86/79 71/5/4
f 73/85/78 273/87/80 76/88/81 74/89/82
f 76/88/81 77/90/83 75/91/84 74/89/82
f 77/90/83 78/92/85 108/93/86 75/91/84
f 78/92/85 77/90/83 277/94/87 80/95/88
f 80/95/88 81/96/89 79/97/90 78/92/85
f 81/96/89 82/98/91 105/99/92 79/97/90
f 82/98/91 81/96/89 84/100/93 85/101/94
f 85/102/94 86/103/95 83/104/96 82/105/91
f 87/106/97 102/107/98 83/104/96 86/103/95
f 85/102/94 88/108/99 89/109/100 86/103/95
f 86/103/95 89/109/100 90/110/101 87/106/97
f 91/111/102 92/112/103 87/106/97 90/110/101
f 95/113/104 97/114/105 98/115/106 96/116/107
f 96/116/107 98/115/106 99/117/108 93/118/109
f 98/115/106 347/119/110 100/120/111 99/117/108
f 100/120/111 101/121/112 92/112/103 99/117/108
f 92/112/103 91/111/102 93/118/109 99/117/108
f 102/107/98 87/106/97 92/112/103 101/121/112
f 102/107/98 101/121/112 350/122/113 103/123/114
f 103/123/114 104/124/115 83/104/96 102/107/98
f 104/124/115 105/125/92 82/105/91 83/104/96
f 105/125/92 104/124/115 353/126/116 106/127/117
f 106/128/117 107/129/118 79/97/90 105/99/92
f 107/129/118 108/93/86 78/92/85 79/97/90
f 75/91/84 108/93/86 109/130/119 110/131/120
f 110/131/120 111/132/121 74/89/82 75/91/84
f 112/86/79 73/85/78 74/89/82 111/132/121
f 111/132/121 113/133/122 114/134/123 112/86/79
f 114/134/123 1/1/5 71/5/4 112/86/79
f 113/133/122 115/135/124 116/136/125 114/134/123
f 116/136/125 117/137/126 1/1/5 114/134/123
f 117/137/126 116/136/125 118/138/127 119/139/128
f 119/139/128 120/140/129 14/16/17 117/137/126
f 117/137/126 14/16/17 6/2/16 1/1/5
f 120/140/129 4/14/14 12/13/13 14/16/17
f 4/14/14 120/140/129 121/141/130 122/142/131
f 122/142/131 123/143/132 3/11/11 4/14/14
f 60/71/67 11/12/12 3/11/11 123/143/132
f 122/142/131 124/144/133 125/145/134 123/143/132
f 123/143/132 125/145/134 126/146/135 60/71/67
f 127/147/64 59/69/63 60/71/67 126/146/135
f 126/146/135 128/148/136 129/149/137 127/147/64
f 127/66/64 129/150/137 130/151/138 55/64/62
f 129/150/137 131/152/139 132/153/140 130/151/138
f 130/151/138 132/153/140 133/154/141 52/60/58
f 52/60/58 54/59/57 55/64/62 130/151/138
f 132/155/140 134/156/142 135/157/143 133/158/141
f 135/157/143 136/159/144 49/160/53 133/158/141
f 49/55/53 48/54/52 52/60/58 133/154/141
f 136/159/144 135/157/143 137/161/145 138/162/146
f 138/162/146 139/163/147 44/47/48 136/159/144
f 44/47/48 43/46/47 49/160/53 136/159/144
f 139/163/147 39/42/43 38/41/42 44/47/48
f 140/164/148 137/161/145 135/157/143 134/156/142
f 134/156/142 142/165/149 141/166/150 140/164/148
f 142/167/149 143/168/151 144/169/152 141/170/150
f 142/165/149 134/156/142 132/155/140 131/171/139
f 131/172/139 145/173/153 143/168/151 142/167/149
f 146/174/154 147/175/155 143/168/151 145/173/153
f 131/176/139 129/149/137 128/148/136 145/177/153
f 145/177/153 128/148/136 148/178/156 146/179/154
f 150/180/157 149/181/158 146/179/154 148/178/156
f 128/148/136 126/146/135 125/145/134 148/178/156
f 148/178/156 125/145/134 124/144/133 150/180/157
f 124/144/133 122/142/131 121/141/130 151/182/159
f 152/183/160 234/184/161 151/182/159 121/141/130
f 152/183/160 121/141/130 120/140/129 119/139/128
f 119/139/128 118/138/127 153/185/162 152/183/160
f 154/186/163 232/187/164 153/185/162 118/138/127
f 118/138/127 116/136/125 115/135/124 154/186/163
f 154/186/163 115/135/124 156/188/165 155/189/166
f 155/189/166 157/190/167 229/191/168 230/192/169
f 155/189/166 230/192/169 232/187/164 154/186/163
f 157/190/167 155/189/166 156/188/165 159/193/170
f 159/193/170 160/194/171 158/195/172 157/190/167
f 158/195/172 161/196/173 227/197/174 228/198/175
f 228/198/175 229/191/168 157/190/167 158/195/172
f 161/196/173 158/195/172 160/194/171 163/199/176
f 163/199/176 164/200/177 162/201/178 161/196/173
f 164/200/177 167/202/179 225/203/180 162/201/178
f 164/200/177 163/199/176 165/204/181 166/10/10
f 166/10/10 9/9/9 167/202/179 164/200/177
f 9/9/9 10/8/8 168/205/182 167/202/179
f 171/206/183 172/207/184 222/208/185 169/209/186
f 172/207/184 171/206/183 352/210/187 351/211/188
f 351/211/188 174/212/189 173/213/190 172/207/184
f 174/212/189 175/214/191 219/215/192 173/213/190
f 176/216/193 175/214/191 348/217/194 178/218/195
f 178/218/195 179/219/196 177/220/197 176/216/193
f 179/219/196 180/221/198 216/222/199 177/220/197
f 180/221/198 179/219/196 345/223/200 182/224/201
f 182/224/201 183/225/202 181/226/203 180/221/198
f 184/227/204 213/228/205 181/226/203 183/225/202
f 183/225/202 186/229/206 187/230/207 184/227/204
f 187/230/207 188/231/208 185/232/209 184/227/204
f 189/233/210 210/234/211 185/232/209 188/231/208
f 187/230/207 190/235/212 191/236/213 188/231/208
f 191/236/213 192/237/214 189/233/210 188/231/208
f 192/237/214 193/238/215 194/239/216 189/233/210
f 198/240/217 197/241/218 199/242/219 200/243/220
f 200/243/220 201/244/221 202/245/222 198/240/217
f 201/244/221 203/246/223 204/247/224 202/245/222
f 203/246/223 205/248/225 206/249/226 204/247/224
f 205/248/225 207/250/227 195/251/228 206/249/226
f 205/248/225 280/252/229 208/253/230 207/250/227
f 207/254/227 208/255/230 209/256/231 194/239/216
f 207/254/227 194/239/216 193/238/215 195/257/228
f 210/234/211 189/233/210 194/239/216 209/256/231
f 209/256/231 281/258/232 211/259/233 210/234/211
f 210/234/211 211/259/233 212/260/234 185/232/209
f 213/228/205 184/227/204 185/232/209 212/260/234
f 212/260/234 265/261/235 214/262/236 213/228/205
f 213/228/205 214/262/236 215/263/237 181/226/203
f 216/222/199 180/221/198 181/226/203 215/263/237
f 177/220/197 216/222/199 284/264/238 217/265/239
f 217/265/239 218/266/240 176/216/193 177/220/197
f 218/266/240 219/215/192 175/214/191 176/216/193
f 219/215/192 218/266/240 288/267/241 220/268/242
f 220/268/242 221/269/243 173/213/190 219/215/192
f 221/269/243 222/208/185 172/207/184 173/213/190
f 224/270/244 226/271/245 162/201/178 225/203/180
f 226/271/245 227/197/174 161/196/173 162/201/178
f 227/197/174 226/271/245 297/272/246 301/273/247
f 301/273/247 303/274/248 228/198/175 227/197/174
f 303/274/248 305/275/249 229/191/168 228/198/175
f 305/275/249 307/276/250 230/192/169 229/191/168
f 307/276/250 231/277/251 232/187/164 230/192/169
f 231/277/251 233/278/252 153/185/162 232/187/164
f 234/184/161 152/183/160 153/185/162 233/278/252
f 233/278/252 235/279/253 236/280/254 234/184/161
f 234/184/161 236/280/254 237/281/255 151/182/159
f 236/280/254 15/282/18 238/283/256 237/281/255
f 237/281/255 238/283/256 149/181/158 150/180/157
f 150/180/157 124/144/133 151/182/159 237/281/255
f 238/284/256 23/26/27 239/285/257 149/286/158
f 240/287/258 241/288/259 147/175/155 239/285/257
f 147/175/155 146/174/154 149/286/158 239/285/257
f 241/288/259 144/169/152 143/168/151 147/175/155
f 242/289/260 243/290/261 27/291/32 29/292/35
f 244/293/262 246/294/263 243/290/261 242/289/260
f 246/294/263 247/295/264 245/296/265 243/290/261
f 247/295/264 246/294/263 331/297/266 249/298/267
f 249/298/267 250/299/268 248/300/269 247/295/264
f 250/299/268 251/301/270 339/302/271 248/300/269
f 251/301/270 250/299/268 332/303/272 253/304/273
f 253/304/273 254/305/274 252/306/275 251/301/270
f 255/307/276 338/308/277 252/306/275 254/305/274
f 254/305/274 257/309/278 258/310/279 255/307/276
f 255/307/276 258/310/279 259/311/280 256/312/281
f 260/313/282 337/314/283 256/312/281 259/311/280
f 258/310/279 334/315/284 261/316/285 259/311/280
f 259/311/280 261/316/285 262/317/286 260/313/282
f 66/78/72 63/72/68 260/313/282 262/317/286
f 261/316/285 263/318/287 264/319/288 262/317/286
f 262/317/286 264/319/288 68/79/73 66/78/72
f 263/318/287 265/261/235 266/320/289 264/319/288
f 264/319/288 266/320/289 267/321/290 68/79/73
f 268/322/75 69/80/74 68/79/73 267/321/290
f 268/82/75 270/323/291 271/324/292 269/83/76
f 269/83/76 271/324/292 272/325/293 72/84/77
f 273/87/80 73/85/78 72/84/77 272/325/293
f 273/87/80 272/325/293 274/326/294 275/327/295
f 275/327/295 276/328/296 76/88/81 273/87/80
f 276/328/296 277/94/87 77/90/83 76/88/81
f 277/94/87 276/328/296 200/243/220 199/242/219
f 199/242/219 278/329/297 80/95/88 277/94/87
f 278/329/297 84/100/93 81/96/89 80/95/88
f 278/329/297 199/242/219 197/241/218 196/330/298
f 196/330/298 279/331/299 84/100/93 278/329/297
f 279/332/299 88/108/99 85/102/94 84/333/93
f 276/328/296 275/327/295 201/244/221 200/243/220
f 275/327/295 274/326/294 203/246/223 201/244/221
f 280/252/229 205/248/225 203/246/223 274/326/294
f 274/326/294 272/325/293 271/324/292 280/252/229
f 280/252/229 271/324/292 270/323/291 208/253/230
f 281/258/232 209/256/231 208/255/230 270/334/291
f 270/334/291 268/322/75 267/321/290 281/258/232
f 281/258/232 267/321/290 266/320/289 211/259/233
f 265/261/235 212/260/234 211/259/233 266/320/289
f 265/261/235 263/318/287 282/335/300 214/262/236
f 282/335/300 283/336/301 215/263/237 214/262/236
f 284/264/238 216/222/199 215/263/237 283/336/301
f 284/264/238 283/336/301 285/337/302 286/338/303
f 286/338/303 287/339/304 217/265/239 284/264/238
f 287/339/304 288/267/241 218/266/240 217/265/239
f 288/267/241 287/339/304 289/340/305 290/341/306
f 290/341/306 291/342/307 220/268/242 288/267/241
f 291/342/307 290/341/306 292/343/308 293/344/309
f 293/344/309 294/345/310 223/346/311 291/342/307
f 291/342/307 223/346/311 221/269/243 220/268/242
f 296/347/312 297/272/246 226/271/245 224/270/244
f 299/348/313 300/349/314 301/273/247 297/272/246
f 300/349/314 302/350/315 303/274/248 301/273/247
f 302/350/315 304/351/316 305/275/249 303/274/248
f 304/351/316 306/352/317 307/276/250 305/275/249
f 306/352/317 308/353/318 231/277/251 307/276/250
f 306/352/317 309/354/319 310/355/320 308/353/318
f 308/353/318 310/355/320 16/356/19 235/279/253
f 235/279/253 233/278/252 231/277/251 308/353/318
f 309/357/319 311/358/321 312/359/322 310/360/320
f 310/360/320 312/359/322 17/19/20 16/18/19
f 311/358/321 313/361/323 314/362/324 312/359/322
f 312/359/322 314/362/324 18/21/22 17/19/20
f 316/363/325 315/364/326 318/365/327 319/366/328
f 319/366/328 320/367/329 317/368/330 316/363/325
f 320/367/329 321/369/331 322/370/332 317/368/330
f 320/367/329 319/366/328 323/371/333 324/372/334
f 324/372/334 325/373/335 321/369/331 320/367/329
f 325/373/335 326/374/336 327/375/337 321/369/331
f 325/376/335 324/377/334 300/349/314 299/348/313
f 299/348/313 298/378/338 326/379/336 325/376/335
f 328/380/339 322/370/332 321/369/331 327/375/337
f 326/374/336 329/381/340 330/382/341 327/375/337
f 295/383/342 331/297/266 246/294/263 244/293/262
f 331/297/266 295/383/342 294/345/310 293/344/309
f 293/344/309 292/343/308 249/298/267 331/297/266
f 292/343/308 332/303/272 250/299/268 249/298/267
f 332/303/272 292/343/308 290/341/306 289/340/305
f 289/340/305 333/384/343 253/304/273 332/303/272
f 333/384/343 257/309/278 254/305/274 253/304/273
f 333/384/343 289/340/305 287/339/304 286/338/303
f 286/338/303 285/337/302 257/309/278 333/384/343
f 334/315/284 258/310/279 257/309/278 285/337/302
f 285/337/302 283/336/301 282/335/300 334/315/284
f 334/315/284 282/335/300 263/318/287 261/316/285
f 335/385/344 328/380/339 327/375/337 330/382/341
f 324/377/334 323/386/333 302/350/315 300/349/314
f 319/366/328 318/365/327 336/387/345 323/371/333
f 323/386/333 336/388/345 304/351/316 302/350/315
f 318/365/327 311/358/321 309/357/319 336/387/345
f 336/388/345 309/354/319 306/352/317 304/351/316
f 315/364/326 313/361/323 311/358/321 318/365/327
f 337/314/283 260/313/282 63/72/68 61/67/65
f 61/67/65 58/63/61 57/62/60 337/314/283
f 337/314/283 57/62/60 56/61/59 256/312/281
f 338/308/277 255/307/276 256/312/281 56/61/59
f 56/61/59 53/58/56 51/57/55 338/308/277
f 51/57/55 50/56/54 252/306/275 338/308/277
f 50/56/54 339/302/271 251/301/270 252/306/275
f 339/302/271 50/56/54 46/51/50 45/50/49
f 45/50/49 340/389/346 248/300/269 339/302/271
f 340/389/346 45/50/49 41/49/45 40/390/44
f 40/390/44 28/391/33 245/296/265 340/389/346
f 340/389/346 245/296/265 247/295/264 248/300/269
f 28/391/33 27/291/32 243/290/261 245/296/265
f 239/285/257 23/26/27 22/25/26 240/287/258
f 15/17/18 5/20/21 23/26/27 238/284/256
f 235/279/253 16/356/19 15/282/18 236/280/254
f 341/392/347 186/229/206 343/393/348 342/394/349
f 343/393/348 344/395/350 94/396/351 342/394/349
f 344/395/350 343/393/348 182/224/201 345/223/200
f 345/223/200 346/397/352 97/114/105 344/395/350
f 97/114/105 95/113/104 94/396/351 344/395/350
f 346/397/352 347/119/110 98/115/106 97/114/105
f 347/119/110 346/397/352 178/218/195 348/217/194
f 348/217/194 349/398/353 100/120/111 347/119/110
f 349/398/353 350/122/113 101/121/112 100/120/111
f 350/122/113 349/398/353 174/212/189 351/211/188
f 351/211/188 352/210/187 103/123/114 350/122/113
f 352/210/187 353/126/116 104/124/115 103/123/114
f 106/127/117 353/126/116 170/399/354 8/400/7
f 8/7/7 2/6/6 107/129/118 106/128/117
f 353/126/116 352/210/187 171/206/183 170/399/354
f 349/398/353 348/217/194 175/214/191 174/212/189
f 346/397/352 345/223/200 179/219/196 178/218/195
f 186/229/206 183/225/202 182/224/201 343/393/348
f 190/235/212 187/230/207 186/229/206 341/392/347
f 165/204/181 354/401/355 110/131/120 109/130/119
f 109/130/119 2/6/6 166/10/10 165/204/181
f 354/401/355 113/133/122 111/132/121 110/131/120
f 163/199/176 160/194/171 354/401/355 165/204/181
f 107/129/118 2/6/6 109/130/119 108/93/86
f 36/38/39 24/27/28 28/32/33 40/43/44
f 159/193/170 156/188/165 356/402/356 355/403/357
f 115/135/124 113/133/122 356/402/356 156/188/165
f 355/403/357 356/402/356 113/133/122 354/401/355
f 160/194/171 159/193/170 355/403/357 354/401/355
f 10/8/8 170/399/354 169/209/186
f 10/8/8 8/400/7 170/399/354
f 170/399/354 171/206/183 169/209/186
f 169/209/186 168/205/182 10/8/8
f 32/36/37 296/347/312 224/270/244
f 225/203/180 167/202/179 168/205/182
f 32/36/37 224/270/244 225/203/180
f 32/36/37 225/203/180 168/205/182
f 168/205/182 169/209/186 32/36/37
f 169/209/186 222/208/185 32/36/37
f 222/208/185 221/269/243 32/36/37
f 221/269/243 223/346/311 32/36/37
f 223/346/311 294/345/310 32/36/37
f 298/378/338 296/347/312 140/164/148
f 21/24/25 20/23/24 298/378/338
f 298/378/338 299/348/313 297/272/246
f 296/347/312 32/36/37 26/29/30
f 32/36/37 33/35/36 26/29/30
f 298/378/338 297/272/246 296/347/312
f 22/25/26 21/24/25 298/378/338
f 241/288/259 240/287/258 298/378/338
f 240/287/258 22/25/26 298/378/338
f 141/166/150 144/169/152 298/378/338
f 144/169/152 241/288/259 298/378/338
f 137/161/145 140/164/148 296/347/312
f 140/164/148 141/166/150 298/378/338
f 139/163/147 138/162/146 296/347/312
f 138/162/146 137/161/145 296/347/312
f 35/40/41 39/42/43 296/347/312
f 39/42/43 139/163/147 296/347/312
f 25/28/29 34/37/38 296/347/312
f 34/37/38 35/40/41 296/347/312
f 26/29/30 25/28/29 296/347/312
f 298/378/338 20/23/24 19/22/23
f 19/22/23 18/21/22 298/378/338
f 18/21/22 314/362/324 326/374/336
f 314/362/324 313/361/323 326/374/336
f 313/361/323 315/364/326 326/374/336
f 315/364/326 316/363/325 326/374/336
f 316/363/358 326/374/359 317/368/360
f 317/368/360 326/374/359 322/370/361
f 322/370/361 326/374/359 328/380/362
f 328/380/362 326/374/359 335/385/363
f 335/385/363 326/374/359 329/381/364
f 326/374/336 298/378/338 18/21/22
