# Blender 5.0.1
# www.blender.org
mtllib hand.mtl
o Body.009
v -0.601433 1.917214 -0.122317
v -0.596707 1.910360 -0.082288
v -0.602820 1.889931 -0.118218
v -0.604340 1.924466 -0.160318
v -0.600173 1.897434 -0.158005
v -0.582811 1.928164 -0.183451
v -0.580742 1.904256 -0.183834
v -0.551195 1.929756 -0.186022
v -0.552015 1.904695 -0.186206
v -0.524575 1.926119 -0.168857
v -0.528968 1.900289 -0.168488
v -0.512119 1.920739 -0.135377
v -0.515776 1.895415 -0.136254
v -0.509848 1.914979 -0.099994
v -0.517871 1.911161 -0.069839
v -0.513094 1.881758 -0.063662
v -0.533608 1.908707 -0.045755
v -0.527958 1.883561 -0.040897
v -0.559021 1.905466 -0.039017
v -0.552384 1.880716 -0.033407
v -0.581658 1.905887 -0.052034
v -0.578216 1.878814 -0.043371
v -0.597721 1.882177 -0.074465
v -0.568889 1.840021 -0.031156
v -0.541331 1.851931 -0.024328
v -0.545524 1.805752 -0.009835
v -0.596432 1.845348 -0.066282
v -0.573361 1.807011 -0.030306
v -0.589814 1.800932 -0.047024
v -0.561050 1.781827 -0.019112
v -0.543295 1.748053 -0.008229
v -0.587102 1.765215 -0.037083
v -0.575355 1.734159 -0.027647
v -0.610289 1.752870 -0.058162
v -0.619373 1.744722 -0.082955
v -0.606977 1.715804 -0.048660
v -0.606037 1.788653 -0.069745
v -0.616833 1.778751 -0.095456
v -0.607068 1.820069 -0.086105
v -0.609811 1.836443 -0.116055
v -0.612437 1.805212 -0.099230
v -0.612460 1.812621 -0.119112
v -0.616561 1.789656 -0.121840
v -0.610607 1.816267 -0.137566
v -0.613566 1.794075 -0.145109
v -0.607809 1.835080 -0.144753
v -0.600684 1.864164 -0.159568
v -0.607056 1.813781 -0.161666
v -0.610777 1.781933 -0.173322
v -0.599481 1.829776 -0.178653
v -0.583909 1.838267 -0.198707
v -0.604058 1.794839 -0.189829
v -0.609323 1.763529 -0.198642
v -0.589523 1.802196 -0.206922
v -0.597598 1.769427 -0.215868
v -0.565907 1.802083 -0.216660
v -0.576470 1.768921 -0.224735
v -0.557435 1.837303 -0.208798
v -0.544877 1.793293 -0.206292
v -0.557428 1.761529 -0.214290
v -0.532461 1.827774 -0.196878
v -0.540529 1.781765 -0.184322
v -0.554732 1.750570 -0.194324
v -0.547438 1.771642 -0.163559
v -0.524104 1.814855 -0.171028
v -0.518358 1.852437 -0.142509
v -0.531726 1.802585 -0.149716
v -0.540775 1.795125 -0.133323
v -0.525009 1.824496 -0.129503
v -0.520301 1.818026 -0.109179
v -0.530820 1.811998 -0.124594
v -0.530908 1.809532 -0.115722
v -0.542629 1.791526 -0.116110
v -0.557584 1.756989 -0.123934
v -0.532233 1.789590 -0.099109
v -0.553465 1.750321 -0.102861
v -0.509937 1.785835 -0.083194
v -0.545868 1.742271 -0.080104
v -0.492587 1.778445 -0.061417
v -0.505425 1.840100 -0.094879
v -0.511039 1.886312 -0.096375
v -0.494004 1.837037 -0.053602
v -0.516954 1.853137 -0.031334
v -0.482586 1.803779 -0.030233
v -0.478580 1.780097 -0.016166
v -0.501531 1.823201 -0.017337
v -0.485860 1.763646 -0.039094
v -0.481817 1.748682 -0.025053
v -0.521827 1.723870 -0.037153
v -0.504829 1.723936 -0.024321
v -0.548617 1.712560 -0.025726
v -0.557984 1.694018 -0.048027
v -0.533585 1.734171 -0.058065
v -0.559045 1.697400 -0.066923
v -0.568812 1.666887 -0.070157
v -0.563946 1.697344 -0.091710
v -0.579142 1.660780 -0.092449
v -0.579773 1.667627 -0.103273
v -0.567072 1.712368 -0.112242
v -0.576789 1.680590 -0.118407
v -0.572667 1.715093 -0.134007
v -0.584953 1.674401 -0.136020
v -0.584648 1.680954 -0.144047
v -0.570336 1.731209 -0.153737
v -0.576186 1.699297 -0.159944
v -0.563250 1.733598 -0.176348
v -0.556245 1.764420 -0.143814
v -0.578501 1.698425 -0.180271
v -0.576714 1.709466 -0.187614
v -0.596169 1.711375 -0.185814
v -0.566729 1.723741 -0.201240
v -0.582445 1.705070 -0.189782
v -0.573326 1.711744 -0.200912
v -0.596828 1.708342 -0.186570
v -0.587185 1.694608 -0.189050
v -0.589621 1.684194 -0.190115
v -0.598889 1.698796 -0.187687
v -0.578629 1.696639 -0.199195
v -0.580517 1.683268 -0.200269
v -0.577615 1.699924 -0.215961
v -0.591127 1.703208 -0.227460
v -0.579302 1.685142 -0.216333
v -0.573762 1.718386 -0.218565
v -0.569181 1.733075 -0.219917
v -0.589108 1.723433 -0.227717
v -0.586692 1.739587 -0.228307
v -0.606571 1.725835 -0.220618
v -0.611661 1.725336 -0.204007
v -0.604003 1.742333 -0.220448
v -0.608514 1.705510 -0.220057
v -0.608302 1.691556 -0.222929
v -0.612344 1.705261 -0.203527
v -0.607393 1.702849 -0.192857
v -0.613142 1.692217 -0.207015
v -0.608869 1.691240 -0.195477
v -0.614655 1.685350 -0.209260
v -0.608491 1.683080 -0.225025
v -0.617313 1.675549 -0.209829
v -0.610509 1.684842 -0.196485
v -0.613230 1.675393 -0.196145
v -0.601520 1.681357 -0.190953
v -0.603411 1.671221 -0.190902
v -0.590998 1.678368 -0.191385
v -0.600201 1.689160 -0.190317
v -0.593230 1.670099 -0.192934
v -0.582410 1.676233 -0.200928
v -0.586113 1.667554 -0.201655
v -0.581253 1.676541 -0.216526
v -0.592210 1.679198 -0.229300
v -0.585293 1.666579 -0.215828
v -0.594329 1.668922 -0.228157
v -0.588439 1.648998 -0.215019
v -0.597921 1.652039 -0.225988
v -0.589748 1.649184 -0.200891
v -0.589850 1.639992 -0.214696
v -0.599480 1.642446 -0.225336
v -0.591838 1.630282 -0.213410
v -0.591053 1.639826 -0.200701
v -0.593317 1.631074 -0.200610
v -0.598021 1.641891 -0.192187
v -0.599744 1.633087 -0.192582
v -0.607632 1.645967 -0.192013
v -0.596234 1.651694 -0.192178
v -0.605693 1.657522 -0.191375
v -0.615870 1.659240 -0.196920
v -0.619486 1.659829 -0.209917
v -0.616412 1.648067 -0.197452
v -0.616836 1.636334 -0.197234
v -0.620044 1.648432 -0.209797
v -0.620400 1.636567 -0.209321
v -0.612600 1.645875 -0.222957
v -0.613488 1.634157 -0.222568
v -0.612168 1.657230 -0.223951
v -0.610290 1.673223 -0.225531
v -0.600426 1.631443 -0.224590
v -0.615624 1.614397 -0.221624
v -0.616332 1.596967 -0.219881
v -0.602105 1.609436 -0.223160
v -0.621341 1.620925 -0.208387
v -0.618711 1.611066 -0.218219
v -0.621280 1.615828 -0.207391
v -0.618982 1.598861 -0.217201
v -0.621626 1.602725 -0.205936
v -0.620196 1.590096 -0.213281
v -0.620998 1.590455 -0.205426
v -0.618911 1.586447 -0.214763
v -0.620671 1.585330 -0.204934
v -0.611811 1.579654 -0.215597
v -0.614165 1.578294 -0.203298
v -0.605502 1.581180 -0.210803
v -0.606516 1.591400 -0.221650
v -0.598901 1.591400 -0.211947
v -0.593864 1.608499 -0.212414
v -0.599431 1.593232 -0.200835
v -0.603662 1.598420 -0.193781
v -0.595309 1.610423 -0.200465
v -0.606050 1.582081 -0.202626
v -0.607032 1.587214 -0.196157
v -0.612050 1.588212 -0.194807
v -0.615476 1.592155 -0.196980
v -0.609622 1.601788 -0.191602
v -0.609241 1.617533 -0.191112
v -0.614518 1.603240 -0.193494
v -0.616945 1.618808 -0.195349
v -0.616567 1.604019 -0.195294
v -0.617985 1.615151 -0.196586
v -0.616775 1.593809 -0.198363
v -0.601648 1.614032 -0.192960
v -0.608797 1.634084 -0.191990
v -0.591631 1.688177 -0.228990
v -0.606190 1.720312 -0.192054
v -0.608064 1.728856 -0.188369
v -0.616200 1.716253 -0.181091
v -0.610896 1.740991 -0.203489
v -0.614173 1.746690 -0.182184
v -0.624981 1.737717 -0.164514
v -0.628979 1.711716 -0.165161
v -0.630025 1.721079 -0.144572
v -0.618527 1.767747 -0.158804
v -0.624490 1.753976 -0.143767
v -0.627017 1.745529 -0.125841
v -0.620168 1.772266 -0.138788
v -0.621771 1.768594 -0.124481
v -0.622406 1.762978 -0.108994
v -0.626658 1.742165 -0.105412
v -0.629046 1.710014 -0.099719
v -0.622161 1.714617 -0.076014
v -0.620967 1.682548 -0.089148
v -0.627311 1.682675 -0.099456
v -0.632886 1.716579 -0.123489
v -0.634984 1.690323 -0.120523
v -0.626238 1.686101 -0.139166
v -0.634769 1.670313 -0.120526
v -0.626686 1.667262 -0.136504
v -0.634683 1.643161 -0.121991
v -0.628809 1.666848 -0.102741
v -0.608215 1.657402 -0.097187
v -0.629552 1.641415 -0.105675
v -0.629806 1.621804 -0.106394
v -0.609812 1.641523 -0.098128
v -0.610128 1.625866 -0.099316
v -0.594191 1.642672 -0.107537
v -0.595550 1.628020 -0.107848
v -0.590756 1.644508 -0.118624
v -0.589009 1.659705 -0.107398
v -0.584873 1.664206 -0.119681
v -0.591263 1.660127 -0.130336
v -0.609033 1.657389 -0.139573
v -0.592817 1.643612 -0.129736
v -0.607734 1.643929 -0.138840
v -0.593424 1.629550 -0.129565
v -0.597227 1.614483 -0.129237
v -0.591694 1.628980 -0.118449
v -0.607231 1.629974 -0.139246
v -0.625570 1.625969 -0.137700
v -0.610945 1.613058 -0.139113
v -0.620067 1.592246 -0.139547
v -0.627628 1.612736 -0.136564
v -0.632145 1.597306 -0.135490
v -0.635680 1.612051 -0.122327
v -0.631843 1.610907 -0.105457
v -0.638141 1.597434 -0.121929
v -0.634434 1.623226 -0.122757
v -0.633896 1.595505 -0.106044
v -0.638686 1.575843 -0.121102
v -0.634613 1.572931 -0.106935
v -0.634988 1.575665 -0.132831
v -0.640062 1.559409 -0.121356
v -0.636422 1.557171 -0.107445
v -0.642502 1.542008 -0.122522
v -0.637038 1.560420 -0.133614
v -0.639409 1.543832 -0.135390
v -0.627564 1.558943 -0.140183
v -0.628680 1.541359 -0.141323
v -0.614253 1.554739 -0.133656
v -0.625192 1.573748 -0.139508
v -0.612608 1.566442 -0.132347
v -0.607620 1.592687 -0.128969
v -0.608499 1.564137 -0.119207
v -0.604946 1.591899 -0.117968
v -0.612226 1.565248 -0.107308
v -0.610134 1.551818 -0.119980
v -0.612689 1.539202 -0.120695
v -0.613403 1.552032 -0.107694
v -0.615355 1.537989 -0.109486
v -0.624614 1.553623 -0.101348
v -0.625397 1.535045 -0.102339
v -0.623347 1.571066 -0.100753
v -0.619668 1.591000 -0.100416
v -0.612298 1.610474 -0.100194
v -0.608009 1.591873 -0.108424
v -0.599434 1.613215 -0.109044
v -0.595805 1.614214 -0.118392
v -0.637623 1.539392 -0.108614
v -0.626659 1.514254 -0.104560
v -0.629022 1.497040 -0.106577
v -0.617860 1.513875 -0.111272
v -0.638843 1.512610 -0.109516
v -0.637006 1.497639 -0.109152
v -0.643412 1.519705 -0.123758
v -0.641115 1.507976 -0.112681
v -0.640189 1.498681 -0.111308
v -0.643848 1.513317 -0.123760
v -0.643990 1.502236 -0.122622
v -0.642057 1.512553 -0.133916
v -0.641354 1.503855 -0.133339
v -0.640199 1.517689 -0.137289
v -0.639781 1.502586 -0.137116
v -0.628197 1.519181 -0.141373
v -0.630237 1.499719 -0.140480
v -0.618264 1.516912 -0.133289
v -0.621150 1.497551 -0.132384
v -0.614346 1.514105 -0.121564
v -0.616108 1.542065 -0.133493
v -0.618126 1.494760 -0.121302
v -0.621629 1.496133 -0.111636
v -0.625857 1.483381 -0.121176
v -0.636239 1.479908 -0.121485
v -0.626524 1.486196 -0.113152
v -0.625894 1.485630 -0.130951
v -0.634767 1.484334 -0.135251
v -0.642169 1.490821 -0.131836
v -0.643941 1.486802 -0.121346
v -0.643264 1.494566 -0.129132
v -0.644177 1.492218 -0.121657
v -0.642497 1.491469 -0.114209
v -0.640748 1.487997 -0.111925
v -0.633437 1.485156 -0.110583
v -0.625773 1.644312 -0.136912
v -0.608562 1.670055 -0.140639
v -0.609733 1.674817 -0.141505
v -0.613019 1.668349 -0.141361
v -0.627054 1.693579 -0.145376
v -0.627837 1.682317 -0.147719
v -0.629926 1.661462 -0.149849
v -0.630203 1.693258 -0.165222
v -0.619580 1.695161 -0.180171
v -0.631826 1.665914 -0.166875
v -0.632451 1.642642 -0.168661
v -0.620953 1.667140 -0.180557
v -0.621603 1.645552 -0.180431
v -0.604539 1.665407 -0.181750
v -0.605195 1.648434 -0.180980
v -0.591483 1.661076 -0.172213
v -0.602719 1.686305 -0.183949
v -0.586327 1.683726 -0.175918
v -0.599158 1.701737 -0.184990
v -0.582042 1.682068 -0.161321
v -0.589364 1.657725 -0.158634
v -0.591587 1.671663 -0.147713
v -0.597029 1.653322 -0.144814
v -0.601465 1.637130 -0.144595
v -0.616441 1.655761 -0.140251
v -0.619444 1.640674 -0.141769
v -0.632109 1.640585 -0.151747
v -0.622996 1.622939 -0.141759
v -0.626287 1.601590 -0.142033
v -0.634354 1.624461 -0.152436
v -0.605519 1.622824 -0.145175
v -0.608427 1.603022 -0.143557
v -0.597804 1.625524 -0.158858
v -0.600667 1.605345 -0.157947
v -0.598590 1.629306 -0.170869
v -0.592947 1.639224 -0.158636
v -0.594452 1.642860 -0.171623
v -0.602815 1.609659 -0.170594
v -0.607837 1.631671 -0.178793
v -0.612284 1.609363 -0.178850
v -0.622257 1.630580 -0.179810
v -0.626003 1.611100 -0.178503
v -0.633896 1.626672 -0.168674
v -0.636839 1.608016 -0.167470
v -0.636603 1.605917 -0.152908
v -0.637098 1.586673 -0.165701
v -0.635591 1.584935 -0.153696
v -0.628968 1.588724 -0.177570
v -0.637525 1.576657 -0.164917
v -0.635763 1.574418 -0.152725
v -0.639383 1.566405 -0.163680
v -0.629827 1.577729 -0.177449
v -0.632069 1.566284 -0.176888
v -0.616697 1.576816 -0.180807
v -0.619213 1.562488 -0.179337
v -0.605870 1.573892 -0.171864
v -0.615162 1.590520 -0.180184
v -0.604282 1.585014 -0.171654
v -0.602378 1.581163 -0.156866
v -0.611486 1.579779 -0.144080
v -0.604540 1.571036 -0.157584
v -0.608087 1.560788 -0.158200
v -0.612499 1.570082 -0.145144
v -0.613729 1.559934 -0.146310
v -0.626875 1.572124 -0.144197
v -0.626545 1.559405 -0.143224
v -0.626865 1.583713 -0.144286
v -0.637022 1.563877 -0.150414
v -0.626902 1.541318 -0.143229
v -0.629332 1.525377 -0.144738
v -0.638177 1.542669 -0.149095
v -0.616945 1.539165 -0.149208
v -0.621745 1.524134 -0.150630
v -0.611342 1.539821 -0.158339
v -0.617758 1.524685 -0.158799
v -0.613972 1.542573 -0.168948
v -0.619818 1.526599 -0.167949
v -0.622495 1.544652 -0.177424
v -0.609550 1.562899 -0.170633
v -0.626542 1.527780 -0.175135
v -0.636187 1.545289 -0.175931
v -0.634959 1.529656 -0.175771
v -0.641760 1.548236 -0.162584
v -0.639223 1.541366 -0.172490
v -0.641892 1.543102 -0.162338
v -0.638066 1.531215 -0.172747
v -0.642517 1.530936 -0.161351
v -0.640683 1.520451 -0.167916
v -0.642617 1.519087 -0.159815
v -0.637740 1.517626 -0.169340
v -0.640225 1.515122 -0.159346
v -0.631133 1.515679 -0.169224
v -0.625398 1.517785 -0.165694
v -0.633569 1.512801 -0.158963
v -0.632694 1.516113 -0.150267
v -0.625796 1.516297 -0.158860
v -0.626965 1.517294 -0.152846
v -0.638687 1.518197 -0.150340
v -0.637226 1.527885 -0.147263
v -0.641379 1.520921 -0.152262
v -0.639968 1.529615 -0.150509
v -0.640149 1.539180 -0.152751
v -0.605496 1.664097 -0.096590
v -0.604198 1.661832 -0.094785
v -0.605123 1.651913 -0.093539
v -0.618980 1.665412 -0.084521
v -0.607681 1.635131 -0.092301
v -0.584103 1.647848 -0.088208
v -0.590377 1.626199 -0.086931
v -0.576291 1.651460 -0.070626
v -0.581815 1.625275 -0.069796
v -0.582756 1.655420 -0.052283
v -0.588744 1.627753 -0.050901
v -0.602701 1.660544 -0.046905
v -0.577204 1.670574 -0.051084
v -0.597057 1.678290 -0.044664
v -0.579573 1.696425 -0.037045
v -0.614940 1.687168 -0.054593
v -0.617649 1.669781 -0.057490
v -0.622549 1.690680 -0.072549
v -0.623034 1.672087 -0.071971
v -0.625274 1.641206 -0.071297
v -0.622024 1.639200 -0.057056
v -0.620653 1.638614 -0.084083
v -0.629884 1.620586 -0.071204
v -0.626390 1.619303 -0.056509
v -0.633971 1.601390 -0.071115
v -0.624090 1.619834 -0.084374
v -0.626905 1.601171 -0.084142
v -0.610393 1.616983 -0.090811
v -0.613578 1.597384 -0.088688
v -0.594158 1.612258 -0.085178
v -0.598485 1.597689 -0.082684
v -0.586595 1.609804 -0.068741
v -0.592265 1.595955 -0.067579
v -0.593235 1.611593 -0.049512
v -0.597890 1.596740 -0.050233
v -0.612083 1.616002 -0.045928
v -0.616424 1.597497 -0.045596
v -0.607424 1.636654 -0.046226
v -0.619644 1.575749 -0.048709
v -0.630668 1.601363 -0.055582
v -0.631234 1.578112 -0.057849
v -0.634694 1.578894 -0.071193
v -0.632376 1.556875 -0.058749
v -0.621706 1.556762 -0.050222
v -0.632981 1.544024 -0.058681
v -0.635772 1.557739 -0.072122
v -0.637472 1.542953 -0.072781
v -0.631556 1.555565 -0.083647
v -0.629357 1.577873 -0.082750
v -0.620575 1.554145 -0.088887
v -0.632424 1.541046 -0.085237
v -0.633264 1.528127 -0.086652
v -0.621788 1.539097 -0.089267
v -0.621891 1.525811 -0.089862
v -0.608984 1.537447 -0.083434
v -0.610256 1.526980 -0.083480
v -0.602897 1.537666 -0.067908
v -0.606402 1.548702 -0.083989
v -0.602330 1.571210 -0.083050
v -0.600176 1.547117 -0.067583
v -0.596551 1.569616 -0.066830
v -0.607314 1.550137 -0.052665
v -0.603558 1.571537 -0.050883
v -0.608580 1.540356 -0.053577
v -0.609142 1.530801 -0.054303
v -0.621843 1.543312 -0.050636
v -0.621175 1.531012 -0.051341
v -0.632589 1.531157 -0.058365
v -0.621637 1.516380 -0.052220
v -0.623634 1.502287 -0.054546
v -0.612119 1.513914 -0.055948
v -0.631966 1.516160 -0.058687
v -0.630753 1.502633 -0.058303
v -0.637806 1.517077 -0.073311
v -0.633944 1.512411 -0.062206
v -0.634115 1.502862 -0.061143
v -0.637558 1.513080 -0.073092
v -0.639111 1.500668 -0.073405
v -0.636276 1.508561 -0.084735
v -0.634548 1.497697 -0.085453
v -0.634389 1.512237 -0.087128
v -0.631593 1.496580 -0.086879
v -0.622274 1.510329 -0.089045
v -0.624015 1.495942 -0.086692
v -0.612304 1.508866 -0.082088
v -0.616555 1.495270 -0.080258
v -0.607689 1.510540 -0.068110
v -0.612924 1.497258 -0.068313
v -0.604123 1.527871 -0.068603
v -0.615977 1.500435 -0.057937
v -0.619346 1.488451 -0.069031
v -0.627851 1.483920 -0.070075
v -0.620005 1.491832 -0.060749
v -0.620662 1.488517 -0.077750
v -0.626641 1.486708 -0.080792
v -0.633007 1.488846 -0.080993
v -0.635881 1.487436 -0.072348
v -0.635695 1.491167 -0.080277
v -0.638471 1.490956 -0.073365
v -0.636565 1.493919 -0.065209
v -0.633925 1.491845 -0.062526
v -0.626812 1.490361 -0.059487
v -0.638667 1.530326 -0.073189
v -0.617212 1.574808 -0.088573
v -0.528416 1.718931 -0.015037
v -0.518753 1.718373 -0.009563
v -0.510380 1.713430 -0.004334
v -0.499691 1.721411 -0.017847
v -0.528876 1.738212 0.000613
v -0.524747 1.761568 0.014229
v -0.519532 1.727667 0.007352
v -0.509425 1.708830 0.014635
v -0.517021 1.745160 0.021388
v -0.499907 1.759581 0.023819
v -0.504595 1.720658 0.026313
v -0.490990 1.732588 0.032074
v -0.497738 1.699995 0.034595
v -0.493722 1.689389 0.038476
v -0.502398 1.691289 0.020907
v -0.483021 1.711241 0.042801
v -0.477989 1.701814 0.045846
v -0.464688 1.717569 0.030408
v -0.459755 1.709199 0.033827
v -0.460810 1.714692 0.012626
v -0.473934 1.736553 0.022252
v -0.481606 1.761028 0.013305
v -0.466463 1.730122 0.006551
v -0.471823 1.748033 -0.000482
v -0.472031 1.715341 -0.006024
v -0.477438 1.730618 -0.012670
v -0.488472 1.703668 -0.006838
v -0.467984 1.701635 0.001529
v -0.466997 1.694108 0.006810
v -0.483265 1.691464 0.000035
v -0.480556 1.684553 0.004893
v -0.497127 1.688666 0.007022
v -0.493537 1.679309 0.011194
v -0.503099 1.701535 0.001446
v -0.498715 1.681840 0.024481
v -0.490069 1.670495 0.014963
v -0.484228 1.659734 0.021045
v -0.477857 1.677641 0.007221
v -0.494733 1.673663 0.027657
v -0.488132 1.661235 0.033864
v -0.489005 1.679877 0.040876
v -0.481310 1.664236 0.047237
v -0.472787 1.693196 0.047601
v -0.466065 1.678537 0.050573
v -0.455427 1.700007 0.035725
v -0.448888 1.682192 0.039893
v -0.453177 1.694161 0.020277
v -0.449599 1.680674 0.024541
v -0.463980 1.686750 0.009709
v -0.457008 1.704303 0.017116
v -0.458400 1.674026 0.015802
v -0.471876 1.665030 0.012856
v -0.453896 1.662491 0.022635
v -0.465579 1.653437 0.020841
v -0.449703 1.652145 0.031628
v -0.447155 1.667484 0.029896
v -0.444861 1.656639 0.036687
v -0.444286 1.669925 0.038605
v -0.442536 1.658498 0.042359
v -0.444648 1.669903 0.043080
v -0.442220 1.659217 0.046101
v -0.459204 1.664784 0.054583
v -0.449467 1.677942 0.044124
v -0.464006 1.674041 0.051467
v -0.476242 1.663220 0.050212
v -0.474238 1.655126 0.052075
v -0.467052 1.647128 0.059439
v -0.477160 1.652974 0.049379
v -0.471267 1.642735 0.056425
v -0.481708 1.649240 0.040238
v -0.471747 1.636917 0.047680
v -0.476911 1.648225 0.028389
v -0.467932 1.638495 0.036220
v -0.458407 1.644222 0.030613
v -0.459959 1.635246 0.042281
v -0.452988 1.640238 0.039654
v -0.459933 1.633631 0.051321
v -0.448889 1.638935 0.048946
v -0.460297 1.637609 0.059203
v -0.448212 1.642184 0.057380
v -0.459525 1.641521 0.061874
v -0.449028 1.646004 0.059604
v -0.453049 1.655182 0.059407
v -0.442256 1.651760 0.049786
v -0.442399 1.650744 0.047080
v -0.444297 1.647673 0.043413
v -0.448228 1.646526 0.038128
v -0.494860 1.716127 -0.012355
v -0.479995 1.740098 -0.018235
v -0.475852 1.763497 -0.007417
v -0.487016 1.778092 0.004557
v -0.505928 1.776701 0.012633
v -0.491751 1.795904 -0.004455
v -0.511476 1.794768 0.002580
v -0.531234 1.779458 0.005671
v -0.524777 1.821052 -0.010975
v -0.526752 1.866083 -0.181920
v -0.553099 1.873759 -0.198680
v -0.581659 1.874037 -0.190142
v -0.607216 1.862333 -0.115182
vn -0.9972 0.0553 0.0503
vn -0.9326 0.0782 0.3524
vn -0.6966 0.6577 0.2868
vn -0.7177 0.6814 0.1434
vn -0.7971 0.5679 -0.2055
vn -0.9516 0.0121 -0.3072
vn -0.4095 0.6562 -0.6338
vn -0.5348 0.0813 -0.8410
vn 0.2777 0.1726 -0.9450
vn 0.2039 0.6986 -0.6858
vn 0.6587 0.6360 -0.4021
vn 0.8462 0.0590 -0.5296
vn 0.9736 -0.0091 -0.2282
vn 0.7579 0.6471 -0.0824
vn 0.7469 0.6581 0.0946
vn 0.9921 0.0894 -0.0879
vn 0.9342 0.2903 0.2074
vn 0.6322 0.6998 0.3326
vn 0.5818 0.3687 0.7249
vn 0.3821 0.6835 0.6219
vn -0.1124 0.6518 0.7500
vn -0.1091 0.2510 0.9618
vn -0.5469 0.6431 0.5360
vn -0.6801 0.1103 0.7248
vn -0.5944 0.1656 0.7870
vn -0.8871 0.1007 0.4504
vn -0.0900 0.3389 0.9365
vn -0.4434 0.2019 0.8733
vn -0.0457 0.4231 0.9050
vn -0.6727 0.1115 0.7314
vn -0.6063 0.0381 0.7943
vn -0.7833 0.1412 0.6054
vn -0.6575 0.0926 0.7477
vn -0.4908 0.1580 0.8568
vn -0.5607 -0.1445 0.8153
vn -0.4996 -0.0857 0.8620
vn -0.8200 0.1371 0.5556
vn -0.6751 0.0171 0.7375
vn -0.8824 0.1687 0.4392
vn -0.9544 0.1905 0.2297
vn -0.9363 0.1482 0.3185
vn -0.9374 0.0739 0.3404
vn -0.9710 0.1598 0.1777
vn -0.9378 0.1429 0.3163
vn -0.9859 0.1488 0.0760
vn -0.9879 0.1539 0.0169
vn -0.9915 0.1095 0.0699
vn -0.9784 0.2067 0.0036
vn -0.9839 0.1411 -0.1093
vn -0.9677 0.2090 -0.1410
vn -0.9769 0.1367 -0.1644
vn -0.9605 0.1714 -0.2192
vn -0.9402 0.1302 -0.3149
vn -0.8877 0.2035 -0.4130
vn -0.9440 0.2262 -0.2402
vn -0.9528 0.2031 -0.2258
vn -0.8902 0.2446 -0.3844
vn -0.6040 0.2238 -0.7649
vn -0.6064 0.2621 -0.7507
vn -0.5929 0.3021 -0.7465
vn -0.9226 0.2008 -0.3293
vn -0.9393 0.1155 -0.3231
vn -0.6109 0.2982 -0.7334
vn 0.0630 0.1693 -0.9836
vn 0.0725 0.1972 -0.9777
vn 0.1268 0.2265 -0.9657
vn 0.7425 -0.1142 -0.6601
vn 0.7436 -0.1557 -0.6503
vn 0.8055 0.0135 -0.5924
vn 0.9183 -0.3663 -0.1502
vn 0.9194 -0.3768 -0.1130
vn 0.9663 -0.2034 -0.1575
vn 0.8795 -0.4559 0.1364
vn 0.9041 -0.4115 0.1153
vn 0.9052 -0.4107 0.1089
vn 0.9778 -0.0405 -0.2057
vn 0.9282 -0.3546 -0.1130
vn 0.8522 0.1287 -0.5071
vn 0.8529 -0.5221 -0.0080
vn 0.8749 -0.4763 0.0872
vn 0.9021 -0.4248 0.0756
vn 0.7780 -0.3631 -0.5128
vn 0.7794 -0.5145 -0.3574
vn 0.9570 0.0042 -0.2900
vn 0.8671 -0.4146 -0.2761
vn 0.7101 -0.3906 -0.5858
vn 0.9158 -0.3380 -0.2169
vn 0.8325 -0.3389 -0.4382
vn 0.7688 -0.3053 -0.5619
vn 0.7483 -0.4255 -0.5089
vn 0.8294 -0.2562 -0.4964
vn 0.6741 -0.5264 -0.5182
vn 0.9680 0.2445 -0.0567
vn 0.5716 0.4882 0.6595
vn 0.5733 0.5458 0.6111
vn 0.9691 0.2450 -0.0293
vn 0.8044 -0.3099 -0.5068
vn 0.7678 -0.3132 -0.5589
vn 0.9802 0.1964 0.0254
vn 0.5773 0.4960 0.6487
vn 0.4430 -0.6811 -0.5830
vn 0.5762 -0.6999 -0.4220
vn -0.0811 -0.5979 0.7975
vn -0.2334 -0.8007 0.5516
vn 0.6722 -0.7124 0.2018
vn -0.1597 -0.3273 0.9313
vn 0.8562 -0.4314 -0.2842
vn 0.8971 -0.3141 -0.3108
vn 0.5823 -0.4422 0.6822
vn 0.9166 -0.3959 -0.0556
vn 0.7650 -0.4495 -0.4612
vn 0.8311 -0.5080 -0.2265
vn 0.9132 -0.3069 -0.2682
vn 0.9150 -0.2647 -0.3044
vn 0.7849 -0.3825 -0.4874
vn 0.9474 -0.2786 -0.1574
vn 0.9081 -0.4181 -0.0243
vn 0.9498 -0.3110 0.0346
vn 0.9344 -0.3524 0.0528
vn 0.8368 -0.4047 -0.3688
vn 0.8132 -0.5421 -0.2116
vn 0.9032 -0.4157 -0.1065
vn -0.2636 -0.1350 0.9552
vn 0.5887 -0.3486 0.7293
vn -0.3200 -0.4572 -0.8298
vn -0.0557 -0.1834 -0.9815
vn 0.9207 -0.3903 -0.0049
vn 0.9398 -0.2229 0.2591
vn 0.4676 -0.1865 0.8641
vn -0.2370 -0.0925 0.9671
vn 0.9291 -0.2019 0.3099
vn 0.4334 -0.2120 0.8759
vn -0.2838 -0.1257 0.9506
vn 0.9162 -0.1056 -0.3865
vn 0.8711 -0.1615 -0.4637
vn 0.7481 -0.2574 -0.6116
vn 0.0308 -0.0603 -0.9977
vn 0.1207 -0.0060 -0.9927
vn 0.2453 0.0630 -0.9674
vn 0.7195 -0.2114 -0.6615
vn 0.0252 0.0661 -0.9975
vn -0.6597 0.1915 -0.7267
vn -0.7232 0.0599 -0.6880
vn -0.7428 0.0738 -0.6654
vn -0.9977 0.0381 -0.0554
vn -0.9979 0.0492 0.0429
vn -0.9631 0.0714 -0.2596
vn -0.6637 0.1555 -0.7317
vn -0.9948 0.0968 -0.0319
vn -0.7748 -0.0096 0.6321
vn -0.8692 -0.0658 0.4901
vn -0.7951 -0.0117 0.6064
vn -0.7837 0.1596 0.6002
vn -0.9684 0.2266 -0.1045
vn -0.6011 0.1565 -0.7837
vn -0.6067 0.0556 -0.7930
vn -0.9782 0.1730 -0.1148
vn -0.7901 0.1482 0.5948
vn -0.2451 -0.0120 0.9694
vn -0.1937 0.0151 0.9809
vn 0.4885 -0.1378 0.8616
vn 0.4119 -0.2306 0.8816
vn 0.9083 -0.2383 0.3438
vn 0.8860 -0.3289 0.3267
vn 0.9108 -0.2621 -0.3191
vn 0.8955 -0.2649 -0.3576
vn 0.3017 -0.0695 -0.9509
vn 0.3082 -0.1610 -0.9376
vn 0.3227 -0.1488 -0.9347
vn 0.9325 -0.1903 -0.3070
vn 0.9259 -0.1506 0.3464
vn 0.2912 -0.1144 -0.9498
vn 0.9228 -0.1831 -0.3390
vn 0.9213 -0.1739 0.3477
vn 0.3506 -0.0948 -0.9317
vn 0.9438 -0.1374 -0.3007
vn 0.9193 -0.1272 0.3724
vn 0.4281 -0.0948 0.8988
vn 0.4785 -0.0686 0.8754
vn 0.4993 -0.0806 0.8626
vn -0.2777 0.0010 0.9607
vn -0.2418 0.0338 0.9697
vn -0.2001 0.0041 0.9798
vn -0.8077 0.0734 0.5851
vn -0.8168 0.0362 0.5757
vn -0.9871 0.0861 -0.1348
vn -0.9885 0.0325 -0.1477
vn -0.8265 0.0579 0.5600
vn -0.9904 0.0496 -0.1293
vn -0.6147 -0.0118 -0.7887
vn -0.5891 0.0031 -0.8081
vn -0.6043 -0.0066 -0.7967
vn -0.4623 -0.0136 -0.8866
vn 0.3992 -0.1286 -0.9078
vn -0.9897 0.0693 -0.1255
vn -0.3325 -0.1325 -0.9337
vn -0.9286 -0.0260 -0.3701
vn -0.9201 0.0238 -0.3909
vn 0.2962 -0.3074 -0.9043
vn -0.9987 0.0454 0.0225
vn -0.9943 -0.0181 0.1046
vn -0.9587 -0.0701 -0.2758
vn -0.9861 -0.0607 0.1545
vn -0.6292 -0.4623 -0.6249
vn -0.8335 -0.5177 0.1932
vn -0.0608 -0.7727 -0.6318
vn -0.3739 -0.8864 0.2729
vn 0.6778 -0.7045 -0.2104
vn 0.6167 -0.7112 0.3375
vn 0.8843 -0.3714 -0.2829
vn 0.9430 -0.1773 -0.2815
vn 0.9218 -0.1474 0.3586
vn 0.8798 -0.3350 0.3371
vn 0.5624 -0.2086 0.8001
vn 0.4426 -0.4870 0.7529
vn 0.5574 -0.0796 0.8264
vn -0.2411 -0.4232 0.8734
vn -0.0715 -0.0995 0.9925
vn -0.6457 -0.2340 0.7269
vn -0.5191 -0.0535 0.8530
vn -0.7515 0.0624 0.6567
vn -0.1435 0.0160 0.9895
vn -0.9042 0.0208 0.4266
vn -0.8751 -0.0385 0.4824
vn -0.8493 -0.0803 0.5218
vn -0.9231 -0.1140 -0.3674
vn -0.6673 0.0160 -0.7446
vn -0.9392 0.1485 -0.3097
vn -0.9510 0.0564 -0.3042
vn -0.9936 -0.0240 0.1102
vn -0.9893 0.0766 -0.1242
vn -0.9726 0.2091 -0.1021
vn -0.9636 0.2520 -0.0887
vn -0.9976 0.0681 -0.0129
vn -0.9826 0.1854 0.0092
vn -0.9706 0.2403 0.0108
vn -0.9664 0.2140 0.1428
vn -0.9683 0.1631 0.1894
vn -0.9732 0.0559 0.2231
vn -0.9587 0.0147 0.2840
vn -0.9775 -0.2040 0.0531
vn -0.8933 -0.0803 0.4423
vn -0.9997 -0.0169 -0.0168
vn -0.8572 -0.1228 -0.5001
vn -0.6685 -0.0407 -0.7426
vn -0.9982 -0.0096 -0.0589
vn -0.7467 -0.0487 0.6633
vn -0.6001 0.0063 -0.7999
vn -0.9954 -0.0044 -0.0957
vn -0.7263 -0.0392 0.6863
vn -0.0126 -0.1609 0.9869
vn -0.2660 -0.6992 0.6636
vn 0.0099 -0.0845 0.9964
vn -0.6900 0.0297 0.7232
vn 0.0679 -0.0694 0.9953
vn -0.9903 0.0489 -0.1301
vn 0.7321 -0.1410 0.6665
vn 0.7180 -0.1431 0.6812
vn 0.7487 -0.4202 0.5126
vn 0.9837 -0.1615 0.0790
vn 0.9834 -0.1810 0.0148
vn 0.8929 -0.4193 -0.1641
vn 0.7574 -0.0748 -0.6487
vn 0.6848 -0.2775 -0.6738
vn 0.1138 -0.1117 -0.9872
vn 0.0439 -0.3079 -0.9504
vn 0.1892 -0.0060 -0.9819
vn 0.2541 -0.0351 -0.9665
vn 0.7957 -0.1144 -0.5948
vn 0.3036 -0.1397 -0.9425
vn 0.7844 -0.2837 -0.5515
vn 0.9400 -0.3374 0.0508
vn -0.5206 0.0207 -0.8535
vn -0.5272 0.0815 -0.8458
vn -0.6692 0.0883 -0.7378
vn 0.2002 -0.0715 -0.9771
vn 0.7920 -0.2264 -0.5670
vn -0.9814 0.1562 -0.1118
vn -0.9939 0.0972 -0.0514
vn -0.6587 0.1081 0.7446
vn -0.7365 0.0648 0.6734
vn -0.7721 0.0390 0.6343
vn -0.9980 0.0617 0.0104
vn -0.7879 0.0724 -0.6115
vn -0.7771 0.0430 0.6279
vn -0.9924 0.1110 0.0538
vn -0.8142 0.1389 -0.5637
vn -0.7734 0.0108 0.6338
vn -0.9956 0.0709 0.0611
vn -0.8002 0.0960 -0.5920
vn -0.0122 0.0623 -0.9980
vn 0.0672 0.0266 -0.9974
vn 0.1045 0.0013 -0.9945
vn 0.7307 -0.0676 -0.6794
vn 0.7746 -0.0644 -0.6292
vn 0.7790 -0.0826 -0.6216
vn 0.9676 -0.2517 0.0181
vn 0.9916 -0.1287 -0.0121
vn 0.9884 -0.1473 -0.0371
vn 0.7621 -0.1962 0.6170
vn 0.7638 -0.1056 0.6367
vn 0.7592 -0.1263 0.6385
vn 0.9919 -0.1167 -0.0508
vn 0.8090 -0.1308 0.5731
vn -0.0236 -0.0537 0.9983
vn 0.0251 -0.0841 0.9961
vn 0.0390 -0.0321 0.9987
vn 0.0808 -0.0477 0.9956
vn 0.1691 -0.0875 0.9817
vn 0.7506 -0.2604 0.6072
vn 0.8175 -0.1418 0.5582
vn 0.0746 -0.0969 0.9925
vn -0.6898 -0.0020 0.7240
vn -0.3957 -0.0839 0.9145
vn 0.1313 -0.1836 0.9742
vn 0.7654 -0.2800 0.5794
vn -0.9148 0.0336 0.4026
vn -0.8762 0.0234 0.4813
vn -0.9957 0.0515 0.0769
vn -0.9972 0.0541 0.0510
vn -0.9979 0.0215 0.0612
vn -0.9570 -0.0171 -0.2897
vn -0.9593 0.0123 -0.2821
vn -0.6972 0.0366 -0.7159
vn -0.4959 -0.0851 -0.8642
vn 0.1868 -0.1849 -0.9648
vn 0.1816 -0.0260 -0.9830
vn 0.8110 -0.0894 -0.5781
vn 0.7862 -0.2525 -0.5640
vn 0.9908 -0.1305 -0.0349
vn 0.9485 -0.3168 -0.0055
vn 0.5724 -0.6287 0.5264
vn 0.6232 -0.7820 0.0087
vn 0.6112 -0.6209 -0.4909
vn -0.2389 -0.9708 -0.0202
vn -0.0942 -0.6659 -0.7401
vn -0.0479 -0.6636 0.7465
vn -0.7777 -0.6283 -0.0217
vn -0.6897 -0.3862 -0.6125
vn -0.9972 0.0156 0.0737
vn -0.9717 0.0114 -0.2360
vn -0.5579 -0.4794 0.6774
vn -0.9145 0.0149 0.4044
vn -0.2147 -0.8765 0.4310
vn -0.1017 -0.0046 0.9948
vn 0.6965 -0.2546 0.6708
vn -0.8752 0.0439 0.4817
vn -0.9571 0.0709 -0.2809
vn -0.1675 0.0045 0.9859
vn -0.8806 0.0538 0.4707
vn -0.9589 0.0637 -0.2763
vn -0.5668 0.0348 -0.8231
vn -0.5201 0.0217 -0.8539
vn -0.9017 0.0754 0.4257
vn -0.9424 0.0651 -0.3282
vn -0.4448 -0.0040 -0.8956
vn 0.1967 -0.0932 -0.9760
vn 0.2876 -0.0913 -0.9534
vn 0.0737 -0.1194 -0.9901
vn 0.7903 -0.2110 -0.5753
vn 0.8276 -0.1990 -0.5248
vn 0.6990 -0.3162 -0.6414
vn 0.9299 -0.3654 -0.0422
vn 0.9641 -0.2279 0.1363
vn 0.5776 -0.1066 0.8093
vn 0.9521 -0.2485 0.1783
vn 0.5353 -0.1652 0.8284
vn -0.2364 -0.0150 0.9715
vn -0.2625 0.0372 0.9642
vn -0.9028 0.1173 0.4138
vn 0.5393 -0.0963 0.8366
vn 0.5274 -0.0604 0.8475
vn -0.3169 -0.0155 0.9483
vn -0.9157 0.0446 0.3994
vn 0.9761 -0.1002 0.1927
vn 0.9599 -0.2186 0.1758
vn 0.8617 -0.1084 -0.4957
vn 0.8237 -0.2180 -0.5234
vn 0.3298 -0.1222 -0.9361
vn 0.3121 -0.0396 -0.9492
vn -0.4376 0.0278 -0.8988
vn -0.3536 -0.0053 -0.9354
vn -0.9207 0.1016 -0.3768
vn -0.9358 0.0607 -0.3473
vn -0.9099 -0.0145 0.4146
vn -0.9582 0.0109 -0.2858
vn -0.5366 0.0278 -0.8434
vn -0.8634 0.1087 0.4926
vn -0.9676 0.0960 -0.2335
vn -0.5513 0.0354 -0.8335
vn -0.8233 0.1135 0.5562
vn -0.9781 0.1354 -0.1583
vn -0.5922 0.0465 -0.8045
vn 0.2311 -0.0744 -0.9701
vn 0.2469 -0.1389 -0.9590
vn 0.2677 -0.0003 -0.9635
vn 0.8321 -0.1978 -0.5182
vn 0.8309 -0.2435 -0.5003
vn 0.8761 -0.0698 -0.4771
vn 0.9664 -0.1111 0.2320
vn 0.9539 -0.2418 0.1776
vn 0.4976 -0.0986 0.8618
vn 0.5083 -0.1330 0.8509
vn 0.9643 -0.2295 0.1322
vn 0.6245 -0.1424 0.7680
vn -0.2924 0.0313 0.9558
vn -0.1405 0.0019 0.9901
vn -0.3372 -0.0517 0.9400
vn 0.6890 -0.2037 0.6955
vn -0.0009 -0.0599 0.9982
vn -0.7148 0.0702 0.6957
vn 0.1088 -0.2303 0.9670
vn 0.6727 -0.3926 0.6271
vn -0.4681 -0.0612 0.8815
vn 0.8830 -0.4656 0.0598
vn 0.9587 -0.2617 0.1119
vn 0.7649 -0.4033 -0.5024
vn 0.8356 -0.2481 -0.4901
vn 0.3192 -0.3024 -0.8981
vn 0.2961 -0.1547 -0.9425
vn -0.2094 -0.1900 -0.9592
vn -0.5261 0.0248 -0.8500
vn -0.8729 -0.0566 -0.4847
vn -0.9000 0.0175 -0.4355
vn -0.9878 0.1254 -0.0921
vn -0.9952 0.0658 -0.0724
vn -0.9969 0.0271 -0.0740
vn -0.8917 -0.1431 -0.4294
vn -0.9879 -0.1463 -0.0522
vn -0.3560 -0.6207 -0.6986
vn -0.5253 -0.8509 -0.0072
vn 0.1566 -0.7401 -0.6540
vn -0.0144 -0.9998 0.0133
vn 0.6227 -0.6803 -0.3866
vn 0.6088 -0.7929 0.0267
vn -0.4772 -0.5450 0.6893
vn 0.0146 -0.7275 0.6860
vn 0.5257 -0.7164 0.4588
vn -0.9316 -0.0907 0.3520
vn -0.9287 0.0433 0.3684
vn -0.9470 0.0726 0.3131
vn -0.2903 -0.5013 -0.8151
vn -0.8373 -0.0410 -0.5452
vn -0.1815 -0.1196 -0.9761
vn 0.6475 -0.2824 -0.7078
vn -0.7544 0.0783 -0.6517
vn -0.1203 -0.0556 -0.9912
vn 0.6232 -0.2158 -0.7517
vn 0.9498 -0.3105 0.0394
vn 0.9691 -0.2466 -0.0023
vn 0.6153 -0.1889 0.7653
vn 0.6472 -0.1210 0.7526
vn -0.1829 -0.0023 0.9831
vn -0.1606 0.0587 0.9853
vn -0.2127 -0.1474 0.9659
vn -0.7055 0.0420 0.7074
vn -0.7799 0.0740 0.6216
vn -0.9960 0.0433 0.0786
vn -0.7812 0.1457 0.6071
vn -0.9907 0.1351 -0.0174
vn -0.7882 0.1931 0.5843
vn -0.9750 0.2062 -0.0826
vn -0.7004 0.1049 -0.7060
vn -0.8143 0.0908 0.5732
vn -0.9885 0.1109 -0.1030
vn -0.6717 0.0597 -0.7384
vn -0.0677 -0.0794 -0.9945
vn 0.0075 -0.0544 -0.9985
vn 0.6005 -0.2608 -0.7559
vn 0.6742 -0.1894 -0.7139
vn 0.9477 -0.3185 -0.0197
vn 0.9699 -0.2435 -0.0068
vn 0.6019 -0.1658 0.7812
vn 0.6274 -0.1825 0.7571
vn -0.1911 0.0626 0.9796
vn -0.2038 -0.0259 0.9787
vn 0.6183 -0.1616 0.7691
vn -0.2257 -0.0735 0.9714
vn -0.8348 0.0003 0.5505
vn -0.9954 0.0476 -0.0827
vn -0.8394 0.0316 0.5425
vn -0.9952 0.0776 -0.0588
vn -0.2530 -0.0481 0.9663
vn -0.8218 0.0230 0.5693
vn -0.2445 -0.0414 0.9688
vn -0.9964 0.0816 -0.0250
vn -0.7139 0.0967 -0.6936
vn -0.7049 0.1045 -0.7016
vn -0.6939 0.0593 -0.7176
vn 0.0153 -0.0008 -0.9999
vn -0.0007 0.0187 -0.9998
vn 0.0427 0.0263 -0.9987
vn -0.6935 0.0512 -0.7186
vn -0.9996 0.0203 0.0213
vn 0.1518 -0.0155 -0.9883
vn 0.7038 -0.1075 -0.7023
vn 0.7714 -0.1055 -0.6275
vn 0.7043 -0.1203 -0.6997
vn 0.9833 -0.1821 -0.0063
vn 0.9870 -0.1600 -0.0125
vn 0.9808 -0.1945 0.0159
vn 0.7169 -0.1056 -0.6891
vn 0.9846 -0.1729 0.0252
vn 0.6129 -0.1555 0.7747
vn 0.6107 -0.1309 0.7810
vn 0.6922 -0.1380 0.7084
vn -0.1706 -0.0668 0.9831
vn -0.7895 -0.0264 0.6132
vn 0.7121 -0.2191 0.6670
vn -0.1141 -0.1038 0.9880
vn -0.7330 -0.0409 0.6790
vn -0.5442 -0.1076 0.8321
vn -0.0986 -0.2151 0.9716
vn 0.6584 -0.3709 0.6549
vn -0.9060 0.0604 0.4190
vn -0.8831 0.0260 0.4684
vn -0.9996 -0.0000 0.0286
vn -0.9949 0.0688 0.0742
vn -0.9997 0.0160 0.0201
vn -0.8731 -0.1011 -0.4769
vn -0.9293 0.0120 -0.3691
vn -0.5627 -0.0087 -0.8266
vn -0.1944 -0.2511 -0.9483
vn 0.2627 -0.3090 -0.9141
vn 0.2350 -0.1079 -0.9660
vn 0.8038 -0.2157 -0.5544
vn 0.7742 -0.4054 -0.4861
vn 0.9676 -0.2520 0.0151
vn 0.9045 -0.4232 0.0529
vn 0.5195 -0.6236 0.5842
vn 0.6450 -0.7522 0.1351
vn 0.6239 -0.7119 -0.3224
vn 0.1286 -0.8338 -0.5369
vn -0.0402 -0.9828 0.1801
vn -0.1110 -0.6308 0.7680
vn -0.3263 -0.7543 -0.5697
vn -0.5349 -0.8378 0.1092
vn -0.9762 -0.2168 -0.0113
vn -0.8578 -0.2804 -0.4308
vn -0.5463 -0.5075 0.6664
vn -0.8994 -0.1211 0.4199
vn 0.2645 -0.6836 -0.6802
vn -0.5038 -0.8495 0.1565
vn -0.7293 -0.3233 0.6030
vn -0.8236 -0.3828 0.4184
vn -0.6512 -0.6903 -0.3154
vn 0.0699 -0.5030 -0.8614
vn -0.5679 0.0981 0.8172
vn -0.5804 0.0048 0.8143
vn -0.6679 -0.5589 -0.4914
vn -0.9052 -0.3462 0.2466
vn -0.6574 -0.0268 0.7531
vn 0.0283 0.3828 0.9234
vn 0.0184 0.4740 0.8804
vn -0.0190 0.3297 0.9439
vn -0.7231 0.0042 0.6908
vn -0.1169 0.3639 0.9241
vn -0.9384 -0.3092 0.1543
vn -0.6677 -0.0841 0.7397
vn -0.0451 0.2662 0.9629
vn -0.9258 -0.3510 0.1403
vn 0.6829 0.4876 0.5440
vn 0.6235 0.5314 0.5735
vn 0.6378 0.4694 0.6106
vn 0.9267 0.2253 -0.3006
vn 0.9457 0.2599 -0.1952
vn 0.9534 0.2756 -0.1223
vn 0.6322 0.4656 0.6193
vn 0.9654 0.2573 -0.0424
vn 0.6260 -0.1432 -0.7665
vn 0.6854 -0.1458 -0.7134
vn 0.6387 -0.2138 -0.7392
vn 0.0193 -0.4485 -0.8936
vn 0.0486 -0.4944 -0.8679
vn 0.6053 -0.1928 -0.7723
vn 0.0493 -0.4407 -0.8963
vn -0.6254 -0.5173 -0.5842
vn -0.6443 -0.5365 -0.5451
vn -0.5882 -0.5592 -0.5842
vn -0.9039 -0.3905 0.1746
vn 0.0540 -0.3823 -0.9225
vn -0.5486 -0.6266 -0.5535
vn -0.8951 -0.4109 0.1731
vn 0.0820 -0.4639 -0.8821
vn -0.6586 -0.0535 0.7506
vn -0.6216 -0.0679 0.7804
vn 0.0118 0.2745 0.9615
vn 0.0432 0.2455 0.9684
vn 0.7990 0.3904 0.4574
vn 0.7384 0.4105 0.5351
vn 0.9102 0.1245 -0.3950
vn 0.9111 0.1955 -0.3629
vn 0.5538 -0.1956 -0.8094
vn 0.5359 -0.1267 -0.8347
vn 0.1356 -0.5669 -0.8126
vn 0.5867 -0.2954 -0.7540
vn 0.8840 -0.0072 -0.4674
vn 0.2529 -0.6496 -0.7170
vn 0.6335 -0.3905 -0.6680
vn 0.8700 -0.1590 -0.4666
vn 0.9696 0.1919 -0.1516
vn 0.9703 -0.0101 -0.2417
vn 0.6376 0.4145 0.6493
vn 0.6879 0.4100 0.5989
vn 0.4990 0.4204 0.7578
vn 0.1071 0.3907 0.9143
vn 0.2067 0.4008 0.8926
vn 0.0693 0.3231 0.9438
vn -0.3404 0.1526 0.9278
vn -0.4089 0.2214 0.8853
vn -0.8196 -0.2039 0.5354
vn -0.3275 0.2023 0.9229
vn -0.6922 -0.4210 0.5862
vn -0.8471 -0.5241 0.0882
vn -0.6409 -0.7591 0.1142
vn -0.4602 -0.7138 -0.5280
vn -0.2904 -0.8319 -0.4728
vn 0.4695 -0.7473 -0.4702
vn 0.1186 -0.9315 -0.3440
vn 0.0287 -0.9839 0.1766
vn 0.6374 -0.7705 0.0092
vn 0.6430 -0.6410 0.4190
vn -0.0478 -0.7857 0.6167
vn 0.4594 0.0676 0.8856
vn -0.0213 -0.0983 0.9949
vn 0.8121 0.1654 0.5596
vn 0.9526 -0.3035 -0.0203
vn 0.8586 -0.4490 -0.2476
vn 0.6860 -0.5162 -0.5128
vn 0.7777 -0.2307 -0.5848
vn 0.9747 0.2229 0.0185
vn 0.6050 0.4962 0.6227
vn 0.0130 0.4610 0.8873
vn 0.2070 0.2902 -0.9343
vt 0.866610 0.605140
vt 0.866690 0.621380
vt 0.859930 0.620650
vt 0.859610 0.605180
vt 0.858030 0.588910
vt 0.865240 0.588160
vt 0.854650 0.572060
vt 0.861830 0.571760
vt 0.857750 0.556580
vt 0.850190 0.556050
vt 0.844860 0.540240
vt 0.853090 0.541580
vt 0.846600 0.526090
vt 0.838220 0.524990
vt 0.832430 0.514770
vt 0.840250 0.513460
vt 0.832800 0.504790
vt 0.827510 0.507750
vt 0.860530 0.658430
vt 0.856630 0.668770
vt 0.853300 0.666080
vt 0.855820 0.656720
vt 0.857630 0.646230
vt 0.863020 0.647550
vt 0.859050 0.634540
vt 0.865110 0.635780
vt 0.873820 0.639010
vt 0.875660 0.623210
vt 0.869500 0.650560
vt 0.881180 0.647560
vt 0.877000 0.655330
vt 0.881860 0.636770
vt 0.887160 0.641750
vt 0.885260 0.630450
vt 0.893280 0.635770
vt 0.887010 0.654040
vt 0.893880 0.648760
vt 0.899300 0.642070
vt 0.900360 0.628740
vt 0.909290 0.635390
vt 0.891410 0.622860
vt 0.897760 0.613790
vt 0.907150 0.620570
vt 0.916880 0.625480
vt 0.889710 0.611540
vt 0.884100 0.616030
vt 0.881830 0.604640
vt 0.889300 0.604060
vt 0.874200 0.605060
vt 0.897150 0.603750
vt 0.889860 0.596570
vt 0.898550 0.594100
vt 0.884300 0.592790
vt 0.893060 0.585260
vt 0.875470 0.586040
vt 0.887790 0.576670
vt 0.910030 0.588830
vt 0.905500 0.580720
vt 0.900760 0.572080
vt 0.871860 0.569850
vt 0.884060 0.565950
vt 0.896380 0.561980
vt 0.912630 0.568880
vt 0.919940 0.576810
vt 0.907360 0.558870
vt 0.902580 0.547450
vt 0.892180 0.550450
vt 0.881010 0.554110
vt 0.889150 0.539410
vt 0.899750 0.536790
vt 0.878300 0.542160
vt 0.888380 0.529610
vt 0.900130 0.528070
vt 0.876650 0.530580
vt 0.889100 0.521340
vt 0.903920 0.519590
vt 0.876860 0.521600
vt 0.860970 0.525760
vt 0.866510 0.517920
vt 0.865250 0.542600
vt 0.869090 0.514630
vt 0.876360 0.515000
vt 0.888770 0.513680
vt 0.862790 0.511060
vt 0.867420 0.511800
vt 0.852990 0.509790
vt 0.873680 0.509610
vt 0.869020 0.505090
vt 0.886360 0.506230
vt 0.881700 0.499510
vt 0.863050 0.500360
vt 0.876090 0.493230
vt 0.857740 0.494570
vt 0.870140 0.487830
vt 0.842830 0.499970
vt 0.865270 0.675120
vt 0.867230 0.661190
vt 0.874960 0.664700
vt 0.875120 0.675720
vt 0.844840 0.492680
vt 0.854770 0.488570
vt 0.852430 0.484110
vt 0.845700 0.487800
vt 0.881600 0.668040
vt 0.881800 0.676260
vt 0.859320 0.480040
vt 0.865950 0.482460
vt 0.868110 0.476070
vt 0.863710 0.475960
vt 0.878090 0.479150
vt 0.876170 0.474110
vt 0.882990 0.482780
vt 0.891600 0.486860
vt 0.886950 0.473900
vt 0.892080 0.476500
vt 0.899540 0.478270
vt 0.904330 0.482810
vt 0.906230 0.489390
vt 0.895700 0.494300
vt 0.911950 0.493900
vt 0.902330 0.501280
vt 0.914960 0.500130
vt 0.914070 0.507940
vt 0.902550 0.510910
vt 0.916630 0.515090
vt 0.916120 0.522290
vt 0.912220 0.528630
vt 0.924070 0.523030
vt 0.921060 0.525680
vt 0.923140 0.520960
vt 0.924270 0.518280
vt 0.918800 0.530050
vt 0.928270 0.531760
vt 0.929070 0.527830
vt 0.929790 0.524360
vt 0.934820 0.531940
vt 0.934670 0.527950
vt 0.934290 0.524240
vt 0.935060 0.535970
vt 0.928010 0.536280
vt 0.917650 0.536030
vt 0.918280 0.544170
vt 0.928830 0.541930
vt 0.935980 0.540680
vt 0.911240 0.536170
vt 0.912490 0.546030
vt 0.915930 0.556250
vt 0.921390 0.553200
vt 0.930650 0.548320
vt 0.926260 0.560590
vt 0.933430 0.554250
vt 0.921060 0.564980
vt 0.937050 0.545460
vt 0.938690 0.550430
vt 0.936090 0.558220
vt 0.930820 0.564290
vt 0.940340 0.554560
vt 0.942840 0.552890
vt 0.941550 0.548810
vt 0.940180 0.544230
vt 0.943720 0.543170
vt 0.945110 0.547350
vt 0.946220 0.551080
vt 0.944240 0.556980
vt 0.947470 0.554840
vt 0.941890 0.558360
vt 0.940640 0.527380
vt 0.937090 0.527730
vt 0.936930 0.523770
vt 0.940660 0.523310
vt 0.938370 0.561150
vt 0.941120 0.531320
vt 0.937420 0.531700
vt 0.941940 0.535290
vt 0.937950 0.535720
vt 0.938950 0.540060
vt 0.942650 0.539240
vt 0.949990 0.537470
vt 0.949560 0.534110
vt 0.948950 0.530500
vt 0.953470 0.536660
vt 0.952860 0.533530
vt 0.952350 0.530130
vt 0.956060 0.536060
vt 0.955260 0.532930
vt 0.954640 0.529670
vt 0.951940 0.526660
vt 0.954480 0.526370
vt 0.948320 0.526860
vt 0.951400 0.522690
vt 0.954790 0.522490
vt 0.947570 0.522860
vt 0.952590 0.547990
vt 0.953690 0.551300
vt 0.956200 0.546650
vt 0.957370 0.550010
vt 0.951520 0.544650
vt 0.955080 0.543250
vt 0.959110 0.545610
vt 0.957680 0.542370
vt 0.960540 0.548970
vt 0.954080 0.539610
vt 0.956640 0.538950
vt 0.950410 0.540890
vt 0.960610 0.537900
vt 0.960510 0.534960
vt 0.960880 0.541210
vt 0.963860 0.536280
vt 0.964010 0.536940
vt 0.961380 0.538180
vt 0.963740 0.534230
vt 0.961810 0.540930
vt 0.964970 0.539490
vt 0.966060 0.536560
vt 0.967260 0.538050
vt 0.966240 0.535890
vt 0.967930 0.537580
vt 0.966850 0.533780
vt 0.969740 0.536460
vt 0.968490 0.530630
vt 0.965880 0.532220
vt 0.966350 0.530320
vt 0.963380 0.532030
vt 0.959980 0.532150
vt 0.959620 0.529250
vt 0.963480 0.529520
vt 0.963550 0.526950
vt 0.966270 0.528350
vt 0.959600 0.526200
vt 0.967740 0.527320
vt 0.964510 0.524340
vt 0.968810 0.540190
vt 0.970520 0.539950
vt 0.967160 0.542530
vt 0.968700 0.543910
vt 0.963180 0.544060
vt 0.965050 0.546600
vt 0.960020 0.522950
vt 0.963590 0.543390
vt 0.966670 0.542010
vt 0.968250 0.540100
vt 0.934300 0.565830
vt 0.934110 0.567380
vt 0.928500 0.569660
vt 0.936040 0.568540
vt 0.931470 0.575370
vt 0.922570 0.586660
vt 0.932270 0.585190
vt 0.939630 0.594590
vt 0.927930 0.596200
vt 0.913400 0.596410
vt 0.905410 0.597900
vt 0.925820 0.606430
vt 0.913820 0.604340
vt 0.904810 0.603730
vt 0.904750 0.609730
vt 0.911990 0.612380
vt 0.924670 0.616930
vt 0.924280 0.629280
vt 0.933270 0.624670
vt 0.935930 0.619090
vt 0.935790 0.608990
vt 0.940900 0.599250
vt 0.945760 0.603520
vt 0.941970 0.610640
vt 0.941390 0.618130
vt 0.953810 0.608180
vt 0.951110 0.613700
vt 0.949920 0.618980
vt 0.943520 0.624970
vt 0.941440 0.625930
vt 0.949840 0.624210
vt 0.956580 0.621010
vt 0.955350 0.625510
vt 0.958050 0.616390
vt 0.921890 0.470760
vt 0.917910 0.475380
vt 0.915580 0.471690
vt 0.918780 0.467750
vt 0.911080 0.480970
vt 0.910970 0.475230
vt 0.924750 0.473210
vt 0.920230 0.478320
vt 0.912450 0.485570
vt 0.908540 0.475680
vt 0.923120 0.480340
vt 0.916200 0.487890
vt 0.922440 0.489240
vt 0.920310 0.493400
vt 0.927120 0.482350
vt 0.930720 0.478200
vt 0.927470 0.475590
vt 0.933190 0.475860
vt 0.929630 0.473170
vt 0.926770 0.470670
vt 0.960180 0.611250
vt 0.957250 0.603670
vt 0.962560 0.606510
vt 0.963430 0.612840
vt 0.965460 0.608170
vt 0.966720 0.614620
vt 0.968630 0.610500
vt 0.935700 0.472770
vt 0.932270 0.470200
vt 0.961560 0.617770
vt 0.965190 0.619150
vt 0.960150 0.622340
vt 0.963940 0.623680
vt 0.969210 0.625840
vt 0.970370 0.621420
vt 0.971890 0.617450
vt 0.972330 0.626930
vt 0.973760 0.622750
vt 0.975110 0.618840
vt 0.975770 0.627990
vt 0.977310 0.624030
vt 0.978540 0.620240
vt 0.976830 0.615280
vt 0.979500 0.616510
vt 0.974050 0.614040
vt 0.944710 0.463240
vt 0.942330 0.465710
vt 0.939320 0.462400
vt 0.941390 0.460460
vt 0.939830 0.467830
vt 0.937040 0.464750
vt 0.929460 0.467760
vt 0.934540 0.462340
vt 0.936730 0.459840
vt 0.926940 0.465190
vt 0.932000 0.460170
vt 0.934160 0.457640
vt 0.938710 0.457920
vt 0.936220 0.455500
vt 0.931410 0.455490
vt 0.933790 0.452750
vt 0.929310 0.457970
vt 0.974180 0.631530
vt 0.971210 0.630720
vt 0.968410 0.629700
vt 0.962750 0.627960
vt 0.924480 0.461870
vt 0.958740 0.626850
vt 0.924010 0.468130
vt 0.920990 0.464660
vt 0.940350 0.451390
vt 0.938680 0.447730
vt 0.981840 0.630120
vt 0.979840 0.632960
vt 0.985270 0.631890
vt 0.984270 0.633860
vt 0.942740 0.444810
vt 0.944190 0.447990
vt 0.982930 0.629850
vt 0.985430 0.631120
vt 0.982290 0.625750
vt 0.983380 0.626230
vt 0.986310 0.627560
vt 0.987710 0.624460
vt 0.985160 0.623520
vt 0.984580 0.622560
vt 0.988170 0.623770
vt 0.989450 0.620960
vt 0.985210 0.618840
vt 0.945700 0.456550
vt 0.948840 0.452940
vt 0.952660 0.454410
vt 0.949540 0.458180
vt 0.942760 0.454030
vt 0.946320 0.450560
vt 0.947120 0.446160
vt 0.949080 0.447840
vt 0.950650 0.450090
vt 0.951480 0.445420
vt 0.953580 0.449570
vt 0.947610 0.443650
vt 0.990080 0.629020
vt 0.990350 0.626000
vt 0.992470 0.624910
vt 0.992230 0.629800
vt 0.989150 0.628620
vt 0.989650 0.626350
vt 0.988490 0.631370
vt 0.988110 0.630730
vt 0.989130 0.633040
vt 0.951120 0.599350
vt 0.949640 0.597440
vt 0.921420 0.495500
vt 0.948290 0.596780
vt 0.924570 0.495150
vt 0.921500 0.501320
vt 0.942570 0.591290
vt 0.947900 0.595080
vt 0.937980 0.583940
vt 0.951800 0.591910
vt 0.948780 0.587400
vt 0.946200 0.582010
vt 0.937260 0.576220
vt 0.945360 0.576430
vt 0.955320 0.584940
vt 0.953520 0.580140
vt 0.952240 0.575610
vt 0.945530 0.571300
vt 0.951470 0.571380
vt 0.938490 0.569390
vt 0.933980 0.511290
vt 0.931840 0.507010
vt 0.939120 0.505480
vt 0.939860 0.509700
vt 0.926770 0.515990
vt 0.922390 0.511110
vt 0.920600 0.506320
vt 0.930800 0.503500
vt 0.930890 0.499730
vt 0.931290 0.494370
vt 0.938470 0.502040
vt 0.937990 0.498110
vt 0.937320 0.493190
vt 0.957150 0.589650
vt 0.960370 0.588430
vt 0.958740 0.583580
vt 0.941410 0.497470
vt 0.940880 0.492290
vt 0.945520 0.496990
vt 0.945400 0.492070
vt 0.964280 0.586960
vt 0.962600 0.582330
vt 0.945850 0.501090
vt 0.941910 0.501620
vt 0.946420 0.504910
vt 0.942520 0.505290
vt 0.943230 0.509590
vt 0.947490 0.509030
vt 0.959560 0.573400
vt 0.955680 0.574540
vt 0.954480 0.570400
vt 0.958300 0.569470
vt 0.957150 0.578940
vt 0.961140 0.577880
vt 0.968650 0.580300
vt 0.967220 0.576030
vt 0.965810 0.571580
vt 0.971850 0.579090
vt 0.970400 0.574900
vt 0.969070 0.570620
vt 0.974980 0.578020
vt 0.973570 0.574060
vt 0.972390 0.570010
vt 0.968150 0.567450
vt 0.971480 0.566850
vt 0.964840 0.568150
vt 0.957550 0.503560
vt 0.960850 0.503390
vt 0.961660 0.506750
vt 0.958000 0.506930
vt 0.954010 0.503740
vt 0.954500 0.507350
vt 0.953620 0.500050
vt 0.957150 0.499960
vt 0.953280 0.496360
vt 0.956920 0.496180
vt 0.960360 0.499760
vt 0.960130 0.495840
vt 0.956540 0.491970
vt 0.960000 0.491650
vt 0.952770 0.492040
vt 0.976580 0.581840
vt 0.973660 0.582900
vt 0.970440 0.584240
vt 0.966820 0.495050
vt 0.966720 0.491140
vt 0.981900 0.579630
vt 0.980960 0.576180
vt 0.972110 0.491650
vt 0.971690 0.494970
vt 0.985110 0.575540
vt 0.986460 0.577390
vt 0.971830 0.498240
vt 0.967060 0.498770
vt 0.972500 0.501400
vt 0.967570 0.502340
vt 0.973970 0.504240
vt 0.968910 0.505520
vt 0.977830 0.565940
vt 0.982690 0.565370
vt 0.982580 0.567170
vt 0.978630 0.568950
vt 0.982570 0.568130
vt 0.979560 0.569370
vt 0.978690 0.572860
vt 0.979790 0.572540
vt 0.983270 0.571560
vt 0.985600 0.568620
vt 0.986450 0.570770
vt 0.986040 0.567950
vt 0.987440 0.570470
vt 0.986860 0.566640
vt 0.989160 0.569900
vt 0.975180 0.500380
vt 0.977170 0.501520
vt 0.974970 0.497970
vt 0.977680 0.497800
vt 0.987510 0.573470
vt 0.989070 0.573960
vt 0.974440 0.495500
vt 0.975980 0.493920
vt 0.986840 0.573210
vt 0.984520 0.574770
vt 0.981470 0.575220
vt 0.906490 0.474950
vt 0.940780 0.627200
vt 0.936430 0.630250
vt 0.941850 0.628950
vt 0.900960 0.471710
vt 0.906410 0.471560
vt 0.942790 0.637450
vt 0.946560 0.634550
vt 0.909320 0.464780
vt 0.904860 0.463220
vt 0.896150 0.471000
vt 0.900950 0.461920
vt 0.891900 0.469060
vt 0.897170 0.459990
vt 0.887600 0.466260
vt 0.892640 0.457180
vt 0.883380 0.470000
vt 0.918010 0.641490
vt 0.910470 0.643500
vt 0.919310 0.635790
vt 0.925390 0.637460
vt 0.923190 0.642350
vt 0.930000 0.632750
vt 0.934180 0.643680
vt 0.938320 0.640180
vt 0.938420 0.647670
vt 0.942450 0.644710
vt 0.946210 0.641420
vt 0.941540 0.650950
vt 0.945440 0.648120
vt 0.949030 0.644530
vt 0.949380 0.637770
vt 0.951970 0.640860
vt 0.912040 0.458100
vt 0.910750 0.461300
vt 0.906530 0.459580
vt 0.908100 0.456530
vt 0.902910 0.457750
vt 0.904690 0.454530
vt 0.899270 0.455600
vt 0.901370 0.452300
vt 0.895090 0.452520
vt 0.897950 0.449310
vt 0.937700 0.653810
vt 0.934800 0.650910
vt 0.931230 0.647840
vt 0.905590 0.446690
vt 0.902360 0.444490
vt 0.945830 0.655210
vt 0.942830 0.658400
vt 0.949200 0.651960
vt 0.950150 0.659750
vt 0.953080 0.656150
vt 0.947340 0.663210
vt 0.952750 0.662330
vt 0.949540 0.665520
vt 0.955740 0.658950
vt 0.956410 0.653430
vt 0.958830 0.656100
vt 0.952680 0.649030
vt 0.955800 0.646420
vt 0.959310 0.651170
vt 0.961370 0.653630
vt 0.961080 0.658770
vt 0.958250 0.661510
vt 0.963220 0.656110
vt 0.921790 0.443170
vt 0.920140 0.445970
vt 0.917010 0.443960
vt 0.918580 0.441870
vt 0.918180 0.448660
vt 0.915210 0.446140
vt 0.914000 0.441810
vt 0.915410 0.439840
vt 0.912440 0.443700
vt 0.911530 0.450970
vt 0.908590 0.448780
vt 0.914760 0.453120
vt 0.909320 0.441460
vt 0.910770 0.439330
vt 0.905760 0.439210
vt 0.907420 0.436420
vt 0.912110 0.437200
vt 0.909310 0.433930
vt 0.955310 0.664640
vt 0.951810 0.667500
vt 0.915060 0.432890
vt 0.912570 0.429800
vt 0.958730 0.667690
vt 0.956110 0.670400
vt 0.961540 0.670770
vt 0.960330 0.672810
vt 0.916450 0.426890
vt 0.917970 0.429780
vt 0.959550 0.667630
vt 0.961860 0.669890
vt 0.960870 0.664190
vt 0.961410 0.664860
vt 0.963820 0.667520
vt 0.966830 0.665670
vt 0.964220 0.663250
vt 0.964110 0.662350
vt 0.967570 0.665380
vt 0.969300 0.664250
vt 0.966390 0.660230
vt 0.921340 0.437400
vt 0.923490 0.433520
vt 0.926290 0.434220
vt 0.924340 0.438660
vt 0.918180 0.435460
vt 0.920510 0.431990
vt 0.920180 0.428340
vt 0.922320 0.429650
vt 0.924280 0.431120
vt 0.926050 0.430350
vt 0.923870 0.427590
vt 0.920460 0.426240
vt 0.968080 0.668210
vt 0.969890 0.668200
vt 0.968060 0.671540
vt 0.966540 0.670020
vt 0.965870 0.669390
vt 0.967300 0.668100
vt 0.964470 0.671470
vt 0.964330 0.670630
vt 0.964510 0.673390
vt 0.903440 0.647900
vt 0.900820 0.652050
vt 0.856450 0.478520
vt 0.861270 0.475650
vt 0.895560 0.653380
vt 0.901400 0.654210
vt 0.897550 0.657310
vt 0.902410 0.656470
vt 0.853850 0.476620
vt 0.858780 0.474390
vt 0.890430 0.657110
vt 0.893550 0.660460
vt 0.905450 0.659500
vt 0.901860 0.661950
vt 0.899030 0.665130
vt 0.890870 0.665410
vt 0.887130 0.662940
vt 0.896970 0.669240
vt 0.904200 0.668750
vt 0.902120 0.672760
vt 0.906380 0.665180
vt 0.906650 0.670510
vt 0.904110 0.674530
vt 0.908740 0.666750
vt 0.901180 0.679000
vt 0.899330 0.677560
vt 0.894840 0.674330
vt 0.898930 0.682580
vt 0.896840 0.680960
vt 0.893040 0.678550
vt 0.889190 0.671430
vt 0.888290 0.677230
vt 0.841470 0.478770
vt 0.845470 0.475720
vt 0.848760 0.479590
vt 0.844100 0.483000
vt 0.842470 0.472060
vt 0.838140 0.474830
vt 0.850340 0.473100
vt 0.847380 0.469570
vt 0.840820 0.469990
vt 0.845820 0.467540
vt 0.836180 0.472550
vt 0.850480 0.465000
vt 0.852050 0.467360
vt 0.855000 0.471180
vt 0.909360 0.661710
vt 0.911660 0.662980
vt 0.913680 0.664500
vt 0.910930 0.668310
vt 0.848730 0.462790
vt 0.844230 0.465580
vt 0.916920 0.667870
vt 0.914480 0.671620
vt 0.845630 0.458530
vt 0.841180 0.461460
vt 0.913170 0.676210
vt 0.908990 0.672280
vt 0.909820 0.679360
vt 0.905990 0.676400
vt 0.908050 0.683370
vt 0.903180 0.680540
vt 0.905700 0.685840
vt 0.901310 0.683950
vt 0.832090 0.465010
vt 0.836290 0.463670
vt 0.839220 0.467870
vt 0.834640 0.469880
vt 0.838290 0.457390
vt 0.834080 0.459850
vt 0.830150 0.460980
vt 0.835070 0.454010
vt 0.832090 0.455990
vt 0.828910 0.456700
vt 0.913450 0.688420
vt 0.909240 0.687670
vt 0.910320 0.685740
vt 0.913190 0.686820
vt 0.910700 0.685000
vt 0.913360 0.686080
vt 0.909050 0.683350
vt 0.912710 0.681480
vt 0.914980 0.682920
vt 0.910690 0.680010
vt 0.913330 0.677450
vt 0.915180 0.678360
vt 0.915720 0.677640
vt 0.916800 0.680400
vt 0.917600 0.679790
vt 0.917310 0.674990
vt 0.919610 0.679010
vt 0.919890 0.672100
vt 0.922230 0.677600
vt 0.837310 0.451150
vt 0.842250 0.454270
vt 0.832780 0.452170
vt 0.834110 0.450420
vt 0.922330 0.680890
vt 0.920410 0.682300
vt 0.830730 0.450680
vt 0.832620 0.448750
vt 0.919060 0.685310
vt 0.917390 0.684100
vt 0.918530 0.681840
vt 0.916720 0.683810
vt 0.917840 0.681870
vt 0.915060 0.686100
vt 0.915310 0.686570
vt 0.916570 0.687550
vt 0.831300 0.453830
vt 0.829330 0.453540
vt 0.850790 0.481840
vt 0.845250 0.485460
vt 0.885450 0.669770
vt 0.885070 0.676790
vt 0.883290 0.660550
vt 0.868770 0.556440
s 1
usemtl Bodymat
f 3/1/1 23/2/2 2/3/3 1/4/4
f 4/5/5 5/6/6 3/1/1 1/4/4
f 6/7/7 7/8/8 5/6/6 4/5/5
f 9/9/9 7/8/8 6/7/7 8/10/10
f 10/11/11 11/12/12 9/9/9 8/10/10
f 13/13/13 11/12/12 10/11/11 12/14/14
f 14/15/15 81/16/16 13/13/13 12/14/14
f 16/17/17 81/16/16 14/15/15 15/18/18
f 18/19/19 16/20/17 15/21/18 17/22/20
f 19/23/21 20/24/22 18/19/19 17/22/20
f 21/25/23 22/26/24 20/24/22 19/23/21
f 23/2/2 22/26/24 21/25/23 2/3/3
f 24/27/25 22/26/24 23/2/2 27/28/26
f 20/24/22 22/26/24 24/27/25 25/29/27
f 25/29/27 24/27/25 26/30/28 630/31/29
f 24/27/25 28/32/30 30/33/31 26/30/28
f 28/32/30 24/27/25 27/28/26 29/34/32
f 30/33/31 28/32/30 29/34/32 32/35/33
f 629/36/34 26/30/28 30/33/31 31/37/35
f 30/33/31 32/35/33 33/38/36 31/37/35
f 32/35/33 34/39/37 36/40/38 33/38/36
f 29/34/32 37/41/39 34/39/37 32/35/33
f 34/39/37 37/41/39 38/42/40 35/43/41
f 34/39/37 35/43/41 227/44/42 36/40/38
f 41/45/43 38/42/40 37/41/39 39/46/44
f 29/34/32 27/28/26 39/46/44 37/41/39
f 40/47/45 42/48/46 41/45/43 39/46/44
f 40/47/45 39/46/44 27/28/26 634/49/47
f 42/48/46 43/50/48 38/42/40 41/45/43
f 43/50/48 42/48/46 44/51/49 45/52/50
f 42/48/46 40/47/45 46/53/51 44/51/49
f 44/51/49 46/53/51 48/54/52 45/52/50
f 48/54/52 46/53/51 47/55/53 50/56/54
f 634/49/47 47/55/53 46/53/51 40/47/45
f 219/57/55 45/52/50 48/54/52 49/58/56
f 49/58/56 48/54/52 50/56/54 52/59/57
f 50/56/54 47/55/53 633/60/58 51/61/59
f 51/61/59 54/62/60 52/59/57 50/56/54
f 52/59/57 53/63/61 215/64/62 49/58/56
f 54/62/60 55/65/63 53/63/61 52/59/57
f 57/66/64 55/65/63 54/62/60 56/67/65
f 54/62/60 51/61/59 58/68/66 56/67/65
f 57/66/64 56/67/65 59/69/67 60/70/68
f 59/69/67 56/67/65 58/68/66 61/71/69
f 62/72/70 63/73/71 60/70/68 59/69/67
f 59/69/67 61/71/69 65/74/72 62/72/70
f 63/73/71 62/72/70 64/75/73 106/76/74
f 67/77/75 64/75/73 62/72/70 65/74/72
f 65/74/72 66/78/76 69/79/77 67/77/75
f 631/80/78 66/78/76 65/74/72 61/71/69
f 71/81/79 68/82/80 67/77/75 69/79/77
f 67/77/75 68/82/80 107/83/81 64/75/73
f 71/81/79 69/79/77 70/84/82 72/85/83
f 80/86/84 70/84/82 69/79/77 66/78/76
f 68/82/80 71/81/79 72/85/83 73/87/85
f 73/87/85 72/85/83 70/84/82 75/88/86
f 107/83/81 68/82/80 73/87/85 74/89/87
f 74/89/87 73/87/85 75/88/86 76/90/88
f 76/90/88 75/88/86 77/91/89 78/92/90
f 75/88/86 70/84/82 80/86/84 77/91/89
f 77/91/89 79/93/91 93/94/92 78/92/90
f 82/95/93 79/93/91 77/91/89 80/86/84
f 80/86/84 66/78/76 13/13/13 81/16/16
f 80/86/84 81/16/16 16/17/17 82/95/93
f 82/96/93 83/97/94 86/98/95 84/99/96
f 83/97/94 82/96/93 16/20/17 18/19/19
f 79/93/91 82/95/93 84/100/96 87/101/97
f 88/102/98 87/101/97 84/100/96 85/103/99
f 86/98/95 627/104/100 85/105/99 84/99/96
f 87/101/97 88/102/98 90/106/101 89/107/102
f 93/94/92 79/93/91 87/101/97 89/107/102
f 91/108/103 89/107/102 90/106/101 535/109/104
f 92/110/105 89/107/102 91/108/103 445/111/106
f 94/112/107 93/94/92 89/107/102 92/110/105
f 93/94/92 94/112/107 96/113/108 78/92/90
f 92/110/105 443/114/109 95/115/110 94/112/107
f 94/112/107 95/115/110 97/116/111 96/113/108
f 98/117/112 96/113/108 97/116/111
f 96/113/108 98/117/112 100/118/113 99/119/114
f 78/92/90 96/113/108 99/119/114 76/90/88
f 102/120/115 101/121/116 99/119/114 100/118/113
f 99/119/114 101/121/116 74/89/87 76/90/88
f 103/122/117 101/121/116 102/120/115
f 101/121/116 103/122/117 105/123/118 104/124/119
f 107/83/81 74/89/87 101/121/116 104/124/119
f 104/124/119 105/123/118 108/125/120 106/76/74
f 107/83/81 104/124/119 106/76/74 64/75/73
f 106/76/74 108/125/120 109/126/121
f 106/76/74 109/126/121 111/127/122 63/73/71
f 114/128/123 112/129/124 109/126/121 110/130/125
f 110/130/125 109/126/121 108/125/120 347/131/126
f 112/129/124 113/132/127 111/127/122 109/126/121
f 118/133/128 113/132/127 112/129/124 115/134/129
f 115/134/129 112/129/124 114/128/123 117/135/130
f 119/136/131 118/133/128 115/134/129 116/137/132
f 116/137/132 115/134/129 117/135/130 144/138/133
f 122/139/134 120/140/135 118/133/128 119/136/131
f 123/141/136 113/132/127 118/133/128 120/140/135
f 125/142/137 123/141/136 120/140/135 121/143/138
f 210/144/139 121/143/138 120/140/135 122/139/134
f 113/132/127 123/141/136 124/145/140 111/127/122
f 123/141/136 125/142/137 126/146/141 124/145/140
f 129/147/142 126/146/141 125/142/137 127/148/143
f 130/149/144 127/148/143 125/142/137 121/143/138
f 128/150/145 127/148/143 130/149/144 132/151/146
f 127/148/143 128/150/145 214/152/147 129/147/142
f 132/151/146 130/149/144 131/153/148 134/154/149
f 131/153/148 130/149/144 121/143/138 210/144/139
f 133/155/150 211/156/151 128/150/145 132/151/146
f 135/157/152 133/155/150 132/151/146 134/154/149
f 139/158/153 135/157/152 134/154/149 136/159/154
f 131/153/148 137/160/155 136/159/154 134/154/149
f 136/159/154 137/160/155 174/161/156 138/162/157
f 140/163/158 139/158/153 136/159/154 138/162/157
f 141/164/159 139/158/153 140/163/158 142/165/160
f 135/157/152 139/158/153 141/164/159 144/166/133
f 145/167/161 143/168/162 141/169/159 142/170/160
f 143/168/162 116/137/132 144/138/133 141/169/159
f 117/171/130 133/155/150 135/157/152 144/166/133
f 147/172/163 146/173/164 143/168/162 145/167/161
f 146/173/164 119/136/131 116/137/132 143/168/162
f 150/174/165 148/175/166 146/173/164 147/172/163
f 148/175/166 122/139/134 119/136/131 146/173/164
f 149/176/167 210/144/139 122/139/134 148/175/166
f 151/177/168 149/176/167 148/175/166 150/174/165
f 153/178/169 151/177/168 150/174/165 152/179/170
f 152/179/170 150/174/165 147/172/163 154/180/171
f 156/181/172 153/178/169 152/179/170 155/182/173
f 155/182/173 152/179/170 154/180/171 158/183/174
f 175/184/175 156/181/172 155/182/173 157/185/176
f 157/185/176 155/182/173 158/183/174 159/186/177
f 159/186/177 158/183/174 160/187/178 161/188/179
f 158/183/174 154/180/171 163/189/180 160/187/178
f 161/188/179 160/187/178 162/190/181 209/191/182
f 160/187/178 163/189/180 164/192/183 162/190/181
f 154/180/171 147/172/163 145/167/161 163/189/180
f 163/189/180 145/167/161 142/170/160 164/192/183
f 142/165/160 140/163/158 165/193/184 164/194/183
f 165/193/184 167/195/185 162/196/181 164/194/183
f 165/193/184 140/163/158 138/162/157 166/197/186
f 167/195/185 165/193/184 166/197/186 169/198/187
f 168/199/188 167/195/185 169/198/187 170/200/189
f 167/195/185 168/199/188 209/201/182 162/196/181
f 169/198/187 171/202/190 172/203/191 170/200/189
f 173/204/192 171/202/190 169/198/187 166/197/186
f 172/203/191 171/202/190 156/181/172 175/184/175
f 171/202/190 173/204/192 153/178/169 156/181/172
f 138/162/157 174/161/156 173/204/192 166/197/186
f 173/204/192 174/161/156 151/177/168 153/178/169
f 174/161/156 137/160/155 149/176/167 151/177/168
f 176/205/193 172/203/191 175/184/175 178/206/194
f 172/203/191 176/205/193 179/207/195 170/200/189
f 177/208/196 182/209/197 180/210/198 176/205/193
f 191/211/199 177/208/196 176/205/193 178/206/194
f 176/205/193 180/210/198 181/212/200 179/207/195
f 182/209/197 183/213/201 181/212/200 180/210/198
f 184/214/202 185/215/203 183/213/201 182/209/197
f 186/216/204 184/214/202 182/209/197 177/208/196
f 187/217/205 185/215/203 184/214/202 186/216/204
f 187/217/205 186/216/204 188/218/206 189/219/207
f 188/218/206 186/216/204 177/208/196 191/211/199
f 189/220/207 188/218/206 190/221/208 197/222/209
f 192/223/210 190/221/208 188/218/206 191/211/199
f 193/224/211 192/223/210 191/211/199 178/206/194
f 192/223/210 193/224/211 196/225/212 194/226/213
f 197/222/209 190/221/208 192/223/210 194/226/213
f 195/227/214 198/228/215 197/222/209 194/226/213
f 208/229/216 195/227/214 194/226/213 196/225/212
f 199/230/217 189/220/207 197/222/209 198/228/215
f 201/231/218 199/230/217 198/228/215 195/227/214
f 200/232/219 187/217/205 189/219/207 199/233/217
f 203/234/220 200/232/219 199/233/217 201/235/218
f 204/236/221 203/234/220 201/235/218 202/237/222
f 202/238/222 201/231/218 195/227/214 208/229/216
f 204/236/221 206/239/223 205/240/224 203/234/220
f 203/234/220 205/240/224 207/241/225 200/232/219
f 185/215/203 207/241/225 205/240/224 183/213/201
f 183/213/201 205/240/224 206/239/223 181/212/200
f 200/232/219 207/241/225 185/215/203 187/217/205
f 179/207/195 181/212/200 206/239/223 204/236/221
f 168/199/188 204/236/221 202/237/222 209/201/182
f 204/236/221 168/199/188 170/200/189 179/207/195
f 208/229/216 161/188/179 209/191/182 202/238/222
f 196/225/212 159/186/177 161/188/179 208/229/216
f 193/224/211 157/185/176 159/186/177 196/225/212
f 178/206/194 175/184/175 157/185/176 193/224/211
f 137/160/155 131/153/148 210/144/139 149/176/167
f 117/171/130 114/242/123 211/156/151 133/155/150
f 211/156/151 114/242/123 110/243/125 212/244/226
f 128/150/145 211/156/151 212/244/226 214/152/147
f 212/244/226 110/243/125 347/245/126 213/246/227
f 213/246/227 215/64/62 212/244/226
f 212/244/226 215/64/62 53/63/61 214/152/147
f 49/58/56 215/64/62 216/247/228 219/57/55
f 217/248/229 216/247/228 215/64/62 213/246/227
f 333/249/230 218/250/231 216/247/228 217/248/229
f 219/57/55 216/247/228 218/250/231 220/251/232
f 220/251/232 222/252/233 45/52/50 219/57/55
f 220/251/232 218/250/231 230/253/234 221/254/235
f 221/254/235 223/255/236 222/252/233 220/251/232
f 223/255/236 43/50/48 45/52/50 222/252/233
f 43/50/48 223/255/236 224/256/237 38/42/40
f 223/255/236 221/254/235 225/257/238 224/256/237
f 224/256/237 225/257/238 35/43/41 38/42/40
f 221/254/235 230/253/234 226/258/239 225/257/238
f 35/43/41 225/257/238 226/258/239 227/44/42
f 448/259/240 227/44/42 226/258/239 228/260/241
f 228/260/241 226/258/239 229/261/242
f 229/261/242 226/258/239 230/253/234 231/262/243
f 231/262/243 230/253/234 218/250/231 232/263/244
f 231/262/243 232/263/244 234/264/245 233/265/246
f 229/261/242 231/262/243 233/265/246 236/266/247
f 233/265/246 234/264/245 329/267/248 235/268/249
f 238/269/250 236/266/247 233/265/246 235/268/249
f 229/261/242 236/266/247 237/270/251 431/271/252
f 237/270/251 236/266/247 238/269/250 240/272/253
f 240/272/253 238/269/250 239/273/254 241/274/255
f 239/273/254 238/269/250 235/268/249 263/275/256
f 243/276/257 242/277/258 240/278/253 241/279/255
f 242/277/258 245/280/259 237/281/251 240/278/253
f 253/282/260 244/283/261 242/277/258 243/276/257
f 244/283/261 246/284/262 245/280/259 242/277/258
f 245/280/259 98/117/112 431/285/252 237/281/251
f 100/118/113 98/117/112 245/280/259 246/284/262
f 249/286/263 247/287/264 246/284/262 244/283/261
f 102/120/115 100/118/113 246/284/262 247/287/264
f 247/287/264 248/288/265 330/289/266 102/120/115
f 250/290/267 248/288/265 247/287/264 249/286/263
f 254/291/268 250/290/267 249/286/263 251/292/269
f 251/292/269 249/286/263 244/283/261 253/282/260
f 256/293/270 254/291/268 251/292/269 252/294/271
f 252/294/271 251/292/269 253/282/260 293/295/272
f 255/296/273 329/267/248 250/297/267 254/298/268
f 258/299/274 255/296/273 254/298/268 256/300/270
f 259/301/275 258/299/274 256/300/270 257/302/276
f 257/303/276 256/293/270 252/294/271 278/304/277
f 260/305/278 258/299/274 259/301/275 262/306/279
f 255/296/273 258/299/274 260/305/278 263/275/256
f 261/307/280 239/273/254 263/275/256 260/305/278
f 264/308/281 261/307/280 260/305/278 262/306/279
f 235/268/249 329/267/248 255/296/273 263/275/256
f 266/309/282 264/308/281 262/306/279 265/310/283
f 259/301/275 267/311/284 265/310/283 262/306/279
f 269/312/285 266/309/282 265/310/283 268/313/286
f 267/311/284 271/314/287 268/313/286 265/310/283
f 294/315/288 269/312/285 268/313/286 270/316/289
f 268/313/286 271/314/287 272/317/290 270/316/289
f 272/317/290 271/314/287 273/318/291 274/319/292
f 271/314/287 267/311/284 276/320/293 273/318/291
f 274/321/292 273/322/291 275/323/294 314/324/295
f 273/322/291 276/325/293 277/326/296 275/323/294
f 276/325/293 257/303/276 278/304/277 277/326/296
f 267/311/284 259/301/275 257/302/276 276/320/293
f 277/326/296 278/304/277 280/327/297 279/328/298
f 275/323/294 277/326/296 279/328/298 282/329/299
f 279/328/298 280/327/297 291/330/300 281/331/301
f 282/329/299 279/328/298 281/331/301 284/332/302
f 314/324/295 275/323/294 282/329/299 283/333/303
f 283/333/303 282/329/299 284/332/302 285/334/304
f 285/334/304 284/332/302 286/335/305 287/336/306
f 284/332/302 281/331/301 288/337/307 286/335/305
f 269/312/285 294/315/288 287/338/306 286/339/305
f 266/309/282 269/312/285 286/339/305 288/340/307
f 264/308/281 266/309/282 288/340/307 289/341/308
f 281/331/301 291/330/300 289/342/308 288/337/307
f 290/343/309 261/307/280 264/308/281 289/341/308
f 291/330/300 292/344/310 290/345/309 289/342/308
f 280/327/297 293/295/272 292/344/310 291/330/300
f 293/295/272 253/282/260 243/276/257 292/344/310
f 292/344/310 243/276/257 241/279/255 290/345/309
f 278/304/277 252/294/271 293/295/272 280/327/297
f 239/273/254 261/307/280 290/343/309 241/274/255
f 297/346/311 285/334/304 287/336/306 295/347/312
f 294/315/288 298/348/313 295/349/312 287/338/306
f 298/348/313 299/350/314 296/351/315 295/349/312
f 295/347/312 296/352/315 316/353/316 297/346/311
f 298/348/313 301/354/317 302/355/318 299/350/314
f 298/348/313 294/315/288 270/316/289 300/356/319
f 300/356/319 303/357/320 301/354/317 298/348/313
f 304/358/321 302/355/318 301/354/317 303/357/320
f 306/359/322 304/358/321 303/357/320 305/360/323
f 307/361/324 305/360/323 303/357/320 300/356/319
f 308/362/325 306/359/322 305/360/323 307/361/324
f 310/363/326 308/362/325 307/361/324 309/364/327
f 307/361/324 272/317/290 274/319/292 309/364/327
f 272/317/290 307/361/324 300/356/319 270/316/289
f 311/365/328 312/366/329 310/367/326 309/368/327
f 309/368/327 274/321/292 314/324/295 311/365/328
f 312/366/329 311/365/328 313/369/330 315/370/331
f 311/365/328 314/324/295 283/333/303 313/369/330
f 297/346/311 316/353/316 315/370/331 313/369/330
f 313/369/330 283/333/303 285/334/304 297/346/311
f 316/353/316 319/371/332 317/372/333 315/370/331
f 317/372/333 320/373/334 312/366/329 315/370/331
f 318/374/335 321/375/336 320/373/334 317/372/333
f 328/376/337 318/374/335 317/372/333 319/371/332
f 312/366/329 320/373/334 321/375/336 310/367/326
f 323/377/338 322/378/339 321/379/336 318/380/335
f 321/379/336 322/378/339 308/362/325 310/363/326
f 323/377/338 325/381/340 324/382/341 322/378/339
f 322/378/339 324/382/341 306/359/322 308/362/325
f 324/382/341 325/381/340 304/358/321 306/359/322
f 327/383/342 326/384/343 325/381/340 323/377/338
f 325/381/340 326/384/343 302/355/318 304/358/321
f 299/350/314 302/355/318 326/384/343 327/383/342
f 327/383/342 323/377/338 318/380/335 328/385/337
f 299/350/314 327/383/342 328/385/337 296/351/315
f 296/352/315 328/376/337 319/371/332 316/353/316
f 329/267/248 234/264/245 248/386/265 250/297/267
f 232/263/244 330/387/266 248/386/265 234/264/245
f 331/388/344 103/122/117 102/120/115 330/289/266
f 330/387/266 232/263/244 333/249/230 331/389/344
f 332/390/345 350/391/346 103/122/117 331/388/344
f 331/389/344 333/249/230 334/392/347 332/393/345
f 232/263/244 218/250/231 333/249/230
f 336/394/348 334/392/347 333/249/230 217/248/229
f 353/395/349 332/393/345 334/392/347 335/396/350
f 335/396/350 334/392/347 336/394/348 338/397/351
f 337/398/352 336/394/348 217/248/229 213/246/227
f 336/394/348 337/398/352 340/399/353 338/397/351
f 355/400/354 335/396/350 338/397/351 339/401/355
f 338/397/351 340/399/353 341/402/356 339/401/355
f 341/402/356 340/399/353 342/403/357 343/404/358
f 340/399/353 337/398/352 345/405/359 342/403/357
f 342/406/357 344/407/360 365/408/361 343/409/358
f 345/410/359 346/411/362 344/407/360 342/406/357
f 347/131/126 108/125/120 346/411/362 345/410/359
f 213/246/227 347/245/126 345/405/359 337/398/352
f 344/407/360 346/411/362 348/412/363 349/413/364
f 348/412/363 346/411/362 108/125/120 105/123/118
f 349/413/364 348/412/363 350/391/346 351/414/365
f 350/391/346 348/412/363 105/123/118 103/122/117
f 351/414/365 350/391/346 332/390/345 353/415/349
f 364/416/366 349/413/364 351/414/365 352/417/367
f 352/417/367 351/414/365 353/415/349 354/418/368
f 354/419/368 353/395/349 335/396/350 355/400/354
f 356/420/369 354/419/368 355/400/354 358/421/370
f 359/422/371 352/417/367 354/418/368 356/423/369
f 360/424/372 359/422/371 356/423/369 357/425/373
f 357/426/373 356/420/369 358/421/370 373/427/374
f 362/428/375 361/429/376 359/422/371 360/424/372
f 361/429/376 364/416/366 352/417/367 359/422/371
f 366/430/377 363/431/378 361/429/376 362/428/375
f 363/431/378 365/408/361 364/416/366 361/429/376
f 365/408/361 344/407/360 349/413/364 364/416/366
f 365/408/361 363/431/378 367/432/379 343/409/358
f 363/431/378 366/430/377 368/433/380 367/432/379
f 370/434/381 369/435/382 367/436/379 368/437/380
f 369/435/382 341/402/356 343/404/358 367/436/379
f 371/438/383 369/435/382 370/434/381 372/439/384
f 341/402/356 369/435/382 371/438/383 339/401/355
f 373/427/374 358/421/370 371/438/383 372/439/384
f 358/421/370 355/400/354 339/401/355 371/438/383
f 375/440/385 373/427/374 372/439/384 374/441/386
f 372/439/384 370/434/381 376/442/387 374/441/386
f 378/443/388 375/440/385 374/441/386 377/444/389
f 376/442/387 380/445/390 377/444/389 374/441/386
f 396/446/391 378/443/388 377/444/389 379/447/392
f 377/444/389 380/445/390 381/448/393 379/447/392
f 381/448/393 380/445/390 382/449/394 383/450/395
f 380/445/390 376/442/387 385/451/396 382/449/394
f 384/452/397 407/453/398 383/454/395 382/455/394
f 386/456/399 384/452/397 382/455/394 385/457/396
f 366/430/377 386/456/399 385/457/396 368/433/380
f 376/442/387 370/434/381 368/437/380 385/451/396
f 386/456/399 366/430/377 362/428/375 387/458/400
f 384/452/397 386/456/399 387/458/400 389/459/401
f 387/458/400 362/428/375 360/424/372 388/460/402
f 389/459/401 387/458/400 388/460/402 391/461/403
f 407/453/398 384/452/397 389/459/401 390/462/404
f 390/462/404 389/459/401 391/461/403 392/463/405
f 392/463/405 391/461/403 393/464/406 394/465/407
f 391/461/403 388/460/402 395/466/408 393/464/406
f 394/467/407 393/468/406 378/443/388 396/446/391
f 393/468/406 395/469/408 375/440/385 378/443/388
f 388/460/402 360/424/372 357/425/373 395/466/408
f 395/469/408 357/426/373 373/427/374 375/440/385
f 400/470/409 392/463/405 394/465/407 397/471/410
f 397/472/410 394/467/407 396/446/391 399/473/411
f 398/474/412 401/475/413 400/470/409 397/471/410
f 399/473/411 427/476/414 398/477/412 397/472/410
f 400/470/409 401/475/413 403/478/415 402/479/416
f 402/479/416 390/462/404 392/463/405 400/470/409
f 405/480/417 404/481/418 402/479/416 403/478/415
f 404/481/418 407/453/398 390/462/404 402/479/416
f 404/481/418 405/480/417 408/482/419 406/483/420
f 407/453/398 404/481/418 406/483/420 383/454/395
f 406/484/420 408/485/419 410/486/421 409/487/422
f 409/487/422 381/448/393 383/450/395 406/484/420
f 410/486/421 414/488/423 412/489/424 409/487/422
f 381/448/393 409/487/422 411/490/425 379/447/392
f 409/487/422 412/489/424 413/491/426 411/490/425
f 414/488/423 415/492/427 413/491/426 412/489/424
f 416/493/428 417/494/429 415/492/427 414/488/423
f 418/495/430 416/493/428 414/488/423 410/486/421
f 419/496/431 417/494/429 416/493/428 418/495/430
f 419/496/431 418/495/430 420/497/432 422/498/433
f 408/485/419 420/497/432 418/495/430 410/486/421
f 405/480/417 421/499/434 420/500/432 408/482/419
f 420/500/432 421/499/434 424/501/435 422/502/433
f 426/503/436 419/496/431 422/498/433 423/504/437
f 422/502/433 424/501/435 425/505/438 423/506/437
f 401/475/413 425/505/438 424/501/435 403/478/415
f 424/501/435 421/499/434 405/480/417 403/478/415
f 423/506/437 425/505/438 401/475/413 398/474/412
f 427/476/414 426/503/436 423/504/437 398/477/412
f 426/503/436 428/507/439 417/494/429 419/496/431
f 427/476/414 429/508/440 428/507/439 426/503/436
f 417/494/429 428/507/439 429/508/440 415/492/427
f 415/492/427 429/508/440 430/509/441 413/491/426
f 399/473/411 430/509/441 429/508/440 427/476/414
f 411/490/425 413/491/426 430/509/441 399/473/411
f 399/473/411 396/446/391 379/447/392 411/490/425
f 98/117/112 97/116/111 432/510/442 431/285/252
f 228/260/241 229/261/242 431/271/252 432/511/442
f 434/512/443 228/260/241 432/511/442 433/513/444
f 97/116/111 436/514/445 433/515/444 432/510/442
f 452/516/446 434/512/443 433/513/444 435/517/447
f 435/518/447 433/515/444 436/514/445 437/519/448
f 437/519/448 436/514/445 438/520/449 439/521/450
f 97/116/111 95/115/110 438/520/449 436/514/445
f 439/521/450 438/520/449 440/522/451 441/523/452
f 95/115/110 443/114/109 440/522/451 438/520/449
f 441/523/452 440/522/451 442/524/453 468/525/454
f 442/524/453 440/522/451 443/114/109 444/526/455
f 445/111/106 444/526/455 443/114/109 92/110/105
f 444/527/455 445/528/106 36/40/38 446/529/456
f 444/527/455 446/529/456 447/530/457 442/531/453
f 446/529/456 36/40/38 227/44/42 448/259/240
f 449/532/458 447/530/457 446/529/456 448/259/240
f 434/512/443 449/532/458 448/259/240 228/260/241
f 451/533/459 447/530/457 449/532/458 450/534/460
f 449/532/458 434/512/443 452/516/446 450/534/460
f 454/535/461 451/533/459 450/534/460 453/536/462
f 452/516/446 456/537/463 453/536/462 450/534/460
f 470/538/464 454/535/461 453/536/462 455/539/465
f 456/537/463 457/540/466 455/539/465 453/536/462
f 457/540/466 456/537/463 458/541/467 459/542/468
f 456/537/463 452/516/446 435/517/447 458/541/467
f 459/543/468 458/544/467 460/545/469 461/546/470
f 458/544/467 435/518/447 437/519/448 460/545/469
f 461/546/470 460/545/469 462/547/471 463/548/472
f 460/545/469 437/519/448 439/521/450 462/547/471
f 463/548/472 462/547/471 464/549/473 465/550/474
f 462/547/471 439/521/450 441/523/452 464/549/473
f 465/550/474 464/549/473 466/551/475 467/552/476
f 464/549/473 441/523/452 468/525/454 466/551/475
f 454/535/461 470/538/464 467/553/476 466/554/475
f 451/533/459 454/535/461 466/554/475 468/555/454
f 442/531/453 447/530/457 451/533/459 468/555/454
f 493/556/477 465/550/474 467/552/476 469/557/478
f 467/553/476 470/538/464 471/558/479 469/559/478
f 471/558/479 470/538/464 455/539/465 472/560/480
f 473/561/481 471/558/479 472/560/480 476/562/482
f 471/558/479 473/561/481 474/563/483 469/559/478
f 473/561/481 475/564/484 496/565/485 474/563/483
f 475/564/484 473/561/481 476/562/482 477/566/486
f 478/567/487 481/568/488 477/566/486 476/562/482
f 479/569/489 478/567/487 476/562/482 472/560/480
f 478/567/487 479/569/489 534/570/490 480/571/491
f 481/568/488 478/567/487 480/571/491 483/572/492
f 477/566/486 481/568/488 482/573/493 533/574/494
f 482/573/493 481/568/488 483/572/492 484/575/495
f 484/576/495 483/577/492 485/578/496 486/579/497
f 483/577/492 480/580/491 488/581/498 485/578/496
f 486/579/497 485/578/496 487/582/499 519/583/500
f 485/578/496 488/581/498 490/584/501 487/582/499
f 488/581/498 489/585/502 491/586/503 490/584/501
f 480/580/491 534/587/490 489/585/502 488/581/498
f 490/584/501 491/586/503 493/556/477 492/588/504
f 487/582/499 490/584/501 492/588/504 494/589/505
f 492/588/504 493/556/477 469/557/478 474/590/483
f 494/589/505 492/588/504 474/590/483 496/591/485
f 519/583/500 487/582/499 494/589/505 495/592/506
f 495/592/506 494/589/505 496/591/485 497/593/507
f 475/564/484 498/594/508 497/595/507 496/565/485
f 501/596/509 495/592/506 497/593/507 499/597/510
f 498/594/508 502/598/511 499/599/510 497/595/507
f 502/598/511 503/600/512 500/601/513 499/599/510
f 499/597/510 500/602/513 520/603/514 501/596/509
f 502/598/511 505/604/515 506/605/516 503/600/512
f 502/598/511 498/594/508 533/574/494 504/606/517
f 504/606/517 507/607/518 505/604/515 502/598/511
f 508/608/519 506/605/516 505/604/515 507/607/518
f 510/609/520 508/608/519 507/607/518 509/610/521
f 511/611/522 509/610/521 507/607/518 504/606/517
f 512/612/523 510/609/520 509/610/521 511/611/522
f 514/613/524 512/612/523 511/611/522 513/614/525
f 511/611/522 482/573/493 484/575/495 513/614/525
f 482/573/493 511/611/522 504/606/517 533/574/494
f 515/615/526 516/616/527 514/617/524 513/618/525
f 513/618/525 484/576/495 486/579/497 515/615/526
f 516/616/527 515/615/526 517/619/528 518/620/529
f 515/615/526 486/579/497 519/583/500 517/619/528
f 501/596/509 520/603/514 518/620/529 517/619/528
f 517/619/528 519/583/500 495/592/506 501/596/509
f 520/603/514 523/621/530 521/622/531 518/620/529
f 521/622/531 524/623/532 516/616/527 518/620/529
f 525/624/533 524/623/532 521/622/531 522/625/534
f 522/625/534 521/622/531 523/621/530 532/626/535
f 516/616/527 524/623/532 525/624/533 514/617/524
f 526/627/536 525/628/533 522/629/534 527/630/537
f 525/628/533 526/627/536 512/612/523 514/613/524
f 527/630/537 529/631/538 528/632/539 526/627/536
f 526/627/536 528/632/539 510/609/520 512/612/523
f 528/632/539 529/631/538 508/608/519 510/609/520
f 531/633/540 530/634/541 529/631/538 527/630/537
f 529/631/538 530/634/541 506/605/516 508/608/519
f 503/600/512 506/605/516 530/634/541 531/633/540
f 503/600/512 531/633/540 532/635/535 500/601/513
f 527/630/537 522/629/534 532/635/535 531/633/540
f 500/602/513 532/626/535 523/621/530 520/603/514
f 498/594/508 475/564/484 477/566/486 533/574/494
f 491/586/503 463/548/472 465/550/474 493/556/477
f 489/585/502 461/546/470 463/548/472 491/586/503
f 534/587/490 459/543/468 461/546/470 489/585/502
f 479/569/489 457/540/466 459/542/468 534/570/490
f 455/539/465 457/540/466 479/569/489 472/560/480
f 33/38/36 36/40/38 445/528/106 91/636/103
f 214/152/147 53/63/61 55/65/63 129/147/142
f 129/147/142 55/65/63 57/66/64 126/146/141
f 60/70/68 124/145/140 126/146/141 57/66/64
f 63/73/71 111/127/122 124/145/140 60/70/68
f 535/637/104 31/37/35 33/38/36 91/636/103
f 90/106/101 538/638/542 536/639/543 535/109/104
f 539/640/544 31/37/35 535/637/104 536/641/543
f 541/642/545 539/640/544 536/641/543 537/643/546
f 538/638/542 622/644/547 537/645/546 536/639/543
f 540/646/548 629/36/34 31/37/35 539/640/544
f 543/647/549 540/646/548 539/640/544 541/642/545
f 537/643/546 568/648/550 542/649/551 541/642/545
f 541/642/545 542/649/551 545/650/552 543/647/549
f 540/646/548 543/647/549 544/651/553 626/652/554
f 543/647/549 545/650/552 546/653/555 544/651/553
f 545/650/552 547/654/556 550/655/557 546/653/555
f 542/649/551 549/656/558 547/654/556 545/650/552
f 547/654/556 548/657/559 551/658/560 550/655/557
f 549/656/558 569/659/561 548/657/559 547/654/556
f 550/655/557 551/658/560 553/660/562 552/661/563
f 546/653/555 550/655/557 552/661/563 555/662/564
f 552/661/563 553/660/562 584/663/565 554/664/566
f 555/662/564 552/661/563 554/664/566 557/665/567
f 544/651/553 546/653/555 555/662/564 556/666/568
f 556/666/568 555/662/564 557/665/567 558/667/569
f 557/668/567 559/669/570 560/670/571 558/671/569
f 562/672/572 559/669/570 557/668/567 554/673/566
f 560/670/571 559/669/570 561/674/573 622/644/547
f 559/669/570 562/672/572 564/675/574 561/674/573
f 562/672/572 563/676/575 565/677/576 564/675/574
f 563/676/575 562/672/572 554/673/566 584/678/565
f 567/679/577 566/680/578 564/675/574 565/677/576
f 566/680/578 568/681/550 561/674/573 564/675/574
f 566/682/578 567/683/577 569/659/561 549/656/558
f 568/648/550 566/682/578 549/656/558 542/649/551
f 622/644/547 561/674/573 568/681/550 537/645/546
f 567/683/577 570/684/579 573/685/580 569/659/561
f 570/686/579 567/679/577 565/677/576 572/687/581
f 570/684/579 571/688/582 574/689/583 573/685/580
f 571/690/582 570/686/579 572/687/581 586/691/584
f 573/685/580 574/689/583 576/692/585 575/693/586
f 569/659/561 573/685/580 575/693/586 548/657/559
f 575/693/586 576/692/585 578/694/587 577/695/588
f 548/657/559 575/693/586 577/695/588 551/658/560
f 577/695/588 578/694/587 580/696/589 579/697/590
f 551/658/560 577/695/588 579/697/590 553/660/562
f 579/697/590 580/696/589 582/698/591 581/699/592
f 553/660/562 579/697/590 581/699/592 584/663/565
f 582/700/591 585/701/593 583/702/594 581/703/592
f 583/702/594 563/676/575 584/678/565 581/703/592
f 583/702/594 585/701/593 586/691/584 572/687/581
f 563/676/575 583/702/594 572/687/581 565/677/576
f 588/704/595 586/691/584 585/701/593 587/705/596
f 587/705/596 585/701/593 582/700/591 590/706/597
f 608/707/598 588/704/595 587/705/596 589/708/599
f 589/708/599 587/705/596 590/706/597 591/709/600
f 591/710/600 590/711/597 592/712/601 593/713/602
f 590/711/597 582/698/591 580/696/589 592/712/601
f 592/712/601 594/714/603 595/715/604 593/713/602
f 580/696/589 597/716/605 594/714/603 592/712/601
f 595/715/604 594/714/603 596/717/606 617/718/607
f 594/714/603 597/716/605 598/719/608 596/717/606
f 578/694/587 598/719/608 597/716/605 580/696/589
f 596/717/606 598/719/608 599/720/609 600/721/610
f 576/692/585 599/720/609 598/719/608 578/694/587
f 602/722/611 600/721/610 599/720/609 576/692/585
f 617/718/607 596/717/606 600/721/610 601/723/612
f 603/724/613 601/723/612 600/721/610 602/722/611
f 603/724/613 602/722/611 604/725/614 605/726/615
f 602/722/611 576/692/585 574/689/583 604/725/614
f 604/725/614 606/727/616 607/728/617 605/726/615
f 574/689/583 571/688/582 606/727/616 604/725/614
f 607/729/617 606/730/616 588/704/595 608/707/598
f 606/730/616 571/690/582 586/691/584 588/704/595
f 610/731/618 609/732/619 607/729/617 608/707/598
f 607/728/617 609/733/619 611/734/620 605/726/615
f 609/732/619 610/731/618 612/735/621 611/736/620
f 611/734/620 612/737/621 614/738/622 613/739/623
f 605/726/615 611/734/620 613/739/623 603/724/613
f 614/738/622 616/740/624 615/741/625 613/739/623
f 613/739/623 615/741/625 601/723/612 603/724/613
f 601/723/612 615/741/625 616/740/624 617/718/607
f 617/718/607 616/740/624 618/742/626 595/715/604
f 619/743/627 618/742/626 616/740/624 614/738/622
f 593/713/602 595/715/604 618/742/626 619/743/627
f 593/713/602 619/743/627 620/744/628 591/710/600
f 612/737/621 620/744/628 619/743/627 614/738/622
f 610/731/618 621/745/629 620/746/628 612/735/621
f 620/746/628 621/745/629 589/708/599 591/709/600
f 589/708/599 621/745/629 610/731/618 608/707/598
f 623/747/630 560/670/571 622/644/547 538/638/542
f 558/671/569 560/670/571 623/747/630 624/748/631
f 88/102/98 623/747/630 538/638/542 90/106/101
f 623/747/630 88/102/98 85/103/99 624/748/631
f 625/749/632 556/666/568 558/667/569 624/750/631
f 627/104/100 625/749/632 624/750/631 85/105/99
f 626/652/554 544/651/553 556/666/568 625/749/632
f 628/751/633 626/652/554 625/749/632 627/104/100
f 630/31/29 628/751/633 627/104/100 86/98/95
f 629/36/34 540/646/548 626/652/554 628/751/633
f 26/30/28 629/36/34 628/751/633 630/31/29
f 83/97/94 25/29/27 630/31/29 86/98/95
f 83/97/94 18/19/19 20/24/22 25/29/27
f 66/78/76 631/80/78 11/12/12 13/13/13
f 9/9/9 11/12/12 631/80/78 632/752/634
f 61/71/69 58/68/66 632/752/634 631/80/78
f 633/60/58 7/8/8 9/9/9 632/752/634
f 58/68/66 51/61/59 633/60/58 632/752/634
f 47/55/53 5/6/6 7/8/8 633/60/58
f 47/55/53 634/49/47 3/1/1 5/6/6
f 634/49/47 27/28/26 23/2/2 3/1/1
f 1/4/4 8/10/10 4/5/5
f 1/4/4 2/3/3 14/15/15
f 2/3/3 21/25/23 15/21/18
f 15/21/18 21/25/23 17/22/20
f 21/25/23 19/23/21 17/22/20
f 15/21/18 14/15/15 2/3/3
f 14/15/15 12/14/14 1/4/4
f 12/14/14 10/11/11 1/4/4
f 10/11/11 8/10/10 1/4/4
f 8/10/10 6/7/7 4/5/5
