# Blender 5.0.1
# www.blender.org
mtllib leg.mtl
o Body.022
v 250.729233 -15.323817 -102.779892
v 246.582504 -12.723959 -101.468498
v 250.045898 -13.639284 -108.009109
v 251.200607 -17.087736 -95.772049
v 256.187012 -15.019808 -103.234566
v 257.261230 -16.456282 -95.980331
v 260.660522 -11.702675 -102.599220
v 255.213135 -13.893846 -108.319183
v 259.491119 -11.001950 -107.731209
v 261.913361 -6.460959 -106.430756
v 262.590363 -6.587928 -101.337654
v 261.149658 -1.264138 -104.880302
v 261.390228 -1.197071 -99.734390
v 258.829742 3.799515 -103.181503
v 258.729950 3.553913 -98.148880
v 254.590576 8.521139 -101.597801
v 254.589355 7.247250 -96.906944
v 248.779495 7.136371 -101.462669
v 249.927521 5.285949 -96.659943
v 244.935699 2.604260 -102.281372
v 245.907684 1.661684 -96.900703
v 242.136337 -2.330118 -103.548882
v 243.546890 -3.243793 -98.181389
v 242.408173 -7.879740 -105.229797
v 243.656342 -8.681873 -99.912987
v 246.025726 -11.350911 -106.970642
v 243.626205 -9.759864 -93.254875
v 242.838486 -10.750761 -86.610626
v 246.302460 -14.313138 -94.778664
v 244.067291 -4.241914 -91.756866
v 243.489395 -5.032701 -85.681778
v 246.722092 0.400309 -91.056496
v 246.792938 -0.636589 -84.877640
v 250.026474 4.144299 -90.475555
v 254.678345 5.668019 -90.737419
v 250.185242 3.275723 -84.472389
v 254.701248 4.739938 -84.932602
v 249.851776 2.544574 -78.527496
v 254.456467 4.368704 -78.640923
v 249.511002 1.715817 -71.662834
v 246.331741 -1.366211 -78.507057
v 245.736343 -1.921463 -71.749039
v 242.615021 -5.653756 -79.141548
v 242.359467 -6.476857 -71.996994
v 242.107605 -11.709136 -80.091026
v 245.872589 -16.905212 -81.190231
v 242.107544 -12.365118 -72.619621
v 243.378113 -12.338587 -65.017776
v 246.018860 -17.469397 -73.212891
v 246.865936 -16.560520 -65.333687
v 252.255234 -19.265947 -73.085068
v 252.337662 -18.033669 -65.490410
v 258.530060 -17.502563 -72.982071
v 251.975449 -19.379843 -81.246567
v 258.588593 -17.980761 -81.334091
v 251.694824 -18.411753 -88.949738
v 246.082474 -15.772593 -87.978256
v 258.078644 -17.427776 -89.322830
v 263.085754 -13.249190 -89.194641
v 262.155273 -12.664601 -95.897255
v 264.260925 -6.854252 -88.369873
v 263.524475 -13.454054 -81.434959
v 263.201324 -13.169829 -72.853294
v 264.463379 -6.996965 -81.120636
v 264.064117 -6.883819 -72.942978
v 263.177246 -0.938370 -80.053650
v 262.841492 -1.129231 -72.496353
v 259.548096 3.276839 -79.143532
v 263.111511 -0.960667 -87.012497
v 262.348816 -1.075558 -93.333633
v 259.623383 3.327936 -85.806519
v 259.245636 3.331354 -91.944145
v 263.442444 -6.833869 -94.729828
v 258.951660 2.849207 -71.999550
v 257.815643 2.322170 -64.710167
v 253.957153 3.677593 -71.783127
v 253.119690 2.731203 -64.618408
v 252.109604 1.661404 -56.553829
v 249.008118 0.704648 -64.759552
v 248.584000 -0.293731 -56.673573
v 245.683685 -2.789404 -64.471031
v 246.003525 -3.738322 -56.844444
v 243.117401 -7.057189 -65.204994
v 244.161713 -7.763007 -56.943806
v 244.938614 -8.318923 -49.037888
v 245.030930 -12.090308 -56.983566
v 245.911530 -12.115186 -48.875553
v 248.054230 -15.216905 -57.030815
v 248.698044 -14.826617 -48.561569
v 252.463425 -16.352612 -56.698650
v 252.535187 -15.673871 -48.162537
v 257.274719 -15.130048 -56.564167
v 256.578766 -14.135690 -47.715084
v 260.941467 -11.373102 -56.439064
v 258.002747 -16.497244 -65.045479
v 262.256683 -12.244934 -64.619331
v 262.951782 -6.637379 -64.735390
v 261.549622 -1.163445 -64.892403
v 261.478973 -6.138073 -56.651791
v 259.821014 -1.356559 -56.584766
v 259.572937 -5.621985 -47.505440
v 257.636444 -5.418042 -39.155712
v 258.134430 -1.547477 -47.732800
v 259.118073 -10.147312 -47.519718
v 257.380127 -9.232907 -39.018074
v 255.515945 -13.012109 -39.086803
v 256.208191 -8.490541 -32.128933
v 254.274521 -11.880390 -32.291111
v 255.913666 -8.031876 -26.568472
v 256.282471 -5.199642 -32.626755
v 255.779510 -4.398136 -27.041285
v 255.469681 -1.732575 -33.372066
v 254.870560 -1.139972 -27.979700
v 253.348236 0.731619 -34.013599
v 256.597107 -1.688810 -39.597755
v 253.936005 0.532676 -40.240307
v 250.886200 0.382581 -40.872417
v 254.882019 0.748351 -48.035564
v 251.380676 0.810111 -48.385639
v 256.294128 1.411613 -56.560867
v 248.385574 -1.115608 -48.873096
v 246.261414 -4.413321 -49.170773
v 248.025162 -1.412029 -41.544994
v 246.263245 -4.647301 -41.878807
v 247.306671 -1.083946 -35.293880
v 245.780731 -4.418070 -35.423042
v 246.563843 -0.231164 -30.355350
v 250.251038 0.799600 -34.651291
v 249.683334 1.663541 -29.959435
v 252.920547 1.342028 -29.101748
v 249.310898 2.851036 -25.380636
v 252.527588 2.387976 -24.302452
v 245.857742 1.018326 -25.891701
v 249.240021 4.369508 -21.430269
v 252.420776 3.715268 -20.642485
v 249.338531 8.357405 -18.150806
v 245.387787 2.635083 -21.513109
v 242.330063 -1.916573 -21.285215
v 245.107391 5.959248 -16.289066
v 246.339233 12.212137 -13.157578
v 244.254822 5.782538 -10.711843
v 242.610489 -0.939818 -16.249325
v 243.350708 -7.240603 -15.963910
v 243.352737 -0.661017 -11.259614
v 244.393814 -6.743477 -11.359844
v 245.587967 -12.214017 -10.593362
v 247.518890 -17.420471 -9.266788
v 245.568420 -12.514289 -15.180137
v 245.943130 -12.201968 -19.612001
v 248.146561 -17.177956 -14.540503
v 248.440216 -16.235201 -19.016024
v 252.780121 -16.468092 -14.004788
v 255.497269 -11.897497 -13.502309
v 252.097794 -15.035557 -18.188702
v 254.488983 -11.034875 -17.602421
v 251.856171 -14.579026 -21.854105
v 254.047974 -11.058511 -21.603004
v 251.862961 -14.295316 -26.756767
v 248.554504 -15.507542 -22.731298
v 246.064636 -12.140119 -23.534389
v 248.598358 -15.133535 -27.359030
v 248.850235 -14.815578 -32.944412
v 246.313049 -12.102995 -28.199526
v 246.680359 -12.273890 -33.756630
v 245.105515 -8.014258 -29.196915
v 244.739807 -3.802334 -30.107944
v 245.759552 -8.307013 -34.774784
v 244.093994 -7.891042 -24.753103
v 243.328094 -2.941764 -25.737761
v 242.923035 -7.607530 -20.802830
v 245.671478 -8.413513 -41.531021
v 246.488083 -12.022179 -41.057476
v 248.955612 -14.613111 -40.367496
v 252.278046 -15.143479 -39.740753
v 252.006454 -14.478024 -32.344086
v 254.046356 -11.313452 -26.518177
v 256.280304 -7.538134 -21.475689
v 255.887283 -3.400536 -21.706482
v 257.059814 -6.871621 -17.474207
v 257.266205 -6.138084 -13.470508
v 256.309753 -2.066100 -17.741333
v 258.086182 0.895790 -13.380764
v 254.721863 1.501042 -19.231596
v 256.027740 5.294978 -15.626851
v 254.437134 -0.123311 -22.916077
v 252.932846 6.924357 -17.673946
v 258.206085 9.285510 -12.637120
v 255.487610 8.771876 -14.914655
v 253.443878 9.739670 -16.005400
v 256.387054 11.484315 -13.668853
v 253.968582 12.996737 -14.561655
v 251.405792 13.528480 -15.230124
v 248.935074 13.175956 -15.356464
v 251.576767 17.713423 -13.288218
v 251.425186 10.573474 -16.512247
v 248.900131 17.579304 -13.085783
v 246.345673 17.138428 -11.203881
v 260.114563 7.593488 -10.909914
v 245.142288 11.734838 -9.385852
vn -0.2047 -0.9580 -0.2008
vn -0.6961 -0.6991 -0.1637
vn -0.6808 -0.7207 -0.1309
vn -0.2447 -0.9434 -0.2239
vn -0.5450 -0.3578 -0.7582
vn -0.2825 -0.5133 -0.8104
vn 0.1621 -0.5329 -0.8305
vn 0.3257 -0.9102 -0.2557
vn 0.3657 -0.9064 -0.2115
vn 0.7907 -0.5668 -0.2313
vn 0.8280 -0.5253 -0.1963
vn 0.5179 -0.2731 -0.8106
vn 0.6938 0.0858 -0.7150
vn 0.9869 -0.0379 -0.1565
vn 0.6250 0.4130 -0.6624
vn 0.9281 0.3629 -0.0834
vn 0.7671 0.6411 0.0224
vn 0.5503 0.5945 -0.5863
vn 0.1801 0.9153 -0.3604
vn 0.2188 0.9529 0.2099
vn -0.4558 0.8158 -0.3561
vn -0.5227 0.8093 0.2679
vn -0.6673 0.5929 -0.4508
vn -0.8058 0.5424 0.2375
vn -0.8286 0.3069 -0.4681
vn -0.9666 0.1891 0.1732
vn -0.8152 -0.1531 -0.5585
vn -0.9459 -0.3228 0.0318
vn -0.9689 -0.2323 -0.0850
vn -0.9595 0.2791 0.0397
vn -0.9344 0.3532 -0.0467
vn -0.9661 -0.2223 -0.1311
vn -0.6575 -0.7378 -0.1530
vn -0.7822 0.6217 0.0416
vn -0.8050 0.5782 0.1330
vn -0.5608 0.8229 0.0914
vn -0.5483 0.8188 0.1701
vn 0.1058 0.9848 0.1374
vn 0.0156 0.9966 0.0814
vn -0.5698 0.8202 0.0505
vn -0.0560 0.9957 0.0742
vn -0.7574 0.6528 0.0120
vn -0.5721 0.8178 0.0627
vn -0.1125 0.9887 0.0986
vn -0.7631 0.6444 0.0494
vn -0.9507 0.3040 0.0615
vn -0.9329 0.3590 -0.0301
vn -0.9580 -0.2767 -0.0759
vn -0.9415 -0.3324 0.0566
vn -0.6086 -0.7891 -0.0837
vn -0.5650 -0.8234 0.0534
vn -0.9091 -0.3821 0.1657
vn -0.9646 0.2264 0.1356
vn -0.5234 -0.8344 0.1727
vn 0.0003 -0.9857 0.1683
vn -0.0195 -0.9970 0.0755
vn -0.0697 -0.9961 -0.0535
vn 0.4827 -0.8709 0.0926
vn 0.4862 -0.8578 0.1667
vn 0.4551 -0.8901 -0.0237
vn -0.1357 -0.9795 -0.1486
vn 0.4120 -0.9014 -0.1330
vn 0.8575 -0.5023 -0.1110
vn 0.8761 -0.4821 -0.0062
vn 0.9890 0.0037 -0.1481
vn 0.9967 0.0125 -0.0804
vn 0.9999 0.0137 0.0080
vn 0.8810 -0.4632 0.0968
vn 0.9955 0.0291 0.0903
vn 0.8914 0.4411 0.1039
vn 0.9049 0.4246 0.0282
vn 0.9090 0.4135 -0.0519
vn 0.4882 0.8654 0.1131
vn 0.5338 0.8438 0.0559
vn 0.5878 0.8090 0.0061
vn 0.9095 0.4012 -0.1093
vn 0.6755 0.7373 -0.0076
vn 0.8560 0.4898 0.1655
vn 0.4253 0.8924 0.1509
vn -0.1695 0.9797 0.1074
vn -0.6008 0.7959 0.0752
vn -0.2219 0.9705 0.0940
vn 0.3692 0.9177 0.1465
vn -0.6550 0.7525 0.0682
vn -0.8035 0.5881 0.0923
vn -0.8532 0.5140 0.0891
vn -0.9838 0.1282 0.1250
vn -0.8852 -0.4428 0.1426
vn -0.9957 0.0395 0.0839
vn -0.9018 0.4288 0.0536
vn -0.8706 -0.4854 0.0807
vn -0.4772 -0.8764 0.0653
vn -0.4948 -0.8565 0.1467
vn 0.0212 -0.9894 0.1439
vn 0.0939 -0.9915 0.0899
vn 0.5223 -0.8357 0.1697
vn 0.6216 -0.7667 0.1604
vn 0.8934 -0.4039 0.1970
vn 0.9191 -0.3341 0.2090
vn 0.8826 -0.4394 0.1672
vn 0.9852 0.0620 0.1595
vn 0.9766 0.1003 0.1903
vn 0.8197 0.5443 0.1784
vn 0.9720 0.1162 0.2042
vn 0.8063 0.5675 0.1671
vn 0.9727 0.1166 0.2004
vn 0.9348 -0.2863 0.2103
vn 0.8299 0.5362 0.1541
vn 0.7236 -0.6663 0.1802
vn 0.9523 -0.2662 0.1496
vn 0.7937 -0.5910 0.1439
vn 0.9831 0.1263 0.1324
vn 0.9678 -0.2503 0.0270
vn 0.8361 -0.5471 0.0403
vn 0.9857 0.1680 0.0084
vn 0.8770 0.4707 0.0965
vn 0.8946 0.4468 -0.0038
vn 0.4364 0.8996 -0.0190
vn 0.5168 0.8493 -0.1072
vn 0.3543 0.9334 0.0569
vn 0.3370 0.9354 0.1073
vn -0.2865 0.9578 -0.0232
vn -0.2568 0.9574 -0.1323
vn -0.2671 0.9620 0.0561
vn -0.7049 0.7085 0.0347
vn -0.7311 0.6807 -0.0462
vn -0.9449 0.3270 -0.0139
vn -0.9689 0.2168 -0.1191
vn -0.7363 0.6571 -0.1613
vn -0.9595 0.1528 -0.2367
vn -0.7065 0.6552 -0.2675
vn -0.1950 0.9540 -0.2276
vn -0.1420 0.9404 -0.3089
vn 0.5559 0.8028 -0.2156
vn -0.6686 0.6737 -0.3148
vn -0.1632 0.8059 -0.5691
vn 0.5566 0.6293 -0.5424
vn -0.7251 0.6020 -0.3344
vn 0.5071 0.4551 -0.7319
vn -0.2920 0.5784 -0.7618
vn -0.8538 0.4137 -0.3161
vn -0.9454 0.1648 -0.2811
vn -0.9726 0.1842 -0.1420
vn -0.9901 0.1398 0.0085
vn -0.8371 0.4057 -0.3670
vn -0.4360 0.4225 -0.7946
vn -0.9247 0.1249 0.3595
vn -0.6040 0.1090 0.7895
vn -0.9044 0.0251 0.4259
vn -0.9639 -0.2441 0.1068
vn -0.8656 -0.1368 0.4816
vn -0.9541 -0.2946 -0.0544
vn -0.9071 -0.4209 -0.0080
vn -0.8734 -0.2342 0.4270
vn -0.4846 -0.3406 0.8057
vn -0.5687 -0.7959 0.2079
vn -0.8567 -0.5106 -0.0735
vn -0.4128 -0.8880 -0.2025
vn 0.6325 -0.7373 -0.2375
vn 0.6379 -0.6498 0.4134
vn 0.7985 -0.3513 0.4888
vn 0.8670 -0.4694 -0.1670
vn 0.6357 -0.7674 -0.0836
vn 0.8483 -0.5277 -0.0435
vn -0.3682 -0.9240 -0.1034
vn 0.5741 -0.8188 0.0020
vn -0.3679 -0.9285 -0.0495
vn -0.8480 -0.5209 -0.0976
vn -0.8780 -0.4719 -0.0795
vn 0.4286 -0.9003 0.0760
vn -0.4007 -0.9162 -0.0104
vn -0.8854 -0.4637 -0.0326
vn -0.9633 -0.2233 -0.1489
vn -0.9903 -0.1278 -0.0548
vn -0.9357 -0.3021 -0.1825
vn -0.9987 -0.0375 0.0341
vn -0.8815 -0.4707 0.0378
vn -0.4542 -0.8904 0.0290
vn 0.2303 -0.9684 0.0960
vn 0.9693 -0.2325 -0.0797
vn 0.9656 -0.1969 -0.1697
vn 0.9719 0.2013 -0.1220
vn 0.9490 0.1228 -0.2903
vn 0.8430 -0.1897 0.5033
vn 0.9683 0.0229 0.2487
vn 0.8427 0.3280 -0.4270
vn 0.7544 0.1875 -0.6291
vn 0.8864 0.4438 -0.1315
vn 0.4506 0.3264 -0.8309
vn 0.5815 0.2440 -0.7761
vn 0.8479 0.4666 -0.2516
vn 0.9159 0.1508 0.3719
vn 0.7466 0.6080 -0.2699
vn 0.6718 0.6728 -0.3099
vn 0.2208 0.4214 -0.8796
vn 0.2865 0.6554 -0.6989
vn 0.1465 0.8858 -0.4403
vn 0.3900 0.8452 -0.3654
vn -0.0836 0.9534 0.2899
vt 0.809330 0.332290
vt 0.813010 0.346330
vt 0.796070 0.344640
vt 0.791640 0.331470
vt 0.781210 0.343100
vt 0.778410 0.330990
vt 0.777300 0.316520
vt 0.789230 0.316330
vt 0.807290 0.316680
vt 0.789730 0.301240
vt 0.806370 0.300880
vt 0.777800 0.301950
vt 0.779180 0.288030
vt 0.791180 0.286790
vt 0.780200 0.274050
vt 0.792630 0.272350
vt 0.794550 0.257630
vt 0.782040 0.258990
vt 0.784230 0.240760
vt 0.796490 0.241070
vt 0.785620 0.224150
vt 0.799630 0.226370
vt 0.784200 0.207390
vt 0.802070 0.211420
vt 0.807700 0.388110
vt 0.791870 0.387910
vt 0.789310 0.373200
vt 0.804240 0.373800
vt 0.785510 0.357480
vt 0.800410 0.358710
vt 0.817140 0.359810
vt 0.820640 0.374250
vt 0.832680 0.374330
vt 0.830390 0.360320
vt 0.826350 0.346170
vt 0.835030 0.388220
vt 0.824920 0.388250
vt 0.823040 0.214030
vt 0.835410 0.215860
vt 0.832520 0.230460
vt 0.817920 0.228010
vt 0.814460 0.242550
vt 0.829160 0.243750
vt 0.845670 0.231720
vt 0.843430 0.245090
vt 0.848420 0.217790
vt 0.861130 0.233790
vt 0.858920 0.246870
vt 0.864350 0.219910
vt 0.857890 0.373940
vt 0.859700 0.387910
vt 0.845680 0.388190
vt 0.844460 0.374330
vt 0.841630 0.360260
vt 0.854770 0.360270
vt 0.837530 0.345800
vt 0.850880 0.345560
vt 0.869790 0.360320
vt 0.871560 0.374100
vt 0.865970 0.346130
vt 0.863910 0.331730
vt 0.849740 0.330900
vt 0.836010 0.331180
vt 0.850130 0.316150
vt 0.865210 0.317080
vt 0.835100 0.316130
vt 0.822740 0.331710
vt 0.820510 0.316420
vt 0.819920 0.300830
vt 0.834680 0.300970
vt 0.807700 0.285900
vt 0.821190 0.285240
vt 0.835680 0.285900
vt 0.851320 0.301800
vt 0.852430 0.287080
vt 0.854600 0.273480
vt 0.838720 0.271570
vt 0.824010 0.271100
vt 0.857000 0.259990
vt 0.841350 0.258370
vt 0.826590 0.257560
vt 0.809460 0.271330
vt 0.811540 0.257350
vt 0.871370 0.274480
vt 0.873930 0.261330
vt 0.876310 0.248520
vt 0.877430 0.235370
vt 0.899850 0.251390
vt 0.896810 0.263710
vt 0.901360 0.238940
vt 0.875770 0.221430
vt 0.902260 0.225590
vt 0.872940 0.387720
vt 0.892940 0.373050
vt 0.895100 0.386720
vt 0.889970 0.359480
vt 0.916030 0.371630
vt 0.919750 0.385980
vt 0.913360 0.358580
vt 0.911670 0.345890
vt 0.886690 0.346270
vt 0.885680 0.332680
vt 0.911490 0.333430
vt 0.885800 0.318320
vt 0.913000 0.320070
vt 0.887580 0.303630
vt 0.915600 0.305750
vt 0.867880 0.302140
vt 0.869770 0.288500
vt 0.889830 0.289840
vt 0.893300 0.276350
vt 0.918780 0.292800
vt 0.921820 0.279950
vt 0.946530 0.297620
vt 0.944270 0.309800
vt 0.948450 0.283890
vt 0.941900 0.323540
vt 0.965140 0.313420
vt 0.963380 0.327320
vt 0.965370 0.301420
vt 0.981990 0.316410
vt 0.982490 0.330720
vt 0.981010 0.302930
vt 0.965790 0.286660
vt 0.979580 0.287470
vt 0.967110 0.272500
vt 0.979630 0.271070
vt 0.949870 0.270780
vt 0.924780 0.267250
vt 0.949980 0.259910
vt 0.967400 0.261160
vt 0.926380 0.255940
vt 0.926380 0.243910
vt 0.948780 0.247880
vt 0.927290 0.230990
vt 0.948840 0.236050
vt 0.965770 0.238920
vt 0.966270 0.249580
vt 0.980720 0.240370
vt 0.979350 0.250680
vt 0.979480 0.260870
vt 0.399650 0.565000
vt 0.400840 0.555910
vt 0.404300 0.556890
vt 0.403190 0.564450
vt 0.406610 0.573450
vt 0.401580 0.574000
vt 0.394510 0.565100
vt 0.396500 0.554300
vt 0.395890 0.575260
vt 0.390140 0.553460
vt 0.386850 0.565930
vt 0.386820 0.578140
vt 0.404900 0.583570
vt 0.400760 0.584710
vt 0.393510 0.586350
vt 0.376100 0.577500
vt 0.377520 0.567750
vt 0.381010 0.586840
vt 0.373610 0.587800
vt 0.388210 0.590570
vt 0.470990 0.527540
vt 0.469780 0.518810
vt 0.482310 0.516720
vt 0.483510 0.527290
vt 0.482350 0.538470
vt 0.472280 0.536750
vt 0.459890 0.526280
vt 0.458980 0.518030
vt 0.448540 0.515280
vt 0.449640 0.524480
vt 0.461550 0.535150
vt 0.451230 0.533550
vt 0.441890 0.531660
vt 0.440540 0.523030
vt 0.430690 0.521810
vt 0.431610 0.530480
vt 0.444150 0.539850
vt 0.433610 0.539200
vt 0.453610 0.541660
vt 0.447940 0.551390
vt 0.435860 0.550520
vt 0.456790 0.552140
vt 0.463550 0.542630
vt 0.466560 0.551450
vt 0.962700 0.338980
vt 0.982080 0.343370
vt 0.979940 0.351500
vt 0.961040 0.349160
vt 0.977910 0.362460
vt 0.959460 0.359670
vt 0.976060 0.374940
vt 0.958080 0.372690
vt 0.473090 0.543250
vt 0.475540 0.549390
vt 0.482530 0.543030
vt 0.482750 0.547920
vt 0.974180 0.385470
vt 0.958580 0.384820
vt 0.409310 0.582360
vt 0.938220 0.371920
vt 0.937060 0.359150
vt 0.940900 0.385860
vt 0.937490 0.347010
vt 0.938930 0.335990
vt 0.424930 0.548850
vt 0.423140 0.538380
vt 0.420720 0.530040
vt 0.416970 0.547910
vt 0.413280 0.540250
vt 0.410070 0.533460
vt 0.418780 0.521910
vt 0.404850 0.524600
vt 0.401750 0.543160
vt 0.394880 0.538680
vt 0.405780 0.547030
vt 0.410630 0.550560
vt 0.385230 0.553110
vt 0.387920 0.543320
vt 0.387730 0.532060
vt 0.392160 0.521250
vt 0.382990 0.541720
vt 0.379480 0.552580
vt 0.383470 0.560980
vt 0.377900 0.561180
vt 0.367840 0.568480
vt 0.368640 0.560790
vt 0.366640 0.578440
s 1
usemtl Bodymat
f 4/1/1 29/2/2 2/3/3 1/4/4
f 1/4/4 2/3/3 26/5/5 3/6/6
f 3/6/6 8/7/7 5/8/8 1/4/4
f 1/4/4 5/8/8 6/9/9 4/1/1
f 5/8/8 7/10/10 60/11/11 6/9/9
f 5/8/8 8/7/7 9/12/12 7/10/10
f 10/13/13 11/14/14 7/10/10 9/12/12
f 10/13/13 12/15/15 13/16/16 11/14/14
f 15/17/17 13/16/16 12/15/15 14/18/18
f 16/19/19 17/20/20 15/17/17 14/18/18
f 16/19/19 18/21/21 19/22/22 17/20/20
f 19/22/22 18/21/21 20/23/23 21/24/24
f 21/25/24 20/26/23 22/27/25 23/28/26
f 23/28/26 22/27/25 24/29/27 25/30/28
f 25/30/28 24/29/27 26/5/5 2/3/3
f 23/28/26 25/30/28 27/31/29 30/32/30
f 25/30/28 2/3/3 29/2/2 27/31/29
f 31/33/31 30/32/30 27/31/29 28/34/32
f 28/34/32 27/31/29 29/2/2 57/35/33
f 31/33/31 33/36/34 32/37/35 30/32/30
f 23/28/26 30/32/30 32/37/35 21/25/24
f 32/38/35 33/39/34 36/40/36 34/41/37
f 21/24/24 32/38/35 34/41/37 19/22/22
f 35/42/38 17/20/20 19/22/22 34/41/37
f 35/42/38 34/41/37 36/40/36 37/43/39
f 37/43/39 36/40/36 38/44/40 39/45/41
f 33/39/34 41/46/42 38/44/40 36/40/36
f 39/45/41 38/44/40 40/47/43 76/48/44
f 42/49/45 40/47/43 38/44/40 41/46/42
f 44/50/46 42/51/45 41/52/42 43/53/47
f 41/52/42 33/36/34 31/33/31 43/53/47
f 45/54/48 47/55/49 44/50/46 43/53/47
f 43/53/47 31/33/31 28/34/32 45/54/48
f 45/54/48 28/34/32 57/35/33 46/56/50
f 45/54/48 46/56/50 49/57/51 47/55/49
f 44/50/46 47/55/49 48/58/52 83/59/53
f 47/55/49 49/57/51 50/60/54 48/58/52
f 52/61/55 50/60/54 49/57/51 51/62/56
f 51/62/56 49/57/51 46/56/50 54/63/57
f 51/62/56 53/64/58 95/65/59 52/61/55
f 54/63/57 55/66/60 53/64/58 51/62/56
f 54/63/57 46/56/50 57/35/33 56/67/61
f 55/66/60 54/63/57 56/67/61 58/68/62
f 56/67/61 57/35/33 29/2/2 4/1/1
f 58/68/62 56/67/61 4/1/1 6/9/9
f 6/9/9 60/11/11 59/69/63 58/68/62
f 58/68/62 59/69/63 62/70/64 55/66/60
f 73/71/65 61/72/66 59/69/63 60/11/11
f 59/69/63 61/72/66 64/73/67 62/70/64
f 55/66/60 62/70/64 63/74/68 53/64/58
f 65/75/69 63/74/68 62/70/64 64/73/67
f 67/76/70 65/75/69 64/73/67 66/77/71
f 61/72/66 69/78/72 66/77/71 64/73/67
f 74/79/73 67/76/70 66/77/71 68/80/74
f 66/77/71 69/78/72 71/81/75 68/80/74
f 69/78/72 70/82/76 72/83/77 71/81/75
f 70/82/76 69/78/72 61/72/66 73/71/65
f 37/43/39 71/81/75 72/83/77 35/42/38
f 39/45/41 68/80/74 71/81/75 37/43/39
f 70/82/76 13/16/16 15/17/17 72/83/77
f 72/83/77 15/17/17 17/20/20 35/42/38
f 73/71/65 11/14/14 13/16/16 70/82/76
f 60/11/11 7/10/10 11/14/14 73/71/65
f 68/80/74 39/45/41 76/48/44 74/79/73
f 98/84/78 67/76/70 74/79/73 75/85/79
f 74/79/73 76/48/44 77/86/80 75/85/79
f 76/48/44 40/47/43 79/87/81 77/86/80
f 75/85/79 77/86/80 78/88/82 120/89/83
f 79/87/81 80/90/84 78/88/82 77/86/80
f 81/91/85 82/92/86 80/90/84 79/87/81
f 79/87/81 40/47/43 42/49/45 81/91/85
f 81/93/85 83/59/53 84/94/87 82/95/86
f 81/93/85 42/51/45 44/50/46 83/59/53
f 86/96/88 84/94/87 83/59/53 48/58/52
f 82/95/86 84/94/87 85/97/89 122/98/90
f 84/94/87 86/96/88 87/99/91 85/97/89
f 89/100/92 87/99/91 86/96/88 88/101/93
f 48/58/52 50/60/54 88/101/93 86/96/88
f 88/101/93 90/102/94 91/103/95 89/100/92
f 90/102/94 88/101/93 50/60/54 52/61/55
f 90/102/94 92/104/96 93/105/97 91/103/95
f 52/61/55 95/65/59 92/104/96 90/102/94
f 92/104/96 94/106/98 104/107/99 93/105/97
f 96/108/100 94/106/98 92/104/96 95/65/59
f 53/64/58 63/74/68 96/108/100 95/65/59
f 96/108/100 63/74/68 65/75/69 97/109/101
f 96/108/100 97/109/101 99/110/102 94/106/98
f 97/109/101 65/75/69 67/76/70 98/84/78
f 97/109/101 98/84/78 100/111/103 99/110/102
f 104/107/99 94/106/98 99/110/102 101/112/104
f 99/110/102 100/111/103 103/113/105 101/112/104
f 102/114/106 105/115/107 104/107/99 101/112/104
f 115/116/108 102/114/106 101/112/104 103/113/105
f 93/105/97 104/107/99 105/115/107 106/117/109
f 107/118/110 108/119/111 106/117/109 105/115/107
f 110/120/112 107/118/110 105/115/107 102/114/106
f 108/119/111 107/118/110 109/121/113 176/122/114
f 109/121/113 107/118/110 110/120/112 111/123/115
f 111/123/115 110/120/112 112/124/116 113/125/117
f 112/124/116 110/120/112 102/114/106 115/116/108
f 114/126/118 130/127/119 113/125/117 112/124/116
f 114/126/118 112/124/116 115/116/108 116/128/120
f 116/128/120 115/116/108 103/113/105 118/129/121
f 116/128/120 117/130/122 128/131/123 114/126/118
f 118/129/121 119/132/124 117/130/122 116/128/120
f 78/88/82 119/132/124 118/129/121 120/89/83
f 100/111/103 120/89/83 118/129/121 103/113/105
f 120/89/83 100/111/103 98/84/78 75/85/79
f 117/130/122 119/132/124 121/133/125 123/134/126
f 121/133/125 119/132/124 78/88/82 80/90/84
f 121/133/125 80/90/84 82/92/86 122/135/90
f 123/134/126 121/133/125 122/135/90 124/136/127
f 123/134/126 124/136/127 126/137/128 125/138/129
f 128/131/123 117/130/122 123/134/126 125/138/129
f 125/138/129 126/137/128 166/139/130 127/140/131
f 128/131/123 125/138/129 127/140/131 129/141/132
f 129/141/132 130/127/119 114/126/118 128/131/123
f 131/142/133 132/143/134 130/144/119 129/145/132
f 129/145/132 127/146/131 133/147/135 131/142/133
f 134/148/136 135/149/137 132/143/134 131/142/133
f 131/142/133 133/147/135 137/150/138 134/148/136
f 186/151/139 135/149/137 134/148/136 136/152/140
f 134/148/136 137/150/138 139/153/141 136/152/140
f 133/147/135 169/154/142 138/155/143 137/150/138
f 137/150/138 138/155/143 142/156/144 139/153/141
f 136/152/140 139/153/141 140/157/145 193/158/146
f 140/157/145 139/153/141 141/159/147 199/160/148
f 139/153/141 142/156/144 144/161/149 141/159/147
f 143/162/150 145/163/151 144/164/149 142/165/144
f 143/162/150 142/165/144 138/166/143 170/167/152
f 148/168/153 146/169/154 145/163/151 143/162/150
f 147/170/155 146/169/154 148/168/153 150/171/156
f 148/168/153 143/162/150 170/167/152 149/172/157
f 148/168/153 149/172/157 151/173/158 150/171/156
f 151/173/158 154/174/159 152/175/160 150/171/156
f 153/176/161 152/175/160 154/174/159 155/177/162
f 155/177/162 154/174/159 156/178/163 157/179/164
f 159/180/165 156/178/163 154/174/159 151/173/158
f 157/179/164 156/178/163 158/181/166 176/182/114
f 161/183/167 158/181/166 156/178/163 159/180/165
f 151/173/158 149/172/157 160/184/168 159/180/165
f 159/180/165 160/184/168 163/185/169 161/183/167
f 175/186/170 158/187/166 161/188/167 162/189/171
f 163/190/169 164/191/172 162/189/171 161/188/167
f 163/190/169 165/192/173 167/193/174 164/191/172
f 163/185/169 160/184/168 168/194/175 165/195/173
f 165/195/173 168/194/175 169/196/142 166/197/130
f 165/192/173 166/198/130 126/199/128 167/193/174
f 169/196/142 168/194/175 170/167/152 138/166/143
f 168/194/175 160/184/168 149/172/157 170/167/152
f 127/146/131 166/200/130 169/154/142 133/147/135
f 167/193/174 171/201/176 172/202/177 164/191/172
f 124/203/127 171/201/176 167/193/174 126/199/128
f 122/98/90 85/97/89 171/201/176 124/203/127
f 171/201/176 85/97/89 87/99/91 172/202/177
f 164/191/172 172/202/177 173/204/178 162/189/171
f 173/204/178 172/202/177 87/99/91 89/100/92
f 91/103/95 174/205/179 173/204/178 89/100/92
f 173/204/178 174/205/179 175/186/170 162/189/171
f 175/186/170 174/205/179 106/117/109 108/119/111
f 91/103/95 93/105/97 106/117/109 174/205/179
f 175/186/170 108/119/111 176/122/114 158/187/166
f 109/206/113 177/207/180 157/179/164 176/182/114
f 157/179/164 177/207/180 179/208/181 155/177/162
f 111/209/115 178/210/182 177/207/180 109/206/113
f 177/207/180 178/210/182 181/211/183 179/208/181
f 155/177/162 179/208/181 180/212/184 153/176/161
f 180/212/184 179/208/181 181/211/183 182/213/185
f 182/213/185 181/211/183 183/214/186 184/215/187
f 178/210/182 185/216/188 183/214/186 181/211/183
f 186/151/139 184/215/187 183/214/186 135/149/137
f 185/216/188 132/143/134 135/149/137 183/214/186
f 113/217/117 130/144/119 132/143/134 185/216/188
f 111/209/115 113/217/117 185/216/188 178/210/182
f 184/215/187 186/151/139 189/218/189 188/219/190
f 182/213/185 184/215/187 187/220/191 198/221/192
f 188/219/190 190/222/193 187/220/191 184/215/187
f 188/219/190 189/218/189 191/223/194 190/222/193
f 195/224/195 192/225/196 191/223/194 189/218/189
f 136/152/140 193/158/146 192/225/196 195/224/195
f 192/225/196 193/158/146 196/226/197 194/227/198
f 136/152/140 195/224/195 189/218/189 186/151/139
f 193/158/146 140/157/145 197/228/199 196/226/197
f 147/170/155 199/160/148 141/159/147
f 199/160/148 147/170/155 180/212/184
f 190/222/193 197/228/199 187/220/191
f 190/222/193 191/223/194 197/228/199
f 191/223/194 192/225/196 197/228/199
f 192/225/196 194/227/198 197/228/199
f 194/227/198 196/226/197 197/228/199
f 197/228/199 198/221/192 187/220/191
f 147/170/155 150/171/156 153/176/161
f 150/171/156 152/175/160 153/176/161
f 153/176/161 180/212/184 147/170/155
f 182/213/185 198/221/192 140/157/145
f 198/221/192 197/228/199 140/157/145
f 180/212/184 182/213/185 199/160/148
f 199/160/148 182/213/185 140/157/145
f 141/159/147 144/161/149 145/163/151
f 145/163/151 146/169/154 141/159/147
f 146/169/154 147/170/155 141/159/147
f 12/15/15 26/5/5 20/26/23
f 9/12/12 8/7/7 3/6/6
f 3/6/6 26/5/5 9/12/12
f 26/5/5 24/29/27 22/27/25
f 9/12/12 26/5/5 12/15/15
f 22/27/25 20/26/23 26/5/5
f 20/26/23 18/21/21 14/18/18
f 18/21/21 16/19/19 14/18/18
f 14/18/18 12/15/15 20/26/23
f 12/15/15 10/13/13 9/12/12
