# Blender 5.0.1
# www.blender.org
mtllib shoulder_t_l.mtl
o Tops.001
v 0.415117 3.128659 -0.169256
v 0.396292 3.101466 -0.212531
v 0.367865 3.119913 -0.205710
v 0.387562 3.150285 -0.163016
v 0.415930 3.144179 -0.114690
v 0.388204 3.159939 -0.111141
v 0.368318 3.003465 -0.239910
v 0.366602 2.964436 -0.233734
v 0.374562 3.030555 -0.236359
v 0.352394 3.074330 -0.230866
v 0.382173 3.062047 -0.231733
v 0.382229 3.148717 -0.061192
v 0.416700 3.130771 -0.058376
v 0.359514 2.914344 -0.228411
v 0.360368 2.859812 -0.223808
v 0.358981 2.816196 -0.208745
v 0.377727 3.122746 -0.015069
v 0.403502 3.109937 -0.010592
v 0.395976 3.066255 0.026808
v 0.373219 2.961608 0.087916
v 0.384594 3.011376 0.065127
v 0.363047 2.901888 0.072157
v 0.439310 3.123646 -0.115112
v 0.439493 3.106617 -0.167924
v 0.392949 3.026233 -0.229836
v 0.465115 3.100296 -0.063170
v 0.445567 3.090532 -0.018619
v 0.407849 3.052945 -0.225045
v 0.469483 2.977147 -0.201510
v 0.498093 3.004996 -0.181240
v 0.522807 2.925014 -0.164987
v 0.490175 2.915532 -0.191767
v 0.538125 2.937762 -0.134336
v 0.499156 3.037573 -0.153655
v 0.545664 2.946843 -0.099212
v 0.499933 3.055734 -0.116558
v 0.461540 2.908813 -0.209778
v 0.447133 2.968483 -0.209454
v 0.495195 2.833256 -0.177731
v 0.465749 2.835339 -0.194414
v 0.432991 2.903756 -0.212902
v 0.406672 2.890231 -0.209714
v 0.397151 2.944489 -0.218303
v 0.413253 2.959821 -0.220880
v 0.438069 2.831538 -0.200292
v 0.411855 2.830917 -0.201085
v 0.310873 2.801001 -0.044812
v 0.342788 2.855538 -0.044860
v 0.346401 2.850474 -0.081583
v 0.293048 2.801718 -0.088642
v 0.356965 2.848807 -0.108468
v 0.296763 2.805843 -0.120144
v 0.372352 2.814775 0.013448
v 0.376872 2.885488 0.021942
v 0.350282 2.865172 -0.013391
v 0.338345 2.805612 -0.014200
v 0.537393 2.840658 -0.124460
v 0.521742 2.836466 -0.153866
v 0.383792 2.837150 -0.203354
v 0.363479 2.833667 -0.192520
v 0.361523 2.888223 -0.197351
v 0.380032 2.890375 -0.208356
v 0.362850 2.852667 -0.133585
v 0.307020 2.810894 -0.146777
v 0.342053 2.828719 -0.181778
v 0.323309 2.819376 -0.167751
v 0.361205 2.863186 -0.157947
v 0.359746 2.881545 -0.178570
v 0.438197 2.938687 0.042071
v 0.406555 3.002654 0.051376
v 0.393615 2.960562 0.065187
v 0.405574 2.911943 0.043583
v 0.381856 2.920264 0.050716
v 0.367297 2.887116 -0.007804
v 0.360437 2.869195 -0.051175
v 0.547102 2.841666 -0.094339
v 0.535762 2.967062 -0.068766
v 0.539962 2.842475 -0.063333
v 0.405738 2.821096 0.030282
v 0.443466 2.826420 0.031303
v 0.490100 3.062902 -0.075908
v 0.466847 3.060144 -0.029798
v 0.516799 2.972687 -0.030807
v 0.434704 3.041103 0.019263
v 0.482008 2.963900 0.009247
v 0.467359 3.054519 -0.192560
v 0.472612 3.083211 -0.162365
v 0.475342 3.097355 -0.117965
v 0.424451 3.060267 0.019743
v 0.428625 3.079858 -0.204874
v 0.411714 2.977503 -0.225138
v 0.391709 2.964089 -0.227034
v 0.374672 2.928989 -0.213032
v 0.365993 2.891751 -0.206196
v 0.363381 2.850092 -0.192608
v 0.496024 2.731892 -0.162298
v 0.476254 2.733259 -0.176074
v 0.468245 2.780985 -0.183830
v 0.492824 2.778607 -0.168643
v 0.451421 2.738430 -0.187986
v 0.424903 2.746744 -0.199293
v 0.416128 2.791297 -0.199573
v 0.442250 2.785064 -0.193600
v 0.291299 2.742207 -0.084047
v 0.325864 2.746034 -0.032888
v 0.312365 2.766718 -0.040043
v 0.286643 2.764780 -0.087249
v 0.293215 2.742265 -0.125077
v 0.287521 2.767802 -0.123247
v 0.348649 2.768641 -0.011087
v 0.353569 2.745115 -0.003946
v 0.388549 2.735026 0.025386
v 0.383663 2.765080 0.015715
v 0.526589 2.726826 -0.113614
v 0.512989 2.731034 -0.144377
v 0.515039 2.777615 -0.148598
v 0.532118 2.774441 -0.117837
v 0.395635 2.753860 -0.200866
v 0.371061 2.758410 -0.196320
v 0.367708 2.790400 -0.191444
v 0.387214 2.793668 -0.202455
v 0.301676 2.770182 -0.151513
v 0.305149 2.747159 -0.154808
v 0.323471 2.751669 -0.175273
v 0.319310 2.776460 -0.171036
v 0.340929 2.785175 -0.181553
v 0.352480 2.756264 -0.187464
v 0.534372 2.723576 -0.082519
v 0.539770 2.771403 -0.087683
v 0.536854 2.768743 -0.054367
v 0.532772 2.723704 -0.048461
v 0.421630 2.729726 0.028426
v 0.413860 2.762941 0.028226
v 0.453902 2.727178 0.026152
v 0.447112 2.760826 0.026351
v 0.526188 2.842697 -0.027335
v 0.522573 2.769141 -0.023621
v 0.499673 2.839772 0.004201
v 0.502153 2.764718 0.000489
v 0.519346 2.723581 -0.019598
v 0.501484 2.724796 0.003356
v 0.452056 3.015725 -0.208888
v 0.512044 2.716441 -0.141884
v 0.504477 2.720360 -0.142301
v 0.488961 2.719261 -0.154704
v 0.495582 2.717158 -0.159016
v 0.471960 2.720252 -0.166699
v 0.476903 2.719873 -0.172871
v 0.450398 2.726583 -0.179298
v 0.452818 2.726331 -0.184126
v 0.426591 2.735344 -0.188029
v 0.425475 2.737354 -0.196555
v 0.295333 2.737945 -0.124698
v 0.308937 2.734124 -0.125805
v 0.302623 2.734569 -0.085040
v 0.291983 2.738176 -0.082967
v 0.340905 2.735575 -0.036333
v 0.326903 2.741311 -0.031808
v 0.519651 2.711344 -0.110398
v 0.526815 2.712881 -0.111287
v 0.533054 2.710232 -0.080872
v 0.522648 2.709319 -0.082479
v 0.399656 2.742075 -0.191033
v 0.395971 2.747112 -0.199299
v 0.377323 2.747366 -0.188535
v 0.371268 2.753459 -0.195546
v 0.335494 2.744381 -0.170736
v 0.320413 2.740111 -0.153213
v 0.306582 2.742568 -0.154979
v 0.324718 2.747748 -0.174925
v 0.353105 2.751481 -0.186682
v 0.362500 2.745035 -0.181124
v 0.365571 2.732635 -0.009916
v 0.353842 2.738500 -0.001951
v 0.387944 2.727996 0.024532
v 0.394354 2.724123 0.012989
v 0.508723 2.709087 -0.023915
v 0.520300 2.709216 -0.051023
v 0.530510 2.711661 -0.047341
v 0.518362 2.712703 -0.017977
v 0.448489 2.714419 0.017030
v 0.491424 2.711942 -0.000925
v 0.497789 2.714585 0.006593
v 0.450619 2.717317 0.027503
v 0.421869 2.718610 0.019417
v 0.420026 2.721748 0.031004
v 0.432904 2.996607 -0.218291
v 0.473498 2.732286 -0.164932
v 0.490976 2.731998 -0.151721
v 0.506736 2.732763 -0.135958
v 0.426880 2.743465 -0.185178
v 0.450927 2.736562 -0.175859
v 0.305005 2.739922 -0.085115
v 0.341513 2.741531 -0.035626
v 0.311842 2.739281 -0.126435
v 0.525236 2.727987 -0.085235
v 0.519525 2.733005 -0.113173
v 0.400337 2.748491 -0.187980
v 0.379296 2.754795 -0.186719
v 0.323611 2.745162 -0.153450
v 0.338659 2.749658 -0.170714
v 0.364444 2.751577 -0.180905
v 0.367244 2.739128 -0.010774
v 0.396427 2.731571 0.012992
v 0.523238 2.726066 -0.053488
v 0.512678 2.725040 -0.025960
v 0.495634 2.723822 -0.004824
v 0.451952 2.724331 0.014988
v 0.423999 2.727354 0.017632
v 0.467711 2.778549 -0.168360
v 0.488722 2.778515 -0.156122
v 0.504767 2.782085 -0.139437
v 0.421025 2.784367 -0.184689
v 0.444731 2.778980 -0.177977
v 0.305312 2.766600 -0.083600
v 0.342069 2.767212 -0.035888
v 0.307186 2.767366 -0.125296
v 0.517174 2.784512 -0.118193
v 0.524199 2.784533 -0.092065
v 0.394821 2.786537 -0.188228
v 0.375080 2.783494 -0.187046
v 0.321483 2.770650 -0.149225
v 0.338124 2.775258 -0.168728
v 0.358817 2.779538 -0.179194
v 0.367227 2.768364 -0.016047
v 0.395404 2.765223 0.005497
v 0.525331 2.779604 -0.060681
v 0.519613 2.776013 -0.032061
v 0.501391 2.770346 -0.008841
v 0.455925 2.763238 0.013869
v 0.424633 2.762461 0.017244
v 0.470254 2.826649 -0.177859
v 0.490377 2.825958 -0.164804
v 0.506923 2.832496 -0.148032
v 0.421878 2.826570 -0.193561
v 0.446945 2.824955 -0.189503
v 0.323537 2.807634 -0.096782
v 0.340727 2.807351 -0.061184
v 0.322622 2.808125 -0.122513
v 0.518647 2.834350 -0.127293
v 0.525598 2.837049 -0.104265
v 0.389050 2.828235 -0.192207
v 0.366992 2.827367 -0.173144
v 0.325273 2.809906 -0.143638
v 0.337803 2.815213 -0.159046
v 0.351620 2.820878 -0.169631
v 0.356327 2.811581 -0.043358
v 0.386926 2.815644 -0.017463
v 0.527607 2.836948 -0.074838
v 0.521876 2.830953 -0.043903
v 0.508295 2.824311 -0.016866
v 0.461593 2.822490 0.006516
v 0.415937 2.817404 -0.000472
v 0.399749 2.870881 -0.113012
vn 0.5249 0.7180 -0.4570
vn 0.3427 0.5212 -0.7816
vn -0.4617 0.7002 -0.5445
vn -0.1709 0.9110 -0.3753
vn 0.5680 0.8220 -0.0423
vn -0.1743 0.9843 0.0290
vn -0.8911 0.4137 -0.1864
vn -0.1536 0.3112 -0.9379
vn -0.2891 0.9077 0.3042
vn 0.4649 0.8295 0.3095
vn -0.5372 0.6763 0.5040
vn -0.0212 0.8391 0.5436
vn 0.5502 0.8314 -0.0777
vn 0.5668 0.6864 -0.4557
vn 0.2981 0.0667 -0.9522
vn -0.5474 -0.0925 -0.8317
vn -0.5163 0.0587 -0.8544
vn 0.6857 0.6732 0.2768
vn 0.5949 0.5783 0.5583
vn 0.3719 0.1895 -0.9087
vn 0.5051 0.0675 -0.8604
vn 0.7523 0.2086 -0.6250
vn 0.7844 0.0241 -0.6198
vn 0.5718 -0.0410 -0.8194
vn 0.9330 0.1377 -0.3325
vn 0.8576 0.3939 -0.3307
vn 0.9825 0.1854 -0.0174
vn 0.8692 0.4910 -0.0588
vn 0.3551 -0.0683 -0.9323
vn 0.3469 0.0174 -0.9377
vn 0.5910 -0.1308 -0.7960
vn 0.3828 -0.1529 -0.9111
vn 0.1054 -0.1165 -0.9876
vn -0.0284 -0.1460 -0.9889
vn 0.1864 -0.3146 -0.9308
vn 0.1490 -0.0867 -0.9850
vn 0.1420 -0.1478 -0.9788
vn 0.0446 -0.0995 -0.9940
vn -0.8655 0.2640 0.4256
vn -0.7609 0.6473 0.0449
vn -0.4669 0.8775 -0.1098
vn -0.8887 0.4305 0.1575
vn 0.0424 0.9976 -0.0549
vn -0.8548 0.4957 -0.1536
vn -0.5843 -0.0672 0.8088
vn -0.7313 -0.0275 0.6815
vn -0.8683 0.3591 0.3421
vn -0.7466 0.0558 0.6630
vn 0.9272 -0.0795 -0.3661
vn 0.7841 -0.1086 -0.6110
vn -0.2072 -0.0962 -0.9736
vn -0.5683 -0.0351 -0.8221
vn 0.4104 -0.0058 -0.9119
vn -0.1783 -0.1773 -0.9679
vn 0.2854 0.9577 0.0361
vn -0.8307 0.4686 -0.3006
vn -0.7624 0.2048 -0.6139
vn -0.8128 0.4048 -0.4190
vn 0.1974 0.9803 0.0003
vn 0.2220 0.7668 -0.6023
vn 0.4659 0.0296 0.8844
vn 0.5067 0.2183 0.8340
vn 0.5643 -0.1110 0.8181
vn 0.0791 -0.2483 0.9655
vn -0.3337 -0.2725 0.9024
vn -0.8799 0.1540 0.4496
vn 0.5238 -0.5262 0.6699
vn 0.2896 0.0353 0.9565
vn 0.5306 0.8115 -0.2450
vn 0.9989 -0.0380 -0.0287
vn 0.9156 0.2746 0.2938
vn 0.9482 0.0108 0.3175
vn -0.1976 -0.1063 0.9745
vn 0.3216 -0.0564 0.9452
vn 0.8113 0.5188 0.2696
vn 0.7024 0.4756 0.5296
vn 0.8011 0.2524 0.5426
vn 0.5912 0.3880 0.7071
vn 0.6381 0.1692 0.7511
vn 0.6107 0.3547 -0.7080
vn 0.6944 0.5912 -0.4103
vn 0.7190 0.6924 -0.0600
vn -0.4502 0.4875 0.7481
vn 0.5167 0.4411 0.7338
vn -0.3017 0.2926 0.9074
vn 0.4856 0.4204 -0.7665
vn 0.2978 -0.0841 -0.9509
vn 0.3094 -0.2810 -0.9085
vn 0.4044 -0.3606 -0.8405
vn -0.2680 -0.1661 -0.9490
vn -0.1382 0.0840 -0.9868
vn 0.7558 -0.2083 -0.6208
vn -0.9405 -0.3243 0.1013
vn 0.9972 0.0061 -0.0740
vn 0.6307 -0.0915 -0.7706
vn 0.4750 -0.0938 -0.8750
vn 0.4288 -0.1101 -0.8967
vn 0.6005 -0.1142 -0.7914
vn 0.3553 -0.0831 -0.9310
vn 0.2077 -0.0472 -0.9770
vn 0.1346 -0.0308 -0.9904
vn 0.2811 -0.0732 -0.9569
vn -0.9133 -0.2588 0.3146
vn -0.7527 -0.1110 0.6489
vn -0.8014 -0.0701 0.5941
vn -0.9648 -0.0345 0.2605
vn -0.9418 -0.2516 -0.2229
vn -0.9770 0.0191 -0.2122
vn -0.6405 -0.0500 0.7664
vn -0.6364 0.0727 0.7679
vn -0.3863 0.1127 0.9155
vn -0.4942 -0.0159 0.8692
vn 0.9293 -0.1152 -0.3508
vn 0.8173 -0.1043 -0.5667
vn 0.7952 -0.1198 -0.5945
vn 0.9210 -0.1224 -0.3699
vn -0.0544 -0.0394 -0.9977
vn -0.3450 -0.0007 -0.9386
vn -0.3947 -0.0204 -0.9186
vn -0.1423 -0.0248 -0.9895
vn -0.8528 0.0424 -0.5205
vn -0.8236 -0.1499 -0.5470
vn -0.5568 -0.0329 -0.8300
vn -0.6413 0.0557 -0.7652
vn -0.4412 0.0250 -0.8971
vn -0.3961 0.0237 -0.9179
vn 0.9905 -0.1095 -0.0833
vn 0.9928 -0.0981 -0.0684
vn 0.9638 -0.0428 0.2631
vn 0.9663 -0.0686 0.2482
vn -0.0317 0.0746 0.9967
vn -0.1357 -0.0219 0.9905
vn 0.3339 0.0665 0.9402
vn 0.2985 -0.0064 0.9544
vn 0.8364 0.0351 0.5470
vn 0.8497 -0.0048 0.5273
vn 0.6027 0.0080 0.7980
vn 0.5744 0.0032 0.8186
vn 0.8513 -0.0136 0.5246
vn 0.5813 0.0480 0.8123
vn 0.4427 0.0922 -0.8919
vn 0.6908 -0.5185 -0.5040
vn -0.7373 -0.4205 0.5288
vn -0.5459 -0.5354 0.6445
vn 0.5333 -0.5679 -0.6269
vn -0.5064 -0.5975 0.6217
vn 0.3427 -0.5881 -0.7326
vn -0.4796 -0.6732 0.5628
vn 0.1608 -0.6149 -0.7721
vn -0.3860 -0.8096 0.4422
vn 0.0213 -0.6307 -0.7758
vn -0.4823 -0.8629 -0.1510
vn 0.0991 -0.9928 -0.0680
vn -0.0068 -0.9986 0.0515
vn -0.5485 -0.8000 0.2434
vn 0.0414 -0.9967 -0.0692
vn -0.5026 -0.7653 0.4022
vn -0.8832 -0.4220 0.2045
vn 0.8038 -0.5032 -0.3174
vn 0.8118 -0.5810 -0.0589
vn -0.8986 -0.4384 0.0187
vn -0.2637 -0.9306 0.2539
vn -0.1795 -0.6274 -0.7577
vn -0.1222 -0.9916 0.0421
vn -0.2648 -0.5906 -0.7623
vn 0.0865 -0.9783 -0.1880
vn 0.1193 -0.9800 -0.1591
vn -0.3981 -0.8308 -0.3889
vn -0.2943 -0.7364 -0.6091
vn -0.2392 -0.6707 -0.7020
vn 0.0779 -0.9970 0.0042
vn -0.0765 -0.9825 -0.1697
vn -0.5502 -0.7003 0.4547
vn -0.4470 -0.6874 0.5724
vn -0.1205 -0.9637 -0.2383
vn -0.6533 -0.6784 -0.3362
vn -0.8089 -0.5629 -0.1698
vn 0.7731 -0.6014 0.2014
vn 0.6691 -0.5994 0.4395
vn -0.1900 -0.8980 -0.3969
vn -0.3365 -0.8289 -0.4469
vn 0.4321 -0.5161 0.7396
vn 0.1831 -0.5604 0.8077
vn -0.1412 -0.9313 -0.3359
vn -0.1395 -0.6271 0.7664
vn -0.5242 -0.3468 -0.7777
vn 0.3473 -0.0117 -0.9377
vn -0.5048 -0.0126 0.8632
vn -0.6408 -0.0040 0.7677
vn -0.8197 0.0033 0.5728
vn -0.2583 -0.0787 0.9629
vn -0.3978 -0.0517 0.9160
vn 0.9495 -0.0170 -0.3132
vn 0.7516 -0.0427 -0.6582
vn 0.9678 -0.0236 0.2506
vn -0.9965 0.0317 0.0778
vn -0.9409 0.0097 0.3386
vn -0.0781 -0.0721 0.9943
vn 0.1791 -0.0230 0.9836
vn 0.8421 -0.0589 0.5361
vn 0.5821 -0.0683 0.8102
vn 0.4084 -0.0340 0.9122
vn 0.6222 -0.1301 -0.7720
vn 0.4074 -0.1382 -0.9027
vn -0.9852 0.0584 -0.1609
vn -0.8818 0.0630 -0.4673
vn -0.5825 0.0084 -0.8128
vn -0.3197 -0.0364 -0.9468
vn 0.0528 -0.0790 -0.9955
vn -0.4710 0.1111 0.8751
vn -0.6340 0.0949 0.7675
vn -0.8067 0.0750 0.5861
vn -0.1503 0.0972 0.9839
vn -0.3406 0.1058 0.9343
vn 0.9162 -0.2124 -0.3398
vn 0.7454 -0.2156 -0.6307
vn 0.9707 -0.1493 0.1881
vn -0.9293 0.0492 0.3661
vn -0.9917 0.0311 0.1250
vn 0.0862 0.0447 0.9953
vn 0.3320 -0.0452 0.9422
vn 0.8589 -0.1076 0.5007
vn 0.6386 -0.0964 0.7635
vn 0.4412 -0.0884 0.8931
vn 0.6251 -0.2275 -0.7467
vn 0.4847 -0.2181 -0.8471
vn -0.9942 0.0195 -0.1059
vn -0.9131 0.0115 -0.4075
vn -0.5858 -0.0330 -0.8098
vn -0.2586 -0.0896 -0.9618
vn 0.1541 -0.1719 -0.9730
vn -0.4210 -0.4590 0.7823
vn -0.5165 -0.4211 0.7456
vn -0.6161 -0.5498 0.5641
vn -0.1069 -0.4466 0.8883
vn -0.2842 -0.3898 0.8759
vn 0.7734 -0.5860 -0.2419
vn 0.6943 -0.5595 -0.4526
vn 0.8231 -0.5641 0.0655
vn -0.7398 -0.5623 0.3695
vn -0.7589 -0.6332 0.1520
vn 0.1949 -0.5000 0.8438
vn 0.4524 -0.5854 0.6727
vn 0.8008 -0.5057 0.3209
vn 0.6770 -0.5099 0.5308
vn 0.5344 -0.4951 0.6850
vn 0.5845 -0.5920 -0.5549
vn 0.4796 -0.5910 -0.6486
vn -0.7169 -0.6873 -0.1166
vn -0.6219 -0.6923 -0.3660
vn -0.4365 -0.6426 -0.6297
vn -0.1557 -0.6509 -0.7430
vn 0.2418 -0.6314 -0.7368
vn 0.1414 -0.9857 -0.0917
vt 0.542300 0.855600
vt 0.544400 0.823400
vt 0.560900 0.830000
vt 0.557200 0.860300
vt 0.541100 0.884000
vt 0.554300 0.887100
vt 0.568400 0.799400
vt 0.549900 0.792700
vt 0.464600 0.833900
vt 0.451700 0.836100
vt 0.447100 0.813000
vt 0.459000 0.810600
vt 0.442700 0.789500
vt 0.455000 0.786500
vt 0.712800 0.203300
vt 0.737800 0.199100
vt 0.739900 0.211200
vt 0.715400 0.211200
vt 0.813600 0.201700
vt 0.831900 0.211200
vt 0.813600 0.211200
vt 0.693700 0.211200
vt 0.691800 0.189600
vt 0.671600 0.211200
vt 0.673900 0.192600
vt 0.794600 0.211200
vt 0.793100 0.199300
vt 0.789200 0.163100
vt 0.760400 0.163100
vt 0.756200 0.141600
vt 0.784200 0.143300
vt 0.732300 0.140600
vt 0.734500 0.166400
vt 0.710600 0.138100
vt 0.710100 0.168700
vt 0.808500 0.145600
vt 0.807400 0.166400
vt 0.780500 0.117600
vt 0.803700 0.120500
vt 0.828700 0.150100
vt 0.851100 0.153700
vt 0.853100 0.179600
vt 0.832700 0.173700
vt 0.824900 0.122600
vt 0.848300 0.123800
vt 0.536000 0.118700
vt 0.533800 0.150400
vt 0.509900 0.148400
vt 0.509900 0.117000
vt 0.984100 0.117000
vt 0.984100 0.148400
vt 0.967700 0.150800
vt 0.966100 0.118800
vt 0.584700 0.122300
vt 0.583900 0.155600
vt 0.555500 0.153400
vt 0.559300 0.120500
vt 0.734100 0.115400
vt 0.757500 0.116400
vt 0.874200 0.125100
vt 0.894800 0.125000
vt 0.898600 0.158000
vt 0.876000 0.155000
vt 0.951400 0.152500
vt 0.948400 0.119500
vt 0.913200 0.123600
vt 0.931000 0.121400
vt 0.934400 0.154700
vt 0.915300 0.157300
vt 0.625600 0.154400
vt 0.627000 0.188400
vt 0.607700 0.187800
vt 0.606100 0.156700
vt 0.610000 0.211200
vt 0.587100 0.211200
vt 0.586000 0.187300
vt 0.552800 0.183800
vt 0.529400 0.182400
vt 0.713500 0.114300
vt 0.691500 0.141400
vt 0.693800 0.114900
vt 0.605300 0.122400
vt 0.624800 0.120800
vt 0.690300 0.170800
vt 0.669600 0.174900
vt 0.671100 0.144100
vt 0.648900 0.182000
vt 0.649900 0.149700
vt 0.761100 0.179000
vt 0.734900 0.182100
vt 0.712600 0.183800
vt 0.650400 0.211200
vt 0.653900 0.193300
vt 0.629100 0.211200
vt 0.765800 0.196900
vt 0.767600 0.211200
vt 0.832000 0.182200
vt 0.851800 0.191600
vt 0.877100 0.184200
vt 0.875700 0.211200
vt 0.897300 0.211200
vt 0.899900 0.188000
vt 0.918600 0.211200
vt 0.918600 0.191400
vt 0.778600 0.063200
vt 0.795600 0.062700
vt 0.800300 0.090700
vt 0.779900 0.089900
vt 0.815700 0.062900
vt 0.837800 0.063300
vt 0.844700 0.093800
vt 0.821200 0.092300
vt 0.509900 0.066300
vt 0.541300 0.064600
vt 0.537300 0.088100
vt 0.509900 0.087900
vt 0.963200 0.063700
vt 0.984100 0.066300
vt 0.984100 0.087900
vt 0.964800 0.088900
vt 0.561500 0.088300
vt 0.565100 0.065400
vt 0.593000 0.064400
vt 0.588600 0.089800
vt 0.735500 0.064400
vt 0.760900 0.064000
vt 0.759800 0.089600
vt 0.734900 0.089400
vt 0.862100 0.063900
vt 0.883600 0.064400
vt 0.891300 0.093400
vt 0.869400 0.093900
vt 0.944900 0.087300
vt 0.941300 0.064600
vt 0.921600 0.064600
vt 0.927500 0.088600
vt 0.910900 0.091500
vt 0.900400 0.064300
vt 0.713200 0.064300
vt 0.714300 0.088500
vt 0.693800 0.087800
vt 0.692800 0.063800
vt 0.612500 0.064100
vt 0.607900 0.089700
vt 0.631000 0.063900
vt 0.626500 0.088700
vt 0.673800 0.115800
vt 0.674300 0.089000
vt 0.652800 0.118300
vt 0.657800 0.087800
vt 0.674700 0.063500
vt 0.659000 0.063500
vt 0.789900 0.174800
vt 0.759700 0.053300
vt 0.762100 0.044600
vt 0.778300 0.044600
vt 0.777800 0.053300
vt 0.795700 0.044600
vt 0.795100 0.053300
vt 0.815900 0.044600
vt 0.815200 0.053300
vt 0.838200 0.044600
vt 0.837500 0.053300
vt 0.963000 0.053300
vt 0.963300 0.044600
vt 0.984100 0.044800
vt 0.984100 0.053500
vt 0.509900 0.053500
vt 0.509900 0.044800
vt 0.540700 0.044600
vt 0.541200 0.053300
vt 0.733300 0.044600
vt 0.733800 0.053300
vt 0.711700 0.053300
vt 0.711300 0.044600
vt 0.862800 0.044600
vt 0.862200 0.053300
vt 0.884000 0.044600
vt 0.883600 0.053300
vt 0.921300 0.044600
vt 0.940800 0.044600
vt 0.940500 0.053300
vt 0.921200 0.053300
vt 0.900300 0.053300
vt 0.900400 0.044600
vt 0.564500 0.044600
vt 0.565100 0.053300
vt 0.591500 0.053300
vt 0.590600 0.044600
vt 0.673200 0.044600
vt 0.691200 0.044600
vt 0.691400 0.053300
vt 0.673300 0.053300
vt 0.628300 0.044600
vt 0.655400 0.044600
vt 0.656100 0.053300
vt 0.628600 0.053300
vt 0.610400 0.044600
vt 0.610900 0.053300
vt 0.852300 0.211200
vt 0.811000 0.177800
vt 0.792900 0.038100
vt 0.774300 0.038100
vt 0.755300 0.038100
vt 0.837800 0.038100
vt 0.814400 0.038100
vt 0.509900 0.038300
vt 0.541100 0.038100
vt 0.963100 0.038100
vt 0.984100 0.038300
vt 0.711800 0.038100
vt 0.734000 0.038100
vt 0.863300 0.038100
vt 0.884600 0.038100
vt 0.940300 0.038100
vt 0.920900 0.038100
vt 0.900000 0.038100
vt 0.564200 0.038100
vt 0.590600 0.038100
vt 0.691300 0.038100
vt 0.672800 0.038100
vt 0.656200 0.038100
vt 0.628500 0.038100
vt 0.609900 0.038100
vt 0.795200 0.017300
vt 0.773600 0.017300
vt 0.753100 0.017300
vt 0.845300 0.017300
vt 0.819300 0.017300
vt 0.509900 0.017400
vt 0.541200 0.017300
vt 0.961600 0.017300
vt 0.984100 0.017400
vt 0.732000 0.017300
vt 0.710400 0.017300
vt 0.871600 0.017300
vt 0.890000 0.017300
vt 0.941900 0.017300
vt 0.923700 0.017300
vt 0.905800 0.017300
vt 0.560400 0.017300
vt 0.584100 0.017300
vt 0.689200 0.017300
vt 0.670000 0.017300
vt 0.652200 0.017300
vt 0.623500 0.017300
vt 0.604700 0.017300
vt 0.828600 0.963800
vt 0.838200 0.970500
vt 0.830000 0.978800
vt 0.823200 0.970300
vt 0.819600 0.983300
vt 0.815500 0.974000
vt 0.834700 0.944700
vt 0.846300 0.945000
vt 0.844200 0.959100
vt 0.832700 0.955000
vt 0.795800 0.920500
vt 0.786800 0.924700
vt 0.773900 0.915000
vt 0.788000 0.907500
vt 0.802300 0.918200
vt 0.799800 0.903800
vt 0.806600 0.976000
vt 0.807900 0.985100
vt 0.795900 0.985300
vt 0.796600 0.975900
vt 0.832800 0.931500
vt 0.844300 0.929500
vt 0.824600 0.924100
vt 0.839900 0.918300
vt 0.809400 0.916300
vt 0.811500 0.902600
vt 0.822800 0.904800
vt 0.815800 0.917100
vt 0.821200 0.919600
vt 0.832700 0.910600
vt 0.781500 0.928800
vt 0.766000 0.923100
vt 0.774100 0.937000
vt 0.759200 0.934900
vt 0.786900 0.974300
vt 0.784000 0.983800
vt 0.778500 0.971700
vt 0.773400 0.980000
vt 0.772300 0.967400
vt 0.764400 0.973300
vt 0.768600 0.955100
vt 0.756900 0.958500
vt 0.770100 0.944900
vt 0.756100 0.946800
vt 0.803400 0.942100
s 1
usemtl Topmat
f 1/1/1 2/2/2 3/3/3 4/4/4
f 5/5/5 1/1/1 4/4/4 6/6/6
f 10/7/7 3/3/3 2/2/2 11/8/8
f 5/9/5 6/10/6 12/11/9 13/12/10
f 17/13/11 18/14/12 13/12/10 12/11/9
f 23/15/13 24/16/14 1/17/1 5/18/5
f 25/19/15 7/20/16 9/21/17
f 13/22/10 23/15/13 5/18/5
f 26/23/18 13/22/10 18/24/12 27/25/19
f 25/19/15 9/21/17 11/26/8 28/27/20
f 29/28/21 30/29/22 31/30/23 32/31/24
f 33/32/25 31/30/23 30/29/22 34/33/26
f 35/34/27 33/32/25 34/33/26 36/35/28
f 32/31/24 37/36/29 38/37/30 29/28/21
f 39/38/31 40/39/32 37/36/29 32/31/24
f 41/40/33 42/41/34 43/42/35 44/43/36
f 45/44/37 46/45/38 42/41/34 41/40/33
f 37/36/29 41/40/33 44/43/36 38/37/30
f 47/46/39 48/47/40 49/48/41 50/49/42
f 50/50/42 49/51/41 51/52/43 52/53/44
f 53/54/45 54/55/46 55/56/47 56/57/48
f 57/58/49 58/59/50 31/30/23 33/32/25
f 59/60/51 60/61/52 61/62/53 62/63/54
f 52/53/44 51/52/43 63/64/55 64/65/56
f 65/66/57 66/67/58 67/68/59 68/69/60
f 69/70/61 70/71/62 71/72/63 72/73/64
f 71/72/63 20/74/65 22/75/66 73/76/67
f 56/57/48 55/56/47 48/47/40 47/46/39
f 74/77/68 55/56/47 54/55/46 73/76/67
f 75/78/69 48/47/40 55/56/47 74/77/68
f 76/79/70 57/58/49 33/32/25 35/34/27
f 76/79/70 35/34/27 77/80/71 78/81/72
f 79/82/73 72/73/64 54/55/46 53/54/45
f 80/83/74 69/70/61 72/73/64 79/82/73
f 81/84/75 26/23/18 27/25/19 82/85/76
f 83/86/77 82/85/76 84/87/78 85/88/79
f 85/88/79 84/87/78 70/71/62 69/70/61
f 66/67/58 64/65/56 63/64/55 67/68/59
f 34/33/26 30/29/22 86/89/80 87/90/81
f 36/35/28 34/33/26 87/90/81 88/91/82
f 81/84/75 36/35/28 88/91/82 26/23/18
f 35/34/27 36/35/28 81/84/75 77/80/71
f 82/85/76 83/86/77 77/80/71 81/84/75
f 19/92/83 89/93/84 27/25/19 18/24/12
f 21/94/85 70/71/62 89/93/84 19/92/83
f 70/71/62 21/94/85 20/74/65 71/72/63
f 24/16/14 90/95/86 2/96/2 1/17/1
f 73/76/67 54/55/46 72/73/64 71/72/63
f 91/97/87 43/42/35 92/98/88
f 92/98/88 43/42/35 93/99/89 14/100/90
f 15/101/91 14/100/90 93/99/89 94/102/92
f 16/103/93 15/101/91 94/102/92 95/104/94
f 93/99/89 43/42/35 42/41/34 62/63/54
f 94/102/92 93/99/89 62/63/54 61/62/53
f 95/104/94 94/102/92 61/62/53 68/69/60
f 96/105/95 97/106/96 98/107/97 99/108/98
f 100/109/99 101/110/100 102/111/101 103/112/102
f 104/113/103 105/114/104 106/115/105 107/116/106
f 108/117/107 104/118/103 107/119/106 109/120/108
f 110/121/109 111/122/110 112/123/111 113/124/112
f 114/125/113 115/126/114 116/127/115 117/128/116
f 118/129/117 119/130/118 120/131/119 121/132/120
f 122/133/121 123/134/122 108/117/107 109/120/108
f 124/135/123 125/136/124 126/137/125 127/138/126
f 105/114/104 111/122/110 110/121/109 106/115/105
f 128/139/127 114/125/113 117/128/116 129/140/128
f 130/141/129 131/142/130 128/139/127 129/140/128
f 113/124/112 112/123/111 132/143/131 133/144/132
f 133/144/132 132/143/131 134/145/133 135/146/134
f 125/136/124 124/135/123 123/134/122 122/133/121
f 39/38/31 58/59/50 116/127/115 99/108/98
f 45/44/37 40/39/32 98/107/97 103/112/102
f 59/60/51 46/45/38 102/111/101 121/132/120
f 65/66/57 60/61/52 120/131/119 126/137/125
f 130/141/129 78/81/72 136/147/135 137/148/136
f 137/148/136 136/147/135 138/149/137 139/150/138
f 139/150/138 138/149/137 80/83/74 135/146/134
f 99/108/98 98/107/97 40/39/32 39/38/31
f 103/112/102 102/111/101 46/45/38 45/44/37
f 50/49/42 107/116/106 106/115/105 47/46/39
f 107/119/106 50/50/42 52/53/44 109/120/108
f 56/57/48 110/121/109 113/124/112 53/54/45
f 117/128/116 116/127/115 58/59/50 57/58/49
f 121/132/120 120/131/119 60/61/52 59/60/51
f 64/65/56 122/133/121 109/120/108 52/53/44
f 126/137/125 125/136/124 66/67/58 65/66/57
f 47/46/39 106/115/105 110/121/109 56/57/48
f 129/140/128 117/128/116 57/58/49 76/79/70
f 78/81/72 130/141/129 129/140/128 76/79/70
f 53/54/45 113/124/112 133/144/132 79/82/73
f 79/82/73 133/144/132 135/146/134 80/83/74
f 66/67/58 125/136/124 122/133/121 64/65/56
f 32/31/24 31/30/23 58/59/50 39/38/31
f 41/40/33 37/36/29 40/39/32 45/44/37
f 62/63/54 42/41/34 46/45/38 59/60/51
f 68/69/60 61/62/53 60/61/52 65/66/57
f 78/81/72 77/80/71 83/86/77 136/147/135
f 136/147/135 83/86/77 85/88/79 138/149/137
f 138/149/137 85/88/79 69/70/61 80/83/74
f 99/108/98 116/127/115 115/126/114 96/105/95
f 103/112/102 98/107/97 97/106/96 100/109/99
f 121/132/120 102/111/101 101/110/100 118/129/117
f 126/137/125 120/131/119 119/130/118 127/138/126
f 131/142/130 130/141/129 137/148/136 140/151/139
f 140/151/139 137/148/136 139/150/138 141/152/140
f 141/152/140 139/150/138 135/146/134 134/145/133
f 11/26/8 2/96/2 90/95/86 28/27/20
f 82/85/76 27/25/19 89/93/84 84/87/78
f 89/93/84 70/71/62 84/87/78
f 30/29/22 142/153/141 86/89/80
f 143/154/142 144/155/143 145/156/144 146/157/145
f 146/157/145 145/156/144 147/158/146 148/159/147
f 148/159/147 147/158/146 149/160/148 150/161/149
f 150/161/149 149/160/148 151/162/150 152/163/151
f 153/164/152 154/165/153 155/166/154 156/167/155
f 156/168/155 155/169/154 157/170/156 158/171/157
f 159/172/158 160/173/159 161/174/160 162/175/161
f 160/173/159 159/172/158 144/155/143 143/154/142
f 163/176/162 164/177/163 152/163/151 151/162/150
f 164/177/163 163/176/162 165/178/164 166/179/165
f 167/180/166 168/181/167 169/182/168 170/183/169
f 168/181/167 154/165/153 153/164/152 169/182/168
f 171/184/170 166/179/165 165/178/164 172/185/171
f 172/185/171 167/180/166 170/183/169 171/184/170
f 173/186/172 174/187/173 158/171/157 157/170/156
f 175/188/174 174/187/173 173/186/172 176/189/175
f 177/190/176 178/191/177 179/192/178 180/193/179
f 161/174/160 179/192/178 178/191/177 162/175/161
f 181/194/180 182/195/181 183/196/182 184/197/183
f 182/195/181 177/190/176 180/193/179 183/196/182
f 176/189/175 185/198/184 186/199/185 175/188/174
f 185/198/184 181/194/180 184/197/183 186/199/185
f 97/106/96 96/105/95 146/157/145 148/159/147
f 96/105/95 115/126/114 143/154/142 146/157/145
f 150/161/149 152/163/151 101/110/100 100/109/99
f 100/109/99 97/106/96 148/159/147 150/161/149
f 105/114/104 104/113/103 156/168/155 158/171/157
f 104/118/103 108/117/107 153/164/152 156/167/155
f 115/126/114 114/125/113 160/173/159 143/154/142
f 160/173/159 114/125/113 128/139/127 161/174/160
f 119/130/118 118/129/117 164/177/163 166/179/165
f 101/110/100 152/163/151 164/177/163 118/129/117
f 108/117/107 123/134/122 169/182/168 153/164/152
f 123/134/122 124/135/123 170/183/169 169/182/168
f 124/135/123 127/138/126 171/184/170 170/183/169
f 127/138/126 119/130/118 166/179/165 171/184/170
f 111/122/110 105/114/104 158/171/157 174/187/173
f 111/122/110 174/187/173 175/188/174 112/123/111
f 131/142/130 179/192/178 161/174/160 128/139/127
f 140/151/139 180/193/179 179/192/178 131/142/130
f 141/152/140 183/196/182 180/193/179 140/151/139
f 134/145/133 184/197/183 183/196/182 141/152/140
f 132/143/131 186/199/185 184/197/183 134/145/133
f 112/123/111 175/188/174 186/199/185 132/143/131
f 7/20/16 91/97/87 92/98/88 8/200/186
f 92/98/88 14/100/90 8/200/186
f 30/29/22 29/28/21 142/153/141
f 187/201/187 142/153/141 29/28/21 38/37/30
f 91/97/87 187/201/187 38/37/30 44/43/36
f 44/43/36 43/42/35 91/97/87
f 91/97/87 7/20/16 25/19/15 187/201/187
f 28/27/20 142/153/141 187/201/187 25/19/15
f 142/153/141 28/27/20 90/95/86 86/89/80
f 87/90/81 86/89/80 90/95/86 24/16/14
f 88/91/82 87/90/81 24/16/14 23/15/13
f 26/23/18 88/91/82 23/15/13 13/22/10
f 188/202/188 147/158/146 145/156/144 189/203/189
f 189/203/189 145/156/144 144/155/143 190/204/190
f 191/205/191 151/162/150 149/160/148 192/206/192
f 192/206/192 149/160/148 147/158/146 188/202/188
f 157/170/156 155/169/154 193/207/193 194/208/194
f 155/166/154 154/165/153 195/209/195 193/210/193
f 159/172/158 162/175/161 196/211/196 197/212/197
f 190/204/190 144/155/143 159/172/158 197/212/197
f 198/213/198 163/176/162 151/162/150 191/205/191
f 199/214/199 165/178/164 163/176/162 198/213/198
f 154/165/153 168/181/167 200/215/200 195/209/195
f 200/215/200 168/181/167 167/180/166 201/216/201
f 202/217/202 172/185/171 165/178/164 199/214/199
f 201/216/201 167/180/166 172/185/171 202/217/202
f 173/186/172 157/170/156 194/208/194 203/218/203
f 176/189/175 173/186/172 203/218/203 204/219/204
f 162/175/161 178/191/177 205/220/205 196/211/196
f 178/191/177 177/190/176 206/221/206 205/220/205
f 177/190/176 182/195/181 207/222/207 206/221/206
f 182/195/181 181/194/180 208/223/208 207/222/207
f 181/194/180 185/198/184 209/224/209 208/223/208
f 185/198/184 176/189/175 204/219/204 209/224/209
f 210/225/210 188/202/188 189/203/189 211/226/211
f 211/226/211 189/203/189 190/204/190 212/227/212
f 213/228/213 191/205/191 192/206/192 214/229/214
f 214/229/214 192/206/192 188/202/188 210/225/210
f 194/208/194 193/207/193 215/230/215 216/231/216
f 193/210/193 195/209/195 217/232/217 215/233/215
f 218/234/218 197/212/197 196/211/196 219/235/219
f 212/227/212 190/204/190 197/212/197 218/234/218
f 220/236/220 198/213/198 191/205/191 213/228/213
f 221/237/221 199/214/199 198/213/198 220/236/220
f 222/238/222 200/215/200 201/216/201 223/239/223
f 224/240/224 202/217/202 199/214/199 221/237/221
f 223/239/223 201/216/201 202/217/202 224/240/224
f 203/218/203 194/208/194 216/231/216 225/241/225
f 204/219/204 203/218/203 225/241/225 226/242/226
f 196/211/196 205/220/205 227/243/227 219/235/219
f 205/220/205 206/221/206 228/244/228 227/243/227
f 206/221/206 207/222/207 229/245/229 228/244/228
f 207/222/207 208/223/208 230/246/230 229/245/229
f 208/223/208 209/224/209 231/247/231 230/246/230
f 209/224/209 204/219/204 226/242/226 231/247/231
f 222/238/222 217/232/217 195/209/195 200/215/200
f 232/248/232 210/249/210 211/250/211 233/251/233
f 233/251/233 211/250/211 212/252/212 234/253/234
f 235/254/235 213/255/213 214/256/214 236/257/236
f 236/257/236 214/256/214 210/249/210 232/248/232
f 237/258/237 238/259/238 216/260/216 215/261/215
f 239/262/239 237/258/237 215/261/215 217/263/217
f 240/264/240 218/265/218 219/266/219 241/267/241
f 234/253/234 212/252/212 218/265/218 240/264/240
f 242/268/242 220/269/220 213/255/213 235/254/235
f 243/270/243 221/271/221 220/269/220 242/268/242
f 244/272/244 222/273/222 223/274/223 245/275/245
f 246/276/246 224/277/224 221/271/221 243/270/243
f 245/275/245 223/274/223 224/277/224 246/276/246
f 238/259/238 247/278/247 225/279/225 216/260/216
f 247/278/247 248/280/248 226/281/226 225/279/225
f 249/282/249 241/267/241 219/266/219 227/283/227
f 250/284/250 249/282/249 227/283/227 228/285/228
f 251/286/251 250/284/250 228/285/228 229/287/229
f 252/288/252 251/286/251 229/287/229 230/289/230
f 253/290/253 252/288/252 230/289/230 231/291/231
f 248/280/248 253/290/253 231/291/231 226/281/226
f 244/272/244 239/262/239 217/263/217 222/273/222
f 232/248/232 233/251/233 254/292/254
f 233/251/233 234/253/234 254/292/254
f 235/254/235 236/257/236 254/292/254
f 236/257/236 232/248/232 254/292/254
f 238/259/238 237/258/237 254/292/254
f 237/258/237 239/262/239 254/292/254
f 240/264/240 241/267/241 254/292/254
f 234/253/234 240/264/240 254/292/254
f 242/268/242 235/254/235 254/292/254
f 243/270/243 242/268/242 254/292/254
f 244/272/244 245/275/245 254/292/254
f 246/276/246 243/270/243 254/292/254
f 245/275/245 246/276/246 254/292/254
f 247/278/247 238/259/238 254/292/254
f 248/280/248 247/278/247 254/292/254
f 241/267/241 249/282/249 254/292/254
f 249/282/249 250/284/250 254/292/254
f 250/284/250 251/286/251 254/292/254
f 251/286/251 252/288/252 254/292/254
f 252/288/252 253/290/253 254/292/254
f 253/290/253 248/280/248 254/292/254
f 239/262/239 244/272/244 254/292/254
f 12/11/9 6/10/6 3/3/3
f 4/4/4 3/3/3 6/10/6
f 3/3/3 10/7/7 12/11/9
f 10/7/7 17/13/11 12/11/9
f 14/100/90 22/75/66 21/94/85
f 9/21/17 7/20/16 8/200/186
f 14/100/90 15/101/91 22/75/66
f 15/101/91 16/103/93 22/75/66
f 9/21/17 8/200/186 18/14/12
f 8/200/186 14/100/90 19/92/83
f 18/14/12 8/200/186 19/92/83
f 17/13/11 10/7/7 11/26/8
f 11/26/8 9/21/17 18/14/12
f 22/75/66 20/74/65 21/94/85
f 21/94/85 19/92/83 14/100/90
f 18/14/12 17/13/11 11/26/8
