# Blender 5.0.1
# www.blender.org
mtllib shoulder_b.mtl
o Body.004
v 0.485966 2.524234 -0.186750
v 0.513831 2.528854 -0.161389
v 0.488748 2.487582 -0.184285
v 0.450371 2.522314 -0.191093
v 0.473280 2.590396 -0.183419
v 0.436045 2.586757 -0.189031
v 0.504527 2.592360 -0.161160
v 0.461678 2.655008 -0.181763
v 0.423124 2.651627 -0.188051
v 0.494700 2.657594 -0.160700
v 0.452583 2.715636 -0.178214
v 0.486008 2.720246 -0.158182
v 0.446509 2.776044 -0.185212
v 0.414409 2.712318 -0.185640
v 0.408875 2.771752 -0.191983
v 0.374319 2.709456 -0.179638
v 0.339269 2.706249 -0.156703
v 0.369329 2.765395 -0.185976
v 0.383944 2.648089 -0.179556
v 0.349515 2.645571 -0.155981
v 0.399176 2.582338 -0.178960
v 0.366105 2.579813 -0.155750
v 0.415619 2.519775 -0.178340
v 0.383996 2.517435 -0.158685
v 0.424972 2.482680 -0.184617
v 0.456982 2.485993 -0.193198
v 0.394776 2.478750 -0.160610
v 0.371055 2.479018 -0.120974
v 0.359999 2.520519 -0.120138
v 0.373745 2.464354 -0.071379
v 0.374267 2.508724 -0.071396
v 0.400678 2.444770 -0.031294
v 0.395710 2.489052 -0.030889
v 0.438987 2.443493 -0.011909
v 0.436254 2.472470 -0.011045
v 0.481076 2.443753 -0.009556
v 0.476798 2.469164 -0.009855
v 0.517105 2.450847 -0.024273
v 0.511812 2.476317 -0.024638
v 0.542187 2.464672 -0.052528
v 0.536734 2.497143 -0.053111
v 0.553222 2.478397 -0.092133
v 0.546290 2.510339 -0.094514
v 0.540784 2.489265 -0.132366
v 0.534467 2.526255 -0.130567
v 0.514492 2.489812 -0.161085
v 0.526227 2.595798 -0.128398
v 0.536137 2.592539 -0.091813
v 0.517940 2.660232 -0.128332
v 0.528422 2.662055 -0.090377
v 0.510239 2.722690 -0.127641
v 0.505151 2.784841 -0.133671
v 0.521646 2.721562 -0.090238
v 0.518731 2.719785 -0.051235
v 0.516969 2.781196 -0.095885
v 0.513733 2.774637 -0.056111
v 0.496162 2.769621 -0.019877
v 0.501901 2.718149 -0.016262
v 0.466886 2.765846 0.007207
v 0.473423 2.715869 0.009089
v 0.430283 2.762519 0.019000
v 0.438223 2.713335 0.019914
v 0.393762 2.760450 0.012367
v 0.401961 2.711456 0.014197
v 0.362397 2.759674 -0.010815
v 0.370356 2.710879 -0.006698
v 0.333597 2.755121 -0.041675
v 0.343286 2.710879 -0.037410
v 0.311959 2.750833 -0.079360
v 0.322714 2.705929 -0.073575
v 0.310408 2.751168 -0.124328
v 0.318642 2.704077 -0.117877
v 0.330456 2.756320 -0.163546
v 0.328945 2.645719 -0.116892
v 0.335447 2.648736 -0.072014
v 0.344529 2.579390 -0.116508
v 0.351552 2.581384 -0.070308
v 0.370901 2.583158 -0.034420
v 0.392979 2.593254 -0.009175
v 0.355613 2.655668 -0.034839
v 0.380437 2.659376 -0.006300
v 0.411345 2.661548 0.011584
v 0.422875 2.595523 0.005733
v 0.446528 2.663718 0.015859
v 0.481082 2.665926 0.004982
v 0.456953 2.597977 0.008347
v 0.489030 2.600052 -0.001987
v 0.467708 2.526997 -0.002078
v 0.433642 2.524601 -0.003053
v 0.499147 2.530685 -0.012653
v 0.519841 2.538637 -0.029055
v 0.514732 2.598144 -0.023929
v 0.508202 2.666226 -0.018939
v 0.531347 2.588036 -0.054379
v 0.524534 2.664093 -0.051636
v 0.405228 2.531362 -0.012524
v 0.480133 2.780972 -0.164826
vn 0.3732 0.0893 -0.9234
vn 0.7139 0.1180 -0.6903
vn 0.7356 0.0951 -0.6708
vn 0.4189 0.0677 -0.9055
vn 0.5376 -0.5779 -0.6140
vn 0.3419 -0.5710 -0.7463
vn -0.0714 0.0177 -0.9973
vn -0.0232 -0.5588 -0.8290
vn -0.0662 0.0009 -0.9978
vn -0.0300 0.0150 -0.9994
vn 0.3517 0.0868 -0.9321
vn 0.6781 0.1155 -0.7258
vn 0.0092 -0.0369 -0.9993
vn 0.3578 0.0151 -0.9337
vn 0.6664 0.0495 -0.7440
vn 0.3616 -0.0686 -0.9298
vn 0.6584 -0.0205 -0.7524
vn 0.0357 -0.1062 -0.9937
vn -0.3523 -0.1011 -0.9304
vn -0.3007 -0.1455 -0.9426
vn -0.3939 -0.0766 -0.9160
vn -0.7224 -0.1659 -0.6712
vn -0.7391 -0.1586 -0.6547
vn -0.6827 -0.1974 -0.7035
vn -0.4137 -0.0973 -0.9052
vn -0.7315 -0.1806 -0.6575
vn -0.4337 -0.0683 -0.8984
vn -0.7226 -0.1666 -0.6709
vn -0.2374 -0.6114 -0.7549
vn -0.4448 -0.6801 -0.5828
vn -0.7015 -0.6573 -0.2753
vn -0.9632 -0.2245 -0.1479
vn -0.7049 -0.7001 0.1134
vn -0.9252 -0.1870 0.3304
vn -0.4872 -0.7663 0.4188
vn -0.7410 -0.1485 0.6549
vn -0.1832 -0.7590 0.6248
vn -0.2581 -0.1196 0.9587
vn 0.1832 -0.7389 0.6485
vn 0.1723 -0.0636 0.9830
vn 0.5077 -0.6756 0.5347
vn 0.5552 0.0065 0.8317
vn 0.7585 -0.5869 0.2831
vn 0.8987 0.0845 0.4304
vn 0.8408 -0.5318 -0.1011
vn 0.9913 0.1310 0.0156
vn 0.7266 -0.4999 -0.4713
vn 0.9048 0.1211 -0.4083
vn 0.9040 0.1209 -0.4100
vn 0.9936 0.1072 -0.0357
vn 0.8918 0.1187 -0.4365
vn 0.9905 0.1103 -0.0817
vn 0.8864 0.0732 -0.4570
vn 0.9905 0.0935 -0.1010
vn 0.8753 0.0253 -0.4829
vn 0.9881 0.0677 -0.1380
vn 0.9583 0.1055 0.2655
vn 0.9582 0.0878 0.2723
vn 0.9647 0.1076 0.2404
vn 0.7912 0.0957 0.6040
vn 0.7989 0.1250 0.5884
vn 0.4939 0.0979 0.8640
vn 0.4904 0.0518 0.8699
vn 0.0776 -0.0122 0.9969
vn 0.0570 0.0347 0.9978
vn -0.3986 -0.0251 0.9168
vn -0.3586 -0.0647 0.9312
vn -0.6654 -0.0638 0.7438
vn -0.6527 -0.0965 0.7515
vn -0.8001 -0.1337 0.5847
vn -0.8026 -0.1114 0.5860
vn -0.9483 -0.1735 0.2659
vn -0.9344 -0.1809 0.3070
vn -0.9624 -0.1995 -0.1844
vn -0.9470 -0.2132 -0.2403
vn -0.9648 -0.2073 -0.1616
vn -0.9278 -0.1978 0.3164
vn -0.9597 -0.2460 -0.1355
vn -0.9186 -0.2353 0.3175
vn -0.8090 -0.1938 0.5549
vn -0.8006 -0.1651 0.5760
vn -0.5888 -0.1559 0.7931
vn -0.5527 -0.1737 0.8151
vn -0.6240 -0.1416 0.7685
vn -0.3061 -0.1200 0.9444
vn -0.2427 -0.1390 0.9601
vn 0.1245 -0.1051 0.9866
vn 0.0987 -0.0775 0.9921
vn 0.4925 -0.0135 0.8702
vn 0.4814 -0.0450 0.8753
vn 0.1541 -0.1202 0.9807
vn 0.5025 -0.0664 0.8620
vn -0.2139 -0.1649 0.9628
vn 0.7779 0.0062 0.6284
vn 0.7875 0.0259 0.6158
vn 0.9515 0.0751 0.2983
vn 0.7937 0.0476 0.6065
vt 0.706060 0.837210
vt 0.705420 0.823260
vt 0.717500 0.822990
vt 0.717800 0.836340
vt 0.725370 0.823190
vt 0.725950 0.835410
vt 0.719410 0.848720
vt 0.727590 0.846660
vt 0.707570 0.850250
vt 0.692960 0.850810
vt 0.691630 0.837560
vt 0.690800 0.823730
vt 0.676710 0.850430
vt 0.675720 0.837100
vt 0.674850 0.823370
vt 0.659860 0.835690
vt 0.658800 0.821820
vt 0.660460 0.849670
vt 0.677650 0.862770
vt 0.660560 0.862670
vt 0.694250 0.862580
vt 0.678860 0.874680
vt 0.696490 0.873820
vt 0.660590 0.875580
vt 0.709210 0.861680
vt 0.711920 0.872550
vt 0.721930 0.859820
vt 0.724780 0.870130
vt 0.729970 0.856580
vt 0.733300 0.867930
vt 0.737570 0.881240
vt 0.728860 0.882610
vt 0.736370 0.726840
vt 0.727640 0.726990
vt 0.727880 0.713940
vt 0.737470 0.712820
vt 0.736000 0.738960
vt 0.725580 0.741520
vt 0.736100 0.750080
vt 0.729640 0.752260
vt 0.735970 0.760200
vt 0.730020 0.761370
vt 0.734580 0.771830
vt 0.727590 0.770870
vt 0.731190 0.782490
vt 0.720750 0.782150
vt 0.728390 0.795690
vt 0.719650 0.795880
vt 0.726160 0.809290
vt 0.718290 0.808940
vt 0.705480 0.809790
vt 0.705870 0.797740
vt 0.690420 0.810650
vt 0.690350 0.798820
vt 0.674110 0.810290
vt 0.673740 0.798500
vt 0.657640 0.809080
vt 0.656980 0.797480
vt 0.673700 0.787960
vt 0.690120 0.788260
vt 0.656900 0.786980
vt 0.673900 0.778500
vt 0.657230 0.777580
vt 0.657770 0.768880
vt 0.674310 0.769920
vt 0.674940 0.761520
vt 0.658160 0.760580
vt 0.658410 0.752240
vt 0.675660 0.753240
vt 0.658850 0.743660
vt 0.676560 0.744670
vt 0.678050 0.735150
vt 0.659690 0.734560
vt 0.660870 0.724780
vt 0.679620 0.724860
vt 0.680970 0.713350
vt 0.662100 0.714030
vt 0.679910 0.886680
vt 0.660420 0.887840
vt 0.698900 0.714040
vt 0.697500 0.725680
vt 0.699490 0.885290
vt 0.714320 0.714830
vt 0.713290 0.726780
vt 0.715820 0.884230
vt 0.710600 0.737750
vt 0.695370 0.736210
vt 0.707170 0.746310
vt 0.716980 0.747360
vt 0.693240 0.745420
vt 0.691810 0.753860
vt 0.705670 0.754060
vt 0.704920 0.762040
vt 0.690860 0.762090
vt 0.690260 0.770240
vt 0.704200 0.770190
vt 0.717850 0.761770
vt 0.716290 0.769970
vt 0.718030 0.753630
vt 0.713940 0.776550
vt 0.704080 0.778170
vt 0.705380 0.786970
vt 0.690060 0.778830
s 1
usemtl Bodymat
f 5/1/1 7/2/2 2/3/3 1/4/4
f 1/4/4 2/3/3 46/5/5 3/6/6
f 4/7/7 1/4/4 3/6/6 26/8/8
f 1/4/4 4/7/7 6/9/9 5/1/1
f 5/1/1 6/9/9 9/10/10 8/11/11
f 8/11/11 10/12/12 7/2/2 5/1/1
f 8/11/11 9/10/10 14/13/13 11/14/14
f 11/14/14 12/15/15 10/12/12 8/11/11
f 12/15/15 11/14/14 13/16/16 97/17/17
f 14/13/13 15/18/18 13/16/16 11/14/14
f 14/13/13 16/19/19 18/20/20 15/18/18
f 14/13/13 9/10/10 19/21/21 16/19/19
f 17/22/22 16/19/19 19/21/21 20/23/23
f 16/19/19 17/22/22 73/24/24 18/20/20
f 20/23/23 19/21/21 21/25/25 22/26/26
f 9/10/10 6/9/9 21/25/25 19/21/21
f 22/26/26 21/25/25 23/27/27 24/28/28
f 6/9/9 4/7/7 23/27/27 21/25/25
f 23/27/27 25/29/29 27/30/30 24/28/28
f 25/29/29 23/27/27 4/7/7 26/8/8
f 28/31/31 29/32/32 24/28/28 27/30/30
f 30/33/33 31/34/34 29/35/32 28/36/31
f 32/37/35 33/38/36 31/34/34 30/33/33
f 34/39/37 35/40/38 33/38/36 32/37/35
f 36/41/39 37/42/40 35/40/38 34/39/37
f 37/42/40 36/41/39 38/43/41 39/44/42
f 40/45/43 41/46/44 39/44/42 38/43/41
f 42/47/45 43/48/46 41/46/44 40/45/43
f 44/49/47 45/50/48 43/48/46 42/47/45
f 44/49/47 46/5/5 2/3/3 45/50/48
f 45/50/48 47/51/49 48/52/50 43/48/46
f 47/51/49 45/50/48 2/3/3 7/2/2
f 49/53/51 47/51/49 7/2/2 10/12/12
f 50/54/52 48/52/50 47/51/49 49/53/51
f 51/55/53 49/53/51 10/12/12 12/15/15
f 53/56/54 50/54/52 49/53/51 51/55/53
f 12/15/15 97/17/17 52/57/55 51/55/53
f 51/55/53 52/57/55 55/58/56 53/56/54
f 54/59/57 95/60/58 50/54/52 53/56/54
f 54/59/57 53/56/54 55/58/56 56/61/59
f 58/62/60 54/59/57 56/61/59 57/63/61
f 58/62/60 57/63/61 59/64/62 60/65/63
f 62/66/64 60/65/63 59/64/62 61/67/65
f 62/66/64 61/67/65 63/68/66 64/69/67
f 65/70/68 66/71/69 64/69/67 63/68/66
f 68/72/70 66/71/69 65/70/68 67/73/71
f 69/74/72 70/75/73 68/72/70 67/73/71
f 72/76/74 70/75/73 69/74/72 71/77/75
f 17/22/22 72/78/74 71/79/75 73/24/24
f 74/80/76 75/81/77 70/75/73 72/76/74
f 20/23/23 74/82/76 72/78/74 17/22/22
f 76/83/78 77/84/79 75/81/77 74/80/76
f 22/26/26 76/85/78 74/82/76 20/23/23
f 77/84/79 76/83/78 29/35/32 31/34/34
f 29/32/32 76/85/78 22/26/26 24/28/28
f 78/86/80 77/84/79 31/34/34 33/38/36
f 77/84/79 78/86/80 80/87/81 75/81/77
f 79/88/82 78/86/80 33/38/36 96/89/83
f 78/86/80 79/88/82 81/90/84 80/87/81
f 80/87/81 81/90/84 66/71/69 68/72/70
f 75/81/77 80/87/81 68/72/70 70/75/73
f 82/91/85 81/90/84 79/88/82 83/92/86
f 64/69/67 66/71/69 81/90/84 82/91/85
f 86/93/87 84/94/88 82/91/85 83/92/86
f 82/91/85 84/94/88 62/66/64 64/69/67
f 84/94/88 85/95/89 60/65/63 62/66/64
f 86/93/87 87/96/90 85/95/89 84/94/88
f 87/96/90 86/93/87 88/97/91 90/98/92
f 89/99/93 88/97/91 86/93/87 83/92/86
f 88/97/91 37/42/40 39/44/42 90/98/92
f 37/42/40 88/97/91 89/99/93 35/40/38
f 87/96/90 90/98/92 91/100/94 92/101/95
f 39/44/42 41/46/44 91/100/94 90/98/92
f 92/101/95 91/100/94 41/46/44 94/102/96
f 93/103/97 85/95/89 87/96/90 92/101/95
f 95/60/58 93/103/97 92/101/95 94/102/96
f 94/102/96 41/46/44 43/48/46 48/52/50
f 95/60/58 94/102/96 48/52/50 50/54/52
f 54/59/57 58/62/60 93/103/97 95/60/58
f 58/62/60 60/65/63 85/95/89 93/103/97
f 35/40/38 89/99/93 96/89/83 33/38/36
f 83/92/86 79/88/82 96/89/83 89/99/93
f 46/5/5 40/45/43 34/39/37
f 25/29/29 26/8/8 3/6/6
f 3/6/6 46/5/5 25/29/29
f 46/5/5 44/49/47 40/45/43
f 25/29/29 46/5/5 27/30/30
f 44/49/47 42/47/45 40/45/43
f 40/45/43 38/43/41 36/41/39
f 36/41/39 34/39/37 40/45/43
f 34/39/37 32/37/35 30/33/33
f 46/5/5 34/39/37 30/33/33
f 30/33/33 28/36/31 27/30/30
f 46/5/5 30/33/33 27/30/30
