# Blender 5.0.1
# www.blender.org
mtllib shoulder_t_r.mtl
o Tops.002
v -0.364131 3.151081 -0.129478
v -0.373617 3.150734 -0.093025
v -0.418576 3.117328 -0.139458
v -0.429296 3.115386 -0.101884
v -0.415121 3.120770 -0.065963
v -0.365505 3.153649 -0.054992
v -0.433724 3.110808 -0.065018
v -0.452318 3.097535 -0.106416
v -0.457083 3.091684 -0.111881
v -0.455805 3.080917 -0.148539
v -0.467101 3.079234 -0.121499
v -0.474802 3.071792 -0.123414
v -0.464893 3.086070 -0.084013
v -0.449675 3.098716 -0.076908
v -0.327493 2.693740 -0.212354
v -0.469758 2.957681 -0.222373
v -0.449682 3.013450 -0.223442
v -0.423808 2.996128 -0.238167
v -0.441919 2.951059 -0.234680
v -0.391955 3.033543 -0.259780
v -0.408587 3.019553 -0.244340
v -0.432662 3.036727 -0.219620
v -0.418751 3.050869 -0.224719
v -0.360788 2.992146 -0.271561
v -0.380292 2.986339 -0.259417
v -0.330966 2.995558 -0.287079
v -0.343117 2.928709 -0.278680
v -0.327916 2.856844 -0.276133
v -0.387298 3.115991 -0.184225
v -0.427131 3.078604 -0.192703
v -0.386931 3.075349 -0.230123
v -0.447739 3.061187 -0.191232
v -0.352798 3.047429 -0.268893
v -0.451694 3.093681 -0.047354
v -0.422478 3.109171 -0.037973
v -0.438636 3.084555 -0.014336
v -0.413216 3.093041 -0.003800
v -0.392042 3.125299 -0.025910
v -0.410068 3.117751 -0.029260
v -0.396119 3.102901 0.003662
v -0.369659 3.110958 0.004122
v -0.341853 3.149576 -0.016920
v -0.317596 3.125692 0.022326
v -0.320198 2.962932 0.095323
v -0.283237 2.949107 0.123753
v -0.334858 3.024004 0.061665
v -0.310357 2.891468 0.125214
v -0.349191 3.080464 0.027700
v -0.307455 3.071316 0.046000
v -0.489080 2.975694 -0.198601
v -0.465014 3.033787 -0.196494
v -0.523921 2.941988 -0.172732
v -0.506344 2.997147 -0.166965
v -0.502723 2.911257 -0.206445
v -0.477815 3.075854 -0.086935
v -0.490806 3.057309 -0.127758
v -0.530907 2.982857 -0.136181
v -0.506470 3.028473 -0.133355
v -0.522572 3.018693 -0.097722
v -0.499963 3.049268 -0.097218
v -0.501264 2.714078 -0.191408
v -0.503009 2.700752 -0.189765
v -0.518195 2.700069 -0.171883
v -0.517704 2.713418 -0.173116
v -0.475373 2.890275 -0.225471
v -0.459863 2.719260 -0.218299
v -0.462650 2.705962 -0.216803
v -0.484924 2.702936 -0.206017
v -0.482547 2.716790 -0.207808
v -0.446345 2.888094 -0.234586
v -0.410012 2.950138 -0.246779
v -0.418466 2.891847 -0.241488
v -0.332545 2.618666 -0.015643
v -0.318703 2.643216 0.034202
v -0.332624 2.703119 0.054683
v -0.344346 2.854799 -0.262770
v -0.360755 2.930670 -0.268356
v -0.359634 2.862447 -0.252000
v -0.370063 2.932704 -0.260286
v -0.385819 2.985411 -0.257079
v -0.374381 2.876614 -0.239608
v -0.380217 2.939469 -0.254382
v -0.336706 2.753382 -0.224566
v -0.405981 2.727597 -0.230817
v -0.407904 2.717295 -0.228913
v -0.436971 2.710166 -0.226191
v -0.434841 2.721932 -0.228827
v -0.381115 2.731115 -0.227883
v -0.360897 2.729692 -0.218297
v -0.366020 2.718593 -0.216653
v -0.384166 2.721058 -0.225940
v -0.400005 3.067820 0.026718
v -0.385949 3.033708 0.051699
v -0.361480 3.029751 0.066425
v -0.371464 3.078508 0.041246
v -0.334685 2.901063 0.109121
v -0.353237 2.978277 0.082056
v -0.385506 2.985384 0.064252
v -0.359091 2.914681 0.082653
v -0.414630 2.973382 0.039960
v -0.432249 3.016928 0.033301
v -0.468661 2.956235 0.024109
v -0.423078 2.911923 0.024214
v -0.396171 2.931353 0.012940
v -0.381941 2.931455 0.045293
v -0.384609 2.873407 -0.003033
v -0.361523 2.858202 -0.045456
v -0.383793 2.908489 -0.037929
v -0.373715 2.907693 -0.070695
v -0.349153 2.857230 -0.085732
v -0.381498 2.905127 -0.009149
v -0.342992 2.757695 0.073925
v -0.371005 2.893436 -0.097824
v -0.350200 2.863393 -0.116544
v -0.373130 2.886630 -0.123841
v -0.365785 2.873777 -0.142399
v -0.546409 2.704152 -0.091562
v -0.545669 2.690473 -0.092886
v -0.537286 2.691468 -0.058227
v -0.537018 2.705193 -0.056858
v -0.518253 2.706212 -0.027028
v -0.518997 2.693137 -0.028620
v -0.482988 2.705528 0.001203
v -0.484228 2.693369 -0.000511
v -0.464335 3.067926 -0.027736
v -0.482908 3.067556 -0.061894
v -0.515359 2.996607 -0.035351
v -0.498195 2.991912 -0.002624
v -0.451229 3.047274 0.008483
v -0.482375 2.700346 -0.201653
v -0.498660 2.698438 -0.186321
v -0.512804 2.696633 -0.169226
v -0.437902 2.708302 -0.220804
v -0.461402 2.702352 -0.210927
v -0.364252 2.702441 -0.035658
v -0.398602 2.697847 0.002376
v -0.404301 2.692393 -0.006130
v -0.373871 2.696068 -0.040932
v -0.315298 2.704299 -0.120481
v -0.335929 2.701421 -0.079719
v -0.345654 2.695762 -0.082896
v -0.324242 2.698416 -0.121784
v -0.311163 2.712482 -0.159058
v -0.320488 2.705848 -0.158952
v -0.481525 2.688643 -0.008118
v -0.442511 2.687840 -0.000379
v -0.442340 2.692760 0.008459
v -0.388683 2.717425 -0.222261
v -0.410613 2.714808 -0.224416
v -0.526286 2.692079 -0.147373
v -0.532772 2.695687 -0.148823
v -0.542236 2.689571 -0.125851
v -0.534662 2.686188 -0.126412
v -0.538702 2.687277 -0.095089
v -0.530930 2.688313 -0.062770
v -0.514422 2.688683 -0.035110
v -0.334432 2.719196 -0.196054
v -0.344879 2.711005 -0.194640
v -0.372413 2.713638 -0.213251
v -0.494747 2.713109 -0.185710
v -0.509059 2.711713 -0.168768
v -0.477956 2.714846 -0.199682
v -0.458026 2.717005 -0.210412
v -0.436248 2.720416 -0.217826
v -0.404511 2.704343 -0.007893
v -0.375714 2.706493 -0.041219
v -0.350310 2.704184 -0.082802
v -0.327300 2.706981 -0.121484
v -0.323364 2.714024 -0.158840
v -0.440991 2.701765 -0.000748
v -0.479110 2.702942 -0.010021
v -0.410805 2.724483 -0.221379
v -0.390035 2.726411 -0.219380
v -0.523895 2.708761 -0.147007
v -0.533034 2.702895 -0.126414
v -0.535533 2.703470 -0.095080
v -0.527432 2.704322 -0.063371
v -0.510354 2.704401 -0.036845
v -0.345383 2.719881 -0.193714
v -0.371874 2.723911 -0.212176
v -0.491923 3.032187 -0.165574
v -0.501811 3.045225 -0.061777
v -0.430229 3.057745 0.013773
v -0.468644 3.061617 -0.158856
v -0.398493 2.976904 -0.255504
v -0.387502 2.939890 -0.248695
v -0.373027 2.899630 -0.234953
v -0.374644 2.871276 -0.208349
v -0.376273 2.868845 -0.162908
v -0.389523 2.902289 -0.246966
v -0.370045 2.901783 -0.238519
v -0.373602 2.891945 -0.216484
v -0.368344 2.881919 -0.178948
v -0.494779 2.771535 -0.194929
v -0.516489 2.773355 -0.173773
v -0.448451 2.770761 -0.219657
v -0.472512 2.770566 -0.210364
v -0.311951 2.712319 -0.121191
v -0.331701 2.709669 -0.080101
v -0.307799 2.721134 -0.159651
v -0.395405 2.709614 0.004276
v -0.360475 2.711841 -0.035358
v -0.533457 2.709179 -0.149203
v -0.330863 2.727867 -0.196652
v -0.398647 2.775312 -0.231581
v -0.425652 2.772637 -0.227703
v -0.375381 2.777337 -0.228828
v -0.353754 2.773258 -0.219768
v -0.543553 2.703490 -0.125031
v -0.534616 2.776183 -0.051225
v -0.547459 2.774626 -0.084581
v -0.513454 2.773187 -0.022043
v -0.477693 2.767229 0.005225
v -0.440409 2.704871 0.010452
v -0.500165 2.833600 -0.203649
v -0.472823 2.827829 -0.220213
v -0.446786 2.823305 -0.228733
v -0.421353 2.825204 -0.232121
v -0.315442 2.799087 -0.126795
v -0.326918 2.797126 -0.087804
v -0.321974 2.747913 -0.083539
v -0.304401 2.747458 -0.125185
v -0.302000 2.756546 -0.161507
v -0.320237 2.813815 -0.158458
v -0.350373 2.805096 -0.045375
v -0.382946 2.818791 -0.003731
v -0.389371 2.755872 -0.002149
v -0.349556 2.754086 -0.042396
v -0.535171 2.774127 -0.149028
v -0.543140 2.851613 -0.144487
v -0.524647 2.838798 -0.176583
v -0.397423 2.831016 -0.236443
v -0.373999 2.837489 -0.234609
v -0.335810 2.829840 -0.195790
v -0.323115 2.766528 -0.197904
v -0.350949 2.838567 -0.223890
v -0.547543 2.773345 -0.119306
v -0.552554 2.862375 -0.109740
v -0.550635 2.873228 -0.074042
v -0.427934 2.838993 0.017727
v -0.433821 2.759510 0.012783
v -0.478276 2.865730 0.014758
v -0.502215 2.887004 -0.206273
v -0.526532 2.904178 -0.173283
v -0.538031 2.883044 -0.040904
v -0.532558 2.978161 -0.067827
v -0.517109 2.877869 -0.010872
v -0.540786 2.927413 -0.138482
v -0.542659 2.952457 -0.102652
v -0.471843 2.756084 -0.196138
v -0.490196 2.758703 -0.181810
v -0.506579 2.761111 -0.165070
v -0.430375 2.758772 -0.212131
v -0.451633 2.755620 -0.205525
v -0.369776 2.752800 -0.039521
v -0.404060 2.754644 -0.002975
v -0.325851 2.747929 -0.115075
v -0.352103 2.748751 -0.074432
v -0.319542 2.753120 -0.155643
v -0.439095 2.759476 0.007302
v -0.476642 2.764204 -0.002435
v -0.389492 2.765253 -0.215704
v -0.409675 2.762017 -0.215912
v -0.518725 2.761345 -0.145706
v -0.530006 2.759181 -0.123323
v -0.532478 2.763796 -0.090475
v -0.523044 2.765398 -0.058307
v -0.506617 2.765872 -0.031141
v -0.341847 2.759415 -0.189244
v -0.372125 2.763139 -0.207758
v -0.468814 2.814921 -0.205518
v -0.486641 2.820261 -0.189679
v -0.503020 2.824874 -0.169870
v -0.427936 2.805232 -0.217583
v -0.448057 2.807943 -0.213697
v -0.369274 2.801889 -0.040952
v -0.396419 2.812888 -0.003918
v -0.326725 2.791450 -0.119147
v -0.350864 2.792174 -0.077751
v -0.319633 2.800076 -0.157002
v -0.436970 2.836375 0.009288
v -0.480021 2.858095 0.000169
v -0.385524 2.805877 -0.218907
v -0.405934 2.804336 -0.219771
v -0.514880 2.834002 -0.148844
v -0.523873 2.841008 -0.124366
v -0.527293 2.851629 -0.092439
v -0.532849 2.870927 -0.060620
v -0.511015 2.862756 -0.029705
v -0.338668 2.809672 -0.191509
v -0.364856 2.811956 -0.211620
v -0.421628 2.831093 -0.124685
vn -0.5760 0.7891 -0.2133
vn -0.5973 0.7992 -0.0675
vn 0.2707 0.9368 -0.2214
vn -0.7431 -0.2731 -0.6109
vn -0.5792 0.8035 0.1373
vn 0.3108 0.9504 -0.0089
vn -0.5721 0.8099 0.1296
vn -0.6247 0.7761 -0.0856
vn -0.7229 0.6740 -0.1520
vn -0.6743 0.6471 -0.3557
vn -0.6631 0.7182 -0.2107
vn -0.6666 0.7067 -0.2372
vn -0.6475 0.7618 -0.0198
vn -0.6210 0.7813 0.0620
vn -0.5194 0.1420 -0.8427
vn -0.5409 0.2845 -0.7915
vn -0.4248 0.1500 -0.8928
vn -0.3704 0.0456 -0.9278
vn -0.4909 0.2460 -0.8358
vn -0.5328 0.1324 -0.8358
vn -0.5358 0.3898 -0.7490
vn -0.5653 0.4713 -0.6770
vn -0.1628 -0.3801 -0.9105
vn -0.5510 -0.1169 -0.8263
vn -0.4560 0.7866 0.4163
vn -0.5096 0.6691 -0.5409
vn 0.0104 0.7604 -0.6494
vn -0.5962 0.5608 -0.5744
vn 0.2927 0.5360 -0.7918
vn 0.3058 -0.4524 -0.8378
vn -0.6173 0.7253 0.3046
vn -0.5504 0.7389 0.3887
vn -0.5443 0.6392 0.5433
vn -0.5181 0.6005 0.6091
vn -0.4915 0.7498 0.4429
vn -0.5041 0.7751 0.3809
vn -0.3810 0.6667 0.6406
vn -0.3401 0.6036 0.7211
vn 0.4372 0.8456 0.3062
vn 0.3577 0.8408 0.4063
vn 0.1686 0.0918 0.9814
vn 0.6137 0.1513 0.7749
vn -0.6876 0.2702 -0.6739
vn -0.6428 0.4460 -0.6228
vn -0.8048 0.2333 -0.5457
vn -0.7431 0.3913 -0.5429
vn -0.6767 0.1501 -0.7208
vn -0.7298 0.6834 0.0183
vn -0.7564 0.6173 -0.2162
vn -0.8909 0.3323 -0.3097
vn -0.8186 0.4870 -0.3044
vn -0.9060 0.4226 -0.0235
vn -0.8059 0.5894 -0.0558
vn -0.6820 0.0276 -0.7308
vn -0.6643 -0.3116 -0.6794
vn -0.7437 -0.3179 -0.5881
vn -0.7793 0.0028 -0.6267
vn -0.4526 -0.0075 -0.8917
vn -0.3807 0.0322 -0.9241
vn -0.3236 -0.3574 -0.8761
vn -0.5152 -0.2979 -0.8036
vn -0.5296 0.0358 -0.8475
vn -0.2822 -0.0422 -0.9584
vn -0.3242 -0.0659 -0.9437
vn -0.1952 -0.0760 -0.9778
vn 0.0896 -0.7902 -0.6063
vn -0.6865 -0.6058 -0.4022
vn -0.5819 -0.1308 -0.8027
vn 0.4523 -0.1812 -0.8733
vn -0.7653 -0.4794 -0.4295
vn -0.6038 -0.1767 -0.7773
vn -0.3947 0.0090 -0.9187
vn -0.7951 -0.4376 -0.4200
vn -0.6128 -0.2010 -0.7643
vn -0.0126 -0.0330 -0.9994
vn 0.0724 -0.4381 -0.8960
vn -0.1491 -0.4239 -0.8934
vn -0.2437 0.0107 -0.9698
vn 0.2468 -0.0861 -0.9652
vn 0.4891 -0.1622 -0.8570
vn 0.4211 -0.5200 -0.7431
vn 0.2424 -0.4387 -0.8653
vn -0.4772 0.4503 0.7546
vn -0.4676 0.2577 0.8455
vn -0.1520 0.3831 0.9111
vn -0.1096 0.5657 0.8173
vn 0.7338 0.3980 0.5505
vn 0.4518 -0.2497 0.8564
vn 0.9335 0.1648 0.3185
vn -0.4266 0.1628 0.8897
vn -0.6019 -0.0549 0.7967
vn -0.4430 -0.5987 0.6673
vn -0.3911 -0.1922 0.9001
vn -0.4350 0.1869 0.8808
vn -0.4097 0.0021 0.9122
vn 0.1754 -0.1406 0.9744
vn -0.1124 -0.5218 0.8456
vn -0.5975 -0.5527 0.5810
vn 0.7603 0.0562 0.6471
vn 0.8990 0.2298 0.3729
vn -0.3618 0.9065 -0.2177
vn -0.1571 0.9045 0.3965
vn 0.9028 0.3845 0.1926
vn -0.2624 0.9644 -0.0318
vn 0.8471 0.5312 -0.0145
vn -0.4634 0.8704 -0.1666
vn 0.4885 0.8637 -0.1243
vn -0.9918 -0.0283 0.1242
vn -0.9141 -0.3976 0.0795
vn -0.8447 -0.3920 0.3644
vn -0.9048 -0.0104 0.4256
vn -0.7286 -0.0053 0.6849
vn -0.6739 -0.4031 0.6192
vn -0.4378 -0.0279 0.8986
vn -0.4066 -0.4330 0.8045
vn -0.6569 0.5847 0.4760
vn -0.7781 0.5969 0.1957
vn -0.8251 0.3218 0.4643
vn -0.6900 0.2434 0.6816
vn -0.5551 0.4520 0.6982
vn 0.4857 -0.6568 0.5768
vn 0.5915 -0.6257 0.5085
vn 0.6817 -0.6111 0.4022
vn 0.3266 -0.6714 0.6653
vn 0.3914 -0.6217 0.6784
vn 0.6224 -0.6334 0.4598
vn 0.4253 -0.5668 0.7055
vn -0.0454 -0.9474 -0.3168
vn -0.1976 -0.9637 -0.1795
vn 0.7379 -0.6586 0.1477
vn 0.6474 -0.6688 0.3655
vn -0.1529 -0.9816 -0.1141
vn -0.0841 -0.9851 -0.1503
vn 0.7455 -0.5968 -0.2966
vn -0.0069 -0.9731 -0.2303
vn 0.2701 -0.8194 -0.5055
vn 0.0781 -0.8351 -0.5446
vn -0.0152 -0.5135 0.8580
vn -0.1157 -0.8523 0.5100
vn 0.1784 -0.7297 0.6601
vn 0.7511 -0.6123 0.2467
vn -0.8003 -0.3437 -0.4913
vn -0.8783 -0.4212 -0.2263
vn 0.7737 -0.6268 0.0924
vn 0.7409 -0.6706 -0.0361
vn 0.6536 -0.7148 -0.2487
vn 0.4850 -0.7710 -0.4126
vn 0.5854 -0.5367 -0.6077
vn -0.1448 -0.9890 -0.0291
vn -0.2902 -0.9017 0.3206
vn 0.6897 -0.1524 0.7079
vn 0.7951 -0.1215 0.5942
vn 0.5457 -0.1702 0.8205
vn 0.4013 -0.1765 0.8988
vn 0.2671 -0.1877 0.9452
vn -0.5215 0.0727 -0.8501
vn -0.8022 0.0435 -0.5954
vn -0.8576 0.0112 -0.5141
vn -0.9352 0.0070 -0.3541
vn -0.9745 0.0022 0.2243
vn 0.0359 0.0792 -0.9962
vn 0.4839 0.0290 -0.8746
vn 0.0845 -0.1738 0.9811
vn -0.2177 -0.1375 0.9663
vn 0.8784 -0.1016 0.4670
vn 0.9729 -0.0848 0.2153
vn 0.9936 -0.0770 -0.0832
vn 0.9193 -0.0677 -0.3876
vn 0.7560 -0.0335 -0.6538
vn -0.7241 -0.0394 0.6886
vn -0.5086 -0.0892 0.8564
vn 0.4920 0.3910 0.7779
vn -0.7349 0.4569 -0.5012
vn -0.8370 0.4619 0.2934
vn -0.5141 0.4708 0.7170
vn -0.2086 -0.9765 -0.0546
vn -0.6699 0.5957 -0.4432
vn -0.3806 -0.0111 -0.9247
vn -0.4100 -0.1929 -0.8914
vn -0.9881 -0.0162 -0.1528
vn 0.1645 -0.0631 -0.9844
vn 0.4475 0.0660 -0.8919
vn -0.9993 0.0125 0.0362
vn -0.2430 0.8893 -0.3875
vn -0.9352 0.3514 -0.0438
vn 0.0565 0.9978 -0.0353
vn -0.6595 -0.0663 -0.7488
vn -0.7826 -0.0618 -0.6195
vn -0.3356 -0.0397 -0.9412
vn -0.4822 -0.0626 -0.8738
vn 0.9335 -0.2423 0.2645
vn 0.8468 -0.2074 0.4898
vn 0.9279 -0.2527 -0.2740
vn 0.4791 -0.0628 0.8755
vn 0.7689 -0.1315 0.6257
vn -0.8804 -0.0190 -0.4739
vn 0.6971 -0.2130 -0.6846
vn -0.0084 -0.0517 -0.9986
vn -0.2009 -0.0282 -0.9792
vn 0.2598 -0.0851 -0.9619
vn 0.5648 -0.0709 -0.8222
vn -0.9783 -0.0329 -0.2047
vn -0.8856 -0.0511 0.4616
vn -0.9827 -0.0443 0.1796
vn -0.7061 -0.0584 0.7057
vn -0.3918 -0.0627 0.9179
vn -0.0160 -0.0441 0.9989
vn -0.6650 -0.0984 -0.7403
vn -0.4449 -0.1188 -0.8877
vn -0.2639 -0.1160 -0.9576
vn -0.1657 -0.1060 -0.9805
vn 0.9322 0.3302 0.1482
vn 0.9070 0.2225 0.3576
vn 0.8872 -0.0112 0.4612
vn 0.9727 0.0120 0.2317
vn 0.9677 0.0452 -0.2482
vn 0.9018 0.4071 -0.1450
vn 0.8449 0.1116 0.5231
vn 0.6223 0.0001 0.7828
vn 0.5413 -0.0292 0.8403
vn 0.7956 -0.0237 0.6054
vn -0.8919 -0.0455 -0.4500
vn -0.9263 -0.0059 -0.3768
vn -0.8147 -0.0587 -0.5769
vn 0.0176 -0.1143 -0.9933
vn 0.4367 -0.0496 -0.8982
vn 0.8869 0.3518 -0.2994
vn 0.8031 0.0180 -0.5955
vn 0.8243 0.1853 -0.5349
vn -0.9856 -0.0397 -0.1645
vn -0.9961 0.0237 -0.0847
vn -0.9724 0.0326 0.2310
vn 0.1338 -0.0720 0.9884
vn 0.0598 -0.0466 0.9971
vn -0.3742 -0.0671 0.9249
vn -0.7035 -0.0382 -0.7097
vn -0.8573 0.0424 -0.5130
vn -0.8849 0.0352 0.4645
vn -0.9278 0.2646 0.2630
vn -0.7150 -0.0150 0.6990
vn -0.9473 0.1282 -0.2935
vn -0.9791 0.2032 -0.0122
vn 0.5470 -0.0103 0.8370
vn 0.6969 -0.0221 0.7168
vn 0.8033 -0.0385 0.5944
vn 0.2204 -0.0209 0.9752
vn 0.3665 -0.0135 0.9303
vn -0.8141 0.0570 -0.5780
vn -0.5217 0.0715 -0.8502
vn -0.9279 0.0275 -0.3719
vn -0.8660 0.0356 -0.4988
vn -0.9792 0.0329 0.2004
vn 0.0135 0.0667 -0.9977
vn 0.4833 0.0544 -0.8738
vn -0.2158 0.0169 0.9763
vn 0.0683 -0.0176 0.9975
vn 0.8850 -0.0560 0.4623
vn 0.9726 -0.0631 0.2238
vn 0.9989 -0.0310 -0.0342
vn 0.9314 0.0179 -0.3635
vn 0.7590 0.0405 -0.6499
vn -0.7319 0.0363 0.6804
vn -0.4974 0.0313 0.8669
vn 0.3443 -0.4907 0.8004
vn 0.5125 -0.5290 0.6764
vn 0.6050 -0.5120 0.6098
vn 0.1039 -0.5363 0.8376
vn 0.1738 -0.4709 0.8649
vn -0.7711 -0.5095 -0.3818
vn -0.6250 -0.4722 -0.6217
vn -0.7772 -0.5246 -0.3475
vn -0.7638 -0.5412 -0.3516
vn -0.8248 -0.5619 0.0630
vn -0.2559 -0.5747 -0.7773
vn 0.2499 -0.6302 -0.7351
vn -0.0772 -0.5700 0.8180
vn 0.0480 -0.5674 0.8220
vn 0.6639 -0.5468 0.5102
vn 0.7896 -0.5246 0.3184
vn 0.8641 -0.4507 0.2243
vn 0.7654 -0.5949 -0.2457
vn 0.5614 -0.5924 -0.5779
vn -0.6380 -0.6242 0.4509
vn -0.3494 -0.6426 0.6819
vn -0.2935 -0.9545 0.0529
vt 0.928100 0.855700
vt 0.939600 0.876400
vt 0.917100 0.884200
vt 0.908300 0.865200
vt 0.071400 0.843400
vt 0.049200 0.840200
vt 0.052700 0.819700
vt 0.075500 0.824100
vt 0.038600 0.818800
vt 0.033600 0.839400
vt 0.954400 0.867400
vt 0.950900 0.845400
vt 0.954900 0.870300
vt 0.280400 0.211400
vt 0.278800 0.204700
vt 0.300500 0.201400
vt 0.303700 0.211400
vt 0.204500 0.186000
vt 0.205900 0.211400
vt 0.183900 0.211400
vt 0.183900 0.187700
vt 0.927400 0.761400
vt 0.938600 0.760400
vt 0.943700 0.787700
vt 0.936300 0.788500
vt 0.916000 0.732300
vt 0.929000 0.730000
vt 0.912100 0.832200
vt 0.934000 0.818500
vt 0.917700 0.794000
vt 0.945700 0.816300
vt 0.906800 0.764000
vt 0.898900 0.734700
vt 0.320200 0.195600
vt 0.326000 0.211400
vt 0.339400 0.193400
vt 0.345700 0.211400
vt 0.058000 0.799100
vt 0.043600 0.799500
vt 0.049900 0.778700
vt 0.065400 0.779200
vt 0.081500 0.804500
vt 0.090300 0.779100
vt 0.073700 0.757800
vt 0.099200 0.753200
vt 0.225400 0.185000
vt 0.229500 0.211400
vt 0.248600 0.166400
vt 0.251200 0.182100
vt 0.223500 0.165500
vt 0.299500 0.195100
vt 0.277200 0.194400
vt 0.273500 0.168300
vt 0.274800 0.181500
vt 0.296000 0.169500
vt 0.296700 0.180400
vt 0.227000 0.070900
vt 0.227100 0.066000
vt 0.245400 0.066000
vt 0.245400 0.071700
vt 0.200900 0.160600
vt 0.188100 0.071300
vt 0.187400 0.066000
vt 0.207700 0.066000
vt 0.207900 0.070600
vt 0.180900 0.163000
vt 0.158900 0.192200
vt 0.157400 0.167000
vt 0.901200 0.678300
vt 0.912200 0.676700
vt 0.920300 0.703800
vt 0.908500 0.705100
vt 0.922900 0.674900
vt 0.928000 0.702100
vt 0.933200 0.729500
vt 0.934500 0.673900
vt 0.937900 0.701300
vt 0.142200 0.073600
vt 0.141000 0.066000
vt 0.166500 0.066000
vt 0.167000 0.071700
vt 0.120800 0.075500
vt 0.102300 0.076200
vt 0.103500 0.066000
vt 0.120800 0.066000
vt 0.041900 0.756500
vt 0.047900 0.733900
vt 0.068000 0.729700
vt 0.060000 0.752800
vt 0.091500 0.705200
vt 0.086000 0.676000
vt 0.101700 0.673800
vt 0.071300 0.705500
vt 0.051000 0.708200
vt 0.066400 0.678600
vt 0.398700 0.184300
vt 0.376000 0.181300
vt 0.373700 0.150800
vt 0.396800 0.153100
vt 0.425500 0.186000
vt 0.427700 0.211400
vt 0.402800 0.211400
vt 0.044000 0.682400
vt 0.421800 0.156300
vt 0.450600 0.158900
vt 0.451800 0.184700
vt 0.475300 0.186200
vt 0.474700 0.160600
vt 0.493500 0.189900
vt 0.493500 0.163000
vt 0.041000 0.189700
vt 0.019300 0.189900
vt 0.019300 0.163000
vt 0.039600 0.167200
vt 0.303400 0.070900
vt 0.303800 0.066000
vt 0.324600 0.066000
vt 0.323400 0.070600
vt 0.341500 0.070200
vt 0.342200 0.066000
vt 0.364800 0.069500
vt 0.364500 0.066000
vt 0.335500 0.177000
vt 0.316200 0.178100
vt 0.332100 0.150800
vt 0.351100 0.149900
vt 0.355300 0.178200
vt 0.204100 0.057300
vt 0.225400 0.057300
vt 0.245400 0.057300
vt 0.160100 0.057300
vt 0.182300 0.057300
vt 0.441700 0.066000
vt 0.412400 0.066000
vt 0.413900 0.057300
vt 0.441400 0.057300
vt 0.493500 0.066000
vt 0.470400 0.066000
vt 0.468100 0.057300
vt 0.493500 0.057300
vt 0.043400 0.066000
vt 0.019300 0.066000
vt 0.019300 0.057300
vt 0.045000 0.057300
vt 0.362700 0.057300
vt 0.387500 0.057300
vt 0.387200 0.066000
vt 0.118300 0.057300
vt 0.137900 0.057300
vt 0.262700 0.057300
vt 0.265100 0.066000
vt 0.283100 0.066000
vt 0.281700 0.057300
vt 0.302800 0.057300
vt 0.324200 0.057300
vt 0.343900 0.057300
vt 0.073600 0.066000
vt 0.073500 0.057300
vt 0.100400 0.057300
vt 0.226200 0.043300
vt 0.245200 0.043300
vt 0.205900 0.043300
vt 0.185000 0.043300
vt 0.163300 0.043300
vt 0.411100 0.043300
vt 0.438300 0.043300
vt 0.466900 0.043300
vt 0.493500 0.043300
vt 0.019300 0.043300
vt 0.045200 0.043300
vt 0.387100 0.043300
vt 0.364000 0.043300
vt 0.138100 0.043300
vt 0.118300 0.043300
vt 0.264900 0.043300
vt 0.282600 0.043300
vt 0.303000 0.043300
vt 0.323700 0.043300
vt 0.341600 0.043300
vt 0.073600 0.043300
vt 0.101000 0.043300
vt 0.083100 0.731000
vt 0.252200 0.192500
vt 0.315700 0.170500
vt 0.364800 0.211400
vt 0.358000 0.189700
vt 0.381300 0.211400
vt 0.450900 0.211400
vt 0.252800 0.211400
vt 0.961800 0.861100
vt 0.958900 0.837400
vt 0.029500 0.822200
vt 0.024000 0.844900
vt 0.032400 0.801000
vt 0.037400 0.779100
vt 0.951100 0.756400
vt 0.956200 0.782400
vt 0.162300 0.211400
vt 0.138800 0.211400
vt 0.136200 0.195300
vt 0.114200 0.211400
vt 0.110800 0.199100
vt 0.134500 0.171900
vt 0.110600 0.175900
vt 0.093800 0.198600
vt 0.092200 0.176900
vt 0.069300 0.193800
vt 0.066900 0.172500
vt 0.226200 0.097600
vt 0.247300 0.097800
vt 0.184100 0.100000
vt 0.205100 0.098100
vt 0.493500 0.076000
vt 0.469500 0.073400
vt 0.043300 0.077300
vt 0.019300 0.076000
vt 0.411800 0.071500
vt 0.440700 0.072700
vt 0.265200 0.071800
vt 0.073000 0.077300
vt 0.138000 0.102000
vt 0.161500 0.100100
vt 0.116100 0.104900
vt 0.096900 0.105000
vt 0.283500 0.071200
vt 0.326000 0.094500
vt 0.306400 0.095700
vt 0.344500 0.093400
vt 0.367200 0.091900
vt 0.386700 0.070000
vt 0.224500 0.129000
vt 0.202600 0.128800
vt 0.181800 0.129800
vt 0.158600 0.133800
vt 0.493500 0.132700
vt 0.473100 0.130600
vt 0.471600 0.097300
vt 0.493500 0.100600
vt 0.041400 0.104200
vt 0.039800 0.138900
vt 0.019300 0.132700
vt 0.019300 0.100600
vt 0.448100 0.129200
vt 0.418500 0.126300
vt 0.415800 0.092900
vt 0.446300 0.096300
vt 0.266700 0.097400
vt 0.269200 0.128200
vt 0.247400 0.129100
vt 0.135400 0.136700
vt 0.112600 0.140700
vt 0.066900 0.142400
vt 0.069100 0.105800
vt 0.093200 0.143600
vt 0.286400 0.096600
vt 0.290300 0.126900
vt 0.310200 0.125300
vt 0.394300 0.123200
vt 0.390500 0.091300
vt 0.370800 0.121200
vt 0.223600 0.158400
vt 0.248500 0.157000
vt 0.329400 0.123600
vt 0.313400 0.152300
vt 0.348000 0.121900
vt 0.272400 0.156200
vt 0.294400 0.155400
vt 0.944200 0.727400
vt 0.959300 0.808300
vt 0.209600 0.017600
vt 0.231500 0.017600
vt 0.251200 0.017600
vt 0.161900 0.017600
vt 0.186500 0.017600
vt 0.438900 0.017600
vt 0.414600 0.017600
vt 0.493500 0.017600
vt 0.465100 0.017600
vt 0.043100 0.017600
vt 0.019300 0.017600
vt 0.389600 0.017600
vt 0.364900 0.017600
vt 0.115800 0.017600
vt 0.137300 0.017600
vt 0.267800 0.017600
vt 0.286100 0.017600
vt 0.307000 0.017600
vt 0.327900 0.017600
vt 0.346900 0.017600
vt 0.070700 0.017600
vt 0.097200 0.017600
vt 0.659900 0.962100
vt 0.665700 0.967500
vt 0.657500 0.978800
vt 0.649400 0.970900
vt 0.672300 0.971100
vt 0.667000 0.984100
vt 0.654800 0.946000
vt 0.656200 0.954900
vt 0.644700 0.960400
vt 0.643200 0.948600
vt 0.708500 0.934800
vt 0.719200 0.927500
vt 0.727800 0.941200
vt 0.715000 0.943400
vt 0.691200 0.924900
vt 0.698000 0.913400
vt 0.709300 0.919100
vt 0.700200 0.929200
vt 0.682800 0.922700
vt 0.685600 0.910400
vt 0.716700 0.951500
vt 0.729700 0.953400
vt 0.726700 0.966300
vt 0.715000 0.960000
vt 0.659000 0.930000
vt 0.655700 0.937000
vt 0.644100 0.936600
vt 0.648500 0.925800
vt 0.678800 0.972900
vt 0.676500 0.987000
vt 0.686200 0.973600
vt 0.686900 0.987900
vt 0.694500 0.972800
vt 0.698200 0.986600
vt 0.702500 0.970500
vt 0.709200 0.982800
vt 0.709000 0.966900
vt 0.718500 0.976800
vt 0.673000 0.923000
vt 0.670000 0.910800
vt 0.664500 0.926000
vt 0.655800 0.917000
vt 0.685200 0.948600
s 1
usemtl Topmat
f 3/1/1 4/2/2 2/3/3 1/4/4
f 2/5/3 4/6/2 5/7/5 6/8/6
f 7/9/7 5/7/5 4/6/2 8/10/8
f 9/11/9 4/2/2 3/1/1 10/12/10
f 4/2/2 9/11/9 8/13/8
f 11/14/11 12/15/12 13/16/13 14/17/14
f 16/18/15 17/19/16 18/20/17 19/21/18
f 20/22/19 21/23/20 22/24/21 23/25/22
f 21/23/20 20/22/19 24/26/23 25/27/24
f 3/1/1 1/4/4 29/28/25
f 3/1/1 29/28/25 30/29/26 10/12/10
f 29/28/25 31/30/27 30/29/26
f 31/30/27 23/25/22 32/31/28 30/29/26
f 10/12/10 30/29/26 32/31/28
f 23/25/22 31/30/27 33/32/29 20/22/19
f 20/22/19 33/32/29 26/33/30 24/26/23
f 34/34/31 35/35/32 14/17/14 13/16/13
f 36/36/33 37/37/34 35/35/32 34/34/31
f 38/38/35 39/39/36 40/40/37 41/41/38
f 5/7/5 7/9/7 39/39/36 38/38/35
f 6/8/6 5/7/5 38/38/35 42/42/39
f 42/42/39 38/38/35 41/41/38 43/43/40
f 48/44/41 49/45/42 43/43/40 41/41/38
f 50/46/43 51/47/44 17/19/16 16/18/15
f 52/48/45 53/49/46 50/46/43 54/50/47
f 55/51/48 13/16/13 12/15/12 56/52/49
f 57/53/50 58/54/51 53/49/46 52/48/45
f 59/55/52 60/56/53 58/54/51 57/53/50
f 61/57/54 62/58/55 63/59/56 64/60/57
f 16/18/15 65/61/58 54/50/47 50/46/43
f 66/62/59 67/63/60 68/64/61 69/65/62
f 70/66/63 19/21/18 71/67/64 72/68/65
f 65/61/58 16/18/15 19/21/18 70/66/63
f 28/69/66 76/70/67 77/71/68 27/72/69
f 76/70/67 78/73/70 79/74/71 77/71/68
f 80/75/72 25/27/24 77/71/68 79/74/71
f 27/72/69 77/71/68 25/27/24 24/26/23
f 78/73/70 81/76/73 82/77/74 79/74/71
f 49/45/42 26/33/30 31/30/27
f 84/78/75 85/79/76 86/80/77 87/81/78
f 88/82/79 89/83/80 90/84/81 91/85/82
f 92/86/83 93/87/84 94/88/85 95/89/86
f 44/90/87 96/91/88 47/92/89
f 97/93/90 94/88/85 93/87/84 98/94/91
f 97/93/90 99/95/92 96/91/88
f 100/96/93 101/97/94 102/98/95 103/99/96
f 100/96/93 104/100/97 105/101/98 98/102/91
f 98/94/91 105/103/98 99/95/92 97/93/90
f 106/104/99 107/105/100 108/106/101 104/100/97
f 109/107/102 108/106/101 107/105/100 110/108/103
f 113/109/104 109/107/102 110/108/103 114/110/105
f 115/111/106 113/112/104 114/113/105 116/114/107
f 117/115/108 118/116/109 119/117/110 120/118/111
f 121/119/112 120/118/111 119/117/110 122/120/113
f 123/121/114 121/119/112 122/120/113 124/122/115
f 125/123/116 36/36/33 34/34/31 126/124/117
f 34/34/31 13/16/13 55/51/48
f 127/125/118 128/126/119 129/127/120 125/123/116
f 128/126/119 102/98/95 101/97/94 129/127/120
f 62/58/55 68/64/61 130/128/121 131/129/122
f 63/59/56 62/58/55 131/129/122 132/130/123
f 86/80/77 133/131/124 134/132/125 67/63/60
f 68/64/61 67/63/60 134/132/125 130/128/121
f 135/133/126 136/134/127 137/135/128 138/136/129
f 139/137/130 140/138/131 141/139/132 142/140/133
f 143/141/134 139/142/130 142/143/133 144/144/135
f 138/136/129 141/139/132 140/138/131 135/133/126
f 124/122/115 145/145/136 146/146/137 147/147/138
f 147/147/138 146/146/137 137/135/128 136/134/127
f 85/79/76 91/85/82 148/148/139 149/149/140
f 86/80/77 85/79/76 149/149/140 133/131/124
f 132/130/123 150/150/141 151/151/142 63/59/56
f 152/152/143 151/151/142 150/150/141 153/153/144
f 154/154/145 118/116/109 152/152/143 153/153/144
f 118/116/109 154/154/145 155/155/146 119/117/110
f 156/156/147 122/120/113 119/117/110 155/155/146
f 122/120/113 156/156/147 145/145/136 124/122/115
f 157/157/148 143/141/134 144/144/135 158/158/149
f 90/84/81 157/157/148 158/158/149 159/159/150
f 90/84/81 159/159/150 148/148/139 91/85/82
f 132/130/123 131/129/122 160/160/151 161/161/152
f 131/129/122 130/128/121 162/162/153 160/160/151
f 130/128/121 134/132/125 163/163/154 162/162/153
f 134/132/125 133/131/124 164/164/155 163/163/154
f 138/136/129 137/135/128 165/165/156 166/166/157
f 142/140/133 141/139/132 167/167/158 168/168/159
f 144/144/135 142/143/133 168/169/159 169/170/160
f 141/139/132 138/136/129 166/166/157 167/167/158
f 146/146/137 170/171/161 165/165/156 137/135/128
f 145/145/136 171/172/162 170/171/161 146/146/137
f 133/131/124 149/149/140 172/173/163 164/164/155
f 149/149/140 148/148/139 173/174/164 172/173/163
f 150/150/141 174/175/165 175/176/166 153/153/144
f 132/130/123 161/161/152 174/175/165 150/150/141
f 153/153/144 175/176/166 176/177/167 154/154/145
f 154/154/145 176/177/167 177/178/168 155/155/146
f 155/155/146 177/178/168 178/179/169 156/156/147
f 156/156/147 178/179/169 171/172/162 145/145/136
f 158/158/149 144/144/135 169/170/160 179/180/170
f 159/159/150 158/158/149 179/180/170 180/181/171
f 159/159/150 180/181/171 173/174/164 148/148/139
f 46/182/172 94/88/85 97/93/90 44/90/87
f 94/88/85 46/182/172 48/44/41 95/89/86
f 41/41/38 40/40/37 95/89/86 48/44/41
f 58/54/51 56/52/49 181/183/173 53/49/46
f 60/56/53 55/51/48 56/52/49 58/54/51
f 55/51/48 60/56/53 126/124/117 34/34/31
f 181/183/173 56/52/49 12/15/12
f 182/184/174 126/124/117 60/56/53 59/55/52
f 126/124/117 182/184/174 125/123/116
f 92/185/83 37/37/34 36/36/33 183/186/175
f 93/187/84 92/185/83 183/186/175 101/97/94
f 98/102/91 93/187/84 101/97/94 100/96/93
f 111/188/176 105/101/98 104/100/97 108/106/101
f 12/15/12 11/14/11 184/189/177 181/183/173
f 11/190/11 9/11/9 10/12/10 184/191/177
f 11/190/11 8/13/8 9/11/9
f 14/192/14 7/9/7 8/10/8 11/193/11
f 35/194/32 39/39/36 7/9/7 14/192/14
f 37/195/34 40/40/37 39/39/36 35/194/32
f 92/86/83 95/89/86 40/40/37 37/195/34
f 32/31/28 23/25/22 22/24/21
f 21/23/20 18/196/17 17/197/16 22/24/21
f 21/23/20 25/27/24 80/75/72
f 104/100/97 100/96/93 103/99/96 106/104/99
f 185/198/178 71/67/64 19/21/18 18/20/17
f 82/199/74 186/200/179 71/67/64 185/198/178
f 81/201/73 187/202/180 186/200/179 82/199/74
f 186/200/179 190/203/181 72/68/65 71/67/64
f 187/202/180 191/204/182 190/203/181 186/200/179
f 188/205/183 192/206/184 191/204/182 187/202/180
f 189/207/185 193/208/186 192/206/184 188/205/183
f 115/111/106 116/114/107 193/208/186 189/207/185
f 194/209/187 61/57/54 64/60/57 195/210/188
f 62/58/55 61/57/54 69/65/62 68/64/61
f 196/211/189 66/62/59 69/65/62 197/212/190
f 67/63/60 66/62/59 87/81/78 86/80/77
f 139/137/130 198/213/191 199/214/192 140/138/131
f 143/141/134 200/215/193 198/216/191 139/142/130
f 201/217/194 136/134/127 135/133/126 202/218/195
f 151/151/142 203/219/196 64/60/57 63/59/56
f 84/78/75 88/82/79 91/85/82 85/79/76
f 204/220/197 200/215/193 143/141/134 157/157/148
f 89/83/80 204/220/197 157/157/148 90/84/81
f 205/221/198 84/78/75 87/81/78 206/222/199
f 89/83/80 88/82/79 207/223/200 208/224/201
f 140/138/131 199/214/192 202/218/195 135/133/126
f 152/152/143 209/225/202 203/219/196 151/151/142
f 118/116/109 117/115/108 209/225/202 152/152/143
f 117/115/108 120/118/111 210/226/203 211/227/204
f 120/118/111 121/119/112 212/228/205 210/226/203
f 121/119/112 123/121/114 213/229/206 212/228/205
f 201/217/194 214/230/207 147/147/138 136/134/127
f 214/230/207 123/121/114 124/122/115 147/147/138
f 194/209/187 215/231/208 216/232/209 197/212/190
f 196/211/189 217/233/210 218/234/211 206/222/199
f 219/235/212 220/236/213 221/237/214 222/238/215
f 223/239/216 224/240/217 219/241/212 222/242/215
f 225/243/218 226/244/219 227/245/220 228/246/221
f 229/247/222 230/248/223 231/249/224 195/210/188
f 205/221/198 232/250/225 233/251/226 207/223/200
f 234/252/227 224/240/217 223/239/216 235/253/228
f 208/224/201 236/254/229 234/252/227 235/253/228
f 220/236/213 225/243/218 228/246/221 221/237/214
f 237/255/230 238/256/231 230/248/223 229/247/222
f 239/257/232 238/256/231 237/255/230 211/227/204
f 226/244/219 240/258/233 241/259/234 227/245/220
f 240/258/233 242/260/235 213/229/206 241/259/234
f 243/261/236 215/231/208 231/249/224 244/262/237
f 70/66/63 217/233/210 216/232/209 65/61/58
f 190/203/181 232/250/225 218/234/211 72/68/65
f 192/206/184 236/254/229 233/251/226 191/204/182
f 239/257/232 245/263/238 127/125/118 246/264/239
f 245/263/238 247/265/240 128/126/119 127/125/118
f 247/265/240 242/260/235 102/98/95 128/126/119
f 215/231/208 243/261/236 65/61/58 216/232/209
f 217/233/210 70/66/63 72/68/65 218/234/211
f 114/110/105 110/108/103 220/236/213 219/235/212
f 224/240/217 116/114/107 114/113/105 219/241/212
f 107/105/100 106/104/99 226/244/219 225/243/218
f 230/248/223 248/266/241 244/262/237 231/249/224
f 232/250/225 190/203/181 191/204/182 233/251/226
f 193/208/186 116/114/107 224/240/217 234/252/227
f 236/254/229 192/206/184 193/208/186 234/252/227
f 110/108/103 107/105/100 225/243/218 220/236/213
f 238/256/231 249/267/242 248/266/241 230/248/223
f 246/264/239 249/267/242 238/256/231 239/257/232
f 106/104/99 103/99/96 240/258/233 226/244/219
f 103/99/96 102/98/95 242/260/235 240/258/233
f 215/231/208 194/209/187 195/210/188 231/249/224
f 217/233/210 196/211/189 197/212/190 216/232/209
f 232/250/225 205/221/198 206/222/199 218/234/211
f 236/254/229 208/224/201 207/223/200 233/251/226
f 211/227/204 210/226/203 245/263/238 239/257/232
f 210/226/203 212/228/205 247/265/240 245/263/238
f 212/228/205 213/229/206 242/260/235 247/265/240
f 61/57/54 194/209/187 197/212/190 69/65/62
f 66/62/59 196/211/189 206/222/199 87/81/78
f 198/213/191 222/238/215 221/237/214 199/214/192
f 200/215/193 223/239/216 222/242/215 198/216/191
f 228/246/221 227/245/220 201/217/194 202/218/195
f 203/219/196 229/247/222 195/210/188 64/60/57
f 84/78/75 205/221/198 207/223/200 88/82/79
f 235/253/228 223/239/216 200/215/193 204/220/197
f 208/224/201 235/253/228 204/220/197 89/83/80
f 221/237/214 228/246/221 202/218/195 199/214/192
f 209/225/202 237/255/230 229/247/222 203/219/196
f 117/115/108 211/227/204 237/255/230 209/225/202
f 227/245/220 241/259/234 214/230/207 201/217/194
f 241/259/234 213/229/206 123/121/114 214/230/207
f 185/268/178 80/75/72 79/74/71 82/77/74
f 18/196/17 21/23/20 80/75/72 185/268/178
f 51/269/44 32/31/28 22/24/21 17/197/16
f 184/191/177 10/12/10 32/31/28 51/269/44
f 51/47/44 50/46/43 181/183/173 184/189/177
f 183/186/175 36/36/33 125/123/116 129/127/120
f 183/186/175 129/127/120 101/97/94
f 44/90/87 97/93/90 96/91/88
f 53/49/46 181/183/173 50/46/43
f 65/61/58 243/261/236 54/50/47
f 244/262/237 52/48/45 54/50/47 243/261/236
f 248/266/241 57/53/50 52/48/45 244/262/237
f 249/267/242 59/55/52 57/53/50 248/266/241
f 246/264/239 182/184/174 59/55/52 249/267/242
f 182/184/174 246/264/239 127/125/118 125/123/116
f 160/160/151 162/162/153 250/270/243 251/271/244
f 161/161/152 160/160/151 251/271/244 252/272/245
f 163/163/154 164/164/155 253/273/246 254/274/247
f 162/162/153 163/163/154 254/274/247 250/270/243
f 255/275/248 166/166/157 165/165/156 256/276/249
f 257/277/250 168/168/159 167/167/158 258/278/251
f 259/279/252 169/170/160 168/169/159 257/280/250
f 258/278/251 167/167/158 166/166/157 255/275/248
f 260/281/253 170/171/161 171/172/162 261/282/254
f 256/276/249 165/165/156 170/171/161 260/281/253
f 172/173/163 173/174/164 262/283/255 263/284/256
f 164/164/155 172/173/163 263/284/256 253/273/246
f 174/175/165 161/161/152 252/272/245 264/285/257
f 175/176/166 174/175/165 264/285/257 265/286/258
f 176/177/167 175/176/166 265/286/258 266/287/259
f 177/178/168 176/177/167 266/287/259 267/288/260
f 268/289/261 178/179/169 177/178/168 267/288/260
f 261/282/254 171/172/162 178/179/169 268/289/261
f 269/290/262 179/180/170 169/170/160 259/279/252
f 270/291/263 180/181/171 179/180/170 269/290/262
f 262/283/255 173/174/164 180/181/171 270/291/263
f 271/292/264 272/293/265 251/294/244 250/295/243
f 272/293/265 273/296/266 252/297/245 251/294/244
f 274/298/267 275/299/268 254/300/247 253/301/246
f 275/299/268 271/292/264 250/295/243 254/300/247
f 276/302/269 255/303/248 256/304/249 277/305/270
f 278/306/271 257/307/250 258/308/251 279/309/272
f 280/310/273 259/311/252 257/307/250 278/306/271
f 279/309/272 258/308/251 255/303/248 276/302/269
f 281/312/274 260/313/253 261/314/254 282/315/275
f 277/305/270 256/304/249 260/313/253 281/312/274
f 283/316/276 284/317/277 263/318/256 262/319/255
f 284/317/277 274/298/267 253/301/246 263/318/256
f 273/296/266 285/320/278 264/321/257 252/297/245
f 286/322/279 265/323/258 264/321/257 285/320/278
f 287/324/280 266/325/259 265/323/258 286/322/279
f 288/326/281 267/327/260 266/325/259 287/324/280
f 289/328/282 268/329/261 267/327/260 288/326/281
f 282/315/275 261/314/254 268/329/261 289/328/282
f 280/310/273 290/330/283 269/331/262 259/311/252
f 290/330/283 291/332/284 270/333/263 269/331/262
f 291/332/284 283/316/276 262/319/255 270/333/263
f 272/293/265 271/292/264 292/334/285
f 273/296/266 272/293/265 292/334/285
f 275/299/268 274/298/267 292/334/285
f 271/292/264 275/299/268 292/334/285
f 276/302/269 277/305/270 292/334/285
f 278/306/271 279/309/272 292/334/285
f 280/310/273 278/306/271 292/334/285
f 279/309/272 276/302/269 292/334/285
f 281/312/274 282/315/275 292/334/285
f 277/305/270 281/312/274 292/334/285
f 284/317/277 283/316/276 292/334/285
f 274/298/267 284/317/277 292/334/285
f 285/320/278 273/296/266 292/334/285
f 286/322/279 285/320/278 292/334/285
f 287/324/280 286/322/279 292/334/285
f 288/326/281 287/324/280 292/334/285
f 289/328/282 288/326/281 292/334/285
f 282/315/275 289/328/282 292/334/285
f 290/330/283 280/310/273 292/334/285
f 291/332/284 290/330/283 292/334/285
f 283/316/276 291/332/284 292/334/285
f 46/182/172 44/90/87 27/72/69
f 29/28/25 2/5/3 43/43/40
f 2/5/3 6/8/6 43/43/40
f 6/8/6 42/42/39 43/43/40
f 43/43/40 31/30/27 29/28/25
f 1/4/4 2/5/3 29/28/25
f 26/33/30 49/45/42 48/44/41 24/26/23
f 27/72/69 96/91/88 28/69/66
f 96/91/88 76/70/67 28/69/66
f 76/70/67 105/103/98 78/73/70
f 81/76/73 78/73/70 105/101/98 111/188/176
f 108/106/101 187/202/180 81/201/73 111/188/176
f 44/90/87 47/92/89 27/72/69
f 27/72/69 24/26/23 46/182/172
f 24/26/23 48/44/41 46/182/172
f 33/32/29 31/30/27 26/33/30
f 31/30/27 43/43/40 49/45/42
f 27/72/69 47/92/89 96/91/88
f 96/91/88 99/95/92 76/70/67
f 76/70/67 99/95/92 105/103/98
l 44 45
l 73 74
l 83 15
l 75 112
