# Blender 5.0.1
# www.blender.org
mtllib upper_leg.mtl
o Ch31_Pants.001
v -0.081490 0.136067 0.022636
v -0.109751 0.185661 -0.071363
v -0.052954 0.144521 -0.036885
v -0.065182 0.138398 0.008000
v -0.059407 0.157364 -0.004242
v -0.069497 0.149221 0.011522
v -0.069859 0.206871 0.005257
v -0.085387 0.185486 0.015586
v -0.056681 0.150856 -0.039524
v -0.047040 0.110255 -0.056840
v -0.114459 0.146852 -0.069748
v -0.128713 0.496217 -0.042139
v -0.129091 0.463532 -0.052707
v -0.097831 0.135493 0.021081
v -0.098368 0.127452 0.022715
v -0.085000 0.126310 0.024337
v -0.083794 0.152887 0.026396
v -0.094710 0.152794 0.026109
v -0.069135 0.119632 0.020179
v -0.068238 0.125679 0.016501
v -0.074115 0.151693 0.019251
v -0.059353 0.145307 -0.046988
v -0.061862 0.152946 -0.055652
v -0.057681 0.162240 -0.046181
v -0.050425 0.161514 -0.031813
v -0.050300 0.151857 -0.030125
v -0.116541 0.182120 -0.066247
v -0.122138 0.194741 -0.069404
v -0.111768 0.195181 -0.075203
v -0.102805 0.180285 -0.074904
v -0.108738 0.170458 -0.068651
v -0.056073 0.139857 -0.038906
v -0.050520 0.143990 -0.029287
v -0.051629 0.137070 -0.030166
v -0.060080 0.132084 0.001669
v -0.061786 0.137405 0.001057
v -0.064353 0.144862 0.002504
v -0.068027 0.143612 0.010439
v -0.049078 0.169852 -0.005941
v -0.053406 0.179271 0.005082
v -0.060951 0.169881 0.010316
v -0.069323 0.162490 0.016083
v -0.066791 0.153194 0.006660
v -0.059046 0.145167 -0.007823
v -0.065369 0.200668 -0.000329
v -0.061729 0.213167 -0.004740
v -0.068275 0.216921 0.005064
v -0.077933 0.216742 0.013621
v -0.077131 0.203429 0.011493
v -0.072233 0.192132 0.007000
v -0.091600 0.169008 0.023231
v -0.078447 0.168793 0.022724
v -0.073303 0.178869 0.013544
v -0.102256 0.187047 0.016248
v -0.105006 0.170086 0.018567
v -0.089451 0.201928 0.016724
v -0.103501 0.201392 0.016901
v -0.065771 0.186176 0.005743
v -0.043275 0.103675 -0.035035
v -0.045692 0.093790 -0.034255
v -0.045533 0.092056 -0.049113
v -0.052953 0.089888 -0.067422
v -0.053518 0.105163 -0.072588
v -0.051370 0.119098 -0.051461
v -0.048105 0.112399 -0.034860
v -0.059960 0.139816 -0.051299
v -0.054544 0.131654 -0.061863
v -0.057811 0.144938 -0.067056
v -0.062038 0.156545 -0.065661
v -0.099619 0.138999 -0.086732
v -0.100287 0.123557 -0.083581
v -0.112398 0.127121 -0.070897
v -0.105629 0.160677 -0.079968
v -0.097143 0.154197 -0.090914
v -0.116924 0.163726 -0.059444
v -0.138260 0.493753 -0.037813
v -0.138173 0.508364 -0.040028
v -0.126859 0.505453 -0.043273
v -0.131088 0.481975 -0.043726
v -0.115178 0.498545 -0.050136
v -0.141714 0.462118 -0.044271
v -0.149177 0.476566 -0.033914
v -0.140081 0.478580 -0.038464
v -0.119889 0.473647 -0.056665
v -0.117036 0.459921 -0.069508
v -0.118313 0.444554 -0.073353
v -0.128022 0.447930 -0.062457
v -0.138488 0.446931 -0.052877
v -0.112911 0.471977 -0.067735
v -0.107277 0.496009 -0.059219
v -0.101194 0.496166 -0.065728
v -0.113492 0.483992 -0.058780
v -0.093069 0.494668 -0.066969
v -0.098251 0.481843 -0.068834
v -0.102453 0.469103 -0.070821
v -0.084413 0.492489 -0.064194
v -0.088641 0.479144 -0.066405
v -0.091874 0.465894 -0.069044
v -0.093764 0.452306 -0.072126
v -0.104969 0.455435 -0.072932
v -0.078903 0.464002 -0.066483
v -0.079583 0.451016 -0.069921
v -0.079718 0.437673 -0.073349
v -0.094222 0.438036 -0.075566
v -0.063760 0.463837 -0.061356
v -0.064821 0.450336 -0.064820
v -0.065937 0.436620 -0.068023
v -0.079595 0.415314 -0.078631
v -0.054172 0.448570 -0.054191
v -0.055221 0.434794 -0.057925
v -0.056343 0.413998 -0.063741
v -0.067066 0.415180 -0.072735
v -0.047681 0.433317 -0.047599
v -0.049057 0.412508 -0.053635
v -0.056276 0.385438 -0.070261
v -0.044187 0.410976 -0.042059
v -0.043773 0.383312 -0.049281
v -0.048784 0.384467 -0.060512
v -0.042117 0.410040 -0.032250
v -0.041570 0.382269 -0.038245
v -0.043162 0.354441 -0.054473
v -0.041667 0.381309 -0.026596
v -0.040226 0.352467 -0.031652
v -0.040485 0.353470 -0.043394
v -0.044391 0.380232 -0.014593
v -0.042566 0.351410 -0.019744
v -0.040307 0.322985 -0.036995
v -0.047423 0.350236 -0.008239
v -0.042126 0.321722 -0.024808
v -0.054681 0.349072 0.002412
v -0.052865 0.320315 -0.002697
v -0.045389 0.290751 -0.024274
v -0.061888 0.320127 0.007202
v -0.060400 0.291289 0.002458
v -0.052176 0.290504 -0.008593
v -0.072855 0.319791 0.015733
v -0.070903 0.291945 0.011619
v -0.068886 0.270856 0.009518
v -0.058744 0.269776 -0.001066
v -0.083209 0.291558 0.018599
v -0.081264 0.271085 0.016564
v -0.079657 0.257329 0.016243
v -0.067450 0.257015 0.008732
v -0.096710 0.290558 0.022706
v -0.094781 0.270072 0.020733
v -0.093416 0.256668 0.020154
v -0.092327 0.243313 0.019330
v -0.078508 0.243535 0.015804
v -0.108977 0.269068 0.020108
v -0.107886 0.255698 0.019197
v -0.106813 0.242434 0.018512
v -0.105788 0.229012 0.017836
v -0.091572 0.229836 0.018420
v -0.121413 0.255290 0.013452
v -0.120103 0.241631 0.013063
v -0.118862 0.227667 0.012432
v -0.117623 0.213997 0.011630
v -0.104717 0.215288 0.017335
v -0.131474 0.240028 0.005092
v -0.129572 0.226163 0.003742
v -0.128012 0.212134 0.002978
v -0.126151 0.198068 0.002391
v -0.115981 0.200074 0.010936
v -0.135730 0.225021 -0.008195
v -0.135655 0.210588 -0.007966
v -0.133247 0.196222 -0.008438
v -0.129542 0.182139 -0.009057
v -0.123551 0.184289 0.001521
v -0.138207 0.209936 -0.021030
v -0.134629 0.195298 -0.021475
v -0.133022 0.179914 -0.021112
v -0.132402 0.164806 -0.019900
v -0.131408 0.167606 -0.006961
v -0.136751 0.194586 -0.034555
v -0.134357 0.178701 -0.034202
v -0.129295 0.162963 -0.033565
v -0.127504 0.147026 -0.034401
v -0.130550 0.149950 -0.018474
v -0.132396 0.178169 -0.047136
v -0.124167 0.162274 -0.046762
v -0.122156 0.145270 -0.052025
v -0.121532 0.128722 -0.052284
v -0.127367 0.131543 -0.034348
v -0.128920 0.116321 -0.033523
v -0.134135 0.119878 -0.018109
v -0.131237 0.135849 -0.017623
v -0.121828 0.113077 -0.051392
v -0.122547 0.097748 -0.050276
v -0.130001 0.100846 -0.033860
v -0.112704 0.110552 -0.068212
v -0.113090 0.095152 -0.066799
v -0.113186 0.081909 -0.067981
v -0.123451 0.084652 -0.049538
v -0.100302 0.108097 -0.081728
v -0.100645 0.093137 -0.080236
v -0.101708 0.080029 -0.079525
v -0.084355 0.091750 -0.088257
v -0.084861 0.078899 -0.088130
v -0.066606 0.090552 -0.082811
v -0.066056 0.078727 -0.082980
v -0.052791 0.079600 -0.066415
v -0.045763 0.082184 -0.046142
v -0.045664 0.085061 -0.032569
v -0.047009 0.095917 -0.017971
v -0.047417 0.088363 -0.016551
v -0.049309 0.100372 -0.002553
v -0.050161 0.092792 -0.000570
v -0.056912 0.106210 0.011309
v -0.058062 0.099278 0.013542
v -0.069347 0.114710 0.022796
v -0.072328 0.108618 0.023815
v -0.084963 0.122751 0.027401
v -0.084379 0.119392 0.025438
v -0.098635 0.123129 0.023919
v -0.097858 0.119622 0.022415
v -0.110017 0.119152 0.019359
v -0.106953 0.112435 0.021187
v -0.119056 0.113214 0.014252
v -0.115662 0.104084 0.017465
v -0.127204 0.108755 0.006068
v -0.123862 0.096876 0.008569
v -0.132827 0.105866 -0.004795
v -0.128916 0.093079 -0.003610
v -0.133202 0.103320 -0.018371
v -0.130964 0.090047 -0.017392
v -0.129732 0.087228 -0.033038
v -0.135937 0.122502 -0.005121
v -0.131327 0.122036 0.006419
v -0.131333 0.138347 0.008559
v -0.133247 0.138799 -0.002066
v -0.128751 0.154418 0.008094
v -0.132020 0.153069 -0.003152
v -0.124511 0.169093 0.003147
v -0.120670 0.154629 0.015677
v -0.115665 0.169833 0.011373
v -0.114406 0.186113 0.010302
v -0.109993 0.153697 0.020817
v -0.111329 0.136161 0.017168
v -0.123746 0.137740 0.014591
v -0.123020 0.124132 0.015516
v -0.111157 0.126314 0.019498
v -0.056535 0.113503 0.009363
v -0.048432 0.109365 -0.004115
v -0.050104 0.116914 -0.005877
v -0.057206 0.121077 0.006685
v -0.056042 0.129662 -0.008796
v -0.047912 0.113143 -0.020059
v -0.053989 0.129287 -0.020193
v -0.054785 0.136648 -0.019693
v -0.057429 0.136307 -0.008864
v -0.054915 0.144545 -0.019109
v -0.051016 0.153208 -0.017708
v -0.046561 0.163356 -0.018770
v -0.043915 0.175526 -0.030677
v -0.041384 0.178009 -0.019272
v -0.043358 0.183415 -0.010926
v -0.038375 0.193749 -0.021214
v -0.039588 0.199278 -0.015986
v -0.045613 0.205062 -0.009961
v -0.048272 0.191075 -0.002135
v -0.054078 0.207928 -0.009275
v -0.058836 0.195737 -0.002555
v -0.043625 0.220027 -0.017037
v -0.051691 0.222556 -0.014247
v -0.059733 0.227571 -0.006128
v -0.051208 0.238657 -0.016048
v -0.058448 0.241982 -0.005489
v -0.067130 0.243009 0.007204
v -0.066984 0.229769 0.005316
v -0.078047 0.229933 0.014837
v -0.090878 0.216117 0.017496
v -0.058071 0.255952 -0.003536
v -0.051214 0.254683 -0.015510
v -0.051535 0.271182 -0.013797
v -0.043471 0.253673 -0.023840
v -0.045211 0.270589 -0.026538
v -0.041050 0.269847 -0.032601
v -0.043247 0.292591 -0.032022
v -0.042655 0.294876 -0.043451
v -0.041879 0.294982 -0.052603
v -0.041441 0.324394 -0.048922
v -0.044330 0.324591 -0.058700
v -0.048367 0.323933 -0.066967
v -0.048106 0.355155 -0.064778
v -0.055198 0.355609 -0.073749
v -0.064497 0.355849 -0.081375
v -0.066357 0.386087 -0.078483
v -0.078231 0.386306 -0.084061
v -0.091477 0.386240 -0.087018
v -0.093065 0.414886 -0.081531
v -0.106268 0.415294 -0.081260
v -0.106539 0.440150 -0.075458
v -0.118675 0.417513 -0.077595
v -0.130098 0.421281 -0.070893
v -0.139180 0.423151 -0.061458
v -0.146943 0.421243 -0.052878
v -0.147153 0.444669 -0.046141
v -0.152330 0.418645 -0.041653
v -0.149814 0.441651 -0.036331
v -0.150659 0.456929 -0.028945
v -0.149630 0.459629 -0.037986
v -0.152820 0.473462 -0.018572
v -0.152468 0.474911 -0.026726
v -0.153054 0.491827 -0.011962
v -0.152594 0.493605 -0.019622
v -0.149079 0.512312 -0.017481
v -0.147949 0.512798 -0.025088
v -0.144917 0.511066 -0.033006
v -0.147264 0.494133 -0.032538
v -0.149974 0.509060 -0.008372
v -0.149861 0.505473 0.002430
v -0.147603 0.486021 0.011282
v -0.147635 0.501900 0.015333
v -0.142984 0.498506 0.028447
v -0.043783 0.489886 -0.033604
v -0.050098 0.490515 -0.044642
v -0.040700 0.489357 -0.021101
v -0.041377 0.474279 -0.023835
v -0.040554 0.489140 -0.010613
v -0.040961 0.473759 -0.014256
v -0.041225 0.458740 -0.018225
v -0.041683 0.459949 -0.027413
v -0.043210 0.488500 -0.000017
v -0.043029 0.458003 -0.008081
v -0.044621 0.443706 -0.013148
v -0.040688 0.444651 -0.022543
v -0.046888 0.473205 0.006863
v -0.045416 0.458011 0.003339
v -0.045824 0.442756 -0.000732
v -0.046774 0.428900 -0.004898
v -0.044952 0.430013 -0.017541
v -0.053907 0.457600 0.014648
v -0.052781 0.443035 0.011422
v -0.052536 0.428446 0.008156
v -0.046688 0.408344 -0.009909
v -0.062182 0.441550 0.022839
v -0.061341 0.427448 0.019058
v -0.059850 0.405864 0.013582
v -0.052154 0.407209 0.002703
v -0.070888 0.425853 0.028934
v -0.068789 0.404538 0.023112
v -0.057134 0.377324 0.007713
v -0.078803 0.402857 0.030873
v -0.076750 0.374777 0.025194
v -0.066318 0.376076 0.017090
v -0.088636 0.373837 0.031428
v -0.074958 0.347289 0.020227
v -0.101961 0.373700 0.034437
v -0.100761 0.345968 0.030280
v -0.087231 0.346335 0.026795
v -0.114640 0.346270 0.029141
v -0.098858 0.318217 0.026282
v -0.127390 0.346990 0.023428
v -0.125483 0.318242 0.019956
v -0.112794 0.317978 0.025529
v -0.136142 0.318790 0.011105
v -0.123285 0.289693 0.016570
v -0.144566 0.319502 -0.000037
v -0.142308 0.290619 -0.003243
v -0.133975 0.290181 0.007675
v -0.147823 0.290557 -0.015382
v -0.147137 0.267410 -0.016555
v -0.141990 0.268072 -0.004752
v -0.150239 0.290228 -0.028514
v -0.147641 0.267600 -0.029670
v -0.146034 0.252843 -0.031245
v -0.145988 0.252325 -0.017976
v -0.145826 0.267612 -0.043228
v -0.143184 0.253517 -0.044774
v -0.140705 0.239738 -0.046066
v -0.144170 0.238648 -0.032704
v -0.140790 0.267573 -0.057116
v -0.137720 0.253688 -0.058774
v -0.135529 0.240182 -0.060314
v -0.134303 0.225808 -0.060780
v -0.138621 0.225566 -0.047020
v -0.129605 0.254039 -0.071765
v -0.127533 0.239422 -0.073317
v -0.126204 0.224502 -0.073131
v -0.124797 0.209312 -0.071702
v -0.133618 0.210164 -0.060817
v -0.117507 0.238854 -0.082147
v -0.115420 0.223396 -0.081125
v -0.113780 0.208519 -0.078803
v -0.105246 0.222840 -0.087719
v -0.103151 0.207509 -0.084260
v -0.101976 0.193138 -0.079918
v -0.094336 0.206166 -0.091003
v -0.094079 0.190062 -0.087419
v -0.097821 0.174692 -0.084165
v -0.089456 0.188153 -0.097085
v -0.092877 0.171164 -0.094528
v -0.079788 0.187425 -0.099098
v -0.082701 0.169767 -0.097985
v -0.084950 0.152624 -0.095304
v -0.085315 0.137057 -0.093001
v -0.072727 0.170536 -0.094637
v -0.073490 0.153910 -0.094328
v -0.071584 0.137745 -0.091609
v -0.068861 0.121363 -0.088144
v -0.084718 0.121800 -0.091303
v -0.064924 0.156185 -0.086962
v -0.061275 0.140350 -0.085193
v -0.057518 0.123617 -0.080256
v -0.066914 0.105335 -0.084893
v -0.056715 0.143197 -0.075417
v -0.052219 0.128050 -0.068642
v -0.062294 0.157280 -0.076533
v -0.067924 0.171500 -0.084952
v -0.066190 0.171406 -0.073851
v -0.062678 0.167813 -0.060068
v -0.063009 0.185923 -0.070464
v -0.058212 0.180794 -0.055454
v -0.051609 0.176012 -0.041280
v -0.052075 0.195475 -0.052889
v -0.045032 0.191260 -0.038349
v -0.039437 0.190986 -0.029186
v -0.043509 0.212866 -0.040299
v -0.038030 0.212959 -0.034186
v -0.036147 0.214723 -0.028043
v -0.038936 0.233006 -0.036998
v -0.035963 0.234079 -0.031796
v -0.037978 0.235486 -0.025091
v -0.037397 0.217321 -0.021253
v -0.043341 0.236664 -0.021080
v -0.038989 0.253093 -0.028336
v -0.037267 0.252171 -0.034576
v -0.039112 0.269400 -0.040294
v -0.039830 0.251081 -0.040205
v -0.039763 0.268450 -0.046913
v -0.043747 0.267159 -0.052702
v -0.042666 0.293031 -0.059616
v -0.048001 0.290904 -0.065372
v -0.055179 0.290280 -0.070158
v -0.054060 0.323390 -0.074074
v -0.063542 0.324039 -0.081108
v -0.074361 0.325828 -0.087715
v -0.076046 0.356272 -0.087000
v -0.088992 0.356573 -0.089911
v -0.102661 0.356471 -0.090082
v -0.105307 0.386270 -0.087057
v -0.119087 0.386756 -0.083809
v -0.131717 0.387846 -0.077148
v -0.141917 0.389022 -0.067975
v -0.149311 0.389094 -0.057711
v -0.154761 0.386914 -0.045752
v -0.157552 0.385101 -0.032042
v -0.156302 0.416898 -0.027636
v -0.156563 0.415640 -0.013044
v -0.153961 0.438629 -0.007247
v -0.153024 0.440130 -0.022634
v -0.151935 0.453644 -0.000924
v -0.152303 0.455631 -0.015966
v -0.149485 0.469438 0.005757
v -0.152509 0.471927 -0.007882
v -0.147936 0.450981 0.013650
v -0.144683 0.466337 0.019378
v -0.143026 0.482436 0.024442
v -0.138759 0.462283 0.032547
v -0.137999 0.495080 0.041265
v -0.130472 0.491716 0.052753
v -0.120965 0.489407 0.060178
v -0.048052 0.487750 0.011032
v -0.054205 0.486454 0.023831
v -0.054830 0.471925 0.018976
v -0.061274 0.485082 0.036416
v -0.063054 0.455416 0.026908
v -0.072187 0.452972 0.037852
v -0.072255 0.439543 0.033287
v -0.079309 0.452070 0.047957
v -0.081978 0.437679 0.041896
v -0.081229 0.424074 0.036702
v -0.091199 0.437665 0.049660
v -0.091426 0.422524 0.042527
v -0.090108 0.401433 0.036296
v -0.102807 0.421541 0.045248
v -0.102582 0.400947 0.038560
v -0.115535 0.401568 0.037085
v -0.115783 0.374325 0.032878
v -0.128594 0.375608 0.027139
v -0.139620 0.377401 0.018476
v -0.138255 0.347968 0.014585
v -0.146765 0.349155 0.003558
v -0.152737 0.350631 -0.008815
v -0.150441 0.320156 -0.012688
v -0.153685 0.320647 -0.026039
v -0.153646 0.321360 -0.039567
v -0.149326 0.289996 -0.042039
v -0.145290 0.289721 -0.055117
v -0.137983 0.290444 -0.066818
v -0.132673 0.268641 -0.069417
v -0.123495 0.271658 -0.079453
v -0.120191 0.254797 -0.081406
v -0.113427 0.274725 -0.086814
v -0.110163 0.256062 -0.088614
v -0.107707 0.239019 -0.089286
v -0.100183 0.257071 -0.094260
v -0.098434 0.239277 -0.095818
v -0.096756 0.222318 -0.094945
v -0.088559 0.239520 -0.099133
v -0.087690 0.222245 -0.099960
v -0.087807 0.205204 -0.098855
v -0.078125 0.222247 -0.098046
v -0.078079 0.204990 -0.098943
v -0.070830 0.221599 -0.090760
v -0.069944 0.204626 -0.092300
v -0.070861 0.187510 -0.093851
v -0.063974 0.203316 -0.081416
v -0.066589 0.187257 -0.082938
v -0.058267 0.200583 -0.067744
v -0.064821 0.219980 -0.079920
v -0.058297 0.217381 -0.066274
v -0.051543 0.214648 -0.052903
v -0.059716 0.233745 -0.065359
v -0.051637 0.232396 -0.054017
v -0.043058 0.232293 -0.042944
v -0.051036 0.249254 -0.056036
v -0.043030 0.249975 -0.046550
v -0.050660 0.265754 -0.059514
v -0.059585 0.249850 -0.065209
v -0.057898 0.265739 -0.066034
v -0.067863 0.269191 -0.077070
v -0.065327 0.293712 -0.078687
v -0.073892 0.297439 -0.087615
v -0.083718 0.299924 -0.093615
v -0.086333 0.327122 -0.090894
v -0.098877 0.327278 -0.090710
v -0.111676 0.326398 -0.088099
v -0.116569 0.356054 -0.087251
v -0.130019 0.355352 -0.081043
v -0.141235 0.355134 -0.071629
v -0.149004 0.355153 -0.061081
v -0.154155 0.354168 -0.049147
v -0.156627 0.353001 -0.035734
v -0.156143 0.351794 -0.022022
v -0.157299 0.383660 -0.017997
v -0.154061 0.382001 -0.004645
v -0.148120 0.379576 0.007620
v -0.147132 0.409958 0.012879
v -0.153087 0.413419 0.000666
v -0.144378 0.432227 0.019944
v -0.150783 0.436159 0.007768
v -0.141627 0.447104 0.026562
v -0.136370 0.427510 0.030316
v -0.134224 0.441783 0.037567
v -0.132102 0.457701 0.044444
v -0.124868 0.437926 0.045233
v -0.124173 0.454619 0.052841
v -0.114904 0.453153 0.055962
v -0.111702 0.486917 0.064365
v -0.101558 0.484713 0.064892
v -0.090268 0.484326 0.060930
v -0.069446 0.484541 0.045742
v -0.079032 0.484541 0.053546
v -0.090714 0.468753 0.055213
v -0.090805 0.453322 0.051813
v -0.103488 0.453221 0.053844
v -0.103414 0.436913 0.050957
v -0.114873 0.436515 0.050323
v -0.114814 0.421778 0.043825
v -0.126072 0.423703 0.038422
v -0.127910 0.403436 0.031846
v -0.138736 0.406487 0.023511
v -0.150641 0.321613 -0.052598
v -0.144706 0.321679 -0.064424
v -0.135981 0.322344 -0.074633
v -0.128514 0.293456 -0.076715
v -0.124432 0.324509 -0.082891
v -0.118079 0.297285 -0.084434
v -0.106839 0.299680 -0.090016
v -0.103073 0.276716 -0.092443
v -0.095428 0.300664 -0.093925
v -0.092469 0.277340 -0.096394
v -0.090210 0.257497 -0.098035
v -0.081729 0.276388 -0.095346
v -0.080207 0.256853 -0.096365
v -0.079082 0.239281 -0.097001
v -0.073476 0.254931 -0.088425
v -0.072221 0.238156 -0.089483
v -0.068185 0.252092 -0.077463
v -0.066768 0.236133 -0.078626
v -0.074232 0.273627 -0.087478
v -0.084408 0.106467 -0.089548
v -0.131547 0.194412 -0.060103
v -0.136443 0.194091 -0.047771
v -0.137211 0.210050 -0.047565
v -0.139018 0.209933 -0.034358
v -0.141819 0.224548 -0.033665
v -0.141512 0.224184 -0.020303
v -0.142452 0.238423 -0.019539
v -0.139107 0.238698 -0.006518
v -0.141398 0.252667 -0.005546
v -0.132671 0.254384 0.004729
v -0.133196 0.268825 0.005373
v -0.122120 0.268757 0.014345
v -0.110614 0.289802 0.022164
v -0.085266 0.318960 0.022437
v -0.064050 0.348191 0.011917
v -0.049636 0.378763 -0.002909
v -0.043758 0.409387 -0.022075
v -0.040509 0.430841 -0.026683
v -0.042457 0.431895 -0.035962
v -0.041969 0.445983 -0.031770
v -0.046797 0.447335 -0.043607
v -0.045785 0.461202 -0.039869
v -0.052948 0.462325 -0.050953
v -0.051632 0.476178 -0.047807
v -0.062512 0.477298 -0.057658
v -0.060760 0.491131 -0.054267
v -0.074403 0.490777 -0.060149
v -0.126301 0.178861 -0.059008
v -0.053164 0.130201 -0.031645
v -0.058645 0.133753 -0.041645
v -0.045122 0.104854 -0.019063
v -0.122138 0.488976 -0.048192
v -0.107219 0.483804 -0.066786
v -0.077174 0.477073 -0.063177
v -0.151563 0.494252 -0.026409
v -0.151077 0.489028 -0.001503
v -0.044913 0.475175 -0.036570
v -0.041488 0.472975 -0.003819
v -0.137338 0.478520 0.037421
v -0.129273 0.475033 0.048848
v -0.062648 0.469776 0.032026
v -0.068871 0.467078 0.042707
v -0.120719 0.472585 0.055426
v -0.112584 0.469800 0.060890
v -0.102356 0.468539 0.059122
v -0.078268 0.468655 0.049969
v -0.077943 0.152298 0.023702
v -0.045987 0.320954 -0.013921
v -0.049896 0.206638 -0.009350
v -0.053567 0.193490 -0.001661
v -0.059104 0.183798 0.007072
v -0.048013 0.221421 -0.015585
v -0.048105 0.253895 -0.019376
v -0.048985 0.271528 -0.019471
v -0.048153 0.290750 -0.016486
v -0.047702 0.237691 -0.018391
v -0.065346 0.174949 0.014346
v -0.071972 0.165198 0.019826
v -0.064993 0.135553 0.010059
v -0.069810 0.142102 0.014551
v -0.071219 0.150457 0.014593
v -0.067414 0.157908 0.010611
v -0.059286 0.164418 0.003672
v -0.050821 0.174452 0.000133
v -0.045116 0.187570 -0.005639
v -0.041963 0.202718 -0.012106
v -0.040364 0.218848 -0.018599
v -0.040331 0.236076 -0.022832
v -0.089724 0.135607 0.023062
v -0.091624 0.127442 0.024085
v -0.091773 0.123870 0.026410
v -0.091065 0.121039 0.024177
v -0.072885 0.139985 0.019164
v -0.065561 0.131772 0.013388
v -0.058373 0.127346 0.003847
v -0.053611 0.123896 -0.007747
v -0.052264 0.121616 -0.020478
v -0.054236 0.122015 -0.033178
v -0.057320 0.126956 -0.045848
v -0.058684 0.136186 -0.055470
v -0.060072 0.144350 -0.058732
v -0.088589 0.119104 -0.027946
vn 0.0181 0.1449 0.9893
vn 0.2729 -0.0622 0.9600
vn 0.1687 0.0044 0.9857
vn -0.0993 0.0014 0.9951
vn 0.1920 0.3854 0.9026
vn 0.5509 0.3760 0.7451
vn 0.6363 0.2434 0.7320
vn 0.5714 -0.0942 0.8153
vn 0.7774 0.1545 0.6097
vn 0.5733 0.0024 0.8193
vn 0.9026 -0.1672 -0.3966
vn 0.9073 -0.2080 -0.3654
vn 0.9665 -0.0406 -0.2535
vn 0.8786 0.0130 -0.4774
vn 0.9546 0.0471 -0.2943
vn 0.9919 -0.0237 -0.1246
vn -0.5383 -0.3261 -0.7771
vn -0.4921 -0.2911 -0.8204
vn -0.5643 -0.3252 -0.7588
vn -0.4547 -0.3512 -0.8185
vn -0.7639 -0.0817 -0.6402
vn -0.7646 0.0543 -0.6422
vn 0.8648 -0.0090 -0.5020
vn 0.8388 -0.2263 -0.4952
vn 0.9926 -0.0967 0.0732
vn 0.9800 -0.1720 -0.0999
vn 0.8743 0.3138 0.3704
vn 0.8598 0.2942 0.4173
vn 0.8756 0.3837 0.2935
vn 0.8843 0.2795 0.3739
vn 0.8864 0.1252 0.4456
vn 0.8737 0.1957 0.4454
vn 0.8209 0.1718 0.5447
vn 0.7888 -0.3440 0.5094
vn 0.8098 -0.3899 0.4385
vn 0.7901 -0.2773 0.5467
vn 0.7522 -0.4597 0.4721
vn 0.8153 -0.2875 0.5026
vn 0.8734 -0.1318 0.4689
vn 0.9178 0.0149 0.3968
vn 0.8665 0.0891 0.4911
vn 0.8566 0.0053 0.5159
vn 0.6925 -0.1126 0.7126
vn 0.6122 0.1280 0.7803
vn 0.6834 0.0090 0.7300
vn 0.7413 -0.0954 0.6643
vn 0.4831 -0.0929 0.8706
vn 0.5247 -0.1083 0.8443
vn 0.5432 0.1586 0.8245
vn 0.2738 0.2195 0.9364
vn -0.1265 0.3260 0.9369
vn 0.2622 0.3874 0.8838
vn 0.3127 0.5346 0.7851
vn -0.1879 0.0448 0.9812
vn -0.4265 0.2219 0.8769
vn 0.1978 -0.0270 0.9799
vn -0.2105 -0.0556 0.9760
vn 0.2825 0.5278 0.8010
vn 0.9710 0.1541 -0.1826
vn 0.9959 0.0863 -0.0285
vn 0.9921 -0.1117 0.0576
vn 0.9841 -0.0328 -0.1748
vn 0.8534 -0.0851 -0.5142
vn 0.8236 -0.1076 -0.5569
vn 0.8853 0.4491 0.1207
vn 0.8605 0.5095 0.0001
vn 0.9941 0.1079 -0.0108
vn 0.9278 0.2969 0.2260
vn 0.9620 0.1847 0.2011
vn 0.9397 0.3080 0.1488
vn 0.9818 0.1890 0.0164
vn -0.8559 0.0295 -0.5162
vn -0.6145 -0.1244 -0.7791
vn -0.6058 -0.1141 -0.7874
vn -0.8167 -0.0614 -0.5738
vn -0.8031 0.1821 -0.5674
vn -0.5966 -0.0761 -0.7989
vn -0.8019 -0.0726 -0.5931
vn -0.5110 0.1061 -0.8530
vn -0.4701 0.0184 -0.8824
vn -0.3258 0.6362 -0.6994
vn -0.2460 0.7049 -0.6653
vn -0.5950 0.2850 -0.7515
vn -0.5595 0.2453 -0.7917
vn -0.3234 0.8219 -0.4690
vn -0.6192 0.3525 -0.7017
vn -0.5983 0.2682 -0.7551
vn -0.7561 0.1117 -0.6449
vn -0.5098 0.2382 -0.8266
vn -0.6973 0.3510 -0.6249
vn -0.5219 0.2651 -0.8108
vn -0.4303 0.1987 -0.8805
vn -0.6517 0.3298 -0.6831
vn -0.6507 0.2696 -0.7099
vn -0.5368 0.3100 -0.7847
vn -0.1965 0.7978 -0.5700
vn -0.4824 0.3015 -0.8224
vn -0.7046 0.3233 -0.6317
vn -0.3659 0.8422 -0.3961
vn 0.1907 0.7202 -0.6670
vn 0.0388 0.1357 -0.9900
vn -0.0246 0.1591 -0.9870
vn 0.3383 0.7062 -0.6220
vn 0.2778 0.0975 -0.9557
vn 0.2133 0.1652 -0.9629
vn 0.1491 0.2137 -0.9655
vn -0.0519 0.1651 -0.9849
vn 0.3205 0.1678 -0.9323
vn 0.2672 0.2181 -0.9386
vn 0.2487 0.2366 -0.9392
vn 0.2604 0.2304 -0.9376
vn 0.0914 0.2420 -0.9660
vn 0.5182 0.1779 -0.8366
vn 0.5330 0.1613 -0.8306
vn 0.5375 0.1524 -0.8294
vn 0.5347 0.1656 -0.8286
vn 0.3095 0.2048 -0.9286
vn 0.7698 0.0965 -0.6309
vn 0.7538 0.1283 -0.6444
vn 0.7325 0.1499 -0.6641
vn 0.8664 0.0855 -0.4920
vn 0.8724 0.1039 -0.4777
vn 0.8569 0.1122 -0.5032
vn 0.7144 0.1323 -0.6871
vn 0.9546 0.0496 -0.2938
vn 0.9511 0.0831 -0.2976
vn 0.9994 -0.0210 -0.0287
vn 0.9947 0.0467 -0.0912
vn 0.9917 0.0255 -0.1263
vn 0.9420 0.0451 -0.3327
vn 0.9920 0.0415 0.1193
vn 0.9962 0.0081 0.0865
vn 0.9479 0.0139 0.3182
vn 0.9568 -0.0132 0.2905
vn 0.9692 -0.0616 0.2385
vn 0.9986 -0.0478 0.0230
vn 0.8793 -0.0348 0.4750
vn 0.9041 -0.0685 0.4217
vn 0.7743 -0.0570 0.6302
vn 0.7986 -0.0776 0.5968
vn 0.8433 -0.1003 0.5281
vn 0.9141 -0.0998 0.3931
vn 0.6786 -0.0777 0.7304
vn 0.7299 -0.0649 0.6805
vn 0.5480 -0.0893 0.8317
vn 0.5775 -0.0536 0.8146
vn 0.6158 -0.0005 0.7879
vn 0.8007 -0.0526 0.5968
vn 0.3972 -0.0762 0.9146
vn 0.3981 -0.0153 0.9172
vn 0.4038 0.0156 0.9147
vn 0.6713 -0.0181 0.7410
vn 0.1328 -0.0999 0.9861
vn 0.1311 -0.0563 0.9898
vn 0.1088 -0.0418 0.9932
vn 0.1002 -0.0571 0.9933
vn 0.4352 -0.0200 0.9001
vn -0.2217 -0.0988 0.9701
vn -0.2278 -0.0765 0.9707
vn -0.2164 -0.0667 0.9740
vn -0.2101 -0.0587 0.9759
vn 0.1110 -0.0610 0.9919
vn -0.5032 -0.0780 0.8607
vn -0.4718 -0.0760 0.8784
vn -0.5013 -0.0895 0.8606
vn -0.5157 -0.0997 0.8510
vn -0.2091 -0.0504 0.9766
vn -0.7043 -0.1026 0.7024
vn -0.7601 -0.1420 0.6341
vn -0.7213 -0.1207 0.6820
vn -0.7249 -0.1511 0.6721
vn -0.5280 -0.1010 0.8432
vn -0.8834 -0.1322 0.4496
vn -0.9153 -0.0826 0.3943
vn -0.9142 -0.2090 0.3473
vn -0.9182 -0.0423 0.3938
vn -0.7848 -0.0364 0.6187
vn -0.9635 -0.2349 0.1282
vn -0.9754 -0.1693 0.1412
vn -0.9786 -0.0611 0.1966
vn -0.9944 -0.0879 -0.0581
vn -0.9446 0.1406 0.2966
vn -0.9864 -0.1468 0.0737
vn -0.9735 -0.2285 -0.0092
vn -0.9425 -0.1985 -0.2689
vn -0.9711 -0.0520 -0.2330
vn -0.9901 -0.0465 -0.1323
vn -0.8928 -0.3482 -0.2859
vn -0.8834 -0.2008 -0.4235
vn -0.9371 -0.0163 -0.3487
vn -0.9265 -0.0164 -0.3758
vn -0.9603 0.0380 -0.2762
vn -0.9313 0.0732 -0.3568
vn -0.9684 0.0641 -0.2412
vn -0.9741 0.1080 -0.1985
vn -0.9054 0.0025 -0.4246
vn -0.8883 0.0221 -0.4588
vn -0.9492 0.0173 -0.3141
vn -0.8180 -0.0543 -0.5727
vn -0.8082 0.0125 -0.5888
vn -0.4792 -0.8470 -0.2302
vn -0.4824 -0.8714 -0.0896
vn -0.6038 -0.0802 -0.7931
vn -0.5986 -0.0301 -0.8005
vn -0.3746 -0.8554 -0.3577
vn -0.0785 -0.0474 -0.9958
vn -0.1038 -0.8031 -0.5867
vn 0.5443 -0.0338 -0.8382
vn 0.3500 -0.8063 -0.4769
vn 0.4730 -0.8656 -0.1644
vn 0.4930 -0.8658 0.0861
vn 0.4694 -0.8579 0.2091
vn 0.9853 -0.1055 0.1341
vn 0.4124 -0.8711 0.2666
vn 0.9461 -0.0291 0.3226
vn 0.4024 -0.8106 0.4254
vn 0.8117 0.0845 0.5779
vn 0.2598 -0.7058 0.6591
vn 0.5561 0.1347 0.8201
vn -0.1484 -0.6300 0.7623
vn 0.1049 0.1104 0.9883
vn -0.4345 -0.7381 0.5161
vn -0.2372 -0.0094 0.9714
vn -0.1335 -0.8788 0.4582
vn 0.2471 -0.7481 0.6159
vn -0.3490 -0.0586 0.9353
vn -0.4269 -0.0241 0.9040
vn 0.1880 -0.4972 0.8470
vn -0.5710 -0.1127 0.8132
vn -0.0287 -0.6171 0.7864
vn -0.7703 -0.1696 0.6147
vn -0.2439 -0.7953 0.5550
vn -0.9362 -0.2122 0.2801
vn -0.3386 -0.8851 0.3194
vn -0.9911 -0.1123 -0.0713
vn -0.4233 -0.8876 0.1817
vn -0.4990 -0.8663 0.0232
vn -0.9952 -0.0020 0.0979
vn -0.8367 -0.1723 0.5199
vn -0.8537 0.0405 0.5192
vn -0.9923 0.1203 0.0297
vn -0.8233 0.2675 0.5006
vn -0.9924 0.0813 0.0920
vn -0.7481 0.2596 0.6108
vn -0.5456 0.2208 0.8085
vn -0.6092 0.2497 0.7527
vn -0.5682 -0.0039 0.8229
vn -0.3795 0.0352 0.9245
vn -0.2356 0.0245 0.9715
vn -0.2581 -0.0048 0.9661
vn -0.1755 -0.0261 0.9841
vn -0.4399 0.0265 0.8977
vn -0.5336 -0.1222 0.8369
vn -0.2923 0.0805 0.9529
vn -0.2254 0.2399 0.9443
vn -0.0906 0.3488 0.9328
vn 0.7891 0.1909 0.5839
vn 0.9348 0.1237 0.3330
vn 0.9066 0.3686 0.2053
vn 0.7945 0.3154 0.5189
vn 0.8896 0.4414 0.1177
vn 0.8579 0.3847 0.3406
vn 0.9238 0.3173 0.2144
vn 0.9345 0.3522 -0.0521
vn 0.9790 0.1593 0.1269
vn 0.9636 0.0423 0.2640
vn 0.9358 0.1693 0.3092
vn 0.9011 -0.2265 0.3698
vn 0.8468 -0.3883 0.3635
vn 0.9299 -0.3629 0.0594
vn 0.8820 -0.3016 -0.3620
vn 0.9589 -0.2592 0.1150
vn 0.9108 -0.1694 0.3765
vn 0.9822 -0.1295 0.1362
vn 0.9121 -0.0347 0.4084
vn 0.7588 0.1492 0.6340
vn 0.8511 -0.0422 0.5233
vn 0.5765 0.2748 0.7695
vn 0.4559 0.3501 0.8183
vn 0.2098 0.4034 0.8907
vn 0.2036 0.5236 0.8273
vn 0.3183 0.4952 0.8083
vn 0.6746 0.0244 0.7378
vn 0.2866 0.4356 0.8533
vn 0.3573 0.2932 0.8868
vn 0.3823 0.2329 0.8942
vn 0.5583 0.1276 0.8197
vn 0.7638 -0.0744 0.6412
vn 0.7009 0.0158 0.7131
vn 0.8114 -0.1007 0.5758
vn 0.7188 -0.0746 0.6912
vn 0.7545 -0.0854 0.6507
vn 0.4660 -0.0619 0.8826
vn 0.1394 -0.0497 0.9890
vn 0.8277 -0.0789 0.5556
vn 0.8223 -0.0315 0.5682
vn 0.8935 -0.0596 0.4450
vn 0.7396 0.0500 0.6712
vn 0.8958 -0.0346 0.4432
vn 0.9548 -0.0504 0.2929
vn 0.8548 0.0580 0.5158
vn 0.9116 0.1450 0.3846
vn 0.9879 0.0079 0.1548
vn 0.9973 0.0183 0.0714
vn 0.9993 0.0274 -0.0273
vn 0.9813 0.0069 -0.1922
vn 0.9296 0.0373 -0.3666
vn 0.8423 0.0072 -0.5389
vn 0.8474 0.0631 -0.5272
vn 0.7113 0.0697 -0.6994
vn 0.5390 0.0606 -0.8401
vn 0.5283 0.1452 -0.8365
vn 0.3192 0.1521 -0.9354
vn 0.1081 0.1487 -0.9829
vn 0.0925 0.2214 -0.9708
vn -0.1309 0.2059 -0.9698
vn -0.0390 0.1992 -0.9792
vn -0.3566 0.1707 -0.9185
vn -0.5591 0.2364 -0.7947
vn -0.7110 0.2262 -0.6659
vn -0.8318 0.1443 -0.5360
vn -0.8283 0.1547 -0.5385
vn -0.9331 0.1444 -0.3293
vn -0.9688 0.1097 -0.2222
vn -0.9921 -0.0207 -0.1237
vn -0.8792 0.1410 -0.4552
vn -0.9979 -0.0627 -0.0146
vn -0.9775 0.0191 -0.2101
vn -0.9948 0.0608 0.0822
vn -0.9901 0.1140 -0.0823
vn -0.9341 0.1098 -0.3396
vn -0.5817 0.8122 0.0441
vn -0.5531 0.8302 -0.0696
vn -0.5060 0.7787 -0.3708
vn -0.7079 0.0039 -0.7063
vn -0.6093 0.7839 0.1194
vn -0.9737 0.0075 0.2277
vn -0.6436 0.7497 0.1540
vn -0.9568 -0.0327 0.2891
vn -0.6562 0.7038 0.2722
vn 0.7907 0.6113 -0.0327
vn 0.9881 0.0002 -0.1540
vn 0.9200 0.0219 -0.3913
vn 0.7490 0.6320 -0.1989
vn 0.7653 0.6307 0.1289
vn 0.9997 -0.0233 0.0024
vn 0.9978 -0.0088 0.0652
vn 0.9837 0.0292 -0.1777
vn 0.7189 0.6335 0.2862
vn 0.9650 -0.0641 0.2545
vn 0.9699 -0.1624 0.1814
vn 0.9633 -0.1412 0.2285
vn 0.9915 -0.0137 0.1293
vn 0.8657 -0.0529 0.4978
vn 0.9105 -0.0674 0.4080
vn 0.9452 -0.1310 0.2992
vn 0.9579 -0.1034 0.2677
vn 0.9544 -0.0626 0.2919
vn 0.8012 -0.0986 0.5902
vn 0.8228 -0.0848 0.5619
vn 0.8515 -0.1085 0.5129
vn 0.8731 -0.0637 0.4834
vn 0.9493 -0.0231 0.3136
vn 0.7506 -0.1356 0.6467
vn 0.7513 -0.1208 0.6488
vn 0.7775 -0.0795 0.6238
vn 0.6693 -0.1487 0.7280
vn 0.6796 -0.1128 0.7249
vn 0.6697 -0.0899 0.7372
vn 0.7708 -0.0546 0.6347
vn 0.5371 -0.1474 0.8305
vn 0.5458 -0.1209 0.8291
vn 0.3181 -0.1992 0.9269
vn 0.3470 -0.1417 0.9271
vn 0.3652 -0.1286 0.9220
vn 0.5436 -0.1048 0.8328
vn 0.0506 -0.1472 0.9878
vn 0.0828 -0.1400 0.9867
vn -0.2725 -0.1413 0.9517
vn -0.2527 -0.1384 0.9576
vn -0.2306 -0.1355 0.9636
vn 0.1135 -0.1264 0.9855
vn -0.5276 -0.1336 0.8389
vn -0.5244 -0.1383 0.8402
vn -0.7181 -0.1280 0.6841
vn -0.7206 -0.1347 0.6802
vn -0.7192 -0.1183 0.6847
vn -0.5235 -0.1294 0.8421
vn -0.8539 -0.1237 0.5056
vn -0.8558 -0.0854 0.5103
vn -0.9399 -0.1121 0.3226
vn -0.9511 -0.0776 0.2989
vn -0.9718 -0.0683 0.2257
vn -0.8435 -0.0537 0.5344
vn -0.9915 -0.1168 0.0580
vn -0.9931 -0.1076 -0.0465
vn -0.9885 -0.1076 -0.1060
vn -0.9690 -0.1765 0.1730
vn -0.9750 -0.1313 -0.1791
vn -0.9612 -0.1464 -0.2338
vn -0.9468 -0.1447 -0.2876
vn -0.9445 -0.1305 -0.3015
vn -0.9875 -0.1411 -0.0697
vn -0.8832 -0.1407 -0.4474
vn -0.8862 -0.1176 -0.4481
vn -0.8963 -0.0790 -0.4363
vn -0.9025 -0.0511 -0.4277
vn -0.9576 -0.1007 -0.2699
vn -0.7823 -0.0542 -0.6205
vn -0.7615 -0.0566 -0.6457
vn -0.7270 -0.1015 -0.6791
vn -0.6654 -0.1814 -0.7241
vn -0.8878 -0.0857 -0.4521
vn -0.6224 -0.1022 -0.7760
vn -0.5704 -0.1594 -0.8057
vn -0.4998 -0.2406 -0.8320
vn -0.5930 -0.2108 -0.7771
vn -0.5397 -0.2695 -0.7975
vn -0.6035 -0.2661 -0.7517
vn -0.6949 -0.2162 -0.6859
vn -0.8181 -0.0292 -0.5743
vn -0.8343 0.2020 -0.5130
vn -0.6027 -0.0120 -0.7979
vn -0.6493 0.0080 -0.7605
vn 0.1677 -0.0497 -0.9846
vn -0.0046 -0.1096 -0.9940
vn -0.1352 -0.1382 -0.9811
vn -0.1644 -0.1282 -0.9780
vn 0.6504 -0.0385 -0.7586
vn 0.3768 -0.0694 -0.9237
vn 0.3298 -0.1309 -0.9349
vn 0.3958 -0.1319 -0.9088
vn -0.1361 -0.1158 -0.9839
vn 0.8103 0.1802 -0.5577
vn 0.7341 0.0289 -0.6784
vn 0.7664 -0.0609 -0.6395
vn 0.4818 -0.1139 -0.8688
vn 0.9363 0.2601 -0.2359
vn 0.9676 0.1878 -0.1685
vn 0.9117 0.3525 0.2110
vn 0.9357 0.3215 -0.1455
vn 0.9469 0.0876 -0.3094
vn 0.9805 0.0486 -0.1905
vn 0.9547 -0.0173 -0.2971
vn 0.9281 -0.1873 -0.3219
vn 0.8791 -0.2221 -0.4217
vn 0.8201 -0.2065 -0.5337
vn 0.8811 -0.1517 -0.4479
vn 0.8467 -0.1904 -0.4968
vn 0.9422 -0.1955 -0.2720
vn 0.7878 -0.1053 -0.6069
vn 0.8703 -0.1008 -0.4821
vn 0.9965 -0.0690 -0.0465
vn 0.8481 -0.0430 -0.5281
vn 0.9927 0.0101 -0.1198
vn 0.8598 0.1359 0.4922
vn 0.8901 0.0752 0.4496
vn 0.6238 0.1716 0.7625
vn 0.6089 0.2173 0.7629
vn 0.5324 0.1657 0.8301
vn 0.6939 0.1629 0.7014
vn 0.5550 0.0977 0.8261
vn 0.4397 0.2709 0.8563
vn 0.8598 0.1814 0.4774
vn 0.9947 0.0729 -0.0722
vn 0.9899 0.1323 0.0504
vn 0.9049 -0.0946 -0.4149
vn 0.9383 -0.0648 -0.3397
vn 0.7695 -0.1907 -0.6095
vn 0.9035 -0.0380 -0.4268
vn 0.6590 -0.1384 -0.7393
vn 0.5795 -0.1605 -0.7990
vn 0.6920 -0.0407 -0.7208
vn 0.5550 -0.0457 -0.8306
vn 0.3967 0.0239 -0.9176
vn 0.3315 0.0781 -0.9402
vn 0.1164 0.0750 -0.9904
vn -0.0959 0.0507 -0.9941
vn -0.1123 0.1398 -0.9838
vn -0.3437 0.1320 -0.9298
vn -0.5612 0.1232 -0.8185
vn -0.7349 0.1222 -0.6670
vn -0.8644 0.0918 -0.4944
vn -0.9522 0.0616 -0.2993
vn -0.9958 0.0163 -0.0896
vn -0.9844 0.1112 -0.1361
vn -0.9924 0.0451 0.1148
vn -0.9921 0.0975 0.0785
vn -0.9814 0.1369 -0.1344
vn -0.9847 0.0771 0.1562
vn -0.9981 0.0397 -0.0477
vn -0.9595 0.0234 0.2806
vn -0.9924 -0.0163 0.1221
vn -0.9308 0.0493 0.3621
vn -0.9265 0.0156 0.3759
vn -0.9342 -0.0509 0.3531
vn -0.8965 -0.0310 0.4419
vn -0.8774 -0.1046 0.4683
vn -0.6157 0.6616 0.4281
vn -0.6219 0.7062 0.3383
vn -0.7307 -0.1311 0.6700
vn -0.5085 0.6030 0.6147
vn 0.7265 0.5858 0.3592
vn 0.7455 0.5264 0.4089
vn 0.8462 -0.1543 0.5100
vn 0.7185 0.5223 0.4593
vn 0.8611 -0.2021 0.4665
vn 0.7894 -0.1774 0.5877
vn 0.7362 -0.2440 0.6313
vn 0.7827 -0.2809 0.5554
vn 0.6977 -0.1935 0.6898
vn 0.5657 -0.2756 0.7772
vn 0.6354 -0.3203 0.7026
vn 0.5608 -0.2144 0.7997
vn 0.3779 -0.2624 0.8879
vn 0.3803 -0.3227 0.8668
vn 0.0675 -0.3261 0.9429
vn 0.0308 -0.2290 0.9729
vn -0.2706 -0.2203 0.9371
vn -0.5275 -0.1734 0.8317
vn -0.5274 -0.1302 0.8396
vn -0.7165 -0.1109 0.6887
vn -0.8539 -0.0839 0.5136
vn -0.8512 -0.1158 0.5120
vn -0.9379 -0.0981 0.3328
vn -0.9879 -0.0742 0.1364
vn -0.9882 -0.1064 0.1102
vn -0.9876 -0.1022 -0.1190
vn -0.9358 -0.0971 -0.3389
vn -0.9012 -0.1325 -0.4127
vn -0.7763 -0.1175 -0.6193
vn -0.7786 -0.0885 -0.6213
vn -0.6437 -0.0816 -0.7609
vn -0.6574 -0.0492 -0.7519
vn -0.6465 -0.0560 -0.7609
vn -0.5313 -0.0158 -0.8470
vn -0.5354 -0.0280 -0.8441
vn -0.5772 -0.1085 -0.8094
vn -0.4248 0.0293 -0.9048
vn -0.4485 -0.0278 -0.8934
vn -0.5611 -0.1874 -0.8063
vn -0.0474 0.0513 -0.9976
vn -0.1453 -0.0116 -0.9893
vn -0.4183 -0.0549 -0.9066
vn 0.4758 0.0639 -0.8772
vn 0.3397 0.0123 -0.9405
vn 0.8008 0.1043 -0.5897
vn 0.7723 0.0575 -0.6326
vn 0.7601 -0.0177 -0.6496
vn 0.9012 -0.0072 -0.4333
vn 0.9424 -0.0819 -0.3243
vn 0.9117 -0.0818 -0.4026
vn 0.8910 0.1141 -0.4395
vn 0.9005 0.0708 -0.4291
vn 0.8662 -0.0257 -0.4991
vn 0.8530 0.0512 -0.5195
vn 0.7990 -0.0656 -0.5978
vn 0.8052 -0.1088 -0.5829
vn 0.7427 -0.1292 -0.6570
vn 0.8373 -0.1309 -0.5309
vn 0.6821 -0.1982 -0.7039
vn 0.7725 -0.0554 -0.6326
vn 0.6861 -0.1494 -0.7120
vn 0.7891 -0.0588 -0.6114
vn 0.6565 -0.1079 -0.7465
vn 0.6269 -0.0023 -0.7791
vn 0.2968 0.1096 -0.9486
vn 0.1267 0.0770 -0.9889
vn -0.1090 0.0553 -0.9925
vn -0.2902 -0.0027 -0.9570
vn -0.3139 0.0280 -0.9490
vn -0.5390 0.0118 -0.8422
vn -0.7315 0.0013 -0.6819
vn -0.8678 -0.0090 -0.4968
vn -0.9559 -0.0296 -0.2922
vn -0.9956 -0.0519 -0.0778
vn -0.9920 -0.0237 0.1237
vn -0.9434 -0.0542 0.3271
vn -0.9422 -0.0179 0.3347
vn -0.8559 -0.0592 0.5138
vn -0.8532 -0.0651 0.5175
vn -0.9413 0.0201 0.3369
vn -0.8728 -0.0403 0.4864
vn -0.7411 -0.1708 0.6493
vn -0.7672 -0.1806 0.6154
vn -0.8140 -0.0765 0.5758
vn -0.5727 -0.3176 0.7557
vn -0.5578 -0.1736 0.8116
vn -0.6034 -0.1156 0.7890
vn -0.0986 -0.2955 0.9502
vn -0.2316 -0.2123 0.9494
vn -0.0996 0.5847 0.8051
vn -0.3530 0.6252 0.6961
vn 0.2148 -0.3363 0.9169
vn 0.2192 0.4497 0.8659
vn 0.6127 0.5983 0.5164
vn 0.5178 0.5405 0.6631
vn 0.4940 -0.1498 0.8565
vn 0.3793 0.5050 0.7753
vn 0.3415 -0.2709 0.9000
vn 0.2275 -0.1744 0.9580
vn 0.1663 -0.2525 0.9532
vn 0.0358 -0.2601 0.9649
vn -0.2573 -0.3516 0.9001
vn -0.2892 -0.3409 0.8945
vn -0.5596 -0.2635 0.7858
vn -0.7218 -0.1175 0.6821
vn -0.8287 -0.0940 -0.5517
vn -0.6702 -0.0810 -0.7378
vn -0.4776 -0.0478 -0.8773
vn -0.5114 -0.0437 -0.8583
vn -0.3864 0.0145 -0.9222
vn -0.4157 0.0255 -0.9092
vn -0.1497 0.0926 -0.9844
vn -0.1249 0.0787 -0.9890
vn -0.0942 0.0622 -0.9936
vn 0.4498 0.0927 -0.8883
vn 0.5008 0.0740 -0.8624
vn 0.5067 0.0724 -0.8591
vn 0.8443 0.0786 -0.5300
vn 0.8275 0.1044 -0.5516
vn 0.8664 0.0554 -0.4962
vn 0.8905 0.1266 -0.4370
vn 0.7970 0.0229 -0.6035
vn -0.1034 -0.1018 -0.9894
vn -0.8138 -0.2179 -0.5387
vn -0.9693 -0.1478 -0.1965
vn -0.9778 -0.0632 -0.1996
vn -0.9853 -0.1662 -0.0389
vn -0.9790 -0.1690 -0.1137
vn -0.9609 -0.1549 0.2296
vn -0.9679 -0.1683 0.1867
vn -0.8864 -0.2207 0.4069
vn -0.8542 -0.1177 0.5065
vn -0.6888 -0.0484 0.7233
vn -0.6919 -0.0803 0.7175
vn -0.5173 -0.1011 0.8498
vn -0.2205 -0.1230 0.9676
vn 0.3797 -0.1094 0.9186
vn 0.6628 -0.0791 0.7446
vn 0.8699 -0.0223 0.4927
vn 0.9798 0.0267 0.1983
vn 0.9918 -0.0618 0.1118
vn 0.9516 0.0337 -0.3056
vn 0.9658 0.0509 -0.2541
vn 0.8799 0.0703 -0.4700
vn 0.9036 0.0467 -0.4259
vn 0.7742 0.0748 -0.6285
vn 0.7747 0.0631 -0.6292
vn 0.5170 0.1612 -0.8407
vn 0.4762 0.7183 -0.5072
vn 0.6508 0.6639 -0.3683
vn 0.3602 0.7179 -0.5958
vn -0.6929 -0.3454 -0.6329
vn 0.9656 -0.1227 -0.2293
vn 0.9528 0.2759 -0.1266
vn 0.9184 0.3892 0.0712
vn 0.9537 0.0691 -0.2928
vn 0.9231 0.3845 0.0038
vn 0.9863 0.0589 0.1540
vn 0.4475 0.2755 0.8508
vn 0.6131 -0.0102 0.7899
vn 0.7914 -0.0459 0.6096
vn 0.7141 -0.2510 0.6535
vn 0.7535 -0.2558 0.6056
vn -0.0071 -0.9675 0.2529
vt 0.059376 0.440456
vt 0.063533 0.440268
vt 0.064811 0.444060
vt 0.062026 0.444953
vt 0.060266 0.432090
vt 0.055839 0.449725
vt 0.053645 0.446906
vt 0.057159 0.432634
vt 0.050967 0.444333
vt 0.054581 0.439272
vt 0.014847 0.435235
vt 0.023231 0.433130
vt 0.025324 0.437954
vt 0.019669 0.440288
vt 0.016429 0.444544
vt 0.010964 0.441947
vt 0.335782 0.074924
vt 0.340459 0.073568
vt 0.340929 0.080793
vt 0.334747 0.080193
vt 0.332218 0.071781
vt 0.337369 0.066994
vt 0.022590 0.442940
vt 0.021593 0.445967
vt 0.026598 0.442040
vt 0.026883 0.445882
vt 0.047914 0.441312
vt 0.049035 0.442667
vt 0.044417 0.445322
vt 0.044031 0.442514
vt 0.044785 0.438480
vt 0.049337 0.438374
vt 0.051679 0.438762
vt 0.040013 0.432708
vt 0.036298 0.425461
vt 0.039369 0.422661
vt 0.043333 0.427970
vt 0.048690 0.430934
vt 0.046928 0.433781
vt 0.038730 0.439356
vt 0.049909 0.435345
vt 0.051633 0.434420
vt 0.049273 0.403959
vt 0.045717 0.407431
vt 0.042057 0.401386
vt 0.048015 0.398786
vt 0.054893 0.398398
vt 0.054582 0.405460
vt 0.051344 0.411517
vt 0.060140 0.414702
vt 0.064027 0.423767
vt 0.057413 0.424424
vt 0.053454 0.418724
vt 0.069610 0.413779
vt 0.071368 0.422617
vt 0.061910 0.406030
vt 0.069625 0.406211
vt 0.048044 0.414918
vt 0.017457 0.466301
vt 0.029087 0.465517
vt 0.031166 0.470447
vt 0.024421 0.473931
vt 0.294462 0.026413
vt 0.295856 0.014443
vt 0.304603 0.019732
vt 0.303734 0.027868
vt 0.018194 0.460256
vt 0.027530 0.460546
vt 0.287921 0.043500
vt 0.290160 0.041663
vt 0.291306 0.046663
vt 0.289205 0.051114
vt 0.285121 0.045850
vt 0.295575 0.047641
vt 0.293776 0.054270
vt 0.339809 0.054446
vt 0.327887 0.050460
vt 0.329943 0.042615
vt 0.339392 0.044030
vt 0.331907 0.061449
vt 0.324714 0.058078
vt 0.344328 0.063711
vt 0.338485 0.239238
vt 0.344015 0.237860
vt 0.343322 0.245570
vt 0.337209 0.244075
vt 0.334092 0.235292
vt 0.339631 0.231561
vt 0.330119 0.240575
vt 0.337125 0.221190
vt 0.345261 0.220648
vt 0.350660 0.228638
vt 0.345257 0.229809
vt 0.331336 0.226488
vt 0.326726 0.217918
vt 0.327160 0.209617
vt 0.334531 0.212123
vt 0.342142 0.212218
vt 0.324779 0.224563
vt 0.319236 0.238394
vt 0.322024 0.231247
vt 0.327319 0.232033
vt 0.323945 0.238734
vt 0.314822 0.237925
vt 0.317124 0.230458
vt 0.319044 0.223196
vt 0.309880 0.237237
vt 0.311768 0.229508
vt 0.313289 0.221938
vt 0.314217 0.214319
vt 0.320174 0.215660
vt 0.305374 0.228922
vt 0.306282 0.221411
vt 0.306651 0.214048
vt 0.306754 0.206597
vt 0.314434 0.206460
vt 0.297869 0.221963
vt 0.298489 0.214272
vt 0.299015 0.206591
vt 0.299562 0.194782
vt 0.306720 0.194384
vt 0.290606 0.214315
vt 0.291308 0.206496
vt 0.292259 0.194855
vt 0.284633 0.206540
vt 0.285716 0.194842
vt 0.286545 0.179313
vt 0.292872 0.179212
vt 0.279108 0.194910
vt 0.280147 0.179443
vt 0.273828 0.195191
vt 0.274271 0.179653
vt 0.274915 0.163633
vt 0.280838 0.163557
vt 0.268171 0.179963
vt 0.268747 0.163715
vt 0.015157 0.330132
vt 0.016262 0.314605
vt 0.022760 0.314303
vt 0.021558 0.329916
vt 0.020518 0.346048
vt 0.013980 0.346199
vt 0.028144 0.329700
vt 0.026623 0.345697
vt 0.034949 0.329482
vt 0.033602 0.345203
vt 0.032206 0.361457
vt 0.027406 0.361963
vt 0.040682 0.344514
vt 0.039605 0.360200
vt 0.048047 0.344001
vt 0.047083 0.359114
vt 0.046611 0.370426
vt 0.038761 0.371795
vt 0.054708 0.358706
vt 0.054270 0.369688
vt 0.054133 0.377031
vt 0.046518 0.377769
vt 0.062300 0.358804
vt 0.061904 0.369795
vt 0.061749 0.376938
vt 0.061763 0.384055
vt 0.054227 0.384320
vt 0.069520 0.370117
vt 0.069452 0.377258
vt 0.069446 0.384326
vt 0.069525 0.391491
vt 0.061961 0.391226
vt 0.077214 0.377516
vt 0.077019 0.384736
vt 0.077058 0.392164
vt 0.077214 0.399423
vt 0.069612 0.398811
vt 0.084324 0.385682
vt 0.084424 0.393038
vt 0.084490 0.400494
vt 0.084538 0.407979
vt 0.077222 0.406844
vt 0.091585 0.393994
vt 0.091621 0.401530
vt 0.091576 0.409179
vt 0.091543 0.416819
vt 0.084590 0.415399
vt 0.098677 0.402330
vt 0.098658 0.410192
vt 0.098610 0.418407
vt 0.098590 0.426553
vt 0.091517 0.424712
vt 0.105728 0.410887
vt 0.105781 0.419322
vt 0.106171 0.428273
vt 0.106604 0.437365
vt 0.098339 0.434655
vt 0.112745 0.420003
vt 0.113684 0.429770
vt 0.116217 0.439815
vt 0.115413 0.449434
vt 0.106039 0.446059
vt 0.350139 0.053643
vt 0.352113 0.063092
vt 0.350239 0.044013
vt 0.104131 0.454621
vt 0.096521 0.451312
vt 0.097606 0.442446
vt 0.113522 0.458339
vt 0.110842 0.466567
vt 0.102230 0.463109
vt 0.350846 0.034228
vt 0.340418 0.035020
vt 0.340218 0.027069
vt 0.349856 0.024229
vt 0.337157 0.020460
vt 0.344920 0.019362
vt 0.330788 0.034834
vt 0.331027 0.027453
vt 0.330868 0.021176
vt 0.322278 0.026462
vt 0.323535 0.019948
vt 0.313872 0.023785
vt 0.315749 0.018024
vt 0.307128 0.015158
vt 0.299387 0.010258
vt 0.291765 0.006957
vt 0.295745 0.004462
vt 0.033524 0.474472
vt 0.038436 0.466726
vt 0.040502 0.470137
vt 0.044918 0.462460
vt 0.047189 0.465832
vt 0.051264 0.457845
vt 0.053512 0.460851
vt 0.057461 0.452104
vt 0.059934 0.454618
vt 0.062925 0.447063
vt 0.063449 0.448867
vt 0.065046 0.446025
vt 0.065347 0.447896
vt 0.067368 0.448165
vt 0.067767 0.446284
vt 0.072704 0.449040
vt 0.070293 0.452236
vt 0.077148 0.452640
vt 0.074055 0.457061
vt 0.082526 0.455467
vt 0.079541 0.461375
vt 0.088364 0.457595
vt 0.085798 0.464180
vt 0.094765 0.460107
vt 0.092393 0.466934
vt 0.099773 0.470298
vt 0.348017 0.012489
vt 0.354351 0.014237
vt 0.090549 0.448967
vt 0.084661 0.448442
vt 0.084815 0.440055
vt 0.089999 0.440142
vt 0.084578 0.431751
vt 0.090401 0.432457
vt 0.084910 0.423396
vt 0.079210 0.431196
vt 0.078317 0.422759
vt 0.077344 0.414249
vt 0.073464 0.431086
vt 0.074184 0.440213
vt 0.067625 0.440173
vt 0.065583 0.431706
vt 0.080212 0.439909
vt 0.079120 0.446907
vt 0.073563 0.445303
vt 0.067820 0.444114
vt 0.049294 0.454490
vt 0.042711 0.458351
vt 0.041103 0.454666
vt 0.047352 0.450923
vt 0.039638 0.450786
vt 0.045613 0.447884
vt 0.038825 0.447616
vt 0.033358 0.453223
vt 0.032894 0.449033
vt 0.032618 0.445019
vt 0.038481 0.444120
vt 0.032355 0.440669
vt 0.031648 0.435517
vt 0.029927 0.429950
vt 0.023025 0.424746
vt 0.028536 0.422007
vt 0.032679 0.418685
vt 0.026809 0.414007
vt 0.029424 0.410826
vt 0.031726 0.408837
vt 0.035441 0.416269
vt 0.037810 0.414318
vt 0.033784 0.407325
vt 0.035790 0.405943
vt 0.040203 0.412449
vt 0.045116 0.417392
vt 0.042160 0.419980
vt 0.042408 0.410361
vt 0.037701 0.404637
vt 0.032206 0.398509
vt 0.034124 0.397499
vt 0.039815 0.394137
vt 0.032076 0.389335
vt 0.038621 0.386655
vt 0.046701 0.385144
vt 0.046809 0.392141
vt 0.054538 0.391474
vt 0.062161 0.398529
vt 0.038323 0.379209
vt 0.031027 0.380960
vt 0.030782 0.372087
vt 0.028410 0.381784
vt 0.027412 0.372406
vt 0.022944 0.362614
vt 0.023186 0.373581
vt 0.019289 0.374605
vt 0.018500 0.362254
vt 0.012254 0.361907
vt 0.270424 0.147289
vt 0.273126 0.131686
vt 0.277978 0.131400
vt 0.276759 0.147540
vt 0.282120 0.147314
vt 0.286921 0.146671
vt 0.286745 0.163429
vt 0.292635 0.163250
vt 0.298788 0.163030
vt 0.299535 0.179063
vt 0.306233 0.178845
vt 0.313129 0.178680
vt 0.313847 0.193893
vt 0.320704 0.194042
vt 0.320891 0.207413
vt 0.327360 0.195421
vt 0.334114 0.197666
vt 0.340752 0.199262
vt 0.346815 0.198817
vt 0.348185 0.211412
vt 0.353350 0.198297
vt 0.353923 0.210651
vt 0.355902 0.218923
vt 0.350811 0.219642
vt 0.359245 0.228098
vt 0.354892 0.228262
vt 0.360881 0.237488
vt 0.356813 0.237994
vt 0.353261 0.238057
vt 0.356821 0.247538
vt 0.352848 0.247660
vt 0.348430 0.246784
vt 0.349410 0.238025
vt 0.361563 0.246004
vt 0.366593 0.236870
vt 0.367420 0.244599
vt 0.114412 0.253936
vt 0.114203 0.262277
vt 0.107042 0.262063
vt 0.107280 0.253968
vt 0.274643 0.239038
vt 0.274848 0.230613
vt 0.282106 0.230332
vt 0.281569 0.238666
vt 0.269131 0.239633
vt 0.269458 0.230682
vt 0.271556 0.222256
vt 0.276230 0.222568
vt 0.013346 0.263676
vt 0.014319 0.255330
vt 0.020045 0.254966
vt 0.018765 0.263829
vt 0.263751 0.228713
vt 0.266558 0.221917
vt 0.267173 0.214557
vt 0.272495 0.214453
vt 0.018452 0.272658
vt 0.025055 0.262878
vt 0.024505 0.271465
vt 0.024302 0.280015
vt 0.017777 0.280987
vt 0.023962 0.287801
vt 0.017240 0.288596
vt 0.031910 0.270690
vt 0.031559 0.278757
vt 0.031439 0.286813
vt 0.030755 0.298566
vt 0.023482 0.299101
vt 0.039426 0.278570
vt 0.038893 0.286387
vt 0.037892 0.298327
vt 0.046297 0.286408
vt 0.044938 0.298198
vt 0.043405 0.313875
vt 0.036444 0.314014
vt 0.051845 0.298472
vt 0.050434 0.313862
vt 0.058704 0.298812
vt 0.057567 0.313873
vt 0.056582 0.328937
vt 0.049233 0.328962
vt 0.064825 0.313815
vt 0.063925 0.328845
vt 0.072175 0.313736
vt 0.071219 0.328818
vt 0.070362 0.343988
vt 0.062999 0.343890
vt 0.078547 0.328973
vt 0.077623 0.344193
vt 0.085838 0.329283
vt 0.084897 0.344532
vt 0.084491 0.359504
vt 0.077098 0.359300
vt 0.092237 0.345007
vt 0.091755 0.359928
vt 0.099505 0.345693
vt 0.098808 0.360695
vt 0.098473 0.372399
vt 0.091737 0.371489
vt 0.105826 0.361704
vt 0.105347 0.373091
vt 0.105547 0.380623
vt 0.098631 0.380063
vt 0.112871 0.362829
vt 0.112510 0.373993
vt 0.112802 0.381230
vt 0.112955 0.388314
vt 0.105685 0.387910
vt 0.356336 0.111713
vt 0.357377 0.118980
vt 0.349605 0.118871
vt 0.348437 0.111618
vt 0.347595 0.104596
vt 0.355565 0.104565
vt 0.347498 0.097179
vt 0.355109 0.097188
vt 0.340346 0.111428
vt 0.339569 0.103853
vt 0.339754 0.096190
vt 0.340416 0.088398
vt 0.347718 0.089159
vt 0.332570 0.103026
vt 0.332767 0.094998
vt 0.333619 0.087280
vt 0.326437 0.094041
vt 0.327478 0.085906
vt 0.329265 0.078327
vt 0.321702 0.084651
vt 0.323636 0.076393
vt 0.326895 0.068689
vt 0.318040 0.075021
vt 0.320923 0.066462
vt 0.312835 0.074181
vt 0.315193 0.065319
vt 0.317811 0.056780
vt 0.319603 0.048955
vt 0.309444 0.064863
vt 0.311536 0.056490
vt 0.312239 0.048116
vt 0.312295 0.039506
vt 0.320648 0.041333
vt 0.305276 0.056145
vt 0.305744 0.047680
vt 0.304941 0.038558
vt 0.312417 0.031283
vt 0.299926 0.047552
vt 0.298119 0.038352
vt 0.294247 0.039637
vt 0.290685 0.031257
vt 0.299478 0.055630
vt 0.303411 0.064256
vt 0.297179 0.063224
vt 0.289429 0.059927
vt 0.294350 0.071039
vt 0.286243 0.067804
vt 0.006870 0.434087
vt 0.008127 0.426386
vt 0.016573 0.426706
vt 0.282785 0.053587
vt 0.008984 0.417238
vt 0.017566 0.417535
vt 0.022885 0.416170
vt 0.015499 0.406073
vt 0.019611 0.405056
vt 0.022775 0.403575
vt 0.017279 0.394763
vt 0.020317 0.393722
vt 0.023912 0.392540
vt 0.026241 0.401828
vt 0.025573 0.391928
vt 0.028215 0.400722
vt 0.027336 0.391252
vt 0.024969 0.382544
vt 0.029937 0.390217
vt 0.029971 0.399750
vt 0.021623 0.383502
vt 0.018169 0.384455
vt 0.015102 0.375430
vt 0.014841 0.385384
vt 0.011548 0.376251
vt 0.007561 0.362841
vt 0.275797 0.116482
vt 0.279507 0.116113
vt 0.281703 0.130324
vt 0.285826 0.129085
vt 0.290347 0.128517
vt 0.291676 0.146193
vt 0.297876 0.146289
vt 0.304550 0.146993
vt 0.305361 0.163029
vt 0.312140 0.163144
vt 0.319096 0.163218
vt 0.320160 0.178755
vt 0.327353 0.179219
vt 0.334599 0.180157
vt 0.341546 0.181279
vt 0.348023 0.181931
vt 0.354928 0.181561
vt 0.362334 0.181551
vt 0.360756 0.198480
vt 0.368019 0.197770
vt 0.370115 0.209983
vt 0.361766 0.210816
vt 0.118766 0.287878
vt 0.110766 0.287335
vt 0.108963 0.279197
vt 0.116900 0.279681
vt 0.362784 0.219657
vt 0.107611 0.270717
vt 0.115079 0.271113
vt 0.364911 0.228297
vt 0.100963 0.278698
vt 0.099866 0.270431
vt 0.099443 0.262040
vt 0.091996 0.270541
vt 0.091670 0.262107
vt 0.092334 0.253775
vt 0.099762 0.253878
vt 0.083998 0.262023
vt 0.084935 0.253647
vt 0.026334 0.254625
vt 0.033777 0.254338
vt 0.032761 0.262631
vt 0.041348 0.254245
vt 0.040874 0.262742
vt 0.040088 0.270849
vt 0.047448 0.263320
vt 0.047719 0.271293
vt 0.047237 0.278806
vt 0.054117 0.270902
vt 0.054237 0.279102
vt 0.053349 0.286760
vt 0.060514 0.278530
vt 0.059812 0.287159
vt 0.066209 0.287607
vt 0.065669 0.299023
vt 0.072876 0.299183
vt 0.080325 0.299104
vt 0.079623 0.313799
vt 0.087090 0.313965
vt 0.094363 0.314075
vt 0.093104 0.329751
vt 0.100295 0.330256
vt 0.107351 0.331056
vt 0.106683 0.346533
vt 0.113786 0.347366
vt 0.358473 0.130570
vt 0.360374 0.147070
vt 0.353376 0.147097
vt 0.351253 0.130430
vt 0.343953 0.130524
vt 0.341793 0.119066
vt 0.336596 0.131618
vt 0.334490 0.120165
vt 0.333195 0.111334
vt 0.327749 0.121232
vt 0.326634 0.111440
vt 0.326187 0.102545
vt 0.320538 0.111408
vt 0.320228 0.102112
vt 0.320601 0.093284
vt 0.314757 0.101656
vt 0.315200 0.092691
vt 0.316285 0.083825
vt 0.310145 0.092134
vt 0.311164 0.083157
vt 0.304773 0.091421
vt 0.305704 0.082422
vt 0.307312 0.073453
vt 0.299292 0.081207
vt 0.301146 0.072530
vt 0.291652 0.079255
vt 0.298321 0.090231
vt 0.290500 0.088472
vt 0.282745 0.086640
vt 0.283352 0.076203
vt 0.290052 0.097490
vt 0.282752 0.096462
vt 0.007792 0.406690
vt 0.006415 0.397299
vt 0.013594 0.395772
vt 0.004498 0.388534
vt 0.011047 0.386531
vt 0.276632 0.106917
vt 0.283087 0.106064
vt 0.284594 0.115170
vt 0.007897 0.377530
vt 0.289699 0.106316
vt 0.289683 0.114997
vt 0.297496 0.116865
vt 0.297421 0.130095
vt 0.304026 0.131972
vt 0.310154 0.133219
vt 0.311072 0.147661
vt 0.317670 0.147978
vt 0.324562 0.147867
vt 0.326355 0.163321
vt 0.333964 0.163406
vt 0.341501 0.163798
vt 0.348269 0.164288
vt 0.355032 0.164266
vt 0.362192 0.164071
vt 0.115910 0.316674
vt 0.114538 0.331898
vt 0.108668 0.315274
vt 0.101547 0.314425
vt 0.103375 0.298469
vt 0.111124 0.299247
vt 0.118620 0.301373
vt 0.095701 0.298581
vt 0.094687 0.286908
vt 0.102422 0.286723
vt 0.093118 0.278792
vt 0.087146 0.287608
vt 0.085600 0.279628
vt 0.084498 0.270968
vt 0.078889 0.280142
vt 0.078302 0.271057
vt 0.078106 0.261977
vt 0.073197 0.270913
vt 0.072718 0.262247
vt 0.073029 0.253657
vt 0.078510 0.253410
vt 0.067210 0.262520
vt 0.067627 0.253988
vt 0.047830 0.254103
vt 0.054334 0.253911
vt 0.053585 0.262278
vt 0.061379 0.253924
vt 0.060715 0.262299
vt 0.060413 0.270389
vt 0.067149 0.270699
vt 0.066906 0.279185
vt 0.072926 0.279752
vt 0.072786 0.288033
vt 0.079716 0.288116
vt 0.088007 0.298776
vt 0.346423 0.146863
vt 0.339372 0.146800
vt 0.331860 0.147378
vt 0.329561 0.133104
vt 0.322804 0.133841
vt 0.321426 0.121739
vt 0.316364 0.133880
vt 0.315419 0.121546
vt 0.314881 0.111101
vt 0.309734 0.120719
vt 0.309552 0.110393
vt 0.309630 0.101128
vt 0.304078 0.109253
vt 0.304295 0.100271
vt 0.297633 0.107657
vt 0.297902 0.099033
vt 0.303928 0.119285
vt 0.321557 0.033737
vt 0.347805 0.081015
vt 0.354758 0.080683
vt 0.354900 0.089067
vt 0.112725 0.403370
vt 0.112714 0.411474
vt 0.105737 0.402837
vt 0.105705 0.395192
vt 0.112955 0.395537
vt 0.098680 0.394770
vt 0.098665 0.387424
vt 0.091599 0.386665
vt 0.091732 0.379386
vt 0.084701 0.378199
vt 0.084666 0.370663
vt 0.077148 0.370386
vt 0.069725 0.359058
vt 0.055531 0.343866
vt 0.041993 0.329177
vt 0.029550 0.314146
vt 0.016885 0.299641
vt 0.268430 0.195656
vt 0.273100 0.206817
vt 0.267784 0.207070
vt 0.278011 0.206675
vt 0.277323 0.214620
vt 0.283906 0.214511
vt 0.283049 0.222475
vt 0.289959 0.222148
vt 0.289195 0.230080
vt 0.297055 0.229741
vt 0.296131 0.237766
vt 0.288419 0.238281
vt 0.304054 0.236853
vt 0.347006 0.072587
vt 0.354018 0.072120
vt 0.026805 0.449868
vt 0.026742 0.454490
vt 0.019648 0.453943
vt 0.020615 0.449654
vt 0.013669 0.451029
vt 0.014930 0.448315
vt 0.034607 0.458111
vt 0.036299 0.462459
vt 0.049690 0.421732
vt 0.053755 0.426432
vt 0.054326 0.433363
vt 0.046552 0.424495
vt 0.051459 0.428073
vt 0.286299 0.035263
vt 0.518853 0.644366
vt 0.527475 0.635110
vt 0.538854 0.666538
vt 0.535974 0.629820
vt 0.547218 0.626985
vt 0.558354 0.631517
vt 0.565986 0.641908
vt 0.569647 0.654347
vt 0.569276 0.662803
vt 0.567573 0.672530
vt 0.564556 0.682223
vt 0.558071 0.690538
vt 0.547537 0.696084
vt 0.537712 0.696388
vt 0.533245 0.695144
vt 0.528905 0.693333
vt 0.522120 0.690839
vt 0.515602 0.686538
vt 0.510718 0.679385
vt 0.509169 0.671087
vt 0.509880 0.662402
vt 0.512889 0.653245
s 1
usemtl Ch31_body
f 1/1/1 652/2/1 653/3/1 16/4/1
f 1/1/2 17/5/3 652/2/4
f 1/1/2 16/4/5 19/6/6 20/7/7
f 1/1/2 630/8/8 17/5/3
f 1/1/2 20/7/7 657/9/9 656/10/10
f 24/11/11 25/12/12 26/13/13 9/14/14
f 9/14/14 22/15/15 23/16/16 24/11/11
f 2/17/17 27/18/18 28/19/19 29/20/20
f 2/17/17 30/21/21 31/22/22 27/18/18
f 3/23/23 32/24/24 22/15/15 9/14/14
f 3/23/23 33/25/25 34/26/26 32/24/24
f 3/23/23 9/14/14 26/13/13 33/25/25
f 4/27/27 642/28/28 35/29/29 36/30/30
f 4/27/27 36/30/30 37/31/31 38/32/32
f 4/27/27 38/32/32 643/33/33 642/28/28
f 5/34/34 39/35/35 647/36/36 646/37/37
f 5/34/34 646/37/37 645/38/38 43/39/39
f 5/34/34 43/39/39 37/31/31 44/40/40
f 6/41/41 38/32/32 37/31/31 43/39/39
f 6/41/41 43/39/39 645/38/38 644/42/42
f 6/41/41 644/42/42 643/33/33 38/32/32
f 7/43/43 45/44/44 46/45/45 47/46/46
f 7/43/43 47/46/46 48/47/47 49/48/48
f 7/43/43 49/48/48 50/49/49 45/44/44
f 8/50/50 51/51/51 52/52/52 53/53/53
f 8/50/50 54/54/54 55/55/55 51/51/51
f 8/50/50 56/56/56 57/57/57 54/54/54
f 8/50/50 50/49/49 49/48/48 56/56/56
f 8/50/50 53/53/53 58/58/58 50/49/49
f 10/59/59 59/60/60 60/61/61 61/62/62
f 10/63/59 61/64/62 62/65/63 63/66/64
f 10/59/59 64/67/65 65/68/66 59/60/60
f 66/69/67 663/70/68 664/71/69
f 664/71/69 23/72/16 22/73/15 66/69/67
f 664/71/69 68/74/70 69/75/71 23/72/16
f 11/76/72 70/77/73 71/78/74 72/79/75
f 11/76/72 73/80/76 74/81/77 70/77/73
f 11/76/72 75/82/78 31/22/22 73/80/76
f 12/83/79 76/84/80 77/85/81 78/86/82
f 12/83/79 615/87/83 79/88/84 76/84/80
f 12/83/79 78/86/82 80/89/85 615/87/83
f 13/90/86 81/91/87 82/92/88 83/93/89
f 13/90/86 83/93/89 79/88/84 84/94/90
f 13/90/86 85/95/91 86/96/92 87/97/93
f 13/90/86 87/97/93 88/98/94 81/91/87
f 13/90/86 84/94/90 89/99/95 85/95/91
f 91/100/96 616/101/97 92/102/98 90/103/99
f 91/100/96 93/104/100 94/105/101 616/101/97
f 94/105/101 95/106/102 89/99/95 616/101/97
f 94/105/101 93/104/100 96/107/103 97/108/104
f 94/105/101 97/108/104 98/109/105 95/106/102
f 98/109/105 99/110/106 100/111/107 95/106/102
f 98/109/105 97/108/104 617/112/108 101/113/109
f 98/109/105 101/113/109 102/114/110 99/110/106
f 102/114/110 103/115/111 104/116/112 99/110/106
f 102/114/110 101/113/109 105/117/113 106/118/114
f 102/114/110 106/118/114 107/119/115 103/115/111
f 107/119/115 112/120/116 108/121/117 103/115/111
f 107/119/115 106/118/114 109/122/118 110/123/119
f 107/119/115 110/123/119 111/124/120 112/120/116
f 111/124/120 110/123/119 113/125/121 114/126/122
f 114/126/122 118/127/123 115/128/124 111/124/120
f 114/126/122 116/129/125 117/130/126 118/127/123
f 117/130/126 116/129/125 119/131/127 120/132/128
f 120/132/128 124/133/129 121/134/130 117/130/126
f 120/132/128 122/135/131 123/136/132 124/133/129
f 123/137/132 122/138/131 125/139/133 126/140/134
f 126/140/134 129/141/135 127/142/136 123/137/132
f 126/140/134 128/143/137 631/144/138 129/141/135
f 128/143/137 130/145/139 131/146/140 631/144/138
f 131/146/140 135/147/141 638/148/142 631/144/138
f 131/146/140 133/149/143 134/150/144 135/147/141
f 134/150/144 133/149/143 136/151/145 137/152/146
f 137/152/146 138/153/147 139/154/148 134/150/144
f 137/152/146 140/155/149 141/156/150 138/153/147
f 141/156/150 142/157/151 143/158/152 138/153/147
f 141/156/150 140/155/149 144/159/153 145/160/154
f 141/156/150 145/160/154 146/161/155 142/157/151
f 146/161/155 147/162/156 148/163/157 142/157/151
f 146/161/155 145/160/154 149/164/158 150/165/159
f 146/161/155 150/165/159 151/166/160 147/162/156
f 151/166/160 152/167/161 153/168/162 147/162/156
f 151/166/160 150/165/159 154/169/163 155/170/164
f 151/166/160 155/170/164 156/171/165 152/167/161
f 156/171/165 157/172/166 158/173/167 152/167/161
f 156/171/165 155/170/164 159/174/168 160/175/169
f 156/171/165 160/175/169 161/176/170 157/172/166
f 161/176/170 162/177/171 163/178/172 157/172/166
f 161/176/170 160/175/169 164/179/173 165/180/174
f 161/176/170 165/180/174 166/181/175 162/177/171
f 166/181/175 167/182/176 168/183/177 162/177/171
f 166/181/175 165/180/174 169/184/178 170/185/179
f 166/181/175 170/185/179 171/186/180 167/182/176
f 171/186/180 172/187/181 173/188/182 167/182/176
f 171/186/180 170/185/179 174/189/183 175/190/184
f 171/186/180 175/190/184 176/191/185 172/187/181
f 176/191/185 177/192/186 178/193/187 172/187/181
f 176/191/185 175/190/184 179/194/188 180/195/189
f 176/191/185 180/195/189 181/196/190 177/192/186
f 181/196/190 182/197/191 183/198/192 177/192/186
f 181/199/190 180/200/189 75/82/78 11/76/72
f 181/199/190 11/76/72 72/79/75 182/201/191
f 183/198/192 184/202/193 185/203/194 186/204/195
f 183/198/192 186/204/195 178/193/187 177/192/186
f 183/198/192 182/197/191 187/205/196 184/202/193
f 187/205/196 188/206/197 189/207/198 184/202/193
f 187/208/196 182/201/191 72/79/75 190/209/199
f 187/208/196 190/209/199 191/210/200 188/211/197
f 191/210/200 192/212/201 193/213/202 188/211/197
f 191/210/200 190/209/199 194/214/203 195/215/204
f 191/210/200 195/215/204 196/216/205 192/212/201
f 196/216/205 195/215/204 197/217/206 198/218/207
f 198/218/207 197/217/206 199/219/208 200/220/209
f 200/220/209 199/219/208 62/65/63 201/221/210
f 201/221/210 62/65/63 61/64/62 202/222/211
f 202/222/211 61/64/62 60/223/61 203/224/212
f 203/225/212 60/61/61 204/226/213 205/227/214
f 205/227/214 204/226/213 206/228/215 207/229/216
f 207/229/216 206/228/215 208/230/217 209/231/218
f 209/231/218 208/230/217 210/232/219 211/233/220
f 211/233/220 210/232/219 212/234/221 213/235/222
f 213/235/222 212/234/221 654/236/223 655/237/224
f 215/238/225 214/239/226 216/240/227 217/241/228
f 217/241/228 216/240/227 218/242/229 219/243/230
f 219/243/230 218/242/229 220/244/231 221/245/232
f 221/245/232 220/244/231 222/246/233 223/247/234
f 223/247/234 222/246/233 224/248/235 225/249/236
f 225/249/236 224/248/235 189/207/198 226/250/237
f 226/251/237 189/252/198 188/211/197 193/213/202
f 224/248/235 222/246/233 227/253/238 185/203/194
f 224/248/235 185/203/194 184/202/193 189/207/198
f 227/253/238 222/246/233 220/244/231 228/254/239
f 227/253/238 228/254/239 229/255/240 230/256/241
f 227/253/238 230/256/241 186/204/195 185/203/194
f 230/256/241 229/255/240 231/257/242 232/258/243
f 230/256/241 232/258/243 178/193/187 186/204/195
f 232/258/243 231/257/242 233/259/244 173/188/182
f 232/258/243 173/188/182 172/187/181 178/193/187
f 233/259/244 231/257/242 234/260/245 235/261/246
f 233/259/244 235/261/246 236/262/247 168/183/177
f 233/259/244 168/183/177 167/182/176 173/188/182
f 236/262/247 235/261/246 55/55/55 54/54/54
f 236/262/247 54/54/54 57/57/57 163/178/172
f 236/262/247 163/178/172 162/177/171 168/183/177
f 235/261/246 234/260/245 237/263/248 55/55/55
f 237/263/248 238/264/249 14/265/250 18/266/251
f 237/263/248 18/266/251 51/51/51 55/55/55
f 237/263/248 234/260/245 239/267/252 238/264/249
f 239/267/252 240/268/253 241/269/254 238/264/249
f 239/267/252 234/260/245 231/257/242 229/255/240
f 239/267/252 229/255/240 228/254/239 240/268/253
f 241/269/254 216/240/227 214/239/226 15/270/255
f 241/269/254 15/270/255 14/265/250 238/264/249
f 241/269/254 240/268/253 218/242/229 216/240/227
f 240/268/253 228/254/239 220/244/231 218/242/229
f 214/239/226 654/236/223 653/3/256 15/270/255
f 212/234/221 210/232/219 19/6/6 16/4/5
f 210/232/219 208/230/217 242/271/257 19/6/6
f 242/271/257 208/230/217 206/228/215 243/272/258
f 242/271/257 243/272/258 244/273/259 245/274/260
f 242/271/257 245/274/260 20/7/7 19/6/6
f 245/274/260 244/273/259 659/275/261 658/276/262
f 245/274/260 658/276/262 657/9/9 20/7/7
f 246/277/263 659/275/261 660/278/264 248/279/265
f 246/277/263 248/279/265 249/280/266 250/281/267
f 246/277/263 250/281/267 36/30/30 35/29/29
f 250/281/267 249/280/266 251/282/268 44/40/40
f 250/281/267 44/40/40 37/31/31 36/30/30
f 251/282/268 249/280/266 34/26/26 33/25/25
f 251/282/268 33/25/25 26/13/13 252/283/269
f 251/282/268 252/283/269 5/34/34 44/40/40
f 252/283/269 26/13/13 25/12/12 253/284/270
f 252/283/269 253/284/270 39/35/35 5/34/34
f 253/284/270 25/12/12 254/285/271 255/286/272
f 253/284/270 255/286/272 256/287/273 39/35/35
f 256/287/273 255/286/272 257/288/274 258/289/275
f 256/287/273 258/289/275 649/290/276 648/291/277
f 256/287/273 648/291/277 647/36/36 39/35/35
f 260/292/278 259/293/279 632/294/280 633/295/281
f 260/292/278 633/295/281 634/296/282 40/297/283
f 262/298/284 261/299/285 46/45/45 45/44/44
f 262/298/284 45/44/44 50/49/49 58/58/58
f 261/299/285 632/294/280 635/300/286 264/301/287
f 261/299/285 264/301/287 265/302/288 46/45/45
f 265/302/288 264/301/287 266/303/289 267/304/290
f 265/302/288 267/304/290 268/305/291 269/306/292
f 265/302/288 269/306/292 47/46/46 46/45/45
f 269/306/292 268/305/291 148/163/157 270/307/293
f 269/306/292 270/307/293 48/47/47 47/46/46
f 270/307/293 148/163/157 147/162/156 153/168/162
f 270/307/293 153/168/162 271/308/294 48/47/47
f 271/308/294 56/56/56 49/48/48 48/47/47
f 271/308/294 153/168/162 152/167/161 158/173/167
f 271/308/294 158/173/167 57/57/57 56/56/56
f 268/305/291 267/304/290 272/309/295 143/158/152
f 268/305/291 143/158/152 142/157/151 148/163/157
f 272/309/295 267/304/290 266/303/289 273/310/296
f 272/309/295 273/310/296 274/311/297 139/154/148
f 272/309/295 139/154/148 138/153/147 143/158/152
f 274/311/297 273/310/296 636/312/298 637/313/299
f 274/311/297 637/313/299 638/148/142 135/147/141
f 274/311/297 135/147/141 134/150/144 139/154/148
f 132/314/300 276/315/301 277/316/302 278/317/303
f 278/317/303 279/318/304 127/142/136 129/141/135
f 278/317/303 129/141/135 631/144/138 132/314/300
f 127/319/136 279/320/304 280/321/305 281/322/306
f 281/322/306 282/323/307 121/134/130 124/133/129
f 281/322/306 124/133/129 123/136/132 127/319/136
f 121/134/130 282/323/307 283/324/308 284/325/309
f 284/325/309 285/326/310 115/128/124 118/127/123
f 284/325/309 118/127/123 117/130/126 121/134/130
f 115/128/124 285/326/310 286/327/311 287/328/312
f 287/328/312 288/329/313 108/121/117 112/120/116
f 287/328/312 112/120/116 111/124/120 115/128/124
f 108/121/117 288/329/313 289/330/314 290/331/315
f 290/331/315 291/332/316 292/333/317 104/116/112
f 290/331/315 104/116/112 103/115/111 108/121/117
f 292/333/317 291/332/316 293/334/318 86/96/92
f 292/333/317 86/96/92 85/95/91 100/111/107
f 292/333/317 100/111/107 99/110/106 104/116/112
f 293/334/318 294/335/319 87/97/93 86/96/92
f 294/335/319 295/336/320 88/98/94 87/97/93
f 295/336/320 296/337/321 297/338/322 88/98/94
f 297/338/322 296/337/321 298/339/323 299/340/324
f 297/338/322 299/340/324 300/341/325 301/342/326
f 297/338/322 301/342/326 81/91/87 88/98/94
f 301/342/326 300/341/325 302/343/327 303/344/328
f 301/342/326 303/344/328 82/92/88 81/91/87
f 303/344/328 302/343/327 304/345/329 305/346/330
f 303/344/328 305/346/330 618/347/331 82/92/88
f 618/347/331 305/346/330 306/348/332 307/349/333
f 618/347/331 307/349/333 308/350/334 309/351/335
f 618/347/331 309/351/335 83/93/89 82/92/88
f 309/351/335 308/350/334 77/85/81 76/84/80
f 309/351/335 76/84/80 79/88/84 83/93/89
f 310/352/336 304/345/329 619/353/337 311/354/338
f 310/352/336 306/348/332 305/346/330 304/345/329
f 311/355/338 619/356/337 312/357/339 313/358/340
f 317/359/341 318/360/342 620/361/343 315/362/344
f 317/359/341 319/363/345 320/364/346 318/360/342
f 320/364/346 321/365/347 322/366/348 318/360/342
f 320/367/346 319/368/345 323/369/349 621/370/350
f 320/364/346 621/371/350 324/372/351 321/365/347
f 324/372/351 325/373/352 326/374/353 321/365/347
f 324/375/351 621/370/350 327/376/354 328/377/355
f 324/375/351 328/377/355 329/378/356 325/379/352
f 329/378/356 330/380/357 331/381/358 325/379/352
f 329/378/356 328/377/355 332/382/359 333/383/360
f 329/378/356 333/383/360 334/384/361 330/380/357
f 334/384/361 339/385/362 335/386/363 330/380/357
f 334/384/361 333/383/360 336/387/364 337/388/365
f 334/384/361 337/388/365 338/389/366 339/385/362
f 338/389/366 337/388/365 340/390/367 341/391/368
f 341/391/368 345/392/369 342/393/370 338/389/366
f 341/391/368 343/394/371 344/395/372 345/392/369
f 344/395/372 343/394/371 475/396/373 346/397/374
f 346/397/374 350/398/375 347/399/376 344/395/372
f 346/397/374 348/400/377 349/401/378 350/398/375
f 349/401/378 348/400/377 479/402/379 351/403/380
f 351/403/380 355/404/381 352/405/382 349/401/378
f 351/403/380 353/406/383 354/407/384 355/404/381
f 354/407/384 353/406/383 482/408/385 356/409/386
f 356/409/386 360/410/387 357/411/388 354/407/384
f 356/409/386 358/412/389 359/413/390 360/410/387
f 359/413/390 358/412/389 485/414/391 361/415/392
f 361/415/392 362/416/393 363/417/394 359/413/390
f 361/415/392 364/418/395 365/419/396 362/416/393
f 365/419/396 366/420/397 367/421/398 362/416/393
f 365/419/396 364/418/395 488/422/399 368/423/400
f 365/419/396 368/423/400 369/424/401 366/420/397
f 369/424/401 370/425/402 371/426/403 366/420/397
f 369/427/401 368/428/400 372/429/404 373/430/405
f 369/427/401 373/430/405 374/431/406 370/432/402
f 374/431/406 375/433/407 376/434/408 370/432/402
f 374/431/406 373/430/405 377/435/409 378/436/410
f 374/431/406 378/436/410 379/437/411 375/433/407
f 379/437/411 380/438/412 381/439/413 375/433/407
f 379/437/411 378/436/410 382/440/414 383/441/415
f 379/437/411 383/441/415 384/442/416 380/438/412
f 384/442/416 29/20/20 28/19/19 380/438/412
f 384/442/416 383/441/415 385/443/417 386/444/418
f 384/442/416 386/444/418 387/445/419 29/20/20
f 387/445/419 30/21/21 2/17/17 29/20/20
f 387/445/419 386/444/418 388/446/420 389/447/421
f 387/445/419 389/447/421 390/448/422 30/21/21
f 390/448/422 73/80/76 31/22/22 30/21/21
f 390/448/422 389/447/421 391/449/423 392/450/424
f 390/448/422 392/450/424 74/81/77 73/80/76
f 392/450/424 391/449/423 393/451/425 394/452/426
f 392/450/424 394/452/426 395/453/427 74/81/77
f 395/453/427 396/454/428 70/77/73 74/81/77
f 395/453/427 394/452/426 397/455/429 398/456/430
f 395/453/427 398/456/430 399/457/431 396/454/428
f 399/457/431 400/458/432 401/459/433 396/454/428
f 399/457/431 398/456/430 402/460/434 403/461/435
f 399/457/431 403/461/435 404/462/436 400/458/432
f 404/462/436 63/66/64 405/463/437 400/458/432
f 404/462/436 403/461/435 406/464/438 407/465/439
f 404/462/436 407/465/439 10/63/59 63/66/64
f 407/465/439 406/464/438 68/74/70 67/466/440
f 407/465/439 67/466/440 64/467/65 10/63/59
f 406/464/438 403/461/435 402/460/434 408/468/441
f 406/464/438 408/468/441 69/75/71 68/74/70
f 408/468/441 402/460/434 409/469/442 410/470/443
f 408/468/441 410/470/443 411/471/444 69/75/71
f 411/471/444 410/470/443 412/472/445 413/473/446
f 411/474/444 413/475/446 414/476/447 24/11/11
f 411/471/444 24/477/11 23/72/16 69/75/71
f 414/476/447 413/475/446 415/478/448 416/479/449
f 414/476/447 416/479/449 417/480/450 254/285/271
f 414/476/447 254/285/271 25/12/12 24/11/11
f 417/480/450 416/479/449 418/481/451 419/482/452
f 417/480/450 419/482/452 420/483/453 257/288/274
f 417/480/450 257/288/274 255/286/272 254/285/271
f 420/483/453 419/482/452 421/484/454 422/485/455
f 420/483/453 422/485/455 423/486/456 424/487/457
f 420/483/453 424/487/457 258/289/275 257/288/274
f 424/487/457 423/486/456 651/488/458 650/489/459
f 424/487/457 650/489/459 649/290/276 258/289/275
f 425/490/460 651/488/458 275/491/461
f 425/490/460 275/491/461 636/312/298 639/492/462
f 425/490/460 639/492/462 635/300/286 263/493/463
f 426/494/464 423/486/456 422/485/455 427/495/465
f 426/494/464 427/495/465 428/496/466 277/316/302
f 426/494/464 277/316/302 276/315/301 275/491/461
f 428/496/466 427/495/465 429/497/467 430/498/468
f 428/496/466 430/498/468 280/499/305 279/318/304
f 428/496/466 279/318/304 278/317/303 277/316/302
f 280/321/305 430/500/468 431/501/469 432/502/470
f 432/502/470 433/503/471 283/324/308 282/323/307
f 432/502/470 282/323/307 281/322/306 280/321/305
f 283/324/308 433/503/471 434/504/472 435/505/473
f 435/505/473 436/506/474 286/327/311 285/326/310
f 435/505/473 285/326/310 284/325/309 283/324/308
f 286/327/311 436/506/474 437/507/475 438/508/476
f 438/508/476 439/509/477 289/330/314 288/329/313
f 438/508/476 288/329/313 287/328/312 286/327/311
f 289/330/314 439/509/477 440/510/478 441/511/479
f 441/511/479 442/512/480 293/334/318 291/332/316
f 441/511/479 291/332/316 290/331/315 289/330/314
f 442/512/480 443/513/481 294/335/319 293/334/318
f 443/513/481 444/514/482 295/336/320 294/335/319
f 444/514/482 445/515/483 296/337/321 295/336/320
f 445/515/483 446/516/484 298/339/323 296/337/321
f 298/339/323 446/516/484 447/517/485 448/518/486
f 448/518/486 449/519/487 450/520/488 451/521/489
f 448/518/486 451/521/489 299/340/324 298/339/323
f 451/522/489 450/523/488 452/524/490 453/525/491
f 451/521/489 453/526/491 300/341/325 299/340/324
f 453/525/491 452/524/490 454/527/492 455/528/493
f 453/526/491 455/529/493 302/343/327 300/341/325
f 455/528/493 454/527/492 312/357/339 619/356/337
f 455/529/493 619/353/337 304/345/329 302/343/327
f 454/527/492 452/524/490 456/530/494 457/531/495
f 454/527/492 457/531/495 458/532/496 312/357/339
f 458/532/496 457/531/495 459/533/497 622/534/498
f 458/532/496 622/534/498 460/535/499 314/536/500
f 458/532/496 314/536/500 313/358/340 312/357/339
f 460/535/499 622/534/498 623/537/501 461/538/502
f 463/539/503 327/376/354 621/370/350 323/369/349
f 463/539/503 464/540/504 465/541/505 327/376/354
f 465/541/505 332/382/359 328/377/355 327/376/354
f 465/541/505 464/540/504 466/542/506 624/543/507
f 465/541/505 624/543/507 467/544/508 332/382/359
f 467/544/508 336/387/364 333/383/360 332/382/359
f 467/544/508 624/543/507 625/545/509 468/546/510
f 467/544/508 468/546/510 469/547/511 336/387/364
f 469/547/511 340/390/367 337/388/365 336/387/364
f 469/547/511 468/546/510 470/548/512 471/549/513
f 469/547/511 471/549/513 472/550/514 340/390/367
f 472/550/514 343/394/371 341/391/368 340/390/367
f 472/550/514 471/549/513 473/551/515 474/552/516
f 472/550/514 474/552/516 475/396/373 343/394/371
f 475/396/373 474/552/516 476/553/517 477/554/518
f 477/554/518 348/400/377 346/397/374 475/396/373
f 477/554/518 478/555/519 479/402/379 348/400/377
f 479/402/379 478/555/519 562/556/520 480/557/521
f 480/557/521 353/406/383 351/403/380 479/402/379
f 480/557/521 481/558/522 482/408/385 353/406/383
f 482/408/385 481/558/522 538/559/523 483/560/524
f 483/560/524 358/412/389 356/409/386 482/408/385
f 483/560/524 484/561/525 485/414/391 358/412/389
f 485/414/391 484/561/525 535/562/526 486/563/527
f 486/563/527 364/418/395 361/415/392 485/414/391
f 486/563/527 487/564/528 488/422/399 364/418/395
f 488/565/399 487/566/528 564/567/529 489/568/530
f 489/568/530 372/429/404 368/428/400 488/565/399
f 489/568/530 490/569/531 491/570/532 372/429/404
f 491/570/532 377/435/409 373/430/405 372/429/404
f 491/570/532 490/569/531 567/571/533 492/572/534
f 491/570/532 492/572/534 493/573/535 377/435/409
f 493/573/535 382/440/414 378/436/410 377/435/409
f 493/573/535 492/572/534 494/574/536 495/575/537
f 493/573/535 495/575/537 496/576/538 382/440/414
f 496/576/538 385/443/417 383/441/415 382/440/414
f 496/576/538 495/575/537 497/577/539 498/578/540
f 496/576/538 498/578/540 499/579/541 385/443/417
f 499/579/541 388/446/420 386/444/418 385/443/417
f 499/579/541 498/578/540 500/580/542 501/581/543
f 499/579/541 501/581/543 502/582/544 388/446/420
f 502/582/544 391/449/423 389/447/421 388/446/420
f 502/582/544 501/581/543 503/583/545 504/584/546
f 502/582/544 504/584/546 393/451/425 391/449/423
f 504/584/546 503/583/545 505/585/547 506/586/548
f 504/584/546 506/586/548 507/587/549 393/451/425
f 507/587/549 397/455/429 394/452/426 393/451/425
f 507/587/549 506/586/548 508/588/550 509/589/551
f 507/587/549 509/589/551 409/469/442 397/455/429
f 509/589/551 508/588/550 510/590/552 412/472/445
f 509/589/551 412/472/445 410/470/443 409/469/442
f 510/590/552 508/588/550 511/591/553 512/592/554
f 510/590/552 512/592/554 513/593/555 415/594/448
f 510/590/552 415/594/448 413/473/446 412/472/445
f 513/593/555 512/592/554 514/595/556 515/596/557
f 513/597/555 515/598/557 516/599/558 418/481/451
f 513/597/555 418/481/451 416/479/449 415/478/448
f 516/599/558 515/598/557 517/600/559 518/601/560
f 516/599/558 518/601/560 429/497/467 421/484/454
f 516/599/558 421/484/454 419/482/452 418/481/451
f 518/602/560 517/603/559 519/604/561 431/501/469
f 518/601/560 431/605/469 430/498/468 429/497/467
f 519/604/561 517/603/559 520/606/562 521/607/563
f 519/604/561 521/607/563 434/504/472 433/503/471
f 519/604/561 433/503/471 432/502/470 431/501/469
f 434/504/472 521/607/563 522/608/564 523/609/565
f 523/609/565 524/610/566 437/507/475 436/506/474
f 523/609/565 436/506/474 435/505/473 434/504/472
f 437/507/475 524/610/566 525/611/567 526/612/568
f 526/612/568 527/613/569 440/510/478 439/509/477
f 526/612/568 439/509/477 438/508/476 437/507/475
f 440/510/478 527/613/569 528/614/570 529/615/571
f 529/615/571 530/616/572 443/513/481 442/512/480
f 529/615/571 442/512/480 441/511/479 440/510/478
f 530/616/572 531/617/573 444/514/482 443/513/481
f 531/617/573 532/618/574 445/515/483 444/514/482
f 532/618/574 533/619/575 446/516/484 445/515/483
f 533/619/575 534/620/576 447/517/485 446/516/484
f 447/621/485 534/622/576 535/562/526 536/623/577
f 536/623/577 537/624/578 540/625/579 449/626/487
f 536/623/577 449/626/487 448/627/486 447/621/485
f 540/625/579 537/624/578 538/559/523 539/628/580
f 540/625/579 539/628/580 541/629/581 542/630/582
f 540/625/579 542/630/582 450/523/488 449/626/487
f 542/630/582 541/629/581 543/631/583 456/530/494
f 542/630/582 456/530/494 452/524/490 450/523/488
f 543/631/583 541/629/581 544/632/584 545/633/585
f 543/631/583 545/633/585 546/634/586 459/533/497
f 543/631/583 459/533/497 457/531/495 456/530/494
f 546/634/586 545/633/585 547/635/587 548/636/588
f 546/634/586 548/636/588 626/637/589 623/537/501
f 546/634/586 623/537/501 622/534/498 459/533/497
f 626/637/589 548/636/588 549/638/590 627/639/591
f 626/637/589 627/639/591 550/640/592 462/641/593
f 626/637/589 462/641/593 461/538/502 623/537/501
f 550/640/592 627/639/591 628/642/594 551/643/595
f 310/352/336 311/354/338 78/86/82
f 553/644/596 625/545/509 624/543/507 466/542/506
f 553/644/596 554/645/597 629/646/598 625/545/509
f 629/646/598 470/548/512 468/546/510 625/545/509
f 629/646/598 554/645/597 552/647/599 555/648/600
f 629/646/598 555/648/600 556/649/601 470/548/512
f 556/649/601 473/551/515 471/549/513 470/548/512
f 556/649/601 555/648/600 628/642/594 557/650/602
f 556/649/601 557/650/602 558/651/603 473/551/515
f 558/651/603 476/553/517 474/552/516 473/551/515
f 558/651/603 557/650/602 549/638/590 559/652/604
f 558/651/603 559/652/604 560/653/605 476/553/517
f 560/653/605 478/555/519 477/554/518 476/553/517
f 560/653/605 559/652/604 547/635/587 561/654/606
f 560/653/605 561/654/606 562/556/520 478/555/519
f 562/556/520 561/654/606 544/632/584 563/655/607
f 563/655/607 481/558/522 480/557/521 562/556/520
f 563/655/607 539/628/580 538/559/523 481/558/522
f 563/655/607 544/632/584 541/629/581 539/628/580
f 561/654/606 547/635/587 545/633/585 544/632/584
f 559/652/604 549/638/590 548/636/588 547/635/587
f 557/650/602 628/642/594 627/639/591 549/638/590
f 555/648/600 552/647/599 551/643/595 628/642/594
f 306/348/332 310/352/336 78/86/82
f 537/624/578 484/561/525 483/560/524 538/559/523
f 537/624/578 536/623/577 535/562/526 484/561/525
f 534/622/576 487/564/528 486/563/527 535/562/526
f 534/620/576 533/619/575 564/567/529 487/566/528
f 564/567/529 533/619/575 532/618/574 565/656/608
f 565/656/608 490/569/531 489/568/530 564/567/529
f 565/656/608 566/657/609 567/571/533 490/569/531
f 567/571/533 566/657/609 568/658/610 569/659/611
f 569/659/611 494/574/536 492/572/534 567/571/533
f 569/659/611 570/660/612 571/661/613 494/574/536
f 571/661/613 497/577/539 495/575/537 494/574/536
f 571/661/613 570/660/612 572/662/614 573/663/615
f 571/661/613 573/663/615 574/664/616 497/577/539
f 574/664/616 500/580/542 498/578/540 497/577/539
f 574/664/616 573/663/615 575/665/617 576/666/618
f 574/664/616 576/666/618 577/667/619 500/580/542
f 577/667/619 503/583/545 501/581/543 500/580/542
f 577/667/619 576/666/618 578/668/620 579/669/621
f 577/667/619 579/669/621 505/585/547 503/583/545
f 579/669/621 578/668/620 580/670/622 581/671/623
f 579/669/621 581/671/623 511/591/553 505/585/547
f 581/671/623 580/670/622 520/606/562 514/595/556
f 581/671/623 514/595/556 512/592/554 511/591/553
f 580/670/622 578/668/620 582/672/624 522/608/564
f 580/670/622 522/608/564 521/607/563 520/606/562
f 582/672/624 578/668/620 576/666/618 575/665/617
f 582/672/624 575/665/617 525/611/567 524/610/566
f 582/672/624 524/610/566 523/609/565 522/608/564
f 525/611/567 575/665/617 573/663/615 572/662/614
f 572/662/614 570/660/612 528/614/570 527/613/569
f 572/662/614 527/613/569 526/612/568 525/611/567
f 528/614/570 570/660/612 569/659/611 568/658/610
f 568/658/610 566/657/609 531/617/573 530/616/572
f 568/658/610 530/616/572 529/615/571 528/614/570
f 566/657/609 565/656/608 532/618/574 531/617/573
f 520/606/562 517/603/559 515/596/557 514/595/556
f 511/591/553 508/588/550 506/586/548 505/585/547
f 429/497/467 427/495/465 422/485/455 421/484/454
f 409/469/442 402/460/434 398/456/430 397/455/429
f 405/463/437 199/219/208 197/217/206 583/673/625
f 405/463/437 583/673/625 401/459/433 400/458/432
f 405/463/437 63/66/64 62/65/63 199/219/208
f 583/673/625 197/217/206 195/215/204 194/214/203
f 583/673/625 194/214/203 71/78/74 401/459/433
f 401/459/433 71/78/74 70/77/73 396/454/428
f 381/439/413 584/674/626 585/675/627 586/676/628
f 381/439/413 586/676/628 376/434/408 375/433/407
f 381/439/413 380/438/412 28/19/19 584/674/626
f 586/677/628 585/678/627 174/189/183 587/679/629
f 586/677/628 587/679/629 588/680/630 376/681/408
f 588/680/630 587/679/629 169/184/178 589/682/631
f 588/680/630 589/682/631 590/683/632 371/426/403
f 588/680/630 371/426/403 370/425/402 376/681/408
f 590/683/632 589/682/631 164/179/173 591/684/633
f 590/683/632 591/684/633 592/685/634 367/421/398
f 590/683/632 367/421/398 366/420/397 371/426/403
f 592/685/634 591/684/633 159/174/168 593/686/635
f 592/685/634 593/686/635 594/687/636 363/417/394
f 592/685/634 363/417/394 362/416/393 367/421/398
f 594/687/636 593/686/635 154/169/163 595/688/637
f 594/687/636 595/688/637 357/411/388 360/410/387
f 594/687/636 360/410/387 359/413/390 363/417/394
f 357/411/388 595/688/637 149/164/158 596/689/638
f 596/689/638 144/159/153 352/405/382 355/404/381
f 596/689/638 355/404/381 354/407/384 357/411/388
f 352/405/382 144/159/153 140/155/149 597/690/639
f 597/690/639 136/151/145 347/399/376 350/398/375
f 597/690/639 350/398/375 349/401/378 352/405/382
f 347/399/376 136/151/145 133/149/143 598/691/640
f 598/691/640 130/145/139 342/393/370 345/392/369
f 598/691/640 345/392/369 344/395/372 347/399/376
f 342/393/370 130/145/139 128/143/137 599/692/641
f 599/692/641 125/139/133 335/386/363 339/385/362
f 599/692/641 339/385/362 338/389/366 342/393/370
f 335/386/363 125/139/133 122/138/131 600/693/642
f 600/694/642 119/131/127 601/695/643 331/696/358
f 600/693/642 331/381/358 330/380/357 335/386/363
f 601/695/643 119/131/127 116/129/125 602/697/644
f 601/695/643 602/697/644 603/698/645 326/374/353
f 601/695/643 326/374/353 325/373/352 331/696/358
f 603/698/645 602/697/644 113/125/121 604/699/646
f 603/698/645 604/699/646 605/700/647 322/366/348
f 603/698/645 322/366/348 321/365/347 326/374/353
f 605/700/647 604/699/646 109/122/118 606/701/648
f 605/700/647 606/701/648 607/702/649 620/361/343
f 605/700/647 620/361/343 318/360/342 322/366/348
f 607/702/649 606/701/648 105/117/113 608/703/650
f 607/702/649 608/703/650 609/704/651 316/705/652
f 607/702/649 316/705/652 315/362/344 620/361/343
f 609/704/651 608/703/650 617/112/108 610/706/653
f 610/706/653 617/112/108 97/108/104 96/107/103
f 608/703/650 105/117/113 101/113/109 617/112/108
f 606/701/648 109/122/118 106/118/114 105/117/113
f 604/699/646 113/125/121 110/123/119 109/122/118
f 602/697/644 116/129/125 114/126/122 113/125/121
f 600/694/642 122/135/131 120/132/128 119/131/127
f 599/692/641 128/143/137 126/140/134 125/139/133
f 598/691/640 133/149/143 131/146/140 130/145/139
f 597/690/639 140/155/149 137/152/146 136/151/145
f 596/689/638 149/164/158 145/160/154 144/159/153
f 595/688/637 154/169/163 150/165/159 149/164/158
f 593/686/635 159/174/168 155/170/164 154/169/163
f 591/684/633 164/179/173 160/175/169 159/174/168
f 589/682/631 169/184/178 165/180/174 164/179/173
f 587/679/629 174/189/183 170/185/179 169/184/178
f 585/678/627 179/194/188 175/190/184 174/189/183
f 585/675/627 584/674/626 611/707/654 179/708/188
f 611/707/654 75/82/78 180/200/189 179/708/188
f 611/707/654 584/674/626 28/19/19 27/18/18
f 611/707/654 27/18/18 31/22/22 75/82/78
f 249/280/266 248/279/265 612/709/655 34/26/26
f 612/709/655 661/710/656 662/711/657 613/712/658
f 612/709/655 613/712/658 32/24/24 34/26/26
f 612/709/655 248/279/265 660/278/264 661/710/656
f 613/712/658 662/711/657 663/713/68 66/714/67
f 613/712/658 66/714/67 22/15/15 32/24/24
f 247/715/659 614/716/660 59/60/60 65/68/66
f 247/715/659 244/273/259 243/272/258 614/716/660
f 614/716/660 204/226/213 60/61/61 59/60/60
f 614/716/660 243/272/258 206/228/215 204/226/213
f 194/214/203 190/209/199 72/79/75 71/78/74
f 163/178/172 57/57/57 158/173/167 157/172/166
f 100/111/107 85/95/91 89/99/95 95/106/102
f 92/102/98 84/94/90 79/88/84 615/87/83
f 92/102/98 615/87/83 80/89/85 90/103/99
f 92/102/98 616/101/97 89/99/95 84/94/90
f 58/58/58 53/53/53 640/717/661 634/296/282
f 53/53/53 52/52/52 641/718/662 640/717/661
f 52/52/52 17/5/3 630/8/8 641/718/662
f 52/52/52 51/51/51 18/266/251 17/5/3
f 307/349/333 306/348/332 78/86/82
f 308/350/334 307/349/333 78/86/82
f 78/86/82 77/85/81 308/350/334
f 464/540/504 78/86/82 313/358/340
f 1/1/2 656/10/10 21/719/663 630/8/8
f 638/148/142 132/314/300 631/144/138
f 632/294/280 261/299/285 262/298/284 633/295/281
f 633/295/281 262/298/284 58/58/58 634/296/282
f 632/294/280 259/293/279 263/493/463 635/300/286
f 636/312/298 275/491/461 276/315/301 637/313/299
f 637/313/299 276/315/301 132/314/300 638/148/142
f 636/312/298 273/310/296 266/303/289 639/492/462
f 639/492/462 266/303/289 264/301/287 635/300/286
f 640/717/661 41/720/664 40/297/283 634/296/282
f 641/718/662 42/721/665 41/720/664 640/717/661
f 630/8/8 21/719/663 42/721/665 641/718/662
f 647/36/36 40/297/283 41/720/664 646/37/37
f 646/37/37 41/720/664 42/721/665 645/38/38
f 645/38/38 42/721/665 21/719/663 644/42/42
f 644/42/42 21/719/663 656/10/10 643/33/33
f 649/290/276 259/293/279 260/292/278 648/291/277
f 648/291/277 260/292/278 40/297/283 647/36/36
f 651/488/458 425/490/460 263/493/463 650/489/459
f 650/489/459 263/493/463 259/293/279 649/290/276
f 651/488/458 423/486/456 426/494/464 275/491/461
f 652/2/4 14/265/250 15/270/255 653/3/256
f 654/236/223 214/239/226 215/238/225 655/237/224
f 654/236/223 212/234/221 16/4/5 653/3/256
f 17/5/3 18/266/251 14/265/250 652/2/4
f 657/9/9 642/28/28 643/33/33 656/10/10
f 663/70/68 67/466/440 68/74/70 664/71/69
f 659/275/261 246/277/263 35/29/29 658/276/262
f 658/276/262 35/29/29 642/28/28 657/9/9
f 659/275/261 244/273/259 247/715/659 660/278/264
f 661/710/656 65/68/66 64/67/65 662/711/657
f 660/278/264 247/715/659 65/68/66 661/710/656
f 662/722/657 64/467/65 67/466/440 663/70/68
f 193/723/202 192/724/201 665/725/666
f 192/724/201 196/726/205 665/725/666
f 196/726/205 198/727/207 665/725/666
f 198/727/207 200/728/209 665/725/666
f 200/728/209 201/729/210 665/725/666
f 201/729/210 202/730/211 665/725/666
f 202/730/211 203/731/212 665/725/666
f 203/731/212 205/732/214 665/725/666
f 205/732/214 207/733/216 665/725/666
f 207/733/216 209/734/218 665/725/666
f 209/734/218 211/735/220 665/725/666
f 211/735/220 213/736/222 665/725/666
f 213/736/222 655/737/224 665/725/666
f 215/738/225 217/739/228 665/725/666
f 217/739/228 219/740/230 665/725/666
f 219/740/230 221/741/232 665/725/666
f 221/741/232 223/742/234 665/725/666
f 223/742/234 225/743/236 665/725/666
f 225/743/236 226/744/237 665/725/666
f 226/744/237 193/723/202 665/725/666
f 655/737/224 215/738/225 665/725/666
f 80/89/85 317/359/341 610/706/653
f 323/369/349 317/359/341 80/89/85
f 93/104/100 91/100/96 90/103/99
f 80/89/85 96/107/103 90/103/99
f 96/107/103 93/104/100 90/103/99
f 610/706/653 96/107/103 80/89/85
f 610/706/653 315/362/344 609/704/651
f 315/362/344 316/705/652 609/704/651
f 317/359/341 315/362/344 610/706/653
f 323/369/349 319/368/345 317/359/341
f 463/539/503 323/369/349 80/89/85
f 464/540/504 463/539/503 80/89/85
f 466/542/506 464/540/504 314/536/500
f 553/644/596 466/542/506 314/536/500
f 552/647/599 554/645/597 461/538/502
f 550/640/592 551/643/595 552/647/599
f 462/641/593 550/640/592 552/647/599
f 461/538/502 462/641/593 552/647/599
f 314/536/500 554/645/597 553/644/596
f 460/535/499 461/538/502 554/645/597
f 314/536/500 460/535/499 554/645/597
f 78/86/82 464/540/504 80/89/85
f 313/358/340 314/536/500 464/540/504
f 311/354/338 313/358/340 78/86/82
